<svg xmlns="http://www.w3.org/2000/svg" xmlns:xlink="http://www.w3.org/1999/xlink" viewBox="0 0 60 42.5" version="1.1" x="0px" y="0px"><title>75 -HDMI Port- (Solid)</title><desc>Created with Sketch.</desc><g stroke="none" stroke-width="1" fill="none" fill-rule="evenodd"><g transform="translate(-599.000000, -1203.000000)" fill="#000000"><g transform="translate(599.000000, 1203.000000)"><path d="M11,14.0036 C11,13.4506 11.448,13.0036 12,13.0036 L48,13.0036 C48.553,13.0036 49,13.4506 49,14.0036 L49,18.0036 C49,18.5566 48.553,19.0036 48,19.0036 L12,19.0036 C11.448,19.0036 11,18.5566 11,18.0036 L11,14.0036 Z M9,20.5896 L12.414,24.0036 L47.586,24.0036 L51,20.5896 L51,10.0036 L9,10.0036 L9,20.5896 Z"/><polygon points="13 17.004 47 17.004 47 15.004 13 15.004"/><path d="M53,21.0036 C53,21.2696 52.895,21.5236 52.707,21.7106 L48.707,25.7106 C48.52,25.8986 48.266,26.0036 48,26.0036 L12,26.0036 C11.735,26.0036 11.48,25.8986 11.293,25.7106 L7.293,21.7106 C7.105,21.5236 7,21.2696 7,21.0036 L7,9.0036 C7,8.4506 7.448,8.0036 8,8.0036 L52,8.0036 C52.553,8.0036 53,8.4506 53,9.0036 L53,21.0036 Z M57,0.0036 L3,0.0036 C1.346,0.0036 0,1.3496 0,3.0036 L0,31.0036 C0,32.6576 1.346,34.0036 3,34.0036 L57,34.0036 C58.654,34.0036 60,32.6576 60,31.0036 L60,3.0036 C60,1.3496 58.654,0.0036 57,0.0036 L57,0.0036 Z"/></g></g></g><text x="0" y="49" fill="#000000" font-size="5px" font-weight="bold" font-family="'Helvetica Neue', Helvetica, Arial-Unicode, Arial, Sans-serif">Created by Ben Davis</text><text x="0" y="54" fill="#000000" font-size="5px" font-weight="bold" font-family="'Helvetica Neue', Helvetica, Arial-Unicode, Arial, Sans-serif">from the Noun Project</text></svg>