<?xml version="1.0" encoding="UTF-8" standalone="no"?>
<!-- Created with Inkscape (http://www.inkscape.org/) -->

<svg
   width="125.95284mm"
   height="72.344116mm"
   viewBox="0 0 125.95284 72.344119"
   version="1.1"
   id="svg1"
   inkscape:version="1.4 (e7c3feb100, 2024-10-09)"
   sodipodi:docname="v4-right-view-numbered.svg"
   xmlns:inkscape="http://www.inkscape.org/namespaces/inkscape"
   xmlns:sodipodi="http://sodipodi.sourceforge.net/DTD/sodipodi-0.dtd"
   xmlns="http://www.w3.org/2000/svg"
   xmlns:svg="http://www.w3.org/2000/svg">
  <sodipodi:namedview
     id="namedview1"
     pagecolor="#ffffff"
     bordercolor="#000000"
     borderopacity="0.25"
     inkscape:showpageshadow="2"
     inkscape:pageopacity="0.0"
     inkscape:pagecheckerboard="0"
     inkscape:deskcolor="#d1d1d1"
     inkscape:document-units="mm"
     inkscape:zoom="2.0078515"
     inkscape:cx="238.06541"
     inkscape:cy="136.7133"
     inkscape:window-width="1280"
     inkscape:window-height="681"
     inkscape:window-x="0"
     inkscape:window-y="0"
     inkscape:window-maximized="1"
     inkscape:current-layer="layer1"
     showguides="false">
    <inkscape:page
       x="0"
       y="0"
       width="125.95284"
       height="72.344124"
       id="page4"
       inkscape:label="v4-right-view-numbered"
       margin="0"
       bleed="0"
       inkscape:export-filename="v4-right-view-numbered.svg"
       inkscape:export-xdpi="96"
       inkscape:export-ydpi="96" />
    <sodipodi:guide
       position="-182.93635,31.443379"
       orientation="0,-1"
       id="guide13"
       inkscape:locked="false" />
    <sodipodi:guide
       position="-204.07737,74.499722"
       orientation="0,-1"
       id="guide16"
       inkscape:locked="false" />
    <sodipodi:guide
       position="-168.17586,63.313161"
       orientation="0,-1"
       id="guide17"
       inkscape:locked="false" />
    <sodipodi:guide
       position="-108.96201,16.362134"
       orientation="0,-1"
       id="guide18"
       inkscape:locked="false" />
    <sodipodi:guide
       position="-86.973393,36.941045"
       orientation="0,-1"
       id="guide26"
       inkscape:locked="false" />
  </sodipodi:namedview>
  <defs
     id="defs1" />
  <g
     inkscape:label="Layer 1"
     inkscape:groupmode="layer"
     id="layer1"
     transform="translate(-315.28131,-14.816667)">
    <path
       id="path12-8"
       d="m 376.75408,29.53986 v 0 m 4.19806,0 v 0 m 57.18527,25.22361 h 0.3175 m 0,-8.501944 h -0.21167 m 0.21167,8.501944 0.21167,-1.058333 0.14111,-1.058334 0.10583,-1.058333 0.0353,-1.093611 -0.0353,-1.058333 -0.10583,-1.058334 -0.14111,-1.058333 -0.21167,-1.058333 m -5.11528,25.682216 h 0.0353 l 0.0353,-0.0353 0.0353,-0.0353 m -88.12389,0.0706 h 0.0706 l 0.0353,-0.0353 v -0.0353 m -4.48027,0 v 0 l 0.0353,0.0353 0.0353,0.0353 h 0.0353 m 76.27055,0 h 0.0353 l 0.0706,-0.0353 v -0.0353 m -4.48028,0 v 0 l 0.0353,0.0353 0.0353,0.0353 h 0.0353 m 3.84528,0 v 1.41112 m 8.00805,-1.48167 v 1.48167 m 7.97278,0 v -1.48167 m -108.97305,0 v 1.48167 m 7.97278,0 v -1.48167 m 71.26111,-15.945556 -0.0706,0.282223 -0.10583,0.705555 m 0.81139,0 0.0705,-0.388055 0.10584,-0.599723 m 0.0706,0 -0.0353,0.03528 -0.14111,0.9525 m 0.81139,0 v 0 l 0.17639,-0.987778 m 0.0353,0 -0.0706,0.458612 -0.0705,0.529166 m 0.81139,0 0.0353,-0.246944 0.10584,-0.740834 m -87.98278,10.653884 h 0.21167 m 0,-4.268606 h -0.21167 m 114.3,1.058333 -0.0706,-0.493889 -0.14111,-0.458611 -0.24694,-0.458611 -0.3175,-0.352778 -0.38806,-0.282222 -0.45861,-0.211666 -0.49389,-0.105834 h -0.49389 l -0.45861,0.105834 -0.45861,0.211666 -0.38806,0.282222 -0.35277,0.352778 -0.24695,0.458611 -0.14111,0.458611 -0.0353,0.493889 0.0353,0.493893 0.14111,0.45861 0.24695,0.42333 0.35277,0.35278 0.38806,0.28222 0.45861,0.21167 0.45861,0.10583 h 0.49389 l 0.49389,-0.10583 0.45861,-0.21167 0.38806,-0.28222 0.3175,-0.35278 0.24694,-0.42333 0.14111,-0.45861 0.0706,-0.493893 m -68.75639,-9.807222 -0.24694,0.282223 -0.28222,0.176389 -0.35278,0.105833 -0.35278,-0.03528 -0.35278,-0.105833 -0.28222,-0.211667 -0.21167,-0.246944 -0.14111,-0.352778 -0.0705,-0.352778 0.0705,-0.352778 0.17639,-0.3175 m 5.22111,-3.210277 -3.175,4.621388 m 1.09361,-6.032499 0.24695,-0.246945 0.3175,-0.176389 0.3175,-0.105833 h 0.38805 l 0.3175,0.141111 0.28222,0.176389 0.24695,0.282222 0.14111,0.3175 0.0353,0.352778 -0.0706,0.352778 -0.14111,0.3175 m -5.22111,3.210277 3.13972,-4.621388 m 8.92528,6.032499 -0.24694,0.282223 -0.3175,0.176389 -0.35278,0.105833 -0.35278,-0.03528 -0.3175,-0.105833 -0.3175,-0.211667 -0.21167,-0.246944 -0.14111,-0.352778 -0.0353,-0.352778 0.0706,-0.352778 0.14111,-0.3175 m 5.22111,-3.210277 -3.13972,4.621388 m 1.09361,-6.032499 0.24695,-0.246945 0.28222,-0.176389 0.35278,-0.105833 h 0.35277 l 0.35278,0.141111 0.28222,0.176389 0.21167,0.282222 0.14111,0.3175 0.0353,0.352778 -0.0353,0.352778 -0.17639,0.3175 m -5.22111,3.210277 3.175,-4.621388 m 8.89,6.032499 -0.24694,0.282223 -0.28223,0.176389 -0.35277,0.105833 -0.35278,-0.03528 -0.35278,-0.105833 -0.28222,-0.211667 -0.24695,-0.246944 -0.10583,-0.352778 -0.0706,-0.352778 0.0706,-0.352778 0.17639,-0.3175 m 5.22111,-3.210277 -3.175,4.621388 m 1.09361,-6.032499 0.24695,-0.246945 0.3175,-0.176389 0.3175,-0.105833 h 0.35277 l 0.35278,0.141111 0.28222,0.176389 0.24695,0.282222 0.14111,0.3175 0.0353,0.352778 -0.0706,0.352778 -0.14111,0.3175 m -5.22111,3.210277 3.13972,-4.621388 m 8.92528,6.032499 -0.24695,0.282223 -0.3175,0.176389 -0.35277,0.105833 -0.35278,-0.03528 -0.3175,-0.105833 -0.3175,-0.211667 -0.21167,-0.246944 -0.14111,-0.352778 -0.0353,-0.352778 0.0706,-0.352778 0.14111,-0.3175 m 5.22111,-3.210277 -3.13972,4.621388 m 1.09361,-6.032499 0.21167,-0.246945 0.3175,-0.176389 0.35277,-0.105833 h 0.35278 l 0.35278,0.141111 0.28222,0.176389 0.21167,0.282222 0.14111,0.3175 0.0353,0.352778 -0.0353,0.352778 -0.17639,0.3175 m -5.22111,3.210277 3.175,-4.621388 m -65.61666,-8.149166 -0.0353,-0.458612 -0.17639,-0.493888 -0.24694,-0.423334 -0.3175,-0.352778 -0.38806,-0.282222 -0.45861,-0.211666 -0.49389,-0.105834 h -0.45861 l -0.49389,0.105834 -0.45861,0.211666 -0.38806,0.282222 -0.3175,0.352778 -0.24694,0.423334 -0.17639,0.493888 -0.0353,0.458612 0.0353,0.493888 0.17639,0.493889 0.24694,0.423334 0.3175,0.352777 0.38806,0.282223 0.45861,0.211666 0.49389,0.105833 h 0.45861 l 0.49389,-0.105833 0.45861,-0.211666 0.38806,-0.282223 0.3175,-0.352777 0.24694,-0.423334 0.17639,-0.493889 0.0353,-0.493888 m 78.95166,25.435278 v 0.17639 l -0.0706,0.17639 -0.0705,0.17638 -0.14111,0.14112 -0.14111,0.10583 -0.14111,0.10583 -0.21167,0.0353 -0.17639,0.0353 m 0.9525,-8.889998 v 7.937498 m -0.9525,-8.889998 h 0.17639 l 0.21167,0.07056 0.14111,0.07056 0.14111,0.141111 0.14111,0.141111 0.0705,0.141111 0.0706,0.176389 v 0.211666 m -6.59694,-0.9525 h 5.64444 m -6.59694,0.9525 0.0353,-0.211666 0.0353,-0.176389 0.10583,-0.141111 0.10584,-0.141111 0.14111,-0.141111 0.17639,-0.07056 0.17639,-0.07056 h 0.17639 m -0.9525,8.889998 v -7.937498 m 0.9525,8.889998 -0.17639,-0.0353 -0.17639,-0.0353 -0.17639,-0.10583 -0.14111,-0.10583 -0.10584,-0.14112 -0.10583,-0.17638 -0.0353,-0.17639 -0.0353,-0.17639 m 6.59694,0.9525 h -5.64444 m -83.185,-34.113611 h 120.22666 m 0,40.216661 V 31.656527 m -118.2511,40.216665 h 118.2511 m -120.22666,-2.01083 0.0353,0.38805 0.10583,0.38806 0.17639,0.3175 0.24694,0.3175 0.3175,0.24694 0.35278,0.17639 0.35278,0.14111 0.38806,0.0353 m -1.97556,-2.01083 V 31.656527 m 95.99083,25.117776 h 2.01083 m -2.50472,0.493889 v -0.105833 l 0.0353,-0.105834 0.0353,-0.07055 0.0706,-0.07056 0.0706,-0.07055 0.0706,-0.03528 0.10583,-0.03528 h 0.10584 m -0.49389,6.491111 v -5.997222 m 0.49389,6.491108 h -0.10584 l -0.10583,-0.0353 -0.0706,-0.0353 -0.0706,-0.0706 -0.0706,-0.07056 -0.0353,-0.105833 -0.0353,-0.07056 v -0.105833 m 2.50472,0.493896 h -2.01083 m 2.50472,-0.493896 -0.0353,0.105833 v 0.07056 l -0.0706,0.105833 -0.0353,0.07056 -0.10583,0.0706 -0.0706,0.0353 -0.10583,0.0353 h -0.0706 m 0.49389,-6.491108 v 5.997222 m -0.49389,-6.491111 h 0.0706 l 0.10583,0.03528 0.0706,0.03528 0.10583,0.07055 0.0353,0.07056 0.0706,0.07055 v 0.105834 l 0.0353,0.105833 m -28.15167,-3.704167 -0.24694,0.282223 -0.3175,0.176389 -0.3175,0.105833 -0.38805,-0.03528 -0.3175,-0.105833 -0.28223,-0.211667 -0.24694,-0.246944 -0.14111,-0.352778 -0.0353,-0.352778 0.0706,-0.352778 0.14111,-0.3175 m 5.22111,-3.210277 -3.13973,4.621388 m 1.09362,-6.032499 0.24694,-0.246945 0.28222,-0.176389 0.35278,-0.105833 h 0.35278 l 0.35278,0.141111 0.28222,0.176389 0.21166,0.282222 0.14112,0.3175 0.0706,0.352778 -0.0706,0.352778 -0.17639,0.3175 m -5.22111,3.210277 3.175,-4.621388 m -11.1125,6.032499 -0.24695,0.282223 -0.28222,0.176389 -0.35278,0.105833 -0.35278,-0.03528 -0.35277,-0.105833 -0.28223,-0.211667 -0.21166,-0.246944 -0.14111,-0.352778 -0.0353,-0.352778 0.0353,-0.352778 0.17639,-0.3175 m 5.22111,-3.210277 -3.175,4.621388 m 1.09361,-6.032499 0.24694,-0.246945 0.3175,-0.176389 0.35278,-0.105833 h 0.35278 l 0.3175,0.141111 0.3175,0.176389 0.21166,0.282222 0.14112,0.3175 0.0353,0.352778 -0.0706,0.352778 -0.14111,0.3175 m -5.22111,3.210277 3.13972,-4.621388 m -11.07722,6.032499 -0.24695,0.282223 -0.3175,0.176389 -0.3175,0.105833 -0.35278,-0.03528 -0.35277,-0.105833 -0.28223,-0.211667 -0.24694,-0.246944 -0.14111,-0.352778 -0.0353,-0.352778 0.0706,-0.352778 0.14111,-0.3175 m 5.22111,-3.210277 -3.13972,4.621388 m 1.09361,-6.032499 0.24694,-0.246945 0.28222,-0.176389 0.35278,-0.105833 h 0.35278 l 0.35278,0.141111 0.28222,0.176389 0.24694,0.282222 0.10584,0.3175 0.0706,0.352778 -0.0706,0.352778 -0.17639,0.3175 m -5.22111,3.210277 3.175,-4.621388 m -51.435,-17.885833 h 118.2511 m 0,0 v 0 m 1.97556,2.010834 -0.0353,-0.388056 -0.10583,-0.388056 -0.21167,-0.317499 -0.24694,-0.3175 -0.28222,-0.246945 -0.35278,-0.176389 -0.35278,-0.141111 -0.38806,-0.03528 M 317.9111,31.656519 V 31.268463 30.880407 30.52763 30.245408 29.998463 29.786796 29.680963 29.645683 M 438.13741,71.873192 V 31.656527 m 0,40.216665 v 0 m 0,-40.216665 -0.0353,-0.388056 -0.10583,-0.388056 -0.17639,-0.317499 -0.24694,-0.3175 -0.3175,-0.246945 -0.3175,-0.176389 -0.38806,-0.141111 -0.38806,-0.03528 m 0,0 v 0 m -28.78666,26.49361 -0.17639,0.211667 m 0,4.409722 0.49389,-0.740834 m 11.78278,0.246945 v -0.07056 l -0.0706,-0.07055 -0.0705,-0.07056 h -0.10584 -0.0706 l -0.0706,0.07056 -0.0706,0.07055 v 0.07056 m 0.21166,-1.023056 v 0.529167 m 0,0 h 1.12889 m -1.97555,0 v 2.469444 m 0.42333,-2.469444 h -0.42333 m 0.42333,-0.529167 v 0.529167 m 1.97555,-0.529167 -0.0353,-0.3175 -0.17639,-0.3175 -0.28222,-0.211666 -0.3175,-0.105834 h -0.35278 l -0.3175,0.105834 -0.28222,0.211666 -0.17639,0.3175 -0.0353,0.3175 m 1.97555,0.529167 v -0.529167 m 0.42334,0.529167 h -0.42334 m 0.42334,2.469444 v -2.469444 m -2.82222,2.469444 h 2.82222 m -0.84667,-2.998611 -0.0705,-0.211666 -0.10584,-0.176389 -0.17639,-0.105833 -0.21166,-0.03528 -0.21167,0.03528 -0.17639,0.105833 -0.10583,0.176389 -0.0706,0.211666 m 1.12889,0.529167 v -0.529167 m 0,0.881945 -0.70555,0.881944 m 1.09361,-0.564444 0.0353,-0.105834 v -0.07055 l -0.0353,-0.105833 -0.0353,-0.07056 -0.10583,-0.03528 h -0.0706 l -0.10583,0.03528 -0.0706,0.03528 m -0.10583,0.881944 0.49389,-0.564444 m 0,1.128889 -0.49389,-0.564445 m 0.10583,0.881945 0.0706,0.07055 h 0.10583 0.0706 l 0.10583,-0.03528 0.0353,-0.07055 0.0353,-0.105834 v -0.07055 l -0.0353,-0.105833 m -1.09361,-0.564445 0.70555,0.881945 m -0.88194,-0.141112 v -1.481666 m -0.45861,1.481666 v 0.07056 l 0.0706,0.07056 0.0706,0.07055 h 0.0706 0.10584 l 0.0705,-0.07055 0.0706,-0.07056 v -0.07056 m -0.45861,-1.481666 v 1.481662 m 19.22644,-18.203332 h -0.10583 m 0.10583,1.27 v -0.493889 -0.458611 -0.246944 -0.07056 m 0,0.03528 h -0.10583 m 0.10583,23.565549 h -0.10583 m 0.10583,2.57528 h -0.10583 m 0.10583,0 v -2.57527 m 0,-0.0353 h -0.10583 m 0.10583,2.64583 h -0.10583 m 0.10583,-23.45972 h -0.10583 m 0.10583,1.128888 v -0.07055 -0.3175 -0.352778 -0.388055 m 0,1.128888 h -0.10583 m 0.10583,-1.128888 V 44.81512 m 0,0 h -0.10583 m 0.10583,0 h -0.10583 m 0.10583,1.516944 h -0.10583 m 0.10583,1.058334 h -0.10583 m -54.61,-17.850555 v 0.105833 m 1.34056,-0.105833 v 0.105833 m 0,-0.105833 h -0.56445 -0.45861 -0.21166 -0.10584 m 46.28445,0 v 0.105833 m 0,-0.105833 h -44.94389 m 46.28444,0 v 0.105833 m 0,-0.105833 h -0.14111 -0.35278 -0.38805 -0.45861 m -60.67778,0 v 0.105833 m 1.34056,-0.105833 v 0.105833 m 0,-0.105833 h -0.56445 -0.45861 -0.21167 -0.10583 m 14.39333,0 h -13.05277 m -52.66972,31.150276 h 0.10583 m -0.10583,-2.645833 h 0.10583 m -0.10583,2.610555 h 0.10583 m -0.10583,-2.575277 v 2.575277 m 0,-2.575277 h 0.10583 m -0.10583,-17.003888 h 0.0353 m -0.0353,-2.610556 h 0.0353 m -0.0353,2.575278 h 0.0353 m -0.0353,-0.740833 v 0.282222 0.211667 0.141111 0.105833 m 0,-0.740833 h 0.0353 m -0.0353,-0.599723 v 0.105834 0.141111 0.176389 0.176389 m 0,-0.599723 h 0.0353 m -0.0353,-0.564444 h 0.0353 m -0.0353,-0.670278 h 0.0353 m -0.0353,0 v 0.03528 0.176389 0.211667 0.246944 m 0,0 v 0.211667 0.176389 0.176388 m 0,7.9375 v -0.352778 m 0,0 h 0.0353 m -0.0353,0.352778 h 0.0353 m -0.0353,1.516944 h 0.10583 m -0.10583,0 V 48.872061 48.589839 48.307617 48.09595 47.919561 47.77845 47.672617 47.637337 m 0,9.419166 h 0.10583 m -0.10583,0 v -7.902222 m 0,8.89 h 0.10583 m 111.72472,7.655281 -0.49389,-0.0353 -0.45861,-0.14111 -0.42334,-0.24695 -0.35277,-0.35278 -0.28223,-0.38805 -0.21166,-0.45861 -0.10584,-0.45861 v -0.493894 l 0.10584,-0.493889 0.21166,-0.458611 0.28223,-0.388056 0.35277,-0.3175 0.42334,-0.246944 0.45861,-0.176389 0.49389,-0.03528 m 1.34055,2.645833 0.0353,-0.0706 v -0.07056 -0.07055 -0.07056 -0.07055 -0.07056 -0.07056 l -0.0353,-0.07056 m 0,0 h -0.52916 m 0,0 -0.35278,-0.176389 m 0,0 -0.17639,-0.352778 m 0,0 v -0.529166 m 0,0 -0.0706,-0.03528 h -0.0706 -0.0706 -0.0705 -0.0706 -0.0706 -0.0706 l -0.0706,0.03528 m 0,0 v 0.529166 m 0,0 -0.14111,0.352778 m 0,0 -0.38805,0.176389 m 0,0 h -0.52917 m 0,0 v 0.07056 0.07056 l -0.0353,0.07056 v 0.07055 0.07056 l 0.0353,0.07055 v 0.07056 0.0706 m 0,0 h 0.52917 m 0,0 0.38805,0.14111 m 0,0 0.14111,0.38806 m 0,0 v 0.52917 m 0,0 h 0.0706 0.0706 0.0706 l 0.0706,0.0353 0.0705,-0.0353 h 0.0706 0.0706 0.0706 m 0,0 v -0.52917 m 0,0 0.17639,-0.38806 m 0,0 0.35278,-0.14111 m 0,0 h 0.52916 m -1.34055,-2.645833 0.49389,0.03528 0.45861,0.176389 0.42333,0.246944 0.38806,0.3175 0.28222,0.388056 0.21166,0.458611 0.10584,0.493889 v 0.493894 l -0.10584,0.45861 -0.21166,0.45861 -0.28222,0.38805 -0.38806,0.35278 -0.42333,0.24695 -0.45861,0.14111 -0.49389,0.0353 m 0.81139,-2.11667 v 0.0706 m 0.56444,-0.0706 h -0.56444 m 0,-0.458611 v -0.03528 m 0,0.03528 h 0.56444 m -0.9525,-0.176389 0.0353,-0.03528 m -0.0353,0.03528 0.38806,0.176389 m -0.38806,0.635001 0.0353,0.0353 m 0.35278,-0.21167 -0.38806,0.17639 m -0.17639,0.38806 0.0353,0.0353 m 0.14111,-0.42333 -0.17639,0.38805 m 0,-1.587501 h 0.0353 m -0.0353,0 0.17639,0.388056 m -0.17639,1.199445 v 0.56445 m 0,-2.716395 v 0.564444 m -0.45861,1.587501 -0.0706,0.0353 m 0.0706,0.52917 v -0.56445 m 0,-1.587499 h -0.0706 m 0.0706,0 v -0.564444 m -0.17639,1.763893 -0.0353,0.0353 m 0.21167,0.35278 -0.17639,-0.38806 m 0,-0.81139 -0.0353,-0.03528 m 0.0353,0.03528 0.17639,-0.388056 m -0.56444,0.564445 -0.0353,-0.03528 m 0.0353,0.03528 0.38805,-0.176389 m -0.38805,0.635 -0.0353,0.0705 m 0.42333,0.10584 -0.38805,-0.17639 m 0,0 h -0.56445 m 0,-0.458616 h 0.56445 m -102.44667,-21.378333 -0.49389,-0.03528 -0.49388,-0.176389 -0.42334,-0.246945 -0.35278,-0.3175 -0.28222,-0.388055 -0.21166,-0.458611 -0.10584,-0.493889 v -0.458611 l 0.10584,-0.493889 0.21166,-0.458611 0.28222,-0.388056 0.35278,-0.3175 0.42334,-0.246944 0.49388,-0.176389 0.49389,-0.03528 m 1.34056,2.610556 v -0.07056 -0.07055 -0.07056 -0.07055 -0.07056 -0.07056 -0.03528 -0.07056 m 0,0 h -0.52917 m 0,0 -0.38805,-0.176389 m 0,0 -0.17639,-0.388055 m 0,0 v -0.529167 m 0,0 h -0.0706 -0.0705 -0.0353 -0.0706 -0.0706 -0.0706 -0.0705 -0.0706 m 0,0 v 0.529167 m 0,0 -0.17639,0.388055 m 0,0 -0.35278,0.176389 m 0,0 h -0.56444 m 0,0 v 0.07056 0.03528 0.07056 0.07056 0.07055 0.07056 0.07055 0.07056 m 0,0 h 0.56444 m 0,0 0.35278,0.176389 m 0,0 0.17639,0.352777 m 0,0 v 0.564445 m 0,0 h 0.0706 0.0705 0.0706 0.0706 0.0706 0.0353 0.0705 0.0706 m 0,0 v -0.564445 m 0,0 0.17639,-0.352777 m 0,0 0.38805,-0.176389 m 0,0 h 0.52917 m -1.34056,-2.610556 0.45861,0.03528 0.49389,0.176389 0.42334,0.246944 0.35277,0.3175 0.28223,0.388056 0.21166,0.458611 0.10584,0.493889 v 0.458611 l -0.10584,0.493889 -0.21166,0.458611 -0.28223,0.388055 -0.35277,0.3175 -0.42334,0.246945 -0.49389,0.176389 -0.45861,0.03528 m 0.77611,-2.116666 0.0353,0.03528 m 0.52917,-0.03528 h -0.56445 m 0,-0.458611 0.0353,-0.03528 m -0.0353,0.03528 h 0.56445 m -0.9525,-0.176389 0.0353,-0.03528 m -0.0353,0.03528 0.38805,0.176389 m -0.38805,0.635 0.0353,0.03528 m 0.35277,-0.211667 -0.38805,0.176389 m -0.17639,0.388055 h 0.0353 m 0.14111,-0.388055 -0.17639,0.388055 m 0,-1.5875 0.0353,-0.03528 m -0.0353,0.03528 0.17639,0.388056 m -0.17639,-0.9525 v 0.564444 m 0,1.5875 v 0.564445 m -0.635,-1.763889 -0.0353,-0.03528 m 0.21167,-0.352778 -0.0353,-0.03528 m -0.14111,0.423333 0.17639,-0.388056 m 0,1.5875 h -0.0353 m 0.0353,0.564445 v -0.564445 m -0.17639,-0.388055 -0.0353,0.03528 m 0.21167,0.352777 -0.17639,-0.388055 m 0.17639,-1.199445 v -0.564444 m -0.56445,1.128889 v -0.03528 m 0,0.03528 0.38806,-0.176389 m -0.38806,0.635 v 0.03528 m 0.38806,0.141111 -0.38806,-0.176389 m -0.56444,-0.458611 h 0.56444 m 0,0.458611 h -0.56444 m 113.41805,10.865549 v -0.670278 -0.635 -0.599722 -0.599722 -0.493889 -0.423333 -0.352778 -0.246945 -0.176388 -0.03528 m 0,8.501944 v -0.07055 -0.141111 -0.246944 -0.352778 -0.458611 -0.493889 -0.564444 -0.599723 -0.670277 -0.670278 m -5.57389,21.448881 h 0.10583 0.21167 0.14111 m -92.28666,0 h 0.14111 0.21167 0.28222 0.3175 0.38806 0.81139 0.77611 0.38805 0.35278 0.24694 0.21167 0.14111 m 67.73333,0 h 0.14111 0.21167 0.28222 0.3175 0.38806 0.81139 0.77611 0.38805 0.35278 0.24694 0.21167 0.14111 m -0.42333,1.41112 h 0.0353 0.17639 0.24694 0.35278 0.42333 0.49389 0.56444 0.59973 0.635 0.635 0.635 0.59972 0.59972 0.52917 0.45861 0.38805 0.3175 0.17639 0.10584 0.0353 m 0,0 h 0.0353 0.14111 0.28223 0.3175 0.42333 0.52917 0.52916 0.59972 0.635 0.67028 0.635 0.59972 0.59973 0.52916 0.45861 0.38806 0.28222 0.21167 0.10583 m -108.97305,0 h 0.0353 0.14111 0.28222 0.3175 0.42334 0.52916 0.52917 0.59972 0.635 0.67028 0.635 0.59972 0.59972 0.52917 0.45861 0.38806 0.28222 0.21167 0.10583 m 22.0838,-43.709167 v -0.105833 m -1.27,0 h 0.42333 0.38806 0.28222 0.17639 m -16.65111,0.105833 v -0.105833 m 0,0 h 0.0706 0.21167 0.35278 0.38805 0.28222 m 0,0 h 14.07584 M 317.9108,48.519315 h -0.0706 m 0.0706,0 h -0.0706 m 0,0 V 35.819304 m 0.0706,0 h -0.0706 m 89.35861,20.214166 v 0.881944 m 6.56167,6.808608 v -6.949719 m -49.70639,-8.784166 v 4.409722 m 1.905,0.529166 h 2.75167 m 2.25777,0 h 2.71639 m 2.29306,0 h 2.71639 m 2.25778,0 h 2.75166 m 2.25778,0 h 2.75167 m 1.79916,-2.645833 v -3.175 m 0,0 h 0.35278 m -26.035,0 h 1.09361 m 3.91584,0 h 1.05833 m 3.95111,0 h 1.05833 m 3.95111,0 h 1.05834 m 3.91583,0 h 1.05833 m 3.95111,0 h 0.67028 m 0.635,6.385278 1.905,0.282222 m -2.54,-6.6675 v 3.175 m -26.45833,-2.293055 v 4.409722 m -0.88194,1.27 -1.37584,0.388055 m 4.30389,-0.635 h 2.25778 m 2.71639,0 h 2.29305 m 2.71639,0 h 2.25778 m 2.75167,0 h 2.25777 m 2.75167,0 h 2.25778 m -70.59083,10.159998 h -0.0706 m 0.21167,1.76389 h -0.21167 m 0,0 v -0.0706 -0.14111 -0.24694 -0.28223 -0.28222 -0.3175 -0.21167 -0.17638 -0.0353 m 0,2.99861 v 0 -0.0706 -0.17639 -0.45861 -0.52917 m 0,-1.76389 v -0.529165 -0.282222 -0.211667 -0.176389 -0.03528 m 85.30167,3.386663 h -0.0353 m 0.0353,0 v 0 m 0,0 h -0.0353 m 1.02305,0 h -0.17639 m 0,0 v 0 m 0.17639,0 v 0 m -0.17639,0 v 0 m 0.17639,0 h -0.17639 m 1.09362,0 h -0.10584 m 0,0 v 0 m 0.10584,0 h -0.10584 m 0,0 v 0 M 402.0482,57.72669 h 1.19944 m -1.19944,0 h 1.19944 m -1.19944,1.199444 h 1.19944 m -1.19944,0 V 57.72669 m 1.19944,1.199444 V 57.72669 m -1.19944,1.199444 V 57.72669 m 2.54,1.199444 h 1.19944 m -1.19944,0 V 57.72669 m 0,0 h 1.19944 m 0,1.199444 V 57.72669 m -1.19944,1.199444 V 57.72669 m 0,0 h 1.19944 m -3.81,7.161392 -0.3175,-0.0706 -0.24694,-0.17639 -0.10584,-0.24695 -0.0353,-0.24694 m 1.41112,0 -0.0353,0.3175 -0.17639,0.28222 -0.24695,0.10583 -0.24694,0.0353 m 0,-1.481662 0.3175,0.03528 0.24694,0.211662 0.10584,0.21167 0.0353,0.28222 m -1.41112,0 0.0353,-0.3175 0.17639,-0.282219 0.24695,-0.105833 0.24694,-0.03528 m -0.35278,-1.128889 h -0.14111 m 0,-1.658055 v 1.658055 m 0,-1.658055 v -0.03528 l -0.0353,-0.03528 -0.0353,-0.03528 h -0.0353 -0.0353 l -0.0353,0.03528 v 0.03528 l -0.0353,0.03528 m 0,0 v 1.658055 m 0,0 h -0.14111 m 0,0 0.24695,0.599722 m 0,0 0.24694,-0.599722 m 1.34056,1.199445 0.0353,-0.03528 0.0353,-0.03528 h 0.0706 m -0.14111,0.211666 v -0.07056 -0.07055 m 0,1.23472 v -1.09361 m 0.10583,1.27 h -0.0353 l -0.0706,-0.0706 v -0.10583 m 0.24694,0 v 0.0706 l -0.0353,0.0706 -0.0353,0.0353 h -0.0706 m 0.14111,-1.02306 v 0.84667 m 0.56445,0 -0.56445,-0.84667 m 0.77611,1.02306 h -0.0706 l -0.0706,-0.0706 -0.0705,-0.10583 m 0.38805,0 -0.0353,0.0706 -0.0353,0.0706 -0.0353,0.0353 h -0.0706 m 0.17639,-1.340561 v 1.164171 M 404.0234,63.40652 h 0.0706 l 0.0353,0.03528 0.0353,0.105833 m -0.28222,0 v -0.07055 l 0.0353,-0.03528 0.0353,-0.03528 h 0.0706 m -0.14111,1.023059 v -0.881948 m -0.56444,0.03528 0.56444,0.84667 m -0.77611,-1.023054 h 0.10583 l 0.0353,0.07056 0.0706,0.105834 m 2.25777,-1.728612 -0.0353,0.246944 -0.17639,0.211667 -0.3175,0.282222 m 0.35277,-1.128889 0.10584,0.07056 0.0353,0.105833 0.0353,0.211667 m -0.38805,-0.423333 h 0.10583 l 0.10583,0.03528 m -0.67027,0.388056 0.0353,-0.211667 0.14112,-0.141111 0.10583,-0.07055 h 0.17639 m -0.35278,0.529166 h -0.0353 l -0.0353,-0.03528 -0.0353,-0.07055 m 0.24694,-0.105834 -0.0353,0.141112 -0.0353,0.03528 -0.0353,0.03528 h -0.0353 m 0.3175,-0.3175 h -0.0353 l -0.0705,0.03528 -0.0706,0.07055 m 0.38806,0.105834 v -0.105856 l -0.0706,-0.07055 -0.0706,-0.03528 h -0.0706 m 0,0.564445 0.17639,-0.176389 0.0353,-0.176389 m -0.56445,0.705555 0.10584,-0.105833 0.10583,-0.105833 0.0706,-0.07056 0.0706,-0.07055 m -0.42333,0.529166 0.0353,-0.105833 0.0353,-0.07056 m 0.0706,0.3175 h -0.0706 l -0.0353,-0.03528 -0.0353,-0.03528 v -0.07056 m 0.77611,0.141111 h -0.635 M 405.611,62.77152 v 0.03528 l -0.0353,0.07055 h -0.0353 -0.0353 m -0.0353,-0.211666 h 0.0706 l 0.0353,0.03528 0.0353,0.03528 v 0.03528 m -0.59972,-0.105833 h 0.45861 m -0.42333,-0.07056 v 0.03528 l -0.0353,0.03528 m -2.2225,0.03528 -0.0353,0.141112 v 0.03528 h -0.0353 l -0.0353,0.03528 m 0.10583,-1.340555 v 1.128888 m -0.10583,-1.269999 h 0.0353 l 0.0353,0.03528 0.0353,0.105834 m -0.49389,0.211666 0.24694,-0.176389 0.0353,-0.105833 0.10584,-0.07055 m -0.52917,0.493888 0.0353,-0.03528 0.0353,-0.03528 0.0706,-0.07056 m -0.0353,0.246945 h -0.0353 l -0.0353,-0.03528 -0.0353,-0.03528 v -0.03528 m 0.38805,-0.07055 -0.14111,0.105833 -0.14111,0.07056 m 0.28222,0.705555 v -0.881944 m 0.14112,1.058333 h -0.0706 l -0.0353,-0.03528 v -0.03528 l -0.0353,-0.105834 m 3.24556,-3.81 v 2.010834 m 0,-2.010834 h 1.41111 m 0,6.738053 v -6.738053 m -6.38528,6.808613 h 6.20889 m -6.35,-6.808613 v 6.738053 m 0,-6.738053 h 1.37584 m 0,2.010834 v -2.010834 m 0,2.010834 h 1.19944 m 0,0 v -2.010834 m 0,0 h 1.34056 m 0,2.010834 v -2.010834 m 0,2.010834 h 1.19944 m -5.11528,-2.010834 v -2.010833 m 0,0 h 1.37584 m 0,0.811389 v -0.811389 m -1.37584,7.020276 v -7.020276 m 0,7.020276 v -7.020276 m 0,0.493889 v 8.254997 m 0,-8.254997 v -0.07056 -0.105833 -0.105833 -0.07056 -0.03528 -0.07056 -0.03528 m 0.81139,3.704167 v -0.03528 l -0.0353,-0.03528 -0.0353,-0.03528 m 0.0705,0.105834 v 1.658055 m 0.56445,-1.340555 h 1.19944 m 0,-4.021667 v 0.811389 m 0,-0.811389 h 1.34056 m 0,0.811389 v -0.811389 m -1.34056,3.4925 v -1.481667 m 0,2.010834 v -0.529167 m -1.86972,2.469444 0.24694,-0.599722 m 0.35278,1.340557 -0.14111,0.0353 -0.10583,0.0706 -0.10584,0.10583 -0.0706,0.3175 m 0.42333,-0.52917 -0.14111,0.0353 -0.10583,0.0706 -0.10584,0.10584 -0.0706,0.3175 m 0,0 0.0353,0.21166 0.10584,0.17639 0.10583,0.10584 0.17639,0.0353 m 0.42333,-0.52917 -0.0353,-0.21167 -0.10584,-0.21166 -0.14111,-0.0706 -0.14111,-0.0353 m 0,1.05833 0.21167,-0.0706 0.14111,-0.14111 0.0706,-0.3175 m 0.38806,-2.575277 v 1.128888 m 0,0 -0.0353,0.141112 v 0.03528 h -0.0353 l -0.0353,0.03528 m 0,1.234717 -0.0353,0.3175 -0.17639,0.28222 -0.24695,0.10584 -0.24694,0.0353 m 2.61056,-3.95111 h 1.19944 m -2.46944,2.64583 0.56444,0.84667 m -0.67028,-0.56445 v 0.84667 m 2.57528,-3.77472 v -0.529167 m 0,0 V 58.9263 m 0,-2.010833 h 1.41111 m 0,2.010833 v -2.010833 m -1.41111,0 v 0.811389 m -2.57528,6.984998 v 0.0706 l -0.0353,0.0706 -0.0353,0.0353 h -0.0706 m 1.905,-3.139721 -0.0353,0.141112 -0.0353,0.03528 -0.0353,0.03528 h -0.0353 m 0.3175,-0.3175 h -0.0353 l -0.0705,0.03528 -0.0706,0.07055 m -0.81139,1.799167 v 1.164162 m 1.34056,-1.83444 h -0.635 m 0.70555,-1.023055 -0.0353,0.246944 -0.17639,0.211667 -0.3175,0.282222 m -0.88195,2.116662 -0.0353,0.0706 -0.0353,0.0706 -0.0353,0.0353 h -0.0706 m 1.62278,-2.116662 v 0.03528 l -0.0353,0.07055 h -0.0353 -0.0353 m -3.45722,-2.469444 h 1.19944 m 1.34056,0 h 1.19944 m -2.82222,5.362216 v -0.0353 m -0.59972,0.0353 v -0.0353 m 0,0.0353 v -0.0353 m 3.13972,0.0353 v -0.0353 m -0.59972,0.0353 v -0.0353 m 0,0.0353 v -0.0353 m -1.65806,-8.008291 v -0.811391 m 2.54,0.811389 v -0.811389 m 1.41111,0 h -1.41111 m 0.91722,0 h 0.49389 m 0,0 h -0.49389 m -0.91722,0 h -1.19944 m -1.34056,0 h -1.19944 m -0.88195,0 h -0.49389 m 0,0 h 0.49389 m 4.62139,0 h -5.11528 m -0.38805,8.36083 v 0 m 0,0 v 0.0353 m 7.37305,-3.492497 v 0.458611 m 0.0353,-0.529167 -0.0353,0.07056 m 0,0.458611 0.0353,-0.03528 m 0,0.03528 h -0.0353 m 0,-0.458611 v 0.458611 m -6.985,-0.705555 h -0.52916 m 7.05555,0.705555 h 0.45861 m -0.0706,2.540002 h 0.10583 m -0.24694,0.635 0.14111,-0.635 m -0.38806,0.635 h 0.24695 m -7.02028,0 h 0.24694 m 6.91445,-0.49389 h 0.10583 m -0.10583,0.28222 v -0.28222 m 0,-0.14111 v 0.0353 m 0,-0.0353 v 0.0353 m 0,0.10583 v -0.10583 m 0,0.38805 v -0.28222 m 0,-0.10583 v 0.10583 m 0.10583,-0.10583 h -0.10583 m -0.3175,-3.033891 v 0.458571 m 0.24694,-0.705555 -0.24694,0.246944 m 0.24694,-0.246944 h 0.17639 m -0.42333,0.246944 0.24694,-0.246944 m -0.24694,0.246944 v 0.458611 m -0.0706,-0.458611 h 0.0706 m -0.0706,-0.246944 h 0.3175 m -6.84389,3.986385 h -0.0706 m 0,0 v -0.10583 m 0,0.17639 v 0 -0.0353 -0.0353 m 0,-0.10583 v 0.17638 m -82.83106,-1.05834 v 0 h 0.0353 0.0353 0.0353 0.0353 m -0.14111,0 v -2.116667 m 0,0 v 0 h 0.0353 0.0353 0.0353 0.0353 M 352.69464,29.645653 V 29.53982 M 338.6188,29.645653 V 29.53982 m 62.05361,36.089162 h -0.0353"
       style="fill:none;stroke:#000000;stroke-width:0.179917;stroke-linecap:round;stroke-linejoin:round;stroke-miterlimit:10;stroke-dasharray:none;stroke-opacity:1" />
    <path
       id="path13-7"
       d="m 401.80131,64.641242 v 0 m 0.35278,-0.98777 v 0 m 3.13972,-1.975558 v 0 M 317.8402,48.519303 v 0 m 85.16055,17.215559 v 0 m 0.81139,0 v 0 m 0.17639,0 v 0 m 0.81139,0 v 0 m -2.75167,-8.008059 v 0 m 1.19945,0 v 0 m 0,0 v 0 m -1.19945,1.199444 v 0 m 2.54,0 v 0 m 0,-1.199444 v 0 m 1.19945,0 v 0 m 0,0 v 0 m -5.11528,6.208889 v 0 m 0,-7.020278 v 0 m 0,0 v 0 m 0.81139,3.704167 v 0 m 0,1.658055 v 0 m 1.76389,-1.340555 v 0 m -1.27,3.951111 v 0 m 0.81139,-3.316112 v 0 m -1.23472,2.575282 v 0 m 0.42333,-0.52917 v 0 m 0.81139,-0.917223 v 0 m -0.10584,1.446393 v 0 m 0,-1.234726 v 0 m 0.635,0.670276 v 0 m 2.46945,-2.645831 v 0 m -1.905,3.492501 v 0 m -0.67028,0.28222 v 0 m 0,-0.84667 v 0 m -0.14111,1.02306 v 0 m 1.76389,-2.928056 v 0 m -0.67028,1.5875 v 0 m 0.81139,-1.799167 v 0 m 0.17639,-0.105833 v 0 m -0.98778,3.069166 v 0 m 0.70556,-1.834444 v 0 m -0.88195,2.010834 v 0 m 1.5875,-3.033889 v 0 m -0.0706,1.023055 v 0 m -0.45861,-0.282222 v 0 m 0.56444,0.176389 v 0 m 1.09361,-5.856111 v 0 m -5.53861,0 v 0 m 6.0325,0 v 0 m 0,0 v 0 m 0.45861,4.903611 v 0 m -0.0706,3.033887 v 0 m 0,0 v 0 m -0.3175,-3.033887 v 0 m 0.24694,-0.246945 v 0 m -6.91444,3.986392 v 0"
       style="fill:none;stroke:#000000;stroke-width:0.179917;stroke-linecap:round;stroke-linejoin:round;stroke-miterlimit:10;stroke-dasharray:none;stroke-opacity:1" />
    <path
       style="font-variation-settings:normal;opacity:1;vector-effect:none;fill:none;fill-opacity:1;stroke:#005cd8;stroke-width:0.529167;stroke-linecap:round;stroke-linejoin:round;stroke-miterlimit:4;stroke-dasharray:none;stroke-dashoffset:0;stroke-opacity:1;-inkscape-stroke:none;stop-color:#000000;stop-opacity:1"
       d="m 403.85358,70.798657 v 9.160986"
       id="path28"
       sodipodi:nodetypes="cc" />
    <circle
       style="font-variation-settings:normal;opacity:1;vector-effect:none;fill:#005cd8;fill-opacity:1;stroke:none;stroke-width:0.529167;stroke-linecap:butt;stroke-linejoin:miter;stroke-miterlimit:4;stroke-dasharray:none;stroke-dashoffset:0;stroke-opacity:1;-inkscape-stroke:none;stop-color:#000000;stop-opacity:1"
       id="circle28"
       cx="403.85318"
       cy="82.029083"
       r="2.0694654" />
    <path
       style="font-weight:800;font-size:2.91279px;line-height:1.25;font-family:Cantarell;-inkscape-font-specification:'Cantarell Ultra-Bold';fill:#ffffff;stroke-width:0.529167"
       d="m 403.70868,83.039825 h 0.50392 v -2.021476 h -0.30002 l -0.81267,0.404878 0.18933,0.361186 0.41944,-0.174767 z"
       id="text28"
       aria-label="1" />
    <path
       style="fill:none;stroke:#ee972a;stroke-width:0.529167;stroke-linecap:round;stroke-linejoin:round;stroke-dasharray:none;stroke-opacity:1"
       d="m 414.87255,70.798657 v 9.160986"
       id="path29"
       sodipodi:nodetypes="cc" />
    <circle
       style="fill:#ee972a;fill-opacity:1;stroke:none;stroke-width:0.529167;stroke-dasharray:none;stroke-opacity:1"
       id="circle29"
       cx="414.87213"
       cy="82.029083"
       r="2.0694654" />
    <text
       xml:space="preserve"
       style="font-weight:800;font-size:2.91279px;line-height:1.25;font-family:Cantarell;-inkscape-font-specification:'Cantarell Ultra-Bold';text-align:start;text-decoration-color:#000000;writing-mode:lr-tb;direction:ltr;text-anchor:start;fill:#2a9bc4;fill-opacity:1;stroke:none;stroke-width:0.529167;stroke-dasharray:none;stroke-opacity:1"
       x="414.08682"
       y="83.039825"
       id="text29"><tspan
         sodipodi:role="line"
         id="tspan29"
         style="fill:#ffffff;fill-opacity:1;stroke-width:0.529167"
         x="414.08682"
         y="83.039825">1</tspan></text>
    <path
       style="font-variation-settings:normal;opacity:1;vector-effect:none;fill:none;fill-opacity:1;stroke:#005cd8;stroke-width:0.529167;stroke-linecap:round;stroke-linejoin:round;stroke-miterlimit:4;stroke-dasharray:none;stroke-dashoffset:0;stroke-opacity:1;-inkscape-stroke:none;stop-color:#000000;stop-opacity:1"
       d="m 414.87255,70.798657 v 9.160986"
       id="path30"
       sodipodi:nodetypes="cc" />
    <circle
       style="font-variation-settings:normal;opacity:1;vector-effect:none;fill:#005cd8;fill-opacity:1;stroke:none;stroke-width:0.529167;stroke-linecap:butt;stroke-linejoin:miter;stroke-miterlimit:4;stroke-dasharray:none;stroke-dashoffset:0;stroke-opacity:1;-inkscape-stroke:none;stop-color:#000000;stop-opacity:1"
       id="circle30"
       cx="414.87213"
       cy="82.029083"
       r="2.0694654" />
    <path
       style="font-weight:800;font-size:2.91279px;line-height:1.25;font-family:Cantarell;-inkscape-font-specification:'Cantarell Ultra-Bold';fill:#ffffff;stroke-width:0.529167"
       d="m 414.22081,83.039825 h 1.42727 v -0.436918 h -0.69325 c 0.42818,-0.340797 0.64082,-0.667029 0.64082,-0.987436 0,-0.378663 -0.29711,-0.62625 -0.75441,-0.62625 -0.26216,0 -0.501,0.08156 -0.69616,0.241762 l 0.12816,0.369924 c 0.16312,-0.113599 0.32332,-0.171854 0.46896,-0.171854 0.20098,0 0.32915,0.107773 0.32915,0.265063 0,0.2505 -0.32332,0.553431 -0.85054,0.990349 z"
       id="text30"
       aria-label="2" />
  </g>
</svg>
