<?xml version="1.0" encoding="UTF-8" standalone="no"?>
<!-- Created with Inkscape (http://www.inkscape.org/) -->

<svg
   width="95.525749mm"
   height="72.344116mm"
   viewBox="0 0 95.525749 72.344119"
   version="1.1"
   id="svg1"
   inkscape:version="1.4 (e7c3feb100, 2024-10-09)"
   sodipodi:docname="v3-left-view-numbered.svg"
   xmlns:inkscape="http://www.inkscape.org/namespaces/inkscape"
   xmlns:sodipodi="http://sodipodi.sourceforge.net/DTD/sodipodi-0.dtd"
   xmlns="http://www.w3.org/2000/svg"
   xmlns:svg="http://www.w3.org/2000/svg">
  <title
     id="title1">PIKVM V3 Line Drawings</title>
  <sodipodi:namedview
     id="namedview1"
     pagecolor="#ffffff"
     bordercolor="#000000"
     borderopacity="0.25"
     inkscape:showpageshadow="2"
     inkscape:pageopacity="0.0"
     inkscape:pagecheckerboard="0"
     inkscape:deskcolor="#d1d1d1"
     inkscape:document-units="mm"
     inkscape:zoom="2.0078515"
     inkscape:cx="180.54124"
     inkscape:cy="136.7133"
     inkscape:window-width="1280"
     inkscape:window-height="681"
     inkscape:window-x="0"
     inkscape:window-y="0"
     inkscape:window-maximized="1"
     inkscape:current-layer="layer1"
     showguides="false">
    <inkscape:page
       x="5.1016436e-06"
       y="0"
       width="95.525757"
       height="72.344124"
       id="page4"
       inkscape:label="v3-left-view-numbered"
       margin="0"
       bleed="0"
       inkscape:export-filename="v4-right-view-numbered.svg"
       inkscape:export-xdpi="96"
       inkscape:export-ydpi="96" />
    <sodipodi:guide
       position="-94.647503,31.443381"
       orientation="0,-1"
       id="guide13"
       inkscape:locked="false" />
    <sodipodi:guide
       position="-115.78852,74.499725"
       orientation="0,-1"
       id="guide16"
       inkscape:locked="false" />
    <sodipodi:guide
       position="-79.887029,63.313164"
       orientation="0,-1"
       id="guide17"
       inkscape:locked="false" />
    <sodipodi:guide
       position="-20.67317,16.362134"
       orientation="0,-1"
       id="guide18"
       inkscape:locked="false" />
    <sodipodi:guide
       position="1.3154604,36.941047"
       orientation="0,-1"
       id="guide26"
       inkscape:locked="false" />
    <sodipodi:guide
       position="-169.16905,9.235627"
       orientation="1,0"
       id="guide5"
       inkscape:locked="false" />
    <sodipodi:guide
       position="21.785361,13.991088"
       orientation="1,0"
       id="guide6"
       inkscape:locked="false" />
    <sodipodi:guide
       position="-19.66014,-70.91499"
       orientation="0,-1"
       id="guide7"
       inkscape:locked="false" />
    <sodipodi:guide
       position="-138.1124,24.313622"
       orientation="1,0"
       id="guide1"
       inkscape:locked="false" />
    <sodipodi:guide
       position="-30.77444,57.580565"
       orientation="1,0"
       id="guide2"
       inkscape:locked="false" />
    <sodipodi:guide
       position="-100.85909,14.774631"
       orientation="0,-1"
       id="guide3"
       inkscape:locked="false" />
    <sodipodi:guide
       position="159.76719,59.565946"
       orientation="0,-1"
       id="guide4"
       inkscape:locked="false" />
    <sodipodi:guide
       position="255.69191,25.92806"
       orientation="1,0"
       id="guide8"
       inkscape:locked="false" />
  </sodipodi:namedview>
  <defs
     id="defs1" />
  <g
     inkscape:label="Layer 1"
     inkscape:groupmode="layer"
     id="layer1"
     transform="translate(-226.99247,-14.816667)">
    <path
       style="font-variation-settings:normal;opacity:1;vector-effect:none;fill:none;fill-opacity:1;stroke:#005cd8;stroke-width:0.529167;stroke-linecap:round;stroke-linejoin:round;stroke-miterlimit:4;stroke-dasharray:none;stroke-dashoffset:0;stroke-opacity:1;-inkscape-stroke:none;stop-color:#000000;stop-opacity:1"
       d="m 257.8855,72.386161 v 9.160986"
       id="path28"
       sodipodi:nodetypes="cc" />
    <circle
       style="font-variation-settings:normal;opacity:1;vector-effect:none;fill:#005cd8;fill-opacity:1;stroke:none;stroke-width:0.529167;stroke-linecap:butt;stroke-linejoin:miter;stroke-miterlimit:4;stroke-dasharray:none;stroke-dashoffset:0;stroke-opacity:1;-inkscape-stroke:none;stop-color:#000000;stop-opacity:1"
       id="circle28"
       cx="257.88519"
       cy="83.616592"
       r="2.0694654" />
    <path
       style="font-weight:800;font-size:2.91279px;line-height:1.25;font-family:Cantarell;-inkscape-font-specification:'Cantarell Ultra-Bold';fill:#ffffff;stroke-width:0.529167"
       d="m 257.7407,84.627335 h 0.50391 v -2.021477 h -0.30002 l -0.81267,0.404878 0.18934,0.361186 0.41944,-0.174767 z"
       id="text28"
       aria-label="1" />
    <path
       id="path9-7"
       d="m 308.4941,72.417027 v -1.622778 m -7.02028,0 v 1.622778 m -54.89222,0 v -1.622778 m -6.985,0 v 1.622778 m 36.86528,-32.843609 -0.14111,0.07055 m -6.84389,9.877777 -0.0353,0.141111 m 20.03778,-10.442221 v 0.03528 m -41.8747,-11.571108 v 0 m 30.62111,16.933333 v 0.211666 m 0.21166,-1.27 v 0.105834 l 0.0353,0.176388 -0.0353,0.211667 -0.0353,0.176389 -0.0706,0.211667 -0.10583,0.176389 m 0,-5.856111 v 0 m 10.4775,0.141111 v 0 m 29.59805,3.245555 h -0.52916 m 0.10583,2.892778 h 0.42333 m 1.48167,0 h 0.10583 l 0.28222,-0.105834 0.24695,-0.105833 0.21166,-0.211666 0.17639,-0.211667 0.14111,-0.246945 0.0706,-0.282222 0.0353,-0.282222 -0.0353,-0.282222 -0.0706,-0.246945 -0.14111,-0.246944 -0.17639,-0.246944 -0.21166,-0.176389 -0.24695,-0.141111 -0.28222,-0.07056 h -0.10583 m -1.48167,-5.115278 h -0.52916 m 0,2.892778 h 0.52916 m 1.5875,0 v 0 l 0.28222,-0.105833 0.24695,-0.105834 0.21166,-0.211666 0.17639,-0.211667 0.14111,-0.246944 0.0706,-0.282223 0.0353,-0.282222 -0.0353,-0.282222 -0.0706,-0.246944 -0.14111,-0.246945 -0.17639,-0.246944 -0.21166,-0.176389 -0.24695,-0.141111 -0.28222,-0.07056 h -0.10583 m -67.06305,22.04861 v 3.563056 m 0.635,0 v -3.563056 m 1.905,0 v 2.998611 m 0.635,-0.352778 v -2.645833 m 1.905,0 v 2.645833 m 2.54,-2.645833 v 2.645833 m 0.635,0.423334 v -3.069167 m 1.905,0 v 3.563056 m 0.635,0 v -3.563056 m 6.985,-1.693333 v 0.03528 m 5.07999,3.563055 v 0.670278 m 0.635,0.987778 v -2.434167 m 1.905,-1.516944 v 0.740833 m 0.635,0 v -0.493889 m 26.24667,13.405555 h 0.52917 0.56444 0.52917 0.45861 0.42333 0.35278 0.28222 0.21167 0.10583 0.0353 m -7.02028,0 h 0.0353 0.10583 0.21167 0.28222 0.35278 0.42333 0.45861 0.52917 0.56445 0.56444 m -61.9125,0 h 0.56445 0.52916 0.52917 0.45861 0.42334 0.38805 0.28222 0.17639 0.10584 0.0353 m -6.985,0 v 0 h 0.14111 0.17639 0.28223 0.35277 0.42334 0.49389 0.49388 0.56445 0.56444 M 293.46577,44.1948 v 1.763889 m -1.12889,0.176389 h 0.0706 l 0.52917,-0.03528 0.52917,-0.141111 m -2.25778,0 0.56444,0.141111 0.56445,0.03528 m 1.12889,-0.176389 0.21166,0.03528 0.91723,0.141111 m 1.12889,-0.776111 v 0.599722 m -1.12889,0.176389 h 0.24694 l 0.88195,-0.176389 m -4.51556,0.176389 v 0 -0.03528 -0.141111 m 4.51556,0 v 0.141111 0.03528 m -4.51556,1.27 0.56444,-0.141111 0.56445,-0.07056 m 0,0 h 0.0706 l 0.52917,0.07056 0.52917,0.141111 m 0,9.98361 v -2.892777 m 0,-6.35 V 47.40508 m -2.25778,8.431388 v -0.987777 m 0,-6.103056 V 47.40508 m 2.25778,0 0.56444,-0.141111 0.56445,-0.07056 m 0,0 h 0.0705 l 0.10584,0.03528 m -3.56306,-0.03528 v 0.03528 0.176389 m 6.42055,-7.62 -0.0353,-0.458611 -0.14111,-0.423333 -0.21167,-0.423334 -0.28222,-0.352777 -0.35278,-0.282222 -0.42333,-0.211667 -0.42334,-0.141111 -0.45861,-0.03528 -0.45861,0.03528 -0.45861,0.141111 -0.38806,0.211667 -0.38805,0.282222 -0.28222,0.352777 -0.21167,0.423334 -0.14111,0.423333 -0.0353,0.458611 0.0353,0.458611 0.14111,0.458611 0.21167,0.388056 0.28222,0.388055 0.38805,0.282223 0.38806,0.211666 0.45861,0.141111 0.45861,0.03528 0.45861,-0.03528 0.42334,-0.141111 0.42333,-0.211666 0.35278,-0.282223 0.28222,-0.388055 0.21167,-0.388056 0.14111,-0.458611 0.0353,-0.458611 m -1.97555,-0.352778 0.42333,0.141112 m -0.42333,-0.141112 -0.14111,-0.423333 m 0,-0.529167 v 0.529167 M 295.05332,38.4798 h 0.0706 l 0.0353,-0.03528 h 0.0706 0.0706 0.0353 0.0706 l 0.0705,0.03528 h 0.0353 m -0.45861,0.529167 V 38.4798 m 0,0.529167 -0.10584,0.423333 m 0,0 -0.45861,0.141112 m -0.52916,0 h 0.52916 m -0.56444,0.211666 h 0.0353 v -0.03528 -0.03528 -0.03528 -0.03528 -0.03528 -0.03528 m 0,0.458611 v -0.03528 -0.03528 -0.03528 -0.03528 -0.03528 -0.03528 l -0.0353,-0.03528 m 0.56444,0.246945 h -0.52916 m 0.52916,0 0.45861,0.105833 m 0,0 0.10584,0.423333 m 0,0.564445 V 40.56116 m 0.24694,0.564445 h -0.0353 -0.0353 -0.0353 -0.0353 -0.0353 -0.0353 -0.0353 m 0.45861,0 h -0.0353 -0.0353 -0.0353 -0.0353 -0.0353 -0.0353 m 0.21167,-0.564445 v 0.564445 m 0,-0.564445 0.14111,-0.423333 m 0,0 0.42333,-0.105833 m 0.52917,0 h -0.52917 m 0.56445,-0.246945 v 0.03528 0.03528 0.03528 l -0.0353,0.03528 v 0.03528 0.03528 0.03528 m 0,-0.458611 v 0.03528 0.03528 0.03528 l 0.0353,0.03528 v 0.03528 0.03528 m -0.56445,-0.211666 h 0.52917 m -2.57528,0.07055 v 0 0.03528 0.03528 0.03528 h -0.0353 v 0.03528 m -0.0705,0 h 0.0705 m -0.0353,-0.211666 0.0705,0.07055 m -0.0353,0.141111 v 0.03528 0.03528 h 0.0353 v 0.03528 0.03528 0.03528 m -0.0705,0.07056 0.0705,-0.07056 m 0,0 0.49389,-0.03528 m 0,0 -0.0353,0.105834 m 0,-0.458611 0.0353,0.105833 m 0,0 -0.49389,-0.03528 m 1.02306,0.388056 -0.28222,-0.07056 -0.24695,-0.03528 m 0.52917,0.105834 -0.10584,0.105833 m 0.10584,-0.564444 -0.10584,-0.141112 m 0.10584,0.141112 -0.28222,0.07055 -0.24695,0.03528 m 0.52917,-0.105833 0.0706,-0.282223 0.0353,-0.246944 m 0,0 -0.10583,-0.03528 m 0,1.023056 0.0706,0.282222 0.0353,0.246944 m -0.10583,0 h 0.10583 m -0.10583,-2.081389 0.0706,0.07056 m 0,0 0.0353,0.493889 m -0.0353,2.010833 v 0 h 0.0353 0.0353 0.0353 l 0.0353,0.03528 h 0.0353 m 0,0.03528 v -0.03528 m -0.24694,0.03528 0.0706,-0.07056 m 0.38806,-2.575278 -0.0706,0.07056 m -0.3175,0 0.0353,-0.03528 h 0.0353 0.0353 0.0706 0.0353 0.0353 0.0353 l 0.0353,0.03528 m -0.28222,2.010833 -0.0353,0.493889 m 0.52917,-1.622778 -0.14111,0.141112 m -0.10583,-0.529167 0.0353,0.246944 0.0706,0.282223 m -0.10583,-0.529167 0.10583,-0.03528 m -0.10583,1.552222 0.0353,-0.246944 0.0706,-0.282222 m 0.14111,0.105833 -0.14111,-0.105833 m 0,0.529166 h -0.10583 m 0.0353,0.493889 v 0 h -0.0353 -0.0353 -0.0353 l -0.0353,0.03528 m 0.21167,0.03528 -0.0706,-0.07056 m -0.0353,-0.493889 0.0353,0.493889 m 0,-2.504722 -0.0353,0.493889 m 0.635,0.635 -0.24695,-0.03528 -0.28222,-0.07055 m 0.56444,0 -0.0353,0.105833 m 0,0.246944 -0.24695,0.03528 -0.28222,0.07056 m 0.56444,0 -0.0353,-0.105834 m 0.56444,-0.352777 -0.0706,0.07055 m 0,0 -0.49388,0.03528 m 0.49388,0.282222 -0.49388,-0.03528 m 0.56444,0.105834 -0.0706,-0.07056 m 0.0353,-0.176389 h 0.0706 m -0.0706,0 v 0 -0.03528 -0.03528 -0.03528 h -0.0353 v -0.03528 m 0.0353,0.141111 v 0.03528 0.03528 0.03528 l -0.0353,0.03528 v 0.03528 m 1.09361,23.847777 -0.0353,-0.458611 -0.14111,-0.458612 -0.21167,-0.388055 -0.28222,-0.352778 -0.35278,-0.3175 -0.42333,-0.211666 -0.42334,-0.141112 -0.45861,-0.03528 -0.45861,0.03528 -0.45861,0.141112 -0.38806,0.211666 -0.38805,0.3175 -0.28222,0.352778 -0.21167,0.388055 -0.14111,0.458612 -0.0353,0.458611 0.0353,0.458611 0.14111,0.423333 0.21167,0.423333 0.28222,0.352778 0.38805,0.282222 0.38806,0.211667 0.45861,0.141111 0.45861,0.03528 0.45861,-0.03528 0.42334,-0.141111 0.42333,-0.211667 0.35278,-0.282222 0.28222,-0.352778 0.21167,-0.423333 0.14111,-0.423333 0.0353,-0.458611 m -1.97555,-0.352778 0.42333,0.105833 m -0.42333,-0.105833 -0.14111,-0.423333 m 0,-0.564445 v 0.564445 m -0.45861,-0.564445 h 0.0706 0.0353 0.0706 0.0706 0.0353 0.0706 0.0705 0.0353 m -0.45861,0.564445 v -0.564445 m 0,0.564445 -0.10584,0.423333 m 0,0 -0.45861,0.105833 m -0.52916,0 h 0.52916 m -0.56444,0.246945 0.0353,-0.03528 v -0.03528 -0.03528 -0.03528 -0.03528 -0.03528 -0.03528 m 0,0.458611 v 0 -0.03528 -0.03528 -0.03528 -0.03528 -0.03528 l -0.0353,-0.03528 m 0.56444,0.211666 h -0.52916 m 0.52916,0 0.45861,0.141111 m 0,0 0.10584,0.423334 m 0,0.529166 v -0.529166 m 0.24694,0.564444 h -0.0353 -0.0353 -0.0353 -0.0353 -0.0353 v -0.03528 h -0.0353 -0.0353 m 0.45861,0 h -0.0353 l -0.0353,0.03528 h -0.0353 -0.0353 -0.0353 -0.0353 m 0.21167,-0.564444 v 0.529166 m 0,-0.529166 0.14111,-0.423334 m 0,0 0.42333,-0.141111 m 0.52917,0 h -0.52917 m 0.56445,-0.211666 v 0.03528 0.03528 l -0.0353,0.03528 v 0.03528 0.03528 0.03528 m 0,-0.458611 v 0.03528 0.03528 0.03528 l 0.0353,0.03528 v 0.03528 0.03528 0.03528 m -0.56445,-0.246945 h 0.52917 m -2.68111,0.246945 h 0.0705 m 0,0 v 0 0.03528 h 0.0353 v 0.03528 0.03528 0.03528 m -0.0705,0.07055 0.0705,-0.07055 m 0,-0.3175 v 0.03528 0.03528 0.03528 l -0.0353,0.03528 v 0.03528 m -0.0353,-0.246945 0.0705,0.07056 m 0,0.3175 0.49389,-0.03528 m 0,0 -0.0353,0.105833 m 0,-0.458611 0.0353,0.105834 m 0,0 -0.49389,-0.03528 m 1.02306,0.388055 -0.28222,-0.03528 -0.24695,-0.07056 m 0.52917,0.105833 -0.10584,0.141111 m 0.10584,-0.599722 -0.10584,-0.105833 m 0.10584,0.105833 -0.28222,0.07056 -0.24695,0.03528 m 0.52917,-0.105834 0.0706,-0.282222 0.0353,-0.246944 m 0,0 h -0.10583 m 0,0.987777 0.0706,0.282223 0.0353,0.246944 m -0.10583,0.03528 0.10583,-0.03528 m -0.10583,-2.081389 0.0706,0.07056 m 0,0 0.0353,0.493889 m -0.0353,2.046111 v 0 h 0.0353 0.0353 0.0353 0.0353 0.0353 m 0,0.07055 v -0.07055 m -0.24694,0.03528 0.0706,-0.03528 m 0.38806,-2.610556 -0.0706,0.07056 m -0.3175,0 h 0.0353 0.0353 0.0353 0.0706 0.0353 0.0353 0.0353 0.0353 m -0.28222,2.010833 -0.0353,0.529167 m 0.52917,-1.622778 -0.14111,0.105833 m -0.10583,-0.529166 0.0353,0.246944 0.0706,0.282222 m -0.10583,-0.529166 h 0.10583 m -0.10583,1.516944 0.0353,-0.246944 0.0706,-0.282223 m 0.14111,0.141111 -0.14111,-0.141111 m 0,0.564445 -0.10583,-0.03528 m 0.0353,0.529167 v 0 h -0.0353 -0.0353 -0.0353 -0.0353 m 0.21167,0.03528 -0.0706,-0.03528 m -0.0353,-0.529167 0.0353,0.529167 m 0,-2.54 -0.0353,0.493889 m 0.635,0.635 -0.24695,-0.03528 -0.28222,-0.07056 m 0.56444,0 -0.0353,0.105834 m 0,0.246944 -0.24695,0.07056 -0.28222,0.03528 m 0.56444,0 -0.0353,-0.105833 m 0.56444,-0.352778 -0.0706,0.07056 m 0,0 -0.49388,0.03528 m 0.49388,0.282222 -0.49388,-0.03528 m 0.56444,0.105833 -0.0706,-0.07055 m 0.0353,-0.141111 h 0.0706 m -0.0706,0 v -0.03528 -0.03528 -0.03528 l -0.0353,-0.03528 v -0.03528 m 0.0353,0.176389 v 0 0.03528 0.03528 0.03528 h -0.0353 v 0.03528 M 273.64,63.80928 l -0.0353,-0.458611 -0.14111,-0.458612 -0.21167,-0.388055 -0.3175,-0.352778 -0.35278,-0.3175 -0.38805,-0.211666 -0.45861,-0.141112 -0.45861,-0.03528 -0.45861,0.03528 -0.42334,0.141112 -0.42333,0.211666 -0.35278,0.3175 -0.28222,0.352778 -0.21167,0.388055 -0.14111,0.458612 -0.0353,0.458611 0.0353,0.458611 0.14111,0.423333 0.21167,0.423333 0.28222,0.352778 0.35278,0.282222 0.42333,0.211667 0.42334,0.141111 0.45861,0.03528 0.45861,-0.03528 0.45861,-0.141111 0.38805,-0.211667 0.35278,-0.282222 0.3175,-0.352778 0.21167,-0.423333 0.14111,-0.423333 0.0353,-0.458611 m -2.01084,-0.352778 0.42334,0.105833 m -0.42334,-0.105833 -0.10583,-0.423333 m 0,-0.564445 v 0.564445 m -0.45861,-0.564445 h 0.0353 0.0705 0.0706 0.0353 0.0706 0.0706 0.0353 0.0706 m -0.45861,0.564445 v -0.564445 m 0,0.564445 -0.14111,0.423333 m 0,0 -0.42333,0.105833 m -0.52917,0 h 0.52917 m -0.56445,0.246945 V 63.774 63.73872 63.70344 63.66816 l 0.0353,-0.03528 V 63.5976 63.56232 m 0,0.458611 v 0 -0.03528 l -0.0353,-0.03528 v -0.03528 -0.03528 -0.03528 -0.03528 m 0.56445,0.211666 h -0.52917 m 0.52917,0 0.42333,0.141111 m 0,0 0.14111,0.423334 m 0,0.529166 v -0.529166 m 0.21167,0.564444 h -0.0353 -0.0353 -0.0353 -0.0353 l -0.0353,-0.03528 h -0.0353 m 0.45861,0 h -0.0353 -0.0353 l -0.0353,0.03528 h -0.0353 -0.0353 -0.0353 -0.0353 m 0.24694,-0.564444 v 0.529166 m 0,-0.529166 0.10583,-0.423334 m 0,0 0.42334,-0.141111 m 0.56444,0 h -0.56444 m 0.56444,-0.211666 v 0.03528 0.03528 0.03528 0.03528 0.03528 0.03528 m 0,-0.458611 v 0.03528 0.03528 0.03528 0.03528 0.03528 0.03528 0.03528 m -0.56444,-0.246945 h 0.56444 m -2.61055,0.07056 v 0.03528 0.03528 0.03528 0.03528 0.03528 m -0.0706,0 h 0.0706 m -0.0353,-0.246945 0.0353,0.07056 m 0,0.176389 v 0 0.03528 0.03528 0.03528 0.03528 m -0.0353,0.07055 0.0353,-0.07055 m 0,0 0.52916,-0.03528 m 0,0 -0.0353,0.105833 m 0,-0.458611 0.0353,0.105834 m 0,0 -0.52916,-0.03528 m 1.05833,0.388055 -0.28222,-0.03528 -0.24695,-0.07056 m 0.52917,0.105833 -0.14111,0.141111 m 0.14111,-0.599722 -0.14111,-0.105833 m 0.14111,0.105833 -0.28222,0.07056 -0.24695,0.03528 m 0.52917,-0.105834 0.0353,-0.282222 0.0705,-0.246944 m 0,0 h -0.10583 m 0,0.987777 0.0353,0.282223 0.0705,0.246944 m -0.10583,0.03528 0.10583,-0.03528 m -0.10583,-2.081389 0.0706,0.07056 m 0,0 0.0353,0.493889 m -0.0353,2.046111 v 0 h 0.0353 0.0353 0.0353 0.0353 m 0,0.07055 v -0.07055 m -0.21167,0.03528 0.0706,-0.03528 m 0.38805,-2.610556 -0.0706,0.07056 m -0.3175,0 h 0.0353 0.0353 0.0353 0.0353 0.0353 0.0706 0.0353 0.0353 m -0.28223,2.010833 -0.0353,0.529167 m 0.49388,-1.622778 -0.10583,0.105833 m -0.10583,-0.529166 0.0353,0.246944 0.0706,0.282222 m -0.10637,-0.529227 h 0.10583 m -0.10583,1.516944 0.0353,-0.246944 0.0706,-0.282223 m 0.10583,0.141111 -0.10583,-0.141111 m 0,0.564445 -0.10583,-0.03528 m 0.0353,0.529167 h -0.0353 -0.0353 -0.0353 -0.0353 -0.0353 m 0.24694,0.03528 -0.0706,-0.03528 m -0.0353,-0.529167 0.0353,0.529167 m 0,-2.54 -0.0353,0.493889 m 0.635,0.635 -0.24695,-0.03528 -0.28222,-0.07056 m 0.52917,0 v 0.105834 m 0,0.246944 -0.24695,0.07056 -0.28222,0.03528 m 0.52917,0 v -0.105833 m 0.56444,-0.352778 -0.0705,0.07056 m 0,0 -0.49389,0.03528 m 0.49389,0.282222 -0.49389,-0.03528 m 0.56444,0.105833 -0.0705,-0.07055 m 0,-0.141111 h 0.0705 m -0.0705,0 v -0.03528 -0.03528 -0.03528 -0.03528 -0.03528 m 0,0.176389 v 0 0.03528 0.03528 0.03528 0.03528 m 1.09361,-24.165277 -0.0353,-0.458611 -0.14111,-0.423333 -0.21167,-0.423334 -0.3175,-0.352777 -0.35278,-0.282222 -0.38805,-0.211667 -0.45861,-0.141111 -0.45861,-0.03528 -0.45861,0.03528 -0.42334,0.141111 -0.42333,0.211667 -0.35278,0.282222 -0.28222,0.352777 -0.21167,0.423334 -0.14111,0.423333 -0.0353,0.458611 0.0353,0.458611 0.14111,0.458611 0.21167,0.388056 0.28222,0.388055 0.35278,0.282223 0.42333,0.211666 0.42334,0.141111 0.45861,0.03528 0.45861,-0.03528 0.45861,-0.141111 0.38805,-0.211666 0.35278,-0.282223 0.3175,-0.388055 0.21167,-0.388056 0.14111,-0.458611 0.0353,-0.458611 m -2.01084,-0.352778 0.42334,0.141112 m -0.42334,-0.141112 -0.10583,-0.423333 m 0,-0.529167 v 0.529167 m -0.45861,-0.529167 h 0.0353 l 0.0705,-0.03528 h 0.0706 0.0353 0.0706 0.0706 l 0.0353,0.03528 h 0.0706 m -0.45861,0.529167 v -0.529167 m 0,0.529167 -0.14111,0.423333 m 0,0 -0.42333,0.141112 m -0.52917,0 h 0.52917 m -0.56445,0.211666 v 0 -0.03528 -0.03528 -0.03528 -0.03528 l 0.0353,-0.03528 v -0.03528 m 0,0.458611 v -0.03528 -0.03528 h -0.0353 v -0.03528 -0.03528 -0.03528 -0.03528 -0.03528 m 0.56445,0.246945 h -0.52917 m 0.52917,0 0.42333,0.105833 m 0,0 0.14111,0.423333 m 0,0.564445 v -0.564445 m 0.21167,0.564445 h -0.0353 -0.0353 -0.0353 -0.0353 -0.0353 -0.0353 m 0.45861,0 h -0.0353 -0.0353 -0.0353 -0.0353 -0.0353 -0.0353 -0.0353 m 0.24694,-0.564445 v 0.564445 m 0,-0.564445 0.10583,-0.423333 m 0,0 0.42334,-0.105833 m 0.56444,0 h -0.56444 m 0.56444,-0.246945 v 0.03528 0.03528 0.03528 0.03528 0.03528 0.03528 0.03528 m 0,-0.458611 v 0.03528 0.03528 0.03528 0.03528 0.03528 0.03528 m -0.56444,-0.211666 h 0.56444 m -2.61055,0.07055 v 0 0.03528 0.03528 0.03528 0.03528 m -0.0706,0 h 0.0706 m -0.0353,-0.211666 0.0353,0.07055 m 0,0.141111 v 0.03528 0.03528 0.03528 0.03528 0.03528 m -0.0353,0.07056 0.0353,-0.07056 m 0,0 0.52916,-0.03528 m 0,0 -0.0353,0.105834 m 0,-0.458611 0.0353,0.105833 m 0,0 -0.52916,-0.03528 m 1.05833,0.388056 -0.28222,-0.07056 -0.24695,-0.03528 m 0.52917,0.105834 -0.14111,0.105833 m 0.14111,-0.564444 -0.14111,-0.141112 m 0.14111,0.141112 -0.28222,0.07055 -0.24695,0.03528 m 0.52917,-0.105833 0.0353,-0.282223 0.0705,-0.246944 m 0,0 -0.10583,-0.03528 m 0,1.023056 0.0353,0.282222 0.0705,0.246944 m -0.10583,0 h 0.10583 m -0.10583,-2.081389 0.0706,0.07056 m 0,0 0.0353,0.493889 m -0.0353,2.010833 v 0 h 0.0353 0.0353 0.0353 l 0.0353,0.03528 m 0,0.03528 v -0.03528 m -0.21167,0.03528 0.0706,-0.07056 m 0.38805,-2.575278 -0.0706,0.07056 m -0.3175,0 0.0353,-0.03528 h 0.0353 0.0353 0.0353 0.0353 0.0706 0.0353 l 0.0353,0.03528 m -0.28223,2.010833 -0.0353,0.493889 m 0.49388,-1.622778 -0.10583,0.141112 m -0.10583,-0.529167 0.0353,0.246944 0.0706,0.282223 m -0.10583,-0.529167 0.10583,-0.03528 m -0.10583,1.552222 0.0353,-0.246944 0.0706,-0.282222 m 0.10583,0.105833 -0.10583,-0.105833 m 0,0.529166 h -0.10583 m 0.0353,0.493889 h -0.0353 -0.0353 -0.0353 -0.0353 v 0.03528 h -0.0353 m 0.24694,0.03528 -0.0706,-0.07056 m -0.0353,-0.493889 0.0353,0.493889 m 0,-2.504722 -0.0353,0.493889 m 0.635,0.635 -0.24695,-0.03528 -0.28222,-0.07055 m 0.52917,0 v 0.105833 m 0,0.246944 -0.24695,0.03528 -0.28222,0.07056 m 0.52917,0 v -0.105834 m 0.56444,-0.352777 -0.0705,0.07055 m 0,0 -0.49389,0.03528 m 0.49389,0.282222 -0.49389,-0.03528 m 0.56444,0.105834 -0.0705,-0.07056 m 0,-0.176389 h 0.0705 m -0.0705,0 v 0 -0.03528 -0.03528 -0.03528 -0.03528 m 0,0.141111 v 0.03528 0.03528 0.03528 0.03528 0.03528 m 11.99444,-2.116666 v 5.53861 m 6.35,12.206111 3.45722,2.434166 m -2.89278,-3.845277 5.43278,0.917222 m -0.70555,-8.784166 -4.69195,3.245555 m 0,-0.03528 v 0.03528 m 4.65667,-3.316111 -4.65667,3.280833 m -1.19944,-2.681111 3.03389,-2.716388 m -6.27945,-5.820833 -0.38805,5.679722 m -0.0353,-0.03528 0.0353,0.03528 m 0.3175,-5.715 -0.35278,5.679722 m 0.59972,0.3175 0.0706,0.03528 m -3.84528,-6.491111 h -0.24695 m -6.63222,1.728611 -0.17639,0.07055 m 7.40834,3.704167 -0.35278,-5.503333 m -7.65528,3.316111 3.4925,3.175 m -3.4925,-3.104445 3.42195,3.104445 m -9.94834,6.914444 0.0353,-0.07056 m 0,0 5.60917,-0.881944 m -5.64445,0.9525 5.64445,-0.917223 m 0,2.892778 -5.32695,1.552222 m 9.56028,4.480278 -2.08139,5.115277 m 8.67833,1.234722 -2.08138,-5.291666 m -6.59695,4.056944 0.14111,0.07056 m 6.06778,1.375833 0.84667,-0.03528 m -0.42334,-5.432777 -0.0353,-0.03528 m 2.18722,5.291666 -2.15195,-5.256388 m 2.82223,-0.670278 2.68111,4.833055 m 6.38527,-6.032499 -5.29166,-1.5875 m 5.36222,1.552222 -5.36222,-1.5875 m -32.13806,4.974166 v -2.645833 m 0,2.645833 v -2.645833 m 1.48167,2.645833 v -2.645833 m 36.33611,10.16 v -0.03528 -0.07056 -0.07055 -0.07056 -0.07055 -0.105834 -0.105833 m 0.49389,0.529167 0.10583,-0.03528 h 0.0706 l 0.10583,-0.07056 0.0706,-0.07055 0.0706,-0.07056 0.0353,-0.07055 0.0353,-0.105834 v -0.105833 m -63.99389,0.529167 v -0.03528 -0.07056 -0.07055 -0.07056 -0.07055 -0.105834 -0.105833 m -0.98778,0 v 0.105833 l 0.0353,0.105834 0.0353,0.07055 0.0706,0.07056 0.0706,0.07055 0.0706,0.07056 h 0.10583 l 0.10583,0.03528 m 18.97945,-2.610556 h 13.0175 m 53.30472,0.811389 v 0.246945 l -0.0706,0.246944 -0.14111,0.211667 -0.14111,0.211666 -0.21167,0.141111 -0.21167,0.141112 -0.24694,0.07056 h -0.24694 m 0,0 h -52.03472 m 0,0 v -8.643055 m 0,0 -0.0353,-0.176389 -0.0353,-0.211667 -0.10583,-0.141111 -0.10584,-0.176389 -0.17639,-0.105833 -0.17638,-0.105833 -0.17639,-0.07056 h -0.17639 m 0,0 H 252.4735 m 0,0 h -0.21166 l -0.17639,0.07056 -0.17639,0.105833 -0.14111,0.105833 -0.14111,0.176389 -0.0706,0.141111 -0.0706,0.211667 -0.0353,0.176389 m 0,0 v 8.643055 m 0,0 h -19.86139 m 0,0 H 231.342 l -0.24694,-0.07056 -0.24694,-0.141112 -0.17639,-0.141111 -0.17639,-0.211666 -0.10584,-0.211667 -0.0706,-0.246944 -0.0353,-0.246945 m 0,0 V 30.612862 m 0,0 h 87.48889 m 0,0 v 36.900554 m -46.49611,-0.9525 0.49389,-0.07055 0.49388,-0.105834 0.42334,-0.211666 0.42333,-0.3175 0.3175,-0.352778 0.28222,-0.388056 0.17639,-0.458611 0.10584,-0.493889 0.0353,-0.493888 -0.0705,-0.493889 -0.14111,-0.458611 -0.24695,-0.423334 -0.28222,-0.388055 -0.38806,-0.3175 -0.42333,-0.282222 -0.45861,-0.141112 -0.49389,-0.105833 h -0.49389 l -0.45861,0.105833 -0.49389,0.141112 -0.42333,0.282222 -0.35278,0.3175 -0.3175,0.388055 -0.21167,0.423334 -0.17638,0.458611 -0.0706,0.493889 0.0353,0.493888 0.10583,0.493889 0.21167,0.458611 0.24694,0.388056 0.35278,0.352778 0.38806,0.3175 0.45861,0.211666 0.45861,0.105834 0.49389,0.07055 m 24.02416,0 0.45861,-0.07055 0.49389,-0.105834 0.45861,-0.211666 0.38806,-0.3175 0.35278,-0.352778 0.24694,-0.388056 0.21167,-0.458611 0.10583,-0.493889 v -0.493893 l -0.0353,-0.493889 -0.17639,-0.458611 -0.21166,-0.423334 -0.3175,-0.388055 -0.38806,-0.3175 -0.42333,-0.282222 -0.45861,-0.141112 -0.45861,-0.105833 h -0.49389 l -0.49389,0.105833 -0.45861,0.141112 -0.42334,0.282222 -0.38805,0.3175 -0.28222,0.388055 -0.24695,0.423334 -0.14111,0.458611 -0.0705,0.493889 v 0.493888 l 0.10583,0.493889 0.21167,0.458611 0.28222,0.388056 0.3175,0.352778 0.42333,0.3175 0.42333,0.211666 0.49389,0.105834 0.49389,0.07055 m 0,-24.024165 0.45861,-0.03528 0.49389,-0.141111 0.45861,-0.211667 0.38806,-0.282222 0.35278,-0.352778 0.24694,-0.423333 0.21167,-0.423333 0.10583,-0.493889 v -0.493889 l -0.0353,-0.493889 -0.17639,-0.458611 -0.21166,-0.458611 -0.3175,-0.352778 -0.38806,-0.352778 -0.42333,-0.246944 -0.45861,-0.176389 -0.45861,-0.07056 h -0.49389 l -0.49389,0.07056 -0.45861,0.176389 -0.42334,0.246944 -0.38805,0.352778 -0.28222,0.352778 -0.24695,0.458611 -0.14111,0.458611 -0.0705,0.493889 v 0.493889 l 0.10583,0.493889 0.21167,0.423333 0.28222,0.423333 0.3175,0.352778 0.42333,0.282222 0.42333,0.211667 0.49389,0.141111 0.49389,0.03528 m -24.02416,0 0.49389,-0.03528 0.49388,-0.141111 0.42334,-0.211667 0.42333,-0.282222 0.3175,-0.352778 0.28222,-0.423333 0.17639,-0.423333 0.10584,-0.493889 0.0353,-0.493889 -0.0705,-0.493889 -0.14111,-0.458611 -0.24695,-0.458611 -0.28222,-0.352778 -0.38806,-0.352778 -0.42333,-0.246944 -0.45861,-0.176389 -0.49389,-0.07056 h -0.49389 l -0.45861,0.07056 -0.49389,0.176389 -0.42333,0.246944 -0.35278,0.352778 -0.3175,0.352778 -0.21167,0.458611 -0.17638,0.458611 -0.0706,0.493889 0.0353,0.493889 0.10583,0.493889 0.21167,0.423333 0.24694,0.423333 0.35278,0.352778 0.38806,0.282222 0.45861,0.211667 0.45861,0.141111 0.49389,0.03528 m 18.76777,-2.998611 0.10584,0.07055 0.10583,0.07056 0.0706,0.105833 0.0706,0.07056 0.0706,0.105833 0.0353,0.105833 0.0353,0.141112 0.0353,0.105833 m -0.52917,-0.776111 -1.05833,-0.529167 -1.09361,-0.423333 -1.12889,-0.352778 -1.12889,-0.246944 -1.16417,-0.141111 -1.19944,-0.03528 -1.16417,0.03528 -1.16416,0.141111 -1.16417,0.246944 -1.12889,0.352778 -1.09361,0.423333 -1.02306,0.529167 m -0.52916,0.776111 0.0353,-0.105833 0.0353,-0.141112 0.0353,-0.105833 0.0706,-0.105833 0.0706,-0.07056 0.0706,-0.105833 0.10583,-0.07056 0.10583,-0.07055 m -0.52916,0.776111 -0.0353,0.176389 v 0.211666 l -0.0706,0.176389 -0.0353,0.176389 -0.0706,0.176389 -0.0353,0.211667 -0.0705,0.176389 -0.0706,0.176388 m 0.17639,1.093611 -0.0705,-0.105833 -0.10584,-0.105833 -0.0353,-0.141111 -0.0706,-0.176389 v -0.141111 -0.141111 l 0.0353,-0.141111 0.0706,-0.141112 m 0.17639,1.093611 1.62278,1.622778 m 1.27,0.141111 -0.17639,0.07056 -0.14111,0.07056 -0.17639,0.03528 h -0.17639 l -0.14111,-0.03528 -0.17639,-0.07056 -0.14111,-0.105833 -0.14111,-0.105834 m 1.27,0.141111 0.74083,-0.423333 0.81139,-0.388056 0.84667,-0.246944 0.88194,-0.176389 0.88195,-0.105833 h 0.88194 l 0.88195,0.105833 0.84666,0.176389 0.84667,0.246944 0.81139,0.388056 0.77611,0.423333 m 1.27,-0.141111 -0.14111,0.105834 -0.14111,0.105833 -0.17639,0.07056 -0.17639,0.03528 h -0.14111 l -0.17639,-0.03528 -0.17639,-0.07056 -0.14111,-0.07056 m 1.27,-0.141111 1.5875,-1.622778 m 0.21167,-1.093611 0.0706,0.141112 0.0353,0.141111 v 0.141111 l -0.0353,0.141111 -0.0353,0.176389 -0.0353,0.141111 -0.10584,0.105833 -0.10583,0.105833 m 0.21167,-1.093611 -0.0706,-0.176388 -0.0706,-0.176389 -0.0705,-0.211667 -0.0353,-0.176389 -0.0706,-0.176389 -0.0353,-0.176389 -0.0353,-0.211666 v -0.176389 m 4.19806,4.198055 0.10583,0.03528 0.14111,0.03528 0.10583,0.03528 0.10584,0.07055 0.0706,0.07056 0.10584,0.07055 0.0705,0.105833 0.0706,0.105834 m -0.77611,-0.529167 h -0.17639 l -0.21167,-0.03528 -0.17639,-0.03528 -0.17639,-0.07056 -0.17639,-0.03528 -0.21166,-0.07055 -0.17639,-0.07056 -0.17639,-0.07056 m -1.09361,0.211666 0.10583,-0.105833 0.10583,-0.105833 0.14112,-0.03528 0.17638,-0.03528 0.14112,-0.03528 h 0.14111 l 0.14111,0.03528 0.14111,0.07056 m -1.09361,0.211666 -1.62278,1.5875 m -0.14111,1.27 -0.0706,-0.141111 -0.0706,-0.176389 -0.0353,-0.176389 v -0.141111 l 0.0353,-0.176389 0.0706,-0.176389 0.0706,-0.141111 0.14111,-0.141111 m -0.14111,1.27 0.42333,0.776111 0.35278,0.811389 0.28222,0.811389 0.17639,0.881944 0.10583,0.881945 v 0.881944 l -0.10583,0.881945 -0.17639,0.881944 -0.28222,0.846667 -0.35278,0.776111 -0.42333,0.776111 m 0.14111,1.27 -0.14111,-0.141111 -0.0706,-0.141112 -0.0706,-0.176388 -0.0353,-0.141112 v -0.176388 l 0.0353,-0.176389 0.0706,-0.141111 0.0706,-0.176389 m 0.14111,1.27 1.62278,1.622777 m 1.09361,0.176389 -0.14111,0.07056 -0.14111,0.03528 h -0.14111 l -0.14112,-0.03528 -0.17638,-0.03528 -0.14112,-0.03528 -0.10583,-0.105833 -0.10583,-0.07056 m 1.09361,0.176389 0.17639,-0.07056 0.17639,-0.07056 0.21166,-0.07055 0.17639,-0.03528 0.17639,-0.03528 0.17639,-0.07056 h 0.21167 l 0.17639,-0.03528 m 0.77611,-0.529167 -0.0706,0.105833 -0.0705,0.105834 -0.10584,0.07055 -0.0706,0.07056 -0.10584,0.07055 -0.10583,0.03528 -0.14111,0.03528 -0.10583,0.03528 m 0.77611,-0.529167 0.52916,-1.023055 0.42334,-1.093612 0.35277,-1.128888 0.24695,-1.164167 0.14111,-1.164167 0.0353,-1.164166 -0.0353,-1.199445 -0.14111,-1.164166 -0.24695,-1.128889 -0.35277,-1.128889 -0.42334,-1.093611 -0.52916,-1.058333 m -4.97417,18.23861 -0.0353,0.141111 -0.0353,0.105833 -0.0353,0.105834 -0.0706,0.105833 -0.0706,0.105833 -0.0706,0.07056 -0.10583,0.07056 -0.10584,0.07055 m 0.52917,-0.776111 v -0.176389 l 0.0353,-0.211667 0.0353,-0.176388 0.0706,-0.176389 0.0353,-0.176389 0.0705,-0.176389 0.0706,-0.176389 0.0706,-0.176389 m -0.21167,-1.128889 0.10583,0.105834 0.10584,0.141111 0.0353,0.141111 0.0353,0.141111 0.0353,0.141111 v 0.141111 l -0.0353,0.176389 -0.0706,0.141111 M 290.75,60.704769 289.1625,59.081992 m -1.27,-0.141111 0.14111,-0.07056 0.17639,-0.07056 h 0.17639 0.14111 l 0.17639,0.03528 0.17639,0.03528 0.14111,0.105833 0.14111,0.105834 m -1.27,-0.141111 -0.77611,0.423333 -0.81139,0.388055 -0.84667,0.246945 -0.84666,0.211667 -0.88195,0.07055 h -0.88194 l -0.88195,-0.07055 -0.88194,-0.211667 -0.84667,-0.246945 -0.81139,-0.388055 -0.74083,-0.423333 m -1.27,0.141111 0.14111,-0.105834 0.14111,-0.105833 0.17639,-0.03528 0.14111,-0.03528 h 0.17639 0.17639 l 0.14111,0.07056 0.17639,0.07056 m -1.27,0.141111 -1.62278,1.622777 m -0.17639,1.128889 -0.0706,-0.141111 -0.0353,-0.176389 v -0.141111 -0.141111 l 0.0706,-0.141111 0.0353,-0.141111 0.10584,-0.141111 0.0705,-0.105834 m -0.17639,1.128889 0.0706,0.176389 0.0705,0.176389 0.0353,0.176389 0.0706,0.176389 0.0353,0.176389 0.0706,0.176388 v 0.211667 l 0.0353,0.176389 m 0.52916,0.776111 -0.10583,-0.07055 -0.10583,-0.07056 -0.0706,-0.07056 -0.0706,-0.105833 -0.0706,-0.105833 -0.0353,-0.105834 -0.0353,-0.105833 -0.0353,-0.141111 m 0.52916,0.776111 1.02306,0.529167 1.09361,0.423333 1.12889,0.352778 1.16417,0.246944 1.16416,0.141111 1.16417,0.03528 1.19944,-0.03528 1.16417,-0.141111 1.12889,-0.246944 1.12889,-0.352778 1.09361,-0.423333 1.05833,-0.529167 m -19.01472,-19.014721 0.0706,-0.105834 0.0705,-0.105833 0.0706,-0.07055 0.10583,-0.07056 0.10584,-0.07055 0.10583,-0.03528 0.10583,-0.03528 0.14111,-0.03528 m -0.77611,0.529167 -0.52916,1.058333 -0.42334,1.093611 -0.35278,1.128889 -0.24694,1.128889 -0.14111,1.164166 -0.0353,1.199445 0.0353,1.164166 0.14111,1.164167 0.24694,1.164167 0.35278,1.128888 0.42334,1.093612 0.52916,1.023055 m 0.77611,0.529167 -0.14111,-0.03528 -0.10583,-0.03528 -0.10583,-0.03528 -0.10584,-0.07055 -0.10583,-0.07056 -0.0706,-0.07055 -0.0705,-0.105834 -0.0706,-0.105833 m 0.77611,0.529167 0.17639,0.03528 h 0.17639 l 0.21167,0.07056 0.17639,0.03528 0.17639,0.03528 0.17638,0.07055 0.17639,0.07056 0.17639,0.07056 m 1.12889,-0.176389 -0.10583,0.07056 -0.14111,0.105833 -0.14111,0.03528 -0.14112,0.03528 -0.14111,0.03528 h -0.14111 l -0.17639,-0.03528 -0.14111,-0.07056 m 1.12889,-0.176389 1.62278,-1.622777 m 0.14111,-1.27 0.0706,0.176389 0.0706,0.141111 v 0.176389 0.176388 l -0.0353,0.141112 -0.0353,0.176388 -0.10583,0.141112 -0.10583,0.141111 m 0.14111,-1.27 -0.45861,-0.776111 -0.35278,-0.776111 -0.24694,-0.846667 -0.21167,-0.881944 -0.0706,-0.881945 v -0.881944 l 0.0706,-0.881945 0.21167,-0.881944 0.24694,-0.811389 0.35278,-0.811389 0.45861,-0.776111 m -0.14111,-1.27 0.10583,0.141111 0.10583,0.141111 0.0353,0.176389 0.0353,0.176389 v 0.141111 0.176389 l -0.0706,0.176389 -0.0706,0.141111 m -0.14111,-1.27 -1.62278,-1.5875 m -1.12889,-0.211666 0.14111,-0.07056 0.17639,-0.03528 h 0.14111 l 0.14111,0.03528 0.14112,0.03528 0.14111,0.03528 0.14111,0.105833 0.10583,0.105833 m -1.12889,-0.211666 -0.17639,0.07056 -0.17639,0.07056 -0.17638,0.07055 -0.17639,0.03528 -0.17639,0.07056 -0.21167,0.03528 -0.17639,0.03528 h -0.17639 m -40.21666,24.27111 h -0.24695 l -0.24694,-0.07056 -0.24694,-0.141112 -0.17639,-0.141111 -0.17639,-0.211666 -0.10584,-0.211667 -0.0706,-0.246944 -0.0353,-0.246945 m 0,-0.3175 V 48.780917 m 0,-0.635 v -2.046111 m 0,-12.699999 v -2.786945 m 0,0 v 2.786945 m 0,12.699999 v 2.046111 m 0,0.635 v 18.414999 m 0,-39.405276 v 0.07056 0.141111 0.282222 0.352778 0.423333 0.458611 0.529167 0.564444 m 0,0 V 30.048422 29.519255 29.060644 28.637311 28.284533 28.002311 27.8612 27.79064 m 0,2.822222 v 36.900554 m 0,-38.205831 v 0 0.105833 0.105833 0.176389 0.176389 0.246945 0.211666 0.282222 m 0,0 V 30.33064 30.118974 29.872029 29.69564 29.519251 29.413418 29.307585 M 317.7726,27.79064 v 0.07056 0.141111 0.282222 0.352778 0.423333 0.458611 0.529167 0.564444 m 0,-2.822222 h -87.48889 m 34.18417,32.349721 -0.0353,-0.176389 -0.0353,-0.211667 -0.10583,-0.141111 -0.10584,-0.176389 -0.17639,-0.105833 -0.17638,-0.105833 -0.17639,-0.07056 h -0.17639 m 0.98778,9.630833 v -8.643055 m 9.2075,-0.564444 h 0.0353 l 0.14111,-0.03528 0.14112,-0.03528 0.14111,-0.03528 0.14111,-0.105833 0.10583,-0.07056 m 0,-14.957777 -0.10583,-0.105833 -0.14111,-0.105833 -0.14111,-0.03528 -0.14112,-0.03528 -0.14111,-0.03528 h -0.0353 m 0.70555,15.275277 1.62278,-1.622777 m 0,-11.7475 -1.62278,-1.5875 m 1.76389,12.065 -0.45861,-0.776111 -0.35278,-0.776111 -0.24694,-0.846667 -0.21167,-0.881944 -0.0706,-0.881945 v -0.881944 l 0.0706,-0.881945 0.21167,-0.881944 0.24694,-0.811389 0.35278,-0.811389 0.45861,-0.776111 m -0.14111,10.4775 0.10583,-0.141111 0.10583,-0.141112 0.0353,-0.176388 0.0353,-0.141112 V 56.89479 56.718401 l -0.0706,-0.141111 -0.0706,-0.176389 m 0,-9.2075 0.0706,-0.141111 0.0706,-0.176389 v -0.176389 -0.141111 l -0.0353,-0.176389 -0.0353,-0.176389 -0.10583,-0.141111 -0.10583,-0.141111 m 7.26722,19.861388 1.19944,-0.03528 1.16417,-0.141111 1.12889,-0.246944 1.12889,-0.352778 1.09361,-0.423333 1.05833,-0.529167 m 0,-24.518054 -1.05833,-0.529167 -1.09361,-0.423333 -1.12889,-0.352778 -1.12889,-0.246944 -1.16417,-0.141111 -1.19944,-0.03528 m -4.58611,21.131388 -0.17639,-0.07056 -0.14111,-0.07056 h -0.17639 l -0.0706,-0.03528 m 0,-13.934722 h 0.0706 l 0.17639,-0.03528 0.14111,-0.07056 0.17639,-0.07056 m 4.58611,15.663333 -0.42333,-0.03528 -0.88195,-0.07055 -0.88194,-0.211667 -0.84667,-0.246945 -0.81139,-0.388055 -0.74083,-0.423333 m 0,-14.2875 0.74083,-0.423333 0.81139,-0.388056 0.84667,-0.246944 0.88194,-0.176389 0.88195,-0.105833 h 0.42333 m 5.89139,15.769166 -0.14111,-0.105834 -0.14111,-0.105833 -0.17639,-0.03528 -0.17639,-0.03528 -0.10583,-0.03528 m 0,-13.934722 h 0.10583 l 0.17639,-0.03528 0.17639,-0.07056 0.14111,-0.105833 0.14111,-0.105834 m 1.5875,16.192499 -1.5875,-1.622777 m 0,-14.569722 1.5875,-1.622778 m -0.70556,21.166666 0.10584,-0.07055 0.10583,-0.07056 0.0706,-0.07056 0.0706,-0.105833 0.0706,-0.105833 0.0353,-0.105834 0.0353,-0.105833 0.0353,-0.141111 m 0,-22.965832 -0.0353,-0.105833 -0.0353,-0.141112 -0.0353,-0.105833 -0.0706,-0.105833 -0.0706,-0.07056 -0.0706,-0.105833 -0.10583,-0.07056 -0.10584,-0.07055 m 0.52917,23.741943 v -0.176389 l 0.0353,-0.211667 0.0353,-0.176388 0.0706,-0.176389 0.0353,-0.176389 0.0705,-0.176389 0.0706,-0.176389 0.0706,-0.176389 m 0,-20.037777 -0.0706,-0.176388 -0.0706,-0.176389 -0.0705,-0.211667 -0.0353,-0.176389 -0.0706,-0.176389 -0.0353,-0.176389 -0.0353,-0.211666 v -0.176389 m 0.38806,21.519443 0.0706,-0.141111 0.0353,-0.176389 v -0.141111 l -0.0353,-0.141111 -0.0353,-0.141111 -0.0353,-0.141111 -0.10584,-0.141111 -0.10583,-0.105834 m 0,-17.815277 0.10583,-0.105833 0.10584,-0.105833 0.0353,-0.141111 0.0353,-0.176389 0.0353,-0.141111 v -0.141111 l -0.0353,-0.141111 -0.0706,-0.141112 m 1.94027,17.78 h 0.10584 l 0.14111,-0.03528 0.14111,-0.07056 m 0,-15.345832 -0.14111,-0.07056 -0.14111,-0.03528 h -0.10584 m 0.38806,15.451666 0.17639,-0.07056 0.17639,-0.07056 0.21166,-0.07055 0.17639,-0.03528 0.17639,-0.03528 0.17639,-0.07056 h 0.21167 l 0.17639,-0.03528 m 0,-14.569722 h -0.17639 l -0.21167,-0.03528 -0.17639,-0.03528 -0.17639,-0.07056 -0.17639,-0.03528 -0.21166,-0.07055 -0.17639,-0.07056 -0.17639,-0.07056 m 1.48167,14.957777 0.10583,-0.03528 0.14111,-0.03528 0.10583,-0.03528 0.10584,-0.07055 0.0706,-0.07056 0.10584,-0.07055 0.0705,-0.105834 0.0706,-0.105833 m 0,-13.511388 -0.0706,-0.105834 -0.0705,-0.105833 -0.10584,-0.07055 -0.0706,-0.07056 -0.10584,-0.07055 -0.10583,-0.03528 -0.14111,-0.03528 -0.10583,-0.03528 m 0.77611,14.040555 0.52916,-1.023055 0.42334,-1.093612 0.35277,-1.128888 0.24695,-1.164167 0.14111,-1.164167 0.0353,-1.164166 -0.0353,-1.199445 -0.14111,-1.164166 -0.24695,-1.128889 -0.35277,-1.128889 -0.42334,-1.093611 -0.52916,-1.058333 m 1.72861,6.738055 v -0.03528 m -6.06778,3.951111 -0.24694,-0.246944 m -28.85723,-1.693334 0.35278,-0.07055 0.24695,-0.282222 0.10583,-0.246945 0.0353,-0.282222 m 0,0 -0.0353,-0.388055 -0.17639,-0.3175 -0.24694,-0.141112 -0.28223,-0.03528 m 0,0 -0.35277,0.07055 -0.24695,0.246945 -0.10583,0.282222 v 0.282222 m 0,0 0.0353,0.352778 0.17639,0.3175 0.21166,0.141111 0.28222,0.07055 m -1.19944,-0.881944 0.0353,-0.352778 0.0706,-0.282222 m 0,0 0.24695,-0.388055 0.3175,-0.211667 m 0,0 0.28222,-0.07056 0.24694,-0.03528 m 0,0 0.56445,0.141111 0.42333,0.352777 0.17639,0.388056 0.0706,0.458611 m 0,0 -0.10584,0.564445 -0.28222,0.458611 -0.38805,0.211666 -0.45862,0.07056 m 0,0 -0.52916,-0.105834 -0.45861,-0.352777 -0.17639,-0.388056 -0.0353,-0.458611 m 0.10583,-0.635 0.24695,-0.388055 0.3175,-0.211667 m -2.96334,2.504722 v -2.575278 m 0,0 h 1.905 m 0,0 v 0.458611 m 0,0 h -1.41111 m 0,0 v 0.529167 m 0,0 h 1.34056 m 0,0 v 0.458611 m 0,0 h -1.34056 m 0,0 v 0.705556 m 0,0 h 1.44639 m 0,0 v 0.423333 m 0,0 h -1.94028 m 0,0 v -2.575278 m -2.54,2.575278 v -2.575278 m 0,2.575278 v -2.575278 m 0.49389,2.151945 h 0.38806 m 0,0 h 0.17639 l 0.14111,-0.03528 m 0,0 0.24694,-0.105833 0.14111,-0.282223 0.0353,-0.423333 m 0,0 v -0.282222 l -0.10583,-0.282222 -0.14111,-0.176389 -0.21167,-0.105834 m 0,0 h -0.24694 -0.21167 m 0,0 h -0.21167 m 0,0 v 1.693334 m -0.49389,-2.151945 h 0.91723 m 0,0 0.28222,0.03528 0.21167,0.03528 m 0,0 0.38805,0.211667 0.21167,0.352777 0.10583,0.352778 v 0.3175 m 0,0 v 0.3175 l -0.0705,0.246945 m 0,0 -0.14112,0.282222 -0.14111,0.176389 m 0,0 -0.17639,0.141111 -0.17638,0.07055 m 0,0 -0.24695,0.03528 h -0.21167 m 0,0 h -0.9525 m 1.62278,-1.27 v -0.282222 l -0.10583,-0.282222 -0.14111,-0.176389 -0.21167,-0.105834 m 0.0353,1.658056 0.24694,-0.105833 0.14111,-0.282223 0.0353,-0.423333 m -2.64583,1.27 v -2.575278 m 0,2.575278 v -2.575278 m 0,0 h 0.49389 m 0,0 v 2.575278 m 0,0 h -0.49389 m -1.65806,0 -0.9525,-2.575278 m 0,0 h 0.52917 m 0,0 0.67028,1.940278 m 0,0 0.67028,-1.940278 m 0,0 h 0.52916 m 0,0 -0.9525,2.575278 m 0,0 h -0.49389 m 0,0 -0.9525,-2.575278 m 1.19945,1.940278 0.67028,-1.940278 m 6.10305,6.067778 v -2.116667 m 0,0 H 259.635 m 0,0 v -0.423218 m 0,0 h 2.01083 m 0,0 v 0.423333 m 0,0 H 260.905 m 0,0 v 2.116667 m 0,0 h -0.49389 M 259.635,55.518972 v -0.423333 m 0.77611,2.54 v -2.116667 m -3.175,-0.423333 H 257.73 m 0,0 v 1.375833 m 0,0 v 0.246945 l 0.0353,0.176389 m 0,0 0.0705,0.176388 0.14111,0.141112 0.3175,0.03528 m 0,0 0.24695,-0.03528 0.10583,-0.07056 0.0706,-0.105833 0.0705,-0.246945 v -0.282222 m 0,0 v -1.411107 m 0,0 h 0.49389 m 0,0 v 1.340555 m 0,0 v 0.352778 l -0.0706,0.352778 -0.14111,0.282222 -0.35278,0.211667 -0.42334,0.03528 m 0,0 h -0.35277 l -0.3175,-0.141111 -0.21167,-0.176389 -0.10583,-0.246945 m 0,0 -0.0706,-0.388055 v -0.282223 m 0,0 v -1.340557 m 0,1.340555 v -1.340555 m 0.0706,2.010833 -0.0706,-0.388055 v -0.282223 m 1.55222,0.07056 v -1.411115 m -3.175,2.151944 0.3175,-0.07055 0.28223,-0.282222 0.0706,-0.246945 0.0353,-0.282222 m 0,0 -0.0353,-0.352778 -0.17639,-0.3175 -0.24694,-0.176389 -0.24695,-0.03528 m 0,0 -0.35277,0.07055 -0.28223,0.246945 -0.0705,0.282222 -0.0353,0.282222 m 0,0 0.0353,0.352778 0.17639,0.3175 0.24694,0.176389 0.28222,0.03528 m -1.23472,-0.881944 0.0353,-0.352778 0.0706,-0.282222 m 0,0 0.28223,-0.388056 0.28222,-0.176388 m 0,0 0.28222,-0.105834 h 0.24695 m 0,0 0.56444,0.105834 0.42333,0.352777 0.21167,0.423334 0.0353,0.423333 m 0,0 -0.0706,0.564444 -0.3175,0.458611 -0.38805,0.211667 -0.42334,0.07056 m 0,0 -0.56444,-0.105834 -0.42333,-0.352777 -0.21167,-0.388056 -0.0353,-0.458611 m 0.10583,-0.635 0.28223,-0.388056 0.28222,-0.176388 M 240.30216,27.684807 v 0.105833 m 1.27,-0.105833 v 0.105833 m -1.27,-0.105833 v 0 h 0.0706 0.14112 0.14111 0.21166 0.21167 0.24694 0.24695 m 32.34972,0 v 0.105833 m 0,-0.105833 h -32.34977 m 33.655,0 v 0.105833 m 0,-0.105833 h -0.0353 -0.0706 -0.10583 -0.17639 -0.17639 -0.24694 -0.24695 -0.24694 m -33.61972,0 v 0.105833 m -12.02972,40.216665 0.0706,0.529167 0.14111,0.529166 0.28223,0.493889 0.35277,0.423333 0.42334,0.352778 0.45861,0.246945 0.52917,0.176389 0.56444,0.03528 m -2.82222,-2.786944 0.0706,0.529167 0.14111,0.529166 0.28223,0.493889 0.35277,0.423333 0.42334,0.352778 0.45861,0.246945 0.52917,0.176389 0.56444,0.03528 m -2.82222,-2.786944 V 66.9137 m 0,0 v -0.282222 -0.246945 -0.246944 -0.211667 -0.176389 -0.141111 -0.07055 -0.03528 m 0,0 v 0.03528 0.07055 0.141111 0.176389 0.211667 0.246944 0.246945 0.282222 m 0,0 v 1.093611 m 0,0 V 51.179806 m 0,-2.610556 V 30.612862 m 0,0 v -0.564444 -0.529167 -0.458611 -0.423333 -0.352778 -0.282222 -0.141111 -0.07056 m 0,0 v 0.07056 0.141111 0.282222 0.352778 0.423333 0.458611 0.529167 0.564444 m 0,0 v 37.394443 m 0,-22.754166 V 37.63314 m 0,0 v -0.282222 -0.246945 -0.246944 -0.211667 -0.176389 -0.141111 -0.07055 -0.03528 m 0,0 v 0 -0.03528 -0.03528 -0.07055 -0.07056 -0.07055 -0.105834 -0.105833 m 0,0 v -2.681116 m 0,-0.493889 v 0.03528 0.07055 0.03528 0.105834 0.07055 0.105833 0.07056 m 0,0 v -0.07056 -0.105833 -0.07055 -0.105834 -0.03528 -0.07055 -0.03528 m 0,0.493889 v 13.123333 m 0,0.493889 v 0 -0.03528 -0.03528 -0.07056 -0.07055 -0.105833 -0.07056 -0.105833 m 0,0.493889 v -0.03528 -0.07056 -0.141111 -0.176389 -0.211666 -0.246945 -0.246944 -0.282223 m 0,0.3175 v 0.105834 0.105833 0.07056 0.105833 0.03528 0.03528 0.03528 m 0,0 v 0 -0.03528 -0.03528 -0.03528 -0.105833 -0.07056 -0.105833 -0.105834 m 0,0 V 44.72396 m 0,0 V 44.6534 m 0,0 v -0.105833 -0.141111 -0.141111 -0.211667 -0.211667 -0.246944 -0.246944 -0.246945 m 0,0 v -2.187222 m 0,0 v -0.282222 -0.3175 -0.282222 -0.246945 -0.176389 -0.176389 -0.07055 -0.03528 m 0,0 v 0.03528 0.07055 0.176389 0.176389 0.246945 0.282222 0.3175 0.282222 m 0,0 v 2.187222 m 0,0 v 0.246945 0.246944 0.246944 0.211667 0.176389 0.176389 0.141111 0.07056 m 0,0 v 0.141111 m 0,0 v 0.811388 m 1.51694,-17.779999 h -1.51694 m 1.51694,0 v 0.07056 0.141111 0.282222 0.352778 0.423333 0.458611 0.529167 0.564444 m -1.51694,0 h 1.51694 m 88.51194,0 v 37.394443 m 0,-37.394443 h 1.48167 m 0,37.394443 V 30.612862 m -2.78695,40.181387 0.52917,-0.03528 0.52917,-0.176389 0.49389,-0.246945 0.42333,-0.352778 0.35278,-0.423333 0.24694,-0.493889 0.17639,-0.529166 0.0353,-0.529167 m -88.68839,2.786947 h 85.90138 M 229.78938,68.007305 V 30.612862 m 1.30528,38.699721 -0.24694,-0.03528 -0.24695,-0.07056 -0.24694,-0.141111 -0.17639,-0.141111 -0.17639,-0.211666 -0.10583,-0.211667 -0.0706,-0.246945 -0.0353,-0.246944 m 1.30528,1.305278 h 85.90138 m 1.30528,-1.305278 -0.0353,0.246944 -0.0706,0.246945 -0.14111,0.211667 -0.14111,0.211666 -0.21167,0.141111 -0.21167,0.141111 -0.24694,0.07056 -0.24695,0.03528 m 0,0 0.24695,-0.03528 0.24694,-0.07056 0.21167,-0.141111 0.21167,-0.141111 0.14111,-0.211666 0.14111,-0.211667 0.0706,-0.246945 0.0353,-0.246944 m 0,-37.394443 V 30.048412 29.519245 29.060634 28.637301 28.284523 28.002301 27.86119 27.79063 m 0,40.216665 v -2.822222 m 0,-15.38111 v -3.704167 m 0,-12.699999 v -2.786945 m 0,-2.822222 v 0.07056 0.141111 0.282222 0.352778 0.423333 0.458611 0.529167 0.564444 m 0,34.501665 v -1.128882 m 0,-1.340556 v -0.493889 m 0,-8.008055 V 53.64925 m 0,-3.845277 v -0.705556 m 0,16.509999 v -0.03528 -0.07055 -0.03528 -0.105833 -0.07056 -0.105833 -0.07056 m 0,0 v 0.07056 0.105833 0.07056 0.105833 0.03528 0.07055 0.03528 m 0,-16.509999 v 16.01611 m 0,-16.509999 v 0 0.03528 0.03528 0.07055 0.07056 0.105833 0.07056 0.105833 m 0,0 v -0.105833 -0.07056 -0.105833 -0.07056 -0.07055 -0.03528 -0.03528 m 0,-2.151944 v -0.03528 -0.141111 -0.211667 -0.246944 -0.246945 -0.246944 -0.211667 -0.07055 m 0,0 v 0.07055 0.211667 0.246944 0.246945 0.246944 0.211667 0.141111 0.03528 m 0,18.661943 v -1.128888 m 0,-1.340556 v -0.493889 m 0,-8.008055 V 53.64925 m 0,-3.845277 v -0.705556 m 0,16.509999 v -0.03528 -0.07055 -0.03528 -0.105833 -0.07056 -0.105833 -0.07056 m 0,0 v 0.07056 0.105833 0.07056 0.105833 0.03528 0.07055 0.03528 m 0,-16.509999 v 0.705556 m 0,3.845277 v 0.493889 m 0,8.008055 v 0.493889 m 0,1.340556 v 1.128888 m 0,-16.509999 v 0 0.03528 0.03528 0.07055 0.07056 0.105833 0.07056 0.105833 m 0,0 v -0.105833 -0.07056 -0.105833 -0.07056 -0.07055 -0.03528 -0.03528 m 0,16.298333 v 0.105833 0.07056 0.105833 0.07055 0.07056 0.03528 0.03528 m 0,-11.7475 v 0.493889 m 0,8.008055 v 0.493889 m 0,1.340556 v 0.917222 m 0,0.493889 v 0 -0.03528 -0.03528 -0.07056 -0.07055 m 0,-19.049999 v 0.105833 0.105834 0.07055 0.07056 0.07055 0.07056 0.03528 m 0,-13.617222 v 4.021666 m 0,2.892778 v 2.187222 m 0,2.892778 v 1.093611 m 0,-13.793611 v 0.03528 0.03528 0.07056 0.07056 0.105833 0.105834 0.141111 0.141111 m 0,0 v -0.141111 -0.141111 -0.105834 -0.105833 -0.07056 -0.07056 -0.03528 -0.03528 m 0,13.793611 v -0.03528 m 0,-12.699999 v -0.35278 m 0,13.617222 v -0.03528 -0.07056 -0.07055 -0.07056 -0.07055 -0.105834 -0.105833 m 0,-3.527778 v 0.03528 0.105833 0.141111 0.176389 0.211667 0.282222 0.282222 0.282223 m 0,0 V 43.84203 43.559808 43.277586 43.065919 42.88953 42.748419 42.642586 42.607306 m 0,2.363611 v -0.846666 m 0,2.363611 v -0.03528 -0.07056 -0.141111 -0.211666 -0.211667 -0.246945 -0.282222 -0.3175 m 0,0 v 0.3175 0.282222 0.246945 0.211667 0.211666 0.141111 0.07056 0.03528 m 0,-2.363611 v 0.846666 m 0,1.516945 v -0.03528 -0.07056 -0.141111 -0.211666 -0.211667 -0.246945 -0.282222 -0.246944 m 0,0 v 0.246944 0.282222 0.246945 0.211667 0.211666 0.141111 0.07056 0.03528 m 0,-9.913055 v 0.03528 0.141111 0.211667 0.282222 0.352778 0.388056 0.388055 0.423333 0.352778 0.352778 0.282222 0.211667 0.141111 0.03528 -0.03528 -0.141111 -0.03528 m 0,-2.892778 v -0.105833 -0.211667 -0.141111 -0.03528 m 0,5.079999 v 0.03528 0.141111 0.211667 0.282222 0.352778 0.388055 0.388056 0.423333 0.352778 0.352778 0.282222 0.211667 0.141111 0.03528 -0.03528 -0.141111 -0.03528 m 0,-2.892778 v -0.105833 -0.211667 -0.141111 -0.03528 m 1.48167,-13.864166 h -1.48167 m 1.48167,2.822222 v -0.564444 -0.529167 -0.458611 -0.423333 -0.352778 -0.282222 -0.141111 -0.07056 m 0.10583,10.759722 h -0.10583 m 0.10583,2.575278 v -2.575278 m 0,2.575278 h -0.10583 m 0.10583,-8.643055 h -0.10583 m 0.10583,0.03528 h -0.10583 m 0.10583,2.575278 v -2.575278 m 0,2.575278 h -0.10583 m 0.10583,6.067777 h -0.10583 m -91.58111,7.408333 h 0.0706 m -0.0706,0.105834 v -0.105834 m 0,2.610556 h 0.0706 m -0.0706,0 v -1.693333 m 0,0 v 1.693333 m 0,0 v -2.575278 m 0,0 v 1.693333 m 0,0 v -1.693333 m 0,0 v 2.575278 m 0,0 h 0.0706 m -0.0706,-2.575278 h 0.0706 m 49.84749,-3.774722 v -1.516944 m 0,-4.515556 v 0 m -1.905,2.786945 v 1.728611 m -0.635,-0.776111 V 41.83119 m -5.75027,13.864166 h 0.0353 m 19.08527,-16.686388 v 0 m 2.2225,7.126111 v -0.07056 m 4.55084,0 h 0.14111 0.0353 m -6.94972,-7.055555 v 0 m 2.2225,7.126111 v -0.07056 m -60.88944,2.716389 h -0.49389 m 0,-0.635 h 0.49389 m -0.49389,0 h 0.49389 m 48.47166,-3.527777 h -0.14111 -0.21166 -0.14111 -0.0353 m 6.31472,-1.516945 h 0.28222 0.635 0.21167 m 0.67028,0 h 0.3175 0.0353 m -56.40916,-6.420555 h -0.49389 m 41.31028,8.254999 v 0 m -0.45861,0.846667 v 0 m 47.23694,-0.987778 v 0.246945 0.246944 0.246945 0.176389 0.176388 0.105834 0.07055 0.03528 m 0,0 h -0.10583 m 0.10583,-1.305278 V 44.230068 M 317.7722,42.92479 h 0.10583 m 0,0 v 0.03528 0.07056 0.141111 0.141111 0.211666 0.211667 0.246945 0.246944 m -32.17337,-0.599712 h 0.91722 m 0.56444,0.635 v 0 m 30.58584,1.834444 h 0.52916 m -0.52916,-12.699999 h 0.52916 m 0,12.699999 h -0.52916 m -87.98278,-6.0325 h 0.49389 m 0,5.538611 h -0.49389 m 66.28694,0.529167 h -0.0353 l -0.0706,-0.03528 -0.0353,-0.03528 -0.0353,-0.03528 -0.0353,-0.03528 -0.0353,-0.07056 -0.0353,-0.07055 m 0,0 -0.0705,-0.3175 m -10.05417,-7.514167 v 5.609167 m 0.67028,0 v -5.503325 m -0.67028,-0.105834 v 5.609167 m 9.13694,3.563055 h -4.37444 m -20.35528,0 v 0 m 25.99972,-1.058333 h -5.00944 m -20.56694,0 h -0.0353 M 229.78938,33.399807 h 0.49389 m -0.49389,12.699999 h 0.49389 m 0,-12.699999 h -0.49389 m 0.3175,34.748609 v -0.9525 m 0.17639,0 h -0.17639 m 0.35278,0.9525 h -0.35278 m 0,-0.9525 h -0.10583 -0.0706 -0.10583 -0.0353 m 0.3175,0.9525 h -0.10583 -0.0706 -0.10583 -0.0353 m 90.27583,-3.951111 h -0.10583 m 0.10583,-1.905 v 1.905 m 0,-1.905 h -0.10583 m -66.18111,1.446389 v 1.446389 m 0,-1.446389 h 0.98778 m 6.42055,0 h 3.28084 m 0,-0.846667 h -2.89278 m -6.91445,0.740834 -0.10583,0.105833 m 22.61305,0.670278 h 0.21167 m 12.45306,-0.246945 v 0.03528 m -38.3821,-1.481668 h 2.92805 m 7.19667,0 h 2.89278 m 11.42999,0 h 1.48167 m 0,-3.210278 v 4.092222 m 0,0.881944 v 0 m 0,-4.974166 h 1.65806 m 25.32944,9.278055 -0.10583,0.105833 -0.14111,0.03528 h -0.14112 m 0,0 h -0.14111 l -0.10583,-0.03528 -0.14111,-0.105833 m 0.38805,0.141111 v 0 m 6.0325,-0.141111 -0.10583,0.105833 -0.14111,0.03528 h -0.10583 m -0.0353,0 h -0.10583 l -0.14112,-0.03528 -0.14111,-0.105833 m 0.42334,0.141111 h -0.0353 m 10.16,-18.273888 h 0.17639 m 0,0 v 12.488333 m 0,0 h -0.17639 m -15.80445,5.785555 v -0.03528 m 5.67973,0.03528 v -0.03528 m 8.64305,-6.244166 -0.52916,-0.03528 m 0,-2.892777 0.52916,-0.07056 m 0,-5.503333 -0.52916,-0.03528 m 0,-2.892777 0.52916,-0.07056 m 0,12.841111 h -0.52916 m 0,-1.905 0.52916,0.07055 m 0,-8.501944 -0.52916,-0.07055 m 0.52916,6.596944 -0.52916,0.03528 m 0,-8.501945 0.52916,-0.03528 m -0.52916,-1.869722 h 0.52916 m 1.65806,-0.352778 v 0.246944 m 0,-0.564444 v 0.03528 0.07055 0.105833 0.105834 m 0,0.246944 -0.0353,0.141111 -0.0706,0.141111 -0.0705,0.03528 m 0.17639,-0.881944 h -0.17639 m 0.17639,15.204721 v 0.141111 0.07056 0.07056 0.03528 m 0,0 h -0.17639 m 0,-0.881944 0.0705,0.03528 0.0706,0.141111 0.0353,0.141111 m 0,0 v 0.246944 m -1.905,-14.569721 -0.0706,0.03528 m 0.0706,14.216943 -0.0706,-0.03528 m 0.21167,0.141111 v 0 l -0.0353,-0.03528 -0.0705,-0.03528 -0.0353,-0.03528 m 0.14111,-14.358055 v 0.03528 h -0.0353 -0.0353 l -0.0353,0.03528 -0.0353,0.03528 m 1.905,7.619999 h 0.35277 m 0,0 h 0.0353 m -0.0353,-0.987777 h 0.0353 m -0.38805,0 h 0.35277 m 0,0.987777 v -0.987777 m -2.04611,-6.596944 -0.0706,-0.141112 m 0,14.463889 0.0706,-0.141111 m 2.08139,-7.584722 v 0.987777 m -68.89749,7.796389 h 4.65666 m 3.70417,0 h 4.65667 m 14.74611,0 h 0.0353 m 6.42056,0 h 0.28222 m 0,0 h 1.37583 m -24.65916,0 v -1.19944 m 0,0 h 1.79917 m -8.99584,-1.693334 h 5.00945 m -5.00945,-0.246944 v 0.246944 m 0,-0.246944 h 5.00945 m 0,0.246944 v -0.246944 m -5.00945,-0.246945 v 0.246945 m 5.00945,-0.246945 h -5.00945 m 5.00945,0.246945 v -0.246945 m -5.00945,0.493889 v 0.03528 0.03528 0.03528 0.03528 m 0.635,2.716389 V 64.90287 m 0,0 h 3.70417 m 0,0 v 0.246944 m 0,0 h -3.70417 m 0,0 v 0.246945 m 0,-0.635 v 0 0.03528 0.03528 0.03528 0.03528 m 3.70417,0.493889 v -0.246945 m 0,-0.246944 v -0.03528 -0.03528 -0.03528 -0.03528 m -5.43278,-1.128889 h 0.24695 m 0,0 h 0.24694 m 0,0 h 0.0353 0.0353 0.0353 0.0353 m 4.79778,1.763889 h -3.70417 m 4.37445,-2.963334 v 0 -0.03528 -0.03528 -0.03528 -0.03528 m -5.85611,0.352778 v 0.987778 m -0.24695,-0.987778 v 0.987778 m 0,-0.987778 h 0.24695 m 0.24694,0 v 0.987778 m -0.24694,-0.987778 h 0.24694 m 6.70278,0.987778 h -0.24695 m 0,0 v -0.987778 m 0,0 h 0.24695 m 0,0 v 0.987778 m -0.67028,-0.987778 v 0 h 0.0353 0.0353 0.0353 0.0353 m 0,0 h 0.28222 m -6.45583,0 h 0.0353 0.0353 0.0353 0.0353 m 6.31472,0.987778 h -0.28222 m 0,0 v -0.987778 m -0.14111,0.987778 v 0 h 0.0353 0.0353 0.0353 0.0353 m -0.14111,-0.105834 v 0.105834 m 0,-0.987778 v 0.881944 m -5.89139,0 v -0.881944 m 0,0.987778 v -0.105834 m 0.45861,-1.093611 h 5.00945 m -0.67028,2.328334 h -0.10583 m -3.4925,0 h -0.10584 m 3.59834,0 h -3.4925 m 4.51555,-2.610556 h 0.0706 l 0.10583,0.03528 0.0706,0.03528 0.10583,0.07055 0.0353,0.07056 0.0705,0.105833 0.0353,0.07056 v 0.105833 m -6.20889,0 v -0.03528 -0.03528 l 0.0353,-0.03528 0.0353,-0.03528 0.0353,-0.03528 h 0.0353 0.0353 l 0.0353,-0.03528 m 0,-0.282222 h 0.24694 m 5.00945,0 h 0.24694 m 0.35278,1.728611 -1.02306,1.023056 m 0,0 -0.0353,0.03528 -0.0353,0.03528 h -0.0353 l -0.0353,0.03528 h -0.0353 l -0.0353,0.03528 h -0.0353 m -5.08,-2.398889 v -0.105833 l 0.0353,-0.07056 0.0353,-0.105833 0.0706,-0.07056 0.0706,-0.07055 0.0705,-0.03528 0.10583,-0.03528 h 0.10584 m 0.84666,2.54 -0.98777,-1.023055 m 5.64444,-1.234723 0.0353,0.03528 h 0.0353 0.0353 l 0.0353,0.03528 v 0.03528 l 0.0353,0.03528 v 0.03528 0.03528 m 0.28222,0.987778 v 0.03528 0.03528 0.03528 l -0.0353,0.03528 v 0.03528 l -0.0353,0.03528 -0.0353,0.03528 m -1.23472,0.811389 v 0 l -0.0353,0.03528 h -0.0353 l -0.0353,0.03528 h -0.0353 m 1.16416,-1.093611 -1.02305,1.023055 m 1.05833,-1.164167 v 0.03528 0.03528 0.03528 l -0.0353,0.03528 m -5.78555,0 h -0.0353 v -0.03528 h -0.0353 v -0.03528 -0.03528 -0.03528 m 5.46806,-1.093611 h 0.24694 m -5.50333,0 h 0.24694 m 0.635,2.610556 h -0.0353 l -0.0353,-0.03528 h -0.0353 l -0.0353,-0.03528 -0.0353,-0.03528 h -0.0353 l -0.0353,-0.03528 m -0.98778,-1.023056 h -0.0353 l -0.0353,-0.03528 v -0.03528 l -0.0353,-0.03528 v -0.03528 l -0.0353,-0.03528 v -0.03528 -0.03528 m 1.48167,1.128889 v 0 h -0.0353 v -0.03528 h -0.0353 -0.0353 v -0.03528 h -0.0353 m -0.21166,0.211667 -0.98778,-1.023056 m 65.0875,1.305278 h -0.17639 m -1.48167,0 h -0.52916 m 2.18722,0 v -0.493889 m 0,-0.599722 v -0.9525 m -34.00778,2.046111 h -0.3175 m 3.03389,-1.693333 -0.10583,0.211666 -0.28223,0.423334 -0.38805,0.388055 -0.42333,0.282222 -0.49389,0.211667 -0.49389,0.141111 -0.52917,0.03528 m 0,-0.282222 -0.42333,-0.03528 m -1.72861,-4.268611 v -0.03528 l 0.28222,-0.3175 m 4.40972,2.928056 -0.10583,0.211666 -0.28222,0.423334 -0.3175,0.388055 -0.38806,0.282222 -0.45861,0.246945 -0.49389,0.141111 -0.49389,0.03528 m 0,-4.797778 0.45861,0.03528 0.42334,0.141111 0.0706,0.03528 m 1.16417,2.081389 v 0.03528 l -0.10584,0.423334 -0.17638,0.388055 -0.24695,0.352778 -0.35278,0.3175 -0.35277,0.211667 -0.42334,0.141111 -0.45861,0.03528 -0.42333,-0.03528 -0.28222,-0.105834 m -1.16417,-2.857499 0.0706,-0.141112 0.24695,-0.352777 0.3175,-0.3175 0.38805,-0.211667 0.42334,-0.141111 0.42333,-0.03528 m 1.79917,2.081389 -0.0353,-0.388056 v -0.07056 m -0.49389,-0.846667 -0.14111,-0.105833 -0.3175,-0.211667 -0.38806,-0.105833 -0.42333,-0.07056 -0.38805,0.07056 -0.38806,0.105833 -0.3175,0.211667 -0.3175,0.3175 -0.21167,0.3175 -0.10583,0.282222 m 0.84667,2.046111 0.10583,0.07056 0.38806,0.141111 0.38805,0.03528 0.42333,-0.03528 0.38806,-0.141111 0.3175,-0.211667 0.28222,-0.282222 0.21167,-0.3175 0.14111,-0.388056 0.0353,-0.423333 m 1.72861,2.151944 v 0.03528 m -2.15195,0.811389 h -1.37583 m 0,0 h -0.28222 m -21.20194,2.010833 h -13.0175 m 0,1.5875 h 13.0175 m -34.1842,-30.903338 h -0.49389 m 88.08861,6.914444 h -0.10583 m 0,-0.564444 h 0.10583 m -88.08861,-0.987778 h 0.49389 m -0.49389,-2.187222 h 0.49389 m -0.49389,3.139722 h 0.49389 m -0.49389,0.141111 h 0.49389 m 0,0.105834 h -0.49389 m 0.49389,0.846666 h -0.49389 m 88.51194,4.903611 h -0.52916 m 0,13.405555 h 0.52916 m 1.65806,-14.146388 h -0.17639 m 0,14.887221 h 0.17639 m -1.905,-14.569721 v 0.03528 m 0,14.181666 v 0.03528"
       style="fill:none;stroke:#000000;stroke-width:0.179917;stroke-linecap:round;stroke-linejoin:round;stroke-miterlimit:10;stroke-dasharray:none;stroke-opacity:1" />
    <path
       id="path10-0"
       d="m 300.41548,27.79064 v 0 m -70.13222,39.722776 v 0 m 0,-39.722776 v 0 m 0,1.516944 v 0 m 34.18417,30.832777 v 0 m 0,8.643055 v 0 m 9.91305,-9.489722 v 0 m 0,-14.957777 v 0 m 1.62278,13.334999 v 0 m 0,-11.747499 v 0 m 0.14111,10.477499 v 0 m 0,-9.207499 v 0 m 13.89944,16.862777 v 0 m 0,-24.518055 v 0 m -11.35944,19.402777 v 0 m 0,-14.287499 v 0 m 10.4775,14.42861 v 0 m 0,-14.569721 v 0 m 1.5875,16.192499 v 0 m 0,-17.815277 v 0 m -0.17639,20.390555 v 0 m 0,-22.965833 v 0 m 0.38806,21.519444 v 0 m 0,-20.037777 v 0 m 2.32833,17.674166 v 0 m 0,-15.345833 v 0 m 1.48167,14.957777 v 0 m 0,-14.569721 v 0 m 0.77611,14.040555 v 0 m 0,-13.511389 v 0 m -34.53695,7.196667 v 0 m -0.10583,0.635 v 0 m 1.19945,1.305277 v 0 m -0.52917,-2.539999 v 0 m 0.52917,-0.105834 v 0 m -3.4925,0.03528 v 0 m 0,2.575278 v 0 m -2.54,-2.575278 v 0 m 0,2.575278 v 0 m 1.16416,-2.116667 v 0 m 0.0353,1.658056 v 0 m 0.42333,-0.811389 v 0 m -2.64583,-1.305278 v 0 m 0,2.575278 v 0 m -2.61056,-2.575278 v 0 m 0.9525,2.575278 v 0 m 0.91723,-2.575278 v 0 m 5.32694,3.951111 v 0 m 0,-0.423333 v 0 m 0.77611,2.539999 v 0 m 0,-2.116666 v 0 m -3.175,-0.423333 v 0 m 0,1.340555 v 0 m 0.0706,0.670278 v 0 m 0.98778,0.564444 v 0 m 0.49388,-1.164166 v 0 m 0,-1.411111 v 0 m -4.40972,1.27 v 0 m 1.23472,1.305277 v 0 m -1.12888,-1.940277 v 0 m 0.56444,-0.564445 v 0 m 0.52917,-0.105833 v 0 m -27.305,12.946944 v 0 m 0,-2.504722 v 0 m 0,2.504722 v 0 m 0,-40.216665 v 0 m 0,8.431388 v 0 m 0,-3.668888 v 0 m 0,14.11111 v 0 m 0,-0.599722 v 0 m 0,-6.738055 v 0 m 90.02888,28.680832 v 0 m 0,-40.216665 v 0 m 0,37.817776 v 0 m 0,-17.003888 v 0 m 0,17.003888 v 0 m 0,-17.003888 v 0 m 0,16.792221 v 0 m 0,-33.055276 v 0 m 0,14.322777 v 0 m 0,-4.056944 v 0 m 0,3.880555 v 0 m 0,0 v 0 m -90.09944,4.691944 v 0 m 0,0 v 0 m 0,-2.575277 v 0 m 0,0 v 0"
       style="fill:none;stroke:#000000;stroke-width:0.179917;stroke-linecap:round;stroke-linejoin:round;stroke-miterlimit:10;stroke-dasharray:none;stroke-opacity:1" />
  </g>
</svg>
