<?xml version="1.0" encoding="UTF-8" standalone="no"?>
<!-- Created with Inkscape (http://www.inkscape.org/) -->

<svg
   width="80.933853mm"
   height="49.414616mm"
   viewBox="0 0 80.933853 49.414618"
   version="1.1"
   id="svg1"
   inkscape:version="1.4 (e7c3feb100, 2024-10-09)"
   sodipodi:docname="v3-parts.svg"
   xmlns:inkscape="http://www.inkscape.org/namespaces/inkscape"
   xmlns:sodipodi="http://sodipodi.sourceforge.net/DTD/sodipodi-0.dtd"
   xmlns="http://www.w3.org/2000/svg"
   xmlns:svg="http://www.w3.org/2000/svg">
  <title
     id="title1">PIKVM V3 Line Drawings</title>
  <sodipodi:namedview
     id="namedview1"
     pagecolor="#ffffff"
     bordercolor="#000000"
     borderopacity="0.25"
     inkscape:showpageshadow="2"
     inkscape:pageopacity="0.0"
     inkscape:pagecheckerboard="0"
     inkscape:deskcolor="#d1d1d1"
     inkscape:document-units="mm"
     inkscape:zoom="1.4142136"
     inkscape:cx="503.10647"
     inkscape:cy="491.79277"
     inkscape:window-width="1280"
     inkscape:window-height="681"
     inkscape:window-x="0"
     inkscape:window-y="0"
     inkscape:window-maximized="1"
     inkscape:current-layer="layer1"
     showguides="true">
    <sodipodi:guide
       position="-105.68214,125.28786"
       orientation="0,-1"
       id="guide13"
       inkscape:locked="false" />
    <sodipodi:guide
       position="-126.82316,168.34421"
       orientation="0,-1"
       id="guide16"
       inkscape:locked="false" />
    <sodipodi:guide
       position="-90.921666,157.15765"
       orientation="0,-1"
       id="guide17"
       inkscape:locked="false" />
    <sodipodi:guide
       position="-31.707807,110.20662"
       orientation="0,-1"
       id="guide18"
       inkscape:locked="false" />
    <sodipodi:guide
       position="-9.7191771,130.78553"
       orientation="0,-1"
       id="guide26"
       inkscape:locked="false" />
    <sodipodi:guide
       position="-180.20369,103.08011"
       orientation="1,0"
       id="guide5"
       inkscape:locked="false" />
    <sodipodi:guide
       position="10.750723,107.83557"
       orientation="1,0"
       id="guide6"
       inkscape:locked="false" />
    <sodipodi:guide
       position="-30.694777,22.929492"
       orientation="0,-1"
       id="guide7"
       inkscape:locked="false" />
    <inkscape:page
       x="3.1007603e-06"
       y="7.4427481e-07"
       width="80.933853"
       height="49.414619"
       id="page7"
       margin="0"
       bleed="0"
       inkscape:label="v3-power-supply-wiring"
       inkscape:export-filename="v3-power-supply-wiring.svg"
       inkscape:export-xdpi="96"
       inkscape:export-ydpi="96" />
    <sodipodi:guide
       position="-149.14704,118.1581"
       orientation="1,0"
       id="guide1"
       inkscape:locked="false" />
    <sodipodi:guide
       position="-41.809078,151.42505"
       orientation="1,0"
       id="guide2"
       inkscape:locked="false" />
    <sodipodi:guide
       position="-111.89372,108.61911"
       orientation="0,-1"
       id="guide3"
       inkscape:locked="false" />
    <sodipodi:guide
       position="148.73255,153.41043"
       orientation="0,-1"
       id="guide4"
       inkscape:locked="false" />
    <sodipodi:guide
       position="244.65727,119.77254"
       orientation="1,0"
       id="guide8"
       inkscape:locked="false" />
    <sodipodi:guide
       position="-105.17252,33.01425"
       orientation="0,-1"
       id="guide9"
       inkscape:locked="false" />
    <sodipodi:guide
       position="-113.23357,39.999285"
       orientation="1,0"
       id="guide10"
       inkscape:locked="false" />
    <sodipodi:guide
       position="-17.415678,51.359284"
       orientation="0,-1"
       id="guide19"
       inkscape:locked="false" />
    <sodipodi:guide
       position="-173.47033,20.525936"
       orientation="1,0"
       id="guide20"
       inkscape:locked="false" />
    <sodipodi:guide
       position="-107.68423,69.632973"
       orientation="0,-1"
       id="guide21"
       inkscape:locked="false" />
  </sodipodi:namedview>
  <defs
     id="defs1" />
  <g
     inkscape:label="Layer 1"
     inkscape:groupmode="layer"
     id="layer1"
     transform="translate(-238.0271,-108.66114)">
    <circle
       style="font-variation-settings:normal;vector-effect:none;fill:none;fill-opacity:1;stroke:#005cd8;stroke-width:1.05833;stroke-linecap:butt;stroke-linejoin:miter;stroke-miterlimit:4;stroke-dasharray:none;stroke-dashoffset:0;stroke-opacity:1;-inkscape-stroke:none;stop-color:#000000"
       id="circle12-9-2"
       cx="264.09396"
       cy="126.31187"
       r="8.3873463" />
    <path
       id="path3-9"
       d="m 254.11052,155.95436 v -1.62278 m -7.02028,0 v 1.62278 m 62.01833,0 v -1.62278 m -6.985,0 v 1.62278 m -36.75944,-23.28333 -0.0706,-0.52917 m 2.61056,0.52917 -0.0353,-0.52917 m -1.02306,0 0.0353,0.52917 m -1.51694,0 v 0 m 1.51694,0 v 0 m 1.02305,0 v 0 m 35.66584,-16.79222 v 1.05833 m -23.42444,12.7 v 0.0353 m -18.69723,-3.52778 v 0.3175 m 17.49779,3.175 v 0.0353 m 0.49388,0 v -0.0353 m 5.29166,0 v 0.0353 m 0.49389,0 v -0.0353 m -24.27111,0 v 0.0353 m 0.49389,0 v -0.0353 m 5.25639,0 v 0.0353 m 0.52917,0 v -0.0353 m 35.38361,-8.64306 v -1.72861 m -0.45862,0 v 1.72861 m -4.62139,0 v -1.72861 m -0.45861,0 v 1.72861 m 1.48167,0 v -1.72861 m -0.45861,0 v 1.72861 m 1.48166,0 v -1.72861 m -0.45861,0 v 1.72861 m 1.44639,0 v -1.72861 m -0.45861,0 v 1.72861 m 1.48167,0 v -1.72861 m -0.45861,0 v 1.72861 m 2.50473,0 v -1.72861 m -0.45862,0 v 1.72861 m 1.48167,0 v -1.72861 m -0.45861,0 v 1.72861 m -10.58334,8.64306 v 0.0353 m 3.03389,0 v -0.0353 m 8.39612,0 v 0.0353 m 3.03389,0 v -0.0353 m -9.34862,0 v 0.0353 m 0.45861,0 v -0.0353 m 2.08139,0 v 0.0353 m 0.45861,0 v -0.0353 m 2.08139,0 v 0.0353 m 0.45862,0 v -0.0353 m -6.80862,0 v 0.0353 m 0.45861,0 v -0.0353 m 2.08139,0 v 0.0353 m 0.45861,0 v -0.0353 m 2.08139,0 v 0.0353 m 0.45862,0 v -0.0353 m -29.91556,-3.95111 v 0 m 0,2.89278 v 0 m -8.64306,4.09222 v -0.52917 m -0.52916,0 v 0.52917 m 9.17222,-12.065 v 0 m 0,2.89278 v 0 m -3.66889,9.2075 v -0.56445 m -0.49389,0 v 0.52917 m 24.58861,-3.03389 v 0.0353 m -5.11528,2.8575 0.17639,0.59972 m -0.17639,-0.98778 v 0.38806 m -7.54943,1.09361 v 0 m -3.4925,13.61722 v 0 m 9.48971,-13.61722 v 0 m -3.4925,0 v 0 m -5.99721,0 v 0 m 9.48971,13.61722 v 0 m -21.51944,-13.61726 v 0 m 3.4925,13.61722 v 0 m -9.48972,-13.61722 v 0 m 3.4925,0 v 0 m 5.99722,0 v 0 m -9.48972,13.61722 v 0 m -12.24139,8.71361 h 0.0705 0.14111 0.21167 0.28222 0.38806 0.42333 0.49389 0.52917 0.56444 0.56445 0.56444 0.52917 0.49389 0.45861 0.42333 0.35278 0.24694 0.17639 0.10583 m 48.01305,0 h 0.0353 0.14112 0.21167 0.28222 0.38805 0.42334 0.49389 0.52916 0.56445 0.56444 0.56445 0.52916 0.49389 0.49389 0.38806 0.35277 0.24695 0.17639 0.10583 m -49.21252,-29.38639 v 0.42334 m 0.3175,2.64583 h 0.10584 m 0.84666,-3.4925 v 0.3175 m 47.73083,-3.03389 v 6.06778 m -0.38805,0.0705 0.38805,-0.0705 m 0,0 0.3175,0.14111 h 0.0706 m -0.38806,18.90889 v -13.82889 m -0.10583,13.82889 h 0.10583 m -2.61055,-13.12334 v -0.77611 m -1.30528,0.77611 v -0.77611 m 3.91583,13.89945 0.3175,0.14111 m -48.04837,-16.01611 v -0.52917 m -1.27,0.52917 v -0.52917 m -2.36361,16.43944 0.28223,0.0706 m -0.52917,-0.21167 v -1.76389 m 0,-12.48833 v -2.04611 m -0.635,16.58056 h 0.0353 l 0.28222,-0.0353 0.21167,-0.10584 m -0.84667,0.10584 0.3175,0.0353 m 36.40666,-31.64421 v 1.16417 m -0.67028,-1.16417 h 0.67028 m -0.67028,1.16417 h 0.67028 m -0.21167,-1.30528 h -0.45861 m 0.52917,-0.28222 h 0.0353 l 0.0353,0.0705 0.0353,0.0353 v 0.0353 l -0.0353,0.0705 -0.0353,0.0353 -0.0353,0.0353 h -0.0706 m -0.45861,-0.42333 0.17639,0.0353 0.21166,0.0706 0.14112,0.0353 m 0.0353,-0.10584 -0.14111,-0.0353 -0.28223,-0.0706 -0.10583,-0.0353 m 0.42333,0.635 0.10584,-0.0353 0.0706,-0.0353 0.0353,-0.0706 0.0353,-0.0705 v -0.0706 l -0.0353,-0.10583 -0.0353,-0.0706 -0.0706,-0.0353 m -0.56445,0.49389 h 0.45861 m 0.0706,-0.38805 h 0.0353 l 0.0353,0.0705 0.0353,0.0353 v 0.0353 l -0.0353,0.0705 -0.0353,0.0353 -0.0353,0.0353 h -0.0706 m 11.25362,-0.81139 h 0.0353 l 0.14112,-0.24694 m 5.00944,7.54944 h -0.52917 -0.21166 m -4.97417,-7.47889 v -0.0353 -0.0353 m -63.07666,20.53166 h 0.10583 m -0.10583,-1.34055 v 0.14111 0.35278 0.38805 0.45861 m 0,-1.34055 h 0.10583 m -0.10583,2.2225 v -0.0706 -0.28222 -0.24695 -0.28222 m 0,0 v -0.38805 -0.3175 -0.14111 -0.0353 m 0,0 v 0.0705 0.24695 0.28222 0.28222 m 0,0 v 0.35278 0.3175 0.14111 0.0706 m 0,-0.88195 v -0.35278 -0.28222 m 0,0 v -0.38805 -0.21167 m 0,0 v -0.0706 -0.0353 m 0,1.34055 v 0.56445 0.45861 0.21166 0.0706 m 0,0 v -0.10583 -0.35278 -0.38806 -0.45861 m 0,1.30528 h 0.10583 m -0.10583,-0.0353 v -0.42333 m 0,-1.69333 v 0 m 0,1.69333 v 0.42333 m 0,0.9525 v 0.42334 m 0,0 h 0.10583 m -0.10583,-0.42334 h 0.10583 m -0.10583,2.54 v -2.11666 m 0,0 v -0.42334 m 0,0.42334 v 2.11666 m 0,0 h 0.10583 m -0.10583,0.0353 h 0.10583 m -0.10583,-2.50472 v -0.10584 m 0,0 h 0.10583 m 50.20027,-27.37555 v 0.10583 m 1.27,-0.10583 v 0.10583 m 0,-0.10583 h -0.24694 -0.24695 -0.21166 -0.17639 -0.17639 -0.10583 -0.0706 -0.0353 m 10.72444,0 v 0.10583 m 0,-0.10583 h -9.45444 m 10.72444,0 v 0.10583 m 0,-0.10583 v 0 h -0.0706 -0.14111 -0.14111 -0.21167 -0.21166 -0.24695 -0.24694 m -10.72444,0 v 0.10583 m -50.20028,2.82223 0.0706,-0.56445 0.14111,-0.52917 0.28223,-0.45861 0.3175,-0.42333 0.45861,-0.35278 0.45861,-0.28222 0.52917,-0.14111 0.56444,-0.0706 m -2.82222,2.82223 0.0706,-0.56445 0.14111,-0.52917 0.28222,-0.45861 0.3175,-0.42333 0.45861,-0.35278 0.45861,-0.28222 0.52917,-0.14111 0.56445,-0.0706 m 0,0 h 69.39138 m 0,0 0.52916,0.0706 0.52917,0.14111 0.49389,0.28222 0.42333,0.35278 0.35278,0.42333 0.24694,0.45861 0.17639,0.52917 0.0353,0.56445 m 0,0 v 37.39444 m 0,0 h -75.00048 m 0,0 v -37.39444 m 16.22778,34.99555 -0.10584,-0.0353 h -0.0706 l -0.10583,-0.0705 -0.0706,-0.0353 -0.0706,-0.10584 -0.0353,-0.0705 -0.0353,-0.10583 v -0.0706 m 0.49389,0.49389 h 14.49917 m 0.49389,-0.49389 v 0.0706 l -0.0353,0.10583 -0.0353,0.0705 -0.0706,0.10584 -0.0705,0.0353 -0.0706,0.0705 h -0.10584 l -0.10583,0.0353 m 0.49389,-0.49389 v -16.01574 m -0.49389,-0.49389 h 0.10583 l 0.10584,0.0353 0.0706,0.0353 0.0705,0.0705 0.0706,0.0706 0.0353,0.10583 0.0353,0.0706 v 0.10583 m -0.49389,-0.49389 h -14.49916 m -0.49389,0.49389 v -0.10583 l 0.0353,-0.0706 0.0353,-0.10583 0.0706,-0.0706 0.0706,-0.0705 0.10583,-0.0353 0.0705,-0.0353 h 0.10584 m -0.49389,0.49389 v 16.01611 m 32.24388,-18.66194 0.24695,-0.0353 0.24694,-0.14111 0.17639,-0.21167 0.0706,-0.24694 v -0.24695 l -0.0706,-0.24694 -0.17639,-0.21167 -0.24694,-0.10583 -0.24695,-0.0706 -0.24694,0.0706 -0.24695,0.10583 -0.14111,0.21167 -0.10583,0.24694 v 0.24695 l 0.10583,0.24694 0.14111,0.21167 0.24695,0.14111 0.24694,0.0353 m -27.65777,0.0353 h 6.63222 m 0,0 0.28222,-0.0353 0.28222,-0.0706 0.28223,-0.14111 0.21166,-0.21167 0.17639,-0.21166 0.14111,-0.24695 0.10584,-0.28222 0.0353,-0.3175 m 0,0 v -0.84667 m 0,0 -0.0353,-0.28222 -0.10584,-0.28222 -0.14111,-0.28222 -0.17639,-0.21167 -0.21166,-0.17639 -0.28223,-0.14111 -0.28222,-0.10583 -0.28222,-0.0353 m 0,0 h -6.63222 m 0,0 -0.28222,0.0353 -0.28223,0.10583 -0.28222,0.14111 -0.21167,0.17639 -0.21166,0.21167 -0.10583,0.28222 -0.10584,0.28222 -0.0353,0.28222 m 0,0.84667 v -0.84667 m 0,0.84667 0.0353,0.3175 0.10584,0.28222 0.10583,0.24695 0.21166,0.21166 0.21167,0.21167 0.28222,0.14111 0.28223,0.0706 0.28222,0.0353 m 48.36583,-0.35277 v -13.08806 m 0,0 v -0.14111 l -0.0706,-0.14111 -0.0353,-0.10583 -0.10584,-0.10584 -0.10583,-0.0706 -0.10583,-0.0706 -0.14111,-0.0353 -0.14112,-0.0353 m 0,0 h -15.48688 m 0,0 -0.14111,0.0353 -0.14111,0.0353 -0.10584,0.0706 -0.10583,0.0706 -0.10583,0.10584 -0.0705,0.10583 -0.0353,0.14111 v 0.14111 m 0,0 v 13.08806 m 0,0 v 0.10583 l 0.0353,0.10583 0.0353,0.0706 0.0705,0.0705 0.0706,0.0706 0.10583,0.0706 h 0.0705 l 0.10583,0.0353 m 0,0 h 15.91028 m 0,0 0.10583,-0.0353 h 0.0706 l 0.10583,-0.0706 0.0706,-0.0706 0.0706,-0.0705 0.0353,-0.0706 0.0353,-0.10583 v -0.10583 m -32.17332,-2.01084 v 0.84667 m 0,0 0.0353,0.3175 0.0705,0.28222 0.14111,0.24695 0.17639,0.21166 0.24694,0.21167 0.24695,0.14111 0.28222,0.0706 0.3175,0.0353 m 0,0 h 6.63221 m 0,0 0.28222,-0.0353 0.28223,-0.0706 0.24694,-0.14111 0.24694,-0.21167 0.17639,-0.21166 0.14111,-0.24695 0.0706,-0.28222 0.0353,-0.3175 m 0,-0.84667 v 0.84667 m 0,-0.84667 -0.0353,-0.28222 -0.0706,-0.28222 -0.14111,-0.28222 -0.17639,-0.21167 -0.24694,-0.17639 -0.24694,-0.14111 -0.28223,-0.10583 -0.28222,-0.0353 m 0,0 h -6.63221 m 0,0 -0.3175,0.0353 -0.28222,0.10583 -0.24695,0.14111 -0.24694,0.17639 -0.17639,0.21167 -0.14111,0.28222 -0.0705,0.28222 -0.0353,0.28222 m 32.17332,20.77861 v -13.08805 m 0,0 v -0.14111 l -0.0706,-0.14111 -0.0353,-0.10584 -0.10584,-0.10583 -0.10583,-0.10583 -0.10583,-0.0706 -0.14111,-0.0353 h -0.14112 m 0,0 h -15.48705 m 0,0 h -0.14111 l -0.14111,0.0353 -0.10584,0.0706 -0.10583,0.10583 -0.10583,0.10583 -0.0705,0.10584 -0.0353,0.14111 v 0.14111 m 0,0 v 13.08805 m 0,0 v 0.10584 l 0.0353,0.0705 0.0353,0.10584 0.0705,0.0705 0.0706,0.0706 0.10583,0.0353 0.0705,0.0353 h 0.10583 m 0,0 h 15.91028 m 0,0 h 0.10583 l 0.0706,-0.0353 0.10583,-0.0353 0.0706,-0.0706 0.0706,-0.0705 0.0353,-0.10584 0.0353,-0.0705 v -0.10584 m -34.46638,0.70556 -0.0706,-0.0353 h -0.10585 l -0.0706,-0.0705 -0.10583,-0.0353 -0.0353,-0.10584 -0.0706,-0.0705 -0.0353,-0.10583 v -0.0706 m 0.49389,0.49389 h 14.49916 m 0.52917,-0.49389 -0.0353,0.0706 v 0.10583 l -0.0705,0.0705 -0.0706,0.10584 -0.0706,0.0353 -0.0706,0.0705 h -0.10584 l -0.10583,0.0353 m 0.52917,-0.49389 v -16.01614 m -0.52917,-0.49389 h 0.10583 l 0.10584,0.0353 0.0706,0.0353 0.0706,0.0705 0.0706,0.0706 0.0705,0.10583 v 0.0706 l 0.0353,0.10583 m -0.52917,-0.49389 h -14.49932 m -0.49388,0.49389 v -0.10583 l 0.0353,-0.0706 0.0706,-0.10583 0.0353,-0.0706 0.10583,-0.0705 0.0706,-0.0353 0.10583,-0.0353 h 0.0706 m -0.49389,0.49389 v 16.01611 m -1.23472,-24.94139 0.38806,-0.0353 0.38805,-0.14111 0.35278,-0.21166 0.28222,-0.28223 0.21167,-0.35277 0.14111,-0.35278 0.0353,-0.42333 -0.0353,-0.38806 -0.14111,-0.38805 -0.21167,-0.35278 -0.28222,-0.28222 -0.35278,-0.21167 -0.38805,-0.14111 -0.38806,-0.0353 -0.42333,0.0353 -0.35278,0.14111 -0.35278,0.21167 -0.28222,0.28222 -0.21167,0.35278 -0.14111,0.38805 -0.0353,0.38806 0.0353,0.42333 0.14111,0.35278 0.21167,0.35277 0.28222,0.28223 0.35278,0.21166 0.35278,0.14111 0.42333,0.0353 m 0,5.08 0.38806,-0.0353 0.38805,-0.14111 0.35278,-0.21166 0.28222,-0.28223 0.21167,-0.35277 0.14111,-0.35278 0.0353,-0.42333 -0.0353,-0.38806 -0.14111,-0.38806 -0.21167,-0.35277 -0.28222,-0.28223 -0.35278,-0.21166 -0.38805,-0.14111 -0.38806,-0.0353 -0.42333,0.0353 -0.35278,0.14111 -0.35278,0.21166 -0.28222,0.28223 -0.21167,0.35277 -0.14111,0.38806 -0.0353,0.38806 0.0353,0.42333 0.14111,0.35278 0.21167,0.35277 0.28222,0.28223 0.35278,0.21166 0.35278,0.14111 0.42333,0.0353 M 240.59913,114.1502 v 37.39444 m 0,2.78694 v -0.0353 -0.17638 -0.24695 -0.35278 -0.42333 -0.49389 -0.52917 -0.52916 m 0,0.77611 v 0.28222 0.49389 0.42333 0.35278 0.24695 0.17638 0.0353 m 0,-1.48166 v -0.0353 -0.0706 -0.14111 -0.14111 -0.14111 m 0,-0.77611 v 0.24694 0.24695 0.21166 0.21167 0.14111 0.14111 0.0706 0.0353 m 75.00055,-1.30528 v 0.52916 0.52917 0.49389 0.42333 0.35278 0.24695 0.17638 0.0353 m -75.00055,0 h 75.00055 m -46.53138,-26.67 -0.0353,-0.28222 -0.10584,-0.28222 -0.14111,-0.28222 -0.17639,-0.21167 -0.21166,-0.17639 -0.28223,-0.14111 -0.28222,-0.10583 -0.28222,-0.0353 m 0,3.88055 0.28222,-0.0353 0.28222,-0.0706 0.28223,-0.14111 0.21166,-0.21167 0.17639,-0.21166 0.14111,-0.24695 0.10584,-0.28222 0.0353,-0.3175 m 0,0 v -0.84667 m 4.02166,-3.95111 0.38806,-0.0353 0.38805,-0.14111 0.35278,-0.21166 0.28222,-0.28223 0.21167,-0.35277 0.14111,-0.35278 0.0353,-0.42333 -0.0353,-0.38806 -0.14111,-0.38805 -0.21167,-0.35278 -0.28222,-0.28222 -0.35278,-0.21167 -0.38805,-0.14111 -0.38806,-0.0353 m 0,8.67833 0.38806,-0.0353 0.38805,-0.14111 0.35278,-0.21166 0.28222,-0.28223 0.21167,-0.35277 0.14111,-0.35278 0.0353,-0.42333 -0.0353,-0.38806 -0.14111,-0.38806 -0.21167,-0.35277 -0.28222,-0.28223 -0.35278,-0.21166 -0.38805,-0.14111 -0.38806,-0.0353 m -1.27,7.44361 v -0.10583 l -0.0353,-0.0706 -0.0353,-0.10583 -0.0706,-0.0706 -0.0705,-0.0705 -0.0706,-0.0353 -0.10583,-0.0353 H 271.326 m 0,17.00389 0.10583,-0.0353 h 0.10583 l 0.0706,-0.0705 0.0705,-0.0353 0.0706,-0.10584 0.0353,-0.0705 0.0353,-0.10583 v -0.0706 m 0,0 v -16.01591 m 13.44083,-2.61056 0.28222,-0.0353 0.28223,-0.0706 0.24694,-0.14111 0.24695,-0.21167 0.17638,-0.21166 0.14112,-0.24695 0.0706,-0.28222 0.0353,-0.3175 m 0,-0.84667 -0.0353,-0.28222 -0.0706,-0.28222 -0.14112,-0.28222 -0.17638,-0.21167 -0.24695,-0.17639 -0.24694,-0.14111 -0.28223,-0.10583 -0.28222,-0.0353 m 1.48167,2.36361 v -0.84667 m 1.83444,2.32834 0.24695,-0.0353 0.24694,-0.14111 0.17639,-0.21167 0.0705,-0.24694 v -0.24695 l -0.0705,-0.24694 -0.17639,-0.21167 -0.24694,-0.10583 -0.24695,-0.0706 m 1.27,4.16278 -0.0353,-0.10583 v -0.0706 l -0.0705,-0.10583 -0.0706,-0.0706 -0.0705,-0.0705 -0.0706,-0.0353 -0.10583,-0.0353 h -0.10583 m 0,17.00389 0.10583,-0.0353 h 0.10583 l 0.0706,-0.0705 0.0705,-0.0353 0.0706,-0.10584 0.0705,-0.0705 v -0.10583 l 0.0353,-0.0706 m 0,0 v -16.01591 m 19.43806,-16.05139 v -0.14111 l -0.0706,-0.14111 -0.0353,-0.10583 -0.10584,-0.10584 -0.10583,-0.0706 -0.10583,-0.0706 -0.14111,-0.0353 -0.14112,-0.0353 m 0.70556,19.47333 v -0.14111 l -0.0706,-0.14111 -0.0353,-0.10584 -0.10584,-0.10583 -0.10583,-0.10583 -0.10583,-0.0706 -0.14111,-0.0353 h -0.14112 m 0.21167,-4.445 0.10583,-0.0353 h 0.0706 l 0.10583,-0.0706 0.0706,-0.0706 0.0706,-0.0705 0.0353,-0.0706 0.0353,-0.10583 v -0.10583 m -0.49389,19.26166 h 0.10583 l 0.0706,-0.0353 0.10583,-0.0353 0.0706,-0.0706 0.0706,-0.0705 0.0353,-0.10584 0.0353,-0.0705 v -0.10584 m 0,-18.76777 v -13.08806 m 0,31.85583 v -13.08805 m -5.89139,-19.26167 0.10583,0.0353 h 0.0706 m -11.00667,-0.0353 h 10.83028 m -20.10833,10.37167 v -0.3175 m 20.28448,-10.0186 v 0 h -0.0706 l -0.10583,-0.0353 m -42.545,7.19667 h 0.28223 m 0,0 h 0.21166 l 0.21167,-0.0706 0.10583,-0.0353 0.0706,-0.0706 0.0353,-0.10583 0.0353,-0.10584 m 0,0 -0.0353,-0.14111 -0.0706,-0.10583 -0.10583,-0.0706 -0.10583,-0.0353 m 0,0 -0.21167,-0.0353 h -0.17639 m 0,0 h -0.24694 m 0,0 v 0.77611 m -0.49389,1.37583 v -2.57527 m 0,0 h 0.81139 m 0,0 h 0.35277 l 0.24695,0.0353 m 0,0 0.24694,0.14111 0.17639,0.21167 0.10584,0.42333 m 0,0 -0.0353,0.28223 -0.14112,0.24694 -0.17638,0.14111 -0.21167,0.10583 m 0,0 -0.3175,0.0353 h -0.24695 m 0,0 h -0.3175 m 0,0 v 0.9525 m 0,0 h -0.49388 m 0,0 v -2.57527 m 1.44638,0.81138 -0.0353,-0.14111 -0.0706,-0.10583 -0.10583,-0.0706 -0.10583,-0.0353 m 1.5875,2.11666 -0.59972,-2.57527 m 0,0 h 0.49391 m 0,0 0.38806,1.76388 m 0,0 0.42333,-1.76388 m 0,0 h 0.67028 m 0,0 0.42333,1.79916 m 0,0 0.38806,-1.79916 m 0,0 h 0.52916 m 0,0 -0.59972,2.57527 m 0,0 h -0.635 m 0,0 -0.42333,-1.94027 m 0,0 -0.45861,1.94027 m 0,0 h -0.59973 m 0,0 -0.59972,-2.57527 m 0.88195,1.76388 0.42333,-1.76388 m 0.77611,2.57527 -0.42333,-1.94027 m 0.74083,1.16416 0.38806,-1.79916 m 1.69333,1.05833 0.45861,-0.0353 0.10583,-0.0353 0.0705,-0.0353 0.0706,-0.10583 v -0.10583 m 0,0 -0.0353,-0.14111 -0.0705,-0.0706 -0.17638,-0.10583 m 0,0 h -0.21167 -0.17639 m 0,0 h -0.42333 m 0,0 v 0.635 m 0,0 h 0.38805 m -0.88194,1.51694 v -2.57527 m 0,0 h 1.09361 m 0,0 0.35278,0.0353 0.3175,0.0706 0.14111,0.14111 0.10583,0.14111 0.0706,0.3175 m 0,0 -0.0353,0.28222 -0.17639,0.24695 -0.21166,0.14111 -0.21167,0.0353 m 0,0 0.3175,0.35277 0.21167,0.28223 m 0,0 0.3175,0.52916 m 0,0 h -0.59973 m 0,0 -0.35277,-0.59972 m 0,0 -0.17639,-0.21167 -0.14111,-0.17639 -0.21167,-0.10583 h -0.21167 m 0,0 h -0.10583 m 0,0 v 1.09361 m 0,0 h -0.49389 m 0,0 v -2.57527 m 1.5875,0.74083 -0.0353,-0.14111 -0.0706,-0.0706 -0.17639,-0.10583 m 0.38806,2.15194 -0.35278,-0.59972 m 8.43139,-5.43278 v -2.15194 m -0.74084,0 v -0.42333 m 0,0 h 1.97557 m 0,0 v 0.42333 m 0,0 h -0.74084 m 0,0 v 2.15194 m 0,0 h -0.49389 m 0,-2.15194 h -0.74084 m 0,0 v -0.42333 m 0.74084,2.57527 v -2.15194 m -1.51695,1.19944 0.49389,0.14111 m 0,0 -0.17639,0.38806 -0.28222,0.28222 -0.28222,0.10584 -0.3175,0.0353 m 0,0 -0.52917,-0.14111 -0.42333,-0.3175 -0.17639,-0.38805 -0.0353,-0.45861 m 0,0 0.0706,-0.52917 0.28222,-0.49389 0.38806,-0.21167 0.42333,-0.0706 m 0,0 0.45861,0.0706 0.3175,0.21167 m 0,0 0.17639,0.24694 0.0706,0.21167 m 0,0 -0.49389,0.10583 m 0,0 -0.0706,-0.17638 -0.17639,-0.14112 -0.14111,-0.0705 -0.17639,-0.0353 m 0,0 -0.21166,0.0353 -0.21167,0.10583 -0.14111,0.17639 -0.0706,0.28222 v 0.24695 m 0,0 v 0.35278 l 0.14111,0.3175 0.24694,0.17638 0.24695,0.0706 m 0,0 0.24694,-0.0706 0.17639,-0.14111 0.17639,-0.3175 m -4.37444,0.9525 0.9525,-2.57527 m -0.9525,2.57527 0.9525,-2.57527 m 0.635,1.55222 -0.35278,-0.91722 m 0,0 -0.35278,0.91722 m 0,0 h 0.70556 m 0.88194,1.02305 h -0.52917 m 0,0 -0.21166,-0.59972 m 0,0 h -0.98778 m 0,0 -0.21167,0.59972 m 0.42334,-2.57527 h 0.52916 m 0,0 0.98778,2.57527 m -1.94028,0 h -0.52916 m 1.5875,-1.02305 -0.35278,-0.91722 m 0.70555,1.94027 -0.21166,-0.59972 m 6.45584,5.36222 0.10583,-0.56444 0.28222,-0.45861 0.38806,-0.24695 0.42333,-0.0705 m 0,2.61055 -0.56444,-0.10583 -0.38806,-0.35278 -0.17639,-0.38805 -0.0706,-0.42334 m 1.76389,0.3175 0.49389,0.17639 m 0,0 -0.17639,0.35278 -0.28222,0.28222 -0.3175,0.10583 -0.28222,0.0353 m 0,-2.61055 0.45861,0.0705 0.28222,0.21167 m 0,0 0.17639,0.24694 0.10583,0.24695 m 0,0 -0.49389,0.0705 m 0,0 -0.10583,-0.17638 -0.14111,-0.14112 -0.14111,-0.0705 -0.17639,-0.0353 m 0,0 -0.21167,0.0353 -0.21166,0.14111 -0.14111,0.17639 -0.0706,0.24694 -0.0353,0.28222 m 0,0 0.0353,0.35278 0.14111,0.3175 0.21166,0.14111 0.28223,0.0706 m 0,0 0.24694,-0.0706 0.17639,-0.14111 0.17639,-0.3175 m 2.04611,0.98778 -0.56445,-0.10583 -0.42333,-0.35278 -0.17639,-0.42333 -0.0706,-0.42334 m 1.23472,0.88195 0.35277,-0.10584 0.24695,-0.24694 0.0706,-0.28222 0.0353,-0.28223 m 0,0 -0.0353,-0.35277 -0.17639,-0.3175 -0.21166,-0.14111 -0.28222,-0.0706 m 0,0 -0.35278,0.10583 -0.28222,0.24695 -0.0705,0.24694 -0.0353,0.28222 m 0,0 0.0353,0.38806 0.17639,0.3175 0.24694,0.14111 0.28222,0.0706 m -1.23472,-0.88195 0.0353,-0.38805 0.0705,-0.28222 m 0,0 0.28222,-0.35278 0.28223,-0.21167 m 0,0 0.3175,-0.0705 0.24694,-0.0353 m 0,0 0.52916,0.10583 0.45861,0.38806 0.17639,0.38805 0.0353,0.45861 m 0,0 -0.0706,0.52917 -0.3175,0.49389 -0.38805,0.21166 -0.42333,0.0706 m -1.23472,-1.30528 0.0353,-0.38805 0.0705,-0.28222 m 0,0 0.28222,-0.35278 0.28222,-0.21167 m 2.18721,2.50472 v -2.57527 m 0,0 h 0.52917 m 0,0 1.02306,1.69333 m 0,0 v -1.69333 m 0,0 h 0.49388 m 0,0 v 2.57527 m 0,0 h -0.52916 m 0,0 -1.02306,-1.65805 m 0,0 v 1.65805 m 0,0 h -0.49389 m 0,0 v -2.57527 m 1.51695,2.57527 -1.02306,-1.65805 m 1.05834,0.77611 v -1.69333 m -2.99861,7.58472 v -0.0353 m 4.62138,3.03389 0.10584,-0.24695 m -8.25499,-6.27944 v 0.38805 m 0.635,-0.0705 v -0.3175 m 2.54,0 v 0.3175 m 1.90499,-0.3175 v 0.3175 m 0.635,0 v -0.3175 m -8.25499,6.27944 h 0.635 m 0,0 v -0.28222 m -0.635,0 v 0.28222 m 3.06916,0.24695 0.10584,-0.24695 m 4.55082,0.24695 h 0.42333 m 2.64584,-0.52917 v 0.28222 m -30.37416,0.17639 v -0.3175 m -0.14111,0.3175 h 0.14111 m 30.37416,-0.17639 v -0.28222 m -0.635,0.28222 h 0.635 m -0.635,-0.28222 v 0.28222 m -2.54,0 h 0.635 m 0,0 v -0.28222 m -0.635,0 v 0.28222 m 0.52916,0.24695 0.10584,-0.24695 m -6.34999,-5.53861 h -0.635 m 8.88999,0 v -0.38805 m -4.55083,6.17361 0.10584,-0.24695 m -4.16278,-2.82222 h -0.0353 m 8.29027,0.0706 v -0.0353 m 0.56444,-2.46945 h 0.24695 m -5.43277,5.50334 h 0.42333 m 2.01082,-6.20889 v -0.3175 m 17.39195,3.52778 v -0.0353 m -0.45861,0 v 0.0353 m -19.47333,-3.21028 v -0.3175 m 0.635,6.27944 v -0.28222 m -0.635,0.28222 h 0.635 m -0.635,-0.28222 v 0.28222 m -3.35138,-5.25639 h -0.10584 -0.45861 m 0.67028,-0.17638 h -0.42333 -0.17639 m 21.23721,2.68111 v -0.0353 m -21.83693,2.78694 -0.10584,0.24695 m 0,0 h -0.42333 m 0,0 -0.10583,-0.24695 m 0,0 h 0.635 m -20.21417,0.17639 v -0.3175 m 0,0 v 0.3175 m 29.73915,-6.10305 v 0.38805 m -8.88998,0 h 0.635 m -21.48418,5.715 h -0.14111 m 6.63222,-2.92805 v 0 m 0,0 v -0.0353 m -6.49111,2.96333 h -0.14111 m 44.73222,-2.92805 v -0.0353 m -38.1,0 v 0 0.0353 m 23.24805,2.75166 v -0.28222 m -7.51415,0.52917 h 0.42333 m -2.96333,0 h 0.42333 m 4.55083,-0.24695 v -0.28222 m 1.44638,-2.46944 v -0.0353 m 3.73945,3.03389 h 0.42333 m -10.15999,0 0.10584,-0.24695 m 4.44499,0 0.10584,0.24695 m -2.64583,-0.24695 h 0.635 m 0,0 v -0.28222 m -0.635,0 v 0.28222 m 19.93193,-2.75166 v -0.0353 m -19.29693,2.78694 -0.10584,0.24695 m 0,0 h -0.42333 m 0,0 -0.10583,-0.24695 m 0,0 h 0.635 m 20.03776,-2.75166 v -0.0353 m -15.59278,2.78694 v -0.28222 m -7.61999,0.28222 v -0.28222 m 7.72583,0.52917 h 0.42333 m -3.06916,-6.52639 v 0.3175 m 0.635,0 v -0.3175 m 4.44499,6.27944 0.10584,0.24695 m -8.7136,-3.06917 h -0.0353 m 1.65805,2.54 v 0.28222 m 7.4436,-5.25639 h -0.24694 m -0.56445,2.46945 v 0.0353 m -9.70137,2.99861 h 0.42333 m 20.1436,-3.03389 v 0.0353 m -15.0636,2.99861 h -0.42333 m 0.52916,-0.24695 -0.10583,0.24695 m -0.52917,-0.24695 h 0.635 m -0.52916,0.24695 -0.10584,-0.24695 m 3.17499,-6.27944 v 0.3175 m 0,5.96194 -0.10583,0.24695 m 0,0 h -0.42333 m 0,0 -0.10584,-0.24695 m 0,0 h 0.635 m -5.71499,0 0.10584,0.24695 m 5.60915,-0.52917 v 0.28222 m -8.255,0 0.10585,0.24695 m 10.15999,0 h 0.42333 m -23.7772,-2.99848 v 0 -0.0353 m 13.72306,2.50472 v 0.28222 m 5.89138,-2.75166 v -0.0353 m -0.45861,0 v 0.0353 m -2.89277,-3.52778 v 0.3175 m 2.54,5.67972 v 0.28222 m -0.52916,0.24695 h 0.42333 m 19.47332,-2.99861 v -0.0353 m -4.40972,0.0353 v -0.0353 m -18.02693,3.03389 h 0.42333 m 7.72582,-0.24695 -0.10583,0.24695 m 0,0 h -0.42333 m 0,0 -0.10584,-0.24695 m 0,0 h 0.635 m 14.2875,-2.78694 v 0.0353 m -22.54249,-3.13973 v -0.38805 m 22.01333,3.52778 v -0.0353 m -1.34056,0 v 0.0353 m -15.59278,2.75166 0.10584,0.24695 m -5.18583,-0.24695 v -0.28222 m 7.97277,-3.59833 h 0.17639 m 11.85333,1.09361 v 0.0353 m -30.69151,-3.03389 h 0.14111 0.59972 m -6.80861,2.99861 v 0.0353 m 17.60362,-1.905 h -0.24694 m 0.24694,0.59972 v 0 m 0,-0.59972 v 0 m -0.24694,0.59972 v 0 m 0,-0.59972 v 0 m 0.24694,0.59972 h -0.24694 m 1.76388,0 v 0 m 0,-0.59972 v 0 m -0.24694,0.59972 v 0 m 0,-0.59972 v 0 m 0.24694,0.59972 h -0.24694 m 0.24694,-0.59972 h -0.24694 m 2.75166,0.59972 v 0 m 0,-0.59972 v 0 m 0,0.59972 h -0.24695 m 0,0 v 0 m 0,-0.59972 v 0 m 0.24695,0 h -0.24695 m 1.72861,0.59972 v 0 m 0,-0.59972 v 0 m -0.24694,0.59972 v 0 m 0,-0.59972 v 0 m 0.24694,0 h -0.24694 m 0.24694,0.59972 h -0.24694 m -3.24555,0 v 0 m 0,-0.59972 v 0 m -0.24694,0.59972 v 0 m 0,-0.59972 v 0 m 0.24694,0 h -0.24694 m 0.24694,0.59972 h -0.24694 m 0.74083,0 v 0 m 0,-0.59972 v 0 m 0,0.59972 h -0.24694 m 0,0 v 0 m 0,-0.59972 v 0 m 0.24694,0 h -0.24694 m 0.7761,0.59972 v 0 m 0,-0.59972 v 0 m 0,0.59972 h -0.28222 m 0,0 v 0 m 0,-0.59972 v 0 m 0.28222,0 h -0.28222 m 0.77611,0.59972 v 0 m 0,-0.59972 v 0 m -0.24695,0.59972 v 0 m 0,-0.59972 v 0 m 0.24695,0 h -0.24695 m 0.24695,0.59972 h -0.24695 m -14.04055,1.12889 h -0.0353 m -0.0706,0 h 0.0706 m 0.38806,-0.70556 h -0.45862 m -0.70555,0.84667 v 0.0353 m 0,-0.0353 v 0.0353 m 0.70555,-0.17639 h 0.0706 m 0,0 v 0.0705 m 10.72446,-1.69333 h 5.39748 m -5.46804,-0.10583 0.0706,0.10583 m -0.0706,-0.10583 h 5.5386 m -0.0706,0.10583 0.0706,-0.10583 m -0.0706,0.10583 v 0.38806 m 0,0 h -5.39749 m 0,-0.38806 v 0.38806 m 0,0 -0.0706,0.10583 m -0.21167,0 h 0.21167 m -0.21167,0 v -0.59972 m 0,0 h 0.21167 m 0,0.59972 h 5.5386 m 0,0 -0.0706,-0.10583 m 0.0706,0.10583 h 0.21167 m -0.21167,-0.59972 h 0.21167 m 0,0.59972 v -0.59972 m -5.96194,0.59972 v -0.59972 m 7.16138,1.86972 h -0.98777 m -6.34999,0 h -0.98778 m 24.34165,0.0353 v 0 m 0.0705,-0.0353 v 0.0353 h -0.0353 -0.0353 m -18.76777,-3.21028 v -0.3175 m -25.22361,6.27944 h 0.635 m 0,0 -0.17639,0.24695 m -0.0706,0 h -0.24694 m -0.14111,-0.24695 0.14111,0.24695 m -0.14111,-0.24695 v -0.28222 m 0.635,0.28222 v -0.28222 m -0.49389,0.52917 -0.14111,-0.24695 m 0,-0.28222 v 0.28222 m 3.10445,-4.55084 h 5.3975 m -5.46805,-0.10583 0.0706,0.10583 m -0.0706,-0.10583 h 5.53861 m -0.0705,0.10583 0.0705,-0.10583 m -0.0705,0.10583 v 0.38806 m 0,0 h -5.3975 m 0,-0.38806 v 0.38806 m 0,0 -0.0706,0.10583 m -0.21167,0 h 0.21167 m -0.21167,0 v -0.59972 m 0,0 h 0.21167 m 0,0.59972 h 5.53861 m 0,0 -0.0705,-0.10583 m 0.0705,0.10583 h 0.21166 m -0.21166,-0.59972 h 0.21166 m 0,0.59972 v -0.59972 m -5.96194,0.59972 v -0.59972 m 7.16139,1.86972 h -0.98778 m -6.35,0 h -1.02305 m 20.14361,0 v 0.0353 m 8.11388,-0.98778 v 0 -0.0353 -0.0353 m -25.50583,1.02308 v 0.0353 m 23.91833,-0.98778 h 0.17639 m 1.34055,0 h 0.98778 m -20.49638,0.81139 h 0.0706 m 0,0.0705 v -0.0705 m 12.31195,-3.35139 v 0.3175 m 0,5.67972 v 0.28222 m 0,0 h 0.17639 m 0.10583,0.24695 h -0.10583 m 0,0 -0.17639,-0.24695 m 0.17639,0.24695 -0.17639,-0.24695 m 0,-6.27944 v 0.3175 m 0,5.67972 v 0.28222 m 17.21554,-2.75166 v -0.0353 m 0.24695,0.0353 v -0.0353 m -31.15028,-0.21167 h -3.4925 m 4.58612,-1.09361 -0.0353,0.21167 -0.0353,0.21166 -0.10584,0.17639 -0.14111,0.17639 -0.17639,0.14111 -0.17639,0.10584 -0.21166,0.0705 h -0.21167 m 1.09361,-1.65805 v 0.56444 m -1.09361,-1.65805 h 0.21167 l 0.21166,0.0705 0.17639,0.10583 0.17639,0.14112 0.14111,0.17638 0.10584,0.17639 0.0353,0.21167 0.0353,0.21167 m -7.44362,-1.09361 h 6.35 m -7.47888,1.09361 0.0353,-0.21167 0.0706,-0.21167 0.10583,-0.17639 0.14111,-0.17638 0.14111,-0.14112 0.21167,-0.10583 0.21166,-0.0705 h 0.21167 m -1.12889,1.65805 v -0.56444 m 1.12889,1.65805 h -0.21167 l -0.21166,-0.0705 -0.21167,-0.10584 -0.14111,-0.14111 -0.14111,-0.17639 -0.10583,-0.17639 -0.0706,-0.21166 -0.0353,-0.21167 m 3.98638,1.09361 h -2.8575 m 2.8575,0.21167 v -0.21167 m -2.8575,0.21167 h 2.8575 m -4.16277,-1.30528 0.0353,0.24695 0.0706,0.24694 0.10583,0.24694 0.17639,0.17639 0.17639,0.17639 0.24694,0.10584 0.21167,0.0705 0.28222,0.0353 m -1.30528,-1.30528 v -0.56444 m 1.30528,-1.30528 -0.28222,0.0353 -0.21167,0.0705 -0.24694,0.14111 -0.17639,0.14111 -0.17639,0.21167 -0.10583,0.21167 -0.0706,0.24694 -0.0353,0.24695 m 1.30527,-1.30528 h 6.35 m 0,0 0.24695,0.0353 0.24694,0.0705 0.21167,0.14111 0.21167,0.14111 0.14111,0.21167 0.14111,0.21167 0.0706,0.24694 0.0353,0.24695 m 0,0.56444 v -0.56444 m -1.30528,1.86972 0.24695,-0.0353 0.24694,-0.0705 0.21167,-0.10584 0.21166,-0.17639 0.14111,-0.17639 0.14112,-0.24694 0.0706,-0.24694 0.0353,-0.24695 m -4.79778,1.30528 h 3.4925 m -3.4925,-0.21167 v 0.21167 m 0,0 v -0.3175 m 0,0 v 0.10583 m 3.4925,0 v -0.10583 m 0,0 h -3.4925 m -2.8575,0 v 0.10583 m 2.8575,-0.10583 h -2.8575 m 2.8575,0.10583 v -0.10583 m -3.88056,-1.55222 h -0.10583 m 1.12889,-1.09361 v 0.10583 m 0,0 h -0.21167 l -0.17639,0.0705 -0.17638,0.10584 -0.14112,0.10583 -0.14111,0.14111 -0.10583,0.17639 -0.0353,0.21167 -0.0353,0.17639 m -0.10583,0.56444 h 0.10583 m 0,0 0.0353,0.21167 0.0353,0.17639 0.10583,0.17639 0.14111,0.14111 0.14112,0.14111 0.17638,0.0705 0.17639,0.0706 h 0.21167 m -1.02306,-1.55222 v 0.56444 m 7.37306,-1.55222 v -0.10583 m -6.35,0.10583 h 6.35 m 1.09361,0.98778 h -0.10583 m 0,0 -0.0353,-0.17639 -0.0353,-0.21167 -0.10584,-0.17639 -0.10583,-0.14111 -0.17639,-0.10583 -0.14111,-0.10584 -0.21167,-0.0705 h -0.17639 m 0.98778,1.55222 h 0.10584 m -1.09361,0.98778 h 0.17639 l 0.21167,-0.0706 0.14111,-0.0705 0.17639,-0.14111 0.10583,-0.14111 0.10583,-0.17639 0.0353,-0.17639 0.0353,-0.21167 m 0,0 v -0.56444 m -7.86694,-1.19945 -0.17639,0.10584 -0.14111,0.10583 -0.14111,0.14111 -0.10584,0.14111 -0.10583,0.17639 -0.0706,0.17639 -0.0353,0.17639 v 0.17639 m 1.30528,-1.30528 h -0.0706 l -0.0706,0.0353 h -0.0706 -0.0706 l -0.0706,0.0353 h -0.0706 l -0.0353,0.0353 h -0.0706 m -0.77611,1.83445 0.0353,0.21166 0.0706,0.24695 0.14111,0.21166 0.14111,0.21167 0.21167,0.14111 0.21166,0.10584 0.24695,0.0705 0.24694,0.0353 m -1.30528,-1.30528 v 0.0706 m 0,0 v -0.0706 -0.0705 -0.0353 0.0705 0.0353 m 0,0.91722 v -0.84666 m 0,0 v 0.84666 m 0,-0.91722 v -0.0353 -0.0705 0.0353 0.0705 0.0706 m 0,0 v -0.10584 -0.0705 -0.0353 -0.0353 0.0353 0.0706 0.0705 m 0,0.91722 v -0.84666 m 0,-0.49389 v 1.34055 m 0,-1.48166 v 0.14111 m 7.65528,1.41111 h 0.17639 l 0.17639,-0.0706 0.17639,-0.0705 0.14111,-0.10584 0.14111,-0.14111 0.0706,-0.17639 0.0706,-0.17638 0.0353,-0.17639 m 0,-0.0706 v 0.0706 m 0,1.27 v -0.0353 m 0,-1.30528 v 0 -0.0705 -0.0353 0.0705 0.0353 m 0,0.84667 v 0.49389 m 0,0 v 0 -0.0353 -0.0353 -0.0353 -0.0353 -0.0353 m 0,0 v -0.3175 m 0,-0.84667 v -0.0353 -0.0705 0.0353 0.0705 m 0,1.34056 v -0.0353 m -4.48028,-0.3175 v 0 m 0,0.3175 v -0.3175 m 0,0.3175 v 0 m 4.79778,-1.30528 v 0.0706 m -8.67833,0.77611 v 0.45861 m 8.67833,-1.23472 v 1.23472 m -5.715,-2.75167 v 0 -0.0353 -0.0353 -0.0353 m 0,0.10583 h -0.84665 m 0,-0.10583 v 0 0.0353 0.0353 0.0353 m 4.1275,-0.10583 v 0 0.0353 0.0353 0.0353 m 0,0 h -0.84667 m 0,-0.10583 v 0 0.0353 0.0353 0.0353 m -3.28083,0 v 0 h -0.0353 -0.0353 -0.0353 m -0.10583,-0.10583 v 0 h 0.0353 0.0353 v 0.0353 l 0.0353,0.0353 v 0.0353 m 1.09361,0 v 0 h -0.0353 -0.0353 -0.0353 -0.0353 m 0.24695,-0.10583 h -0.0353 -0.0353 v 0.0353 h -0.0353 v 0.0353 0.0353 m 2.29305,0 h -0.0353 -0.0353 -0.0353 m 0,0 v 0 l -0.0353,-0.0353 v -0.0353 l -0.0353,-0.0353 h -0.0353 -0.0353 m 1.19944,0.10583 v 0 h -0.0353 -0.0353 -0.0353 m 0.24695,-0.10583 h -0.0353 -0.0353 l -0.0353,0.0353 v 0.0353 l -0.0353,0.0353 m -3.38667,0 v 0.0353 m 0,0 h -0.84662 m 0,0 v -0.0353 m -0.10583,0.0353 v 0 h 0.0353 0.0353 0.0353 m -0.10584,0 v -0.0353 m 0.10584,0.14111 v 0 -0.0353 -0.0353 -0.0353 m 0.84666,0 v 0 0.0353 0.0353 0.0353 m -0.84666,0 h 0.84666 m 0,2.18723 v -0.0353 -0.0353 -0.0353 -0.0353 m -0.84666,0.14112 h 0.84666 m -0.84666,0 v -0.0353 -0.0353 -0.0353 -0.0353 m 0.84666,0 h -0.84667 m 0.84667,0.14112 v 0.10583 m -0.84667,0 v -0.10583 m 0,0 v 0 h -0.0353 -0.0353 -0.0353 m 0,0.10583 v -0.10583 m 1.09361,-2.29306 v -0.0353 m -0.14111,0.0353 h 0.0353 0.0353 0.0353 0.0353 m 0,2.29306 v 0 h -0.0353 -0.0353 -0.0353 -0.0353 m 0.14111,0.10583 v -0.10583 m 3.13973,-2.32834 v 0.0353 m 0,0 h -0.84667 m 0,0 v -0.0353 m -0.10583,0.0353 v 0 h 0.0353 0.0353 0.0353 m -0.10584,-0.0353 v 0.0353 m 0.10584,0.10583 h 0.84666 m -0.84667,0 v 0 -0.0353 -0.0353 -0.0353 m 0.84667,0.10583 v 0 -0.0353 -0.0353 -0.0353 m 0,2.29306 v 0.10583 m -0.84667,0 v -0.10583 m 0,0 h 0.84667 m 0,-0.14112 h -0.84667 m 0.84667,0.14112 v -0.0353 -0.0353 -0.0353 -0.0353 m -0.84667,0.14112 v -0.0353 -0.0353 -0.0353 -0.0353 m 0,0.14112 h -0.0353 -0.0353 -0.0353 m 0,0.10583 v -0.10583 m 1.05834,-2.29306 v -0.0353 m -0.10584,0.0353 h 0.0353 0.0353 0.0353 m 0,2.29306 v 0 h -0.0353 -0.0353 -0.0353 m 0.10584,0.10583 v -0.10583 m -4.23333,-2.18701 v 0 h -0.0353 v -0.0353 h -0.0353 v -0.0353 h -0.0353 v -0.0353 m 0,2.29306 v -0.0353 -0.0353 h 0.0353 v -0.0353 h 0.0353 l 0.0353,-0.0353 m 0.98778,0.14112 v -0.0353 l -0.0353,-0.0353 v -0.0353 h -0.0353 l -0.0353,-0.0353 h -0.0353 m 0,-2.04611 h 0.0353 0.0353 v -0.0353 h 0.0353 v -0.0353 l 0.0353,-0.0353 m 2.18722,0 v 0 0.0353 l 0.0353,0.0353 0.0353,0.0353 h 0.0353 m -0.10583,2.18723 v -0.0353 -0.0353 l 0.0353,-0.0353 h 0.0353 v -0.0353 h 0.0353 m 0.9525,0.14112 v -0.0353 -0.0353 l -0.0353,-0.0353 h -0.0353 v -0.0353 h -0.0353 m 0,-2.04611 h 0.0353 l 0.0353,-0.0353 0.0353,-0.0353 v -0.0353 m -4.445,-0.14111 v 0 h 0.0353 0.0353 v 0.0353 l 0.0353,0.0353 v 0.0353 m 3.13972,-0.10583 h 0.0353 0.0353 l 0.0353,0.0353 v 0.0353 l 0.0353,0.0353 m -3.175,0.14111 v 0 h -0.0353 v -0.0353 h -0.0353 v -0.0353 h -0.0353 v -0.0353 m 0,2.29306 v -0.0353 -0.0353 h 0.0353 v -0.0353 h 0.0353 l 0.0353,-0.0353 m -0.10583,-2.15194 v -0.0353 m 0,2.43417 v -0.10583 m 3.38666,-2.18723 h -0.0353 l -0.0353,-0.0353 -0.0353,-0.0353 v -0.0353 m 0,2.29306 v -0.0353 -0.0353 l 0.0353,-0.0353 h 0.0353 v -0.0353 h 0.0353 m -0.10585,-2.1513 v -0.0353 m 0,2.43417 v -0.10583 m 3.77472,-0.67028 h -0.38806 m 0,-0.59972 h 0.49389 m 15.24,1.69333 v 0 0.0353 m -18.76777,0 v -0.0353 m -4.09223,-1.86972 h -0.24676 m 0.24695,0.59972 v 0 m 0,-0.59972 v 0 m 0,0.59972 h -0.24695 m 0,0 v 0 m 0,-0.59972 v 0 m 1.76389,0 H 262.718 m 0.24694,0.59972 v 0 m 0,-0.59972 v 0 m -0.24694,0.59972 v 0 m 0,-0.59972 v 0 m 0.24694,0.59972 H 262.718 m 2.75166,0 v 0 m 0,-0.59972 v 0 m -0.24694,0.59972 v 0 m 0,-0.59972 v 0 m 0.24694,0.59972 h -0.24694 m 0.24694,-0.59972 h -0.24694 m 1.72861,0.59972 v 0 m 0,-0.59972 v 0 m 0,0.59972 h -0.24694 m 0,0 v 0 m 0,-0.59972 v 0 m 0.24694,0 h -0.24694 m -3.24556,0.59972 v 0 m 0,-0.59972 v 0 m -0.24694,0.59972 v 0 m 0,-0.59972 v 0 m 0.24694,0.59972 h -0.24694 m 0.24694,-0.59972 h -0.24694 m 0.74083,0.59972 v 0 m 0,-0.59972 v 0 m 0,0.59972 h -0.24695 m 0,0 v 0 m 0,-0.59972 v 0 m 0.24695,0 h -0.24695 m 0.74084,0.59972 v 0 m 0,-0.59972 v 0 m 0,0.59972 h -0.24695 m 0,0 v 0 m 0,-0.59972 v 0 m 0.24695,0 h -0.24695 m 0.74084,0 h -0.24695 m 0.24695,0.59972 v 0 m 0,-0.59972 v 0 m -0.24695,0.59972 v 0 m 0,-0.59972 v 0 m 0.24695,0.59972 h -0.24695 m 43.815,-11.43 v 12.7 m -15.27528,0 h 15.27528 m -15.27528,-12.7 v 12.7 m 13.6525,-10.40694 v 1.83444 m -12.02972,-1.83444 h 12.02972 m -12.02972,1.83444 v -1.83444 m -0.74084,1.83444 h 0.74084 m -0.74084,3.175 v -3.175 m 0.74084,3.175 h -0.74084 m 0.74084,1.83444 v -1.83444 m 2.78694,1.83444 h -2.78694 m 2.78694,1.76389 v -1.76389 m 1.12889,1.76389 h -1.12889 m 1.12889,1.05834 v -1.05834 m 4.19806,1.05834 h -4.19806 m 4.19806,-1.05834 v 1.05834 m 1.12889,-1.05834 h -1.12889 m 1.12889,-1.76389 v 1.76389 m 2.78694,-1.76389 h -2.78694 m 2.78694,-1.83444 v 1.83444 m 0.74083,-1.83444 h -0.74083 m 0.74083,-3.175 v 3.175 m -0.74083,-3.175 h 0.74083 m -14.39333,-4.1275 h 15.27528 m -15.27528,0 v 12.7 m 1.62278,-8.53722 v -0.0353 m 0,0.0353 h -0.70556 m -0.0353,-0.0353 0.0353,0.0353 m 0,0 v 2.8575 m 0,0 v 0.24694 m 0,0 -0.0353,0.0353 m 0.0353,-0.0353 h 0.70556 m 0,0.0353 v -0.0353 m 12.02972,-3.13972 v 0.0353 m 0,0 v -1.69334 m 0,0 v -0.17638 m -3.91583,9.66611 v -1.05834 m 1.12889,0 v -0.56444 m 0,0 v -2.29306 m 0,0 v 1.09361 m 3.4925,-4.97416 0.0353,-0.0353 m -0.0353,0.0353 h -0.70556 m 0,3.88055 v -0.77611 m 0,0 v 0.0353 m 0,1.83444 v -1.09361 m 0,-0.77611 h 0.70556 m 0.0353,0.0353 -0.0353,-0.0353 m 0,-0.24694 v -2.8575 m 0,3.10444 v -0.24694 m -0.70556,-4.55084 h -2.2225 m -0.45861,0 h -0.56444 m -0.45862,0 h -0.56444 m -0.45861,0 h -0.56445 m -0.45861,0 h -0.56444 m -0.45861,0 h -0.52917 m -0.45861,0 h -0.56445 m -0.45861,0 h -0.56444 m -0.45861,0 h -2.2225 m 9.34861,-0.14111 0.0353,-0.0353 h 0.0353 0.0706 0.0353 0.0705 0.0353 0.0706 0.0353 0.0353 l 0.0353,0.0353 m 0,0 v 0 m -0.45861,0 v 0 m -1.02306,0 0.0353,-0.0353 h 0.0353 0.0706 0.0706 0.0353 0.0705 0.0353 0.0353 0.0353 l 0.0353,0.0353 m 0,0 v 0 m -0.45862,0 v 0 m -2.01083,0 0.0353,-0.0353 h 0.0353 0.0353 0.0706 0.0353 0.0706 0.0353 0.0353 0.0705 v 0.0353 m 0,0 v 0 m -0.45861,0 v 0 h 0.0353 m -1.02306,0 0.0353,-0.0353 h 0.0353 0.0353 0.0706 0.0353 0.0706 0.0353 0.0705 0.0353 v 0.0353 m 0,0 v 0 m -0.45861,0 v 0 h 0.0353 m -1.02305,0 0.0353,-0.0353 h 0.0353 0.0353 0.0705 0.0353 0.0705 0.0353 0.0706 0.0353 v 0.0353 m 0,0 h 0.0353 m -0.45861,0 v 0 m -1.02306,0 0.0353,-0.0353 h 0.0353 0.0706 0.0353 0.0706 0.0353 0.0353 0.0705 0.0353 v 0.0353 m 0,0 h 0.0353 m -0.45861,0 v 0 m -1.02306,0 0.0353,-0.0353 h 0.0353 0.0706 0.0353 0.0706 0.0353 0.0353 0.0706 0.0353 v 0.0353 m 0,0 h 0.0353 m -0.45861,0 v 0 m 5.11528,0 0.0353,-0.0353 h 0.0353 0.0353 0.0706 0.0353 0.0706 0.0353 0.0353 0.0706 v 0.0353 m 0,0 v 0 m -0.45861,0 v 0 h 0.0353 m 0.42333,0 v 0 l -0.0353,0.0353 -0.0353,0.0353 v 0.0353 h -0.0353 l -0.0353,0.0353 h -0.0353 -0.0353 m -0.21166,-0.14111 v 0 0.0353 l 0.0353,0.0353 0.0353,0.0353 h 0.0353 l 0.0353,0.0353 h 0.0353 0.0353 m -4.90361,-0.14111 v 0.0353 l -0.0705,0.0706 -0.0706,0.0353 h -0.0705 -0.0706 l -0.0705,-0.0353 -0.0353,-0.0706 -0.0353,-0.0353 m 1.44639,0 -0.0353,0.0353 -0.0353,0.0706 -0.0705,0.0353 h -0.0706 -0.0705 l -0.0706,-0.0353 -0.0353,-0.0706 -0.0353,-0.0353 m 1.44639,0 -0.0353,0.0353 -0.0353,0.0706 -0.0706,0.0353 h -0.0705 -0.0706 l -0.0705,-0.0353 -0.0353,-0.0706 -0.0353,-0.0353 m 1.44639,0 -0.0353,0.0353 -0.0353,0.0706 -0.0705,0.0353 h -0.0706 -0.0705 l -0.0706,-0.0353 -0.0353,-0.0706 -0.0353,-0.0353 m 1.44639,0 -0.0353,0.0353 -0.0353,0.0706 -0.0706,0.0353 h -0.0706 -0.0706 l -0.0705,-0.0353 -0.0353,-0.0706 -0.0353,-0.0353 m 2.46945,0 -0.0353,0.0353 -0.0353,0.0706 -0.0706,0.0353 h -0.0705 -0.0706 l -0.0706,-0.0353 -0.0706,-0.0706 -0.0353,-0.0353 m 1.48167,0 -0.0353,0.0353 -0.0705,0.0706 -0.0353,0.0353 h -0.0706 -0.0705 l -0.0706,-0.0353 -0.0706,-0.0706 -0.0353,-0.0353 m -1.79917,1.97556 h -0.0353 l -0.0353,-0.0353 h -0.0353 l -0.0353,-0.0353 -0.0353,-0.0353 -0.0353,-0.0353 v -0.0353 l -0.0353,-0.0353 v -0.0353 m 0.45862,0 v 0.0353 0.0353 l -0.0353,0.0353 v 0.0353 l -0.0353,0.0353 -0.0353,0.0353 h -0.0353 l -0.0353,0.0353 h -0.0353 m -5.11528,0 h -0.0353 l -0.0353,-0.0353 h -0.0353 l -0.0353,-0.0353 -0.0353,-0.0353 v -0.0353 l -0.0353,-0.0353 v -0.0353 -0.0353 m 0.45861,0 v 0.0353 l -0.0353,0.0353 v 0.0353 l -0.0353,0.0353 -0.0353,0.0353 -0.0353,0.0353 h -0.0353 l -0.0353,0.0353 h -0.0353 m 1.02305,0 h -0.0353 l -0.0353,-0.0353 h -0.0353 l -0.0353,-0.0353 -0.0353,-0.0353 -0.0353,-0.0353 v -0.0353 -0.0353 -0.0353 m 0.45862,0 v 0.0353 l -0.0353,0.0353 v 0.0353 l -0.0353,0.0353 -0.0353,0.0353 -0.0353,0.0353 h -0.0353 l -0.0353,0.0353 h -0.0353 m 1.02305,0 h -0.0353 l -0.0353,-0.0353 h -0.0353 l -0.0353,-0.0353 -0.0353,-0.0353 -0.0353,-0.0353 v -0.0353 -0.0353 -0.0353 m 0.45861,0 -0.0353,0.0353 v 0.0353 0.0353 l -0.0353,0.0353 -0.0353,0.0353 -0.0353,0.0353 h -0.0353 l -0.0353,0.0353 h -0.0353 m 1.02306,0 h -0.0353 l -0.0353,-0.0353 h -0.0353 l -0.0353,-0.0353 -0.0353,-0.0353 -0.0353,-0.0353 v -0.0353 -0.0353 l -0.0353,-0.0353 m 0.45861,0 v 0.0353 0.0353 0.0353 l -0.0353,0.0353 -0.0353,0.0353 -0.0353,0.0353 h -0.0353 l -0.0353,0.0353 h -0.0353 m 1.02305,0 h -0.0353 l -0.0353,-0.0353 h -0.0353 l -0.0353,-0.0353 -0.0353,-0.0353 -0.0353,-0.0353 v -0.0353 l -0.0353,-0.0353 v -0.0353 m 0.45862,0 v 0.0353 0.0353 l -0.0353,0.0353 v 0.0353 l -0.0353,0.0353 -0.0353,0.0353 h -0.0353 l -0.0353,0.0353 h -0.0353 m 2.04611,0 h -0.0353 l -0.0706,-0.0353 h -0.0353 l -0.0353,-0.0353 v -0.0353 l -0.0353,-0.0353 v -0.0353 l -0.0353,-0.0353 v -0.0353 m 0.45862,0 v 0.0353 0.0353 l -0.0353,0.0353 v 0.0353 l -0.0353,0.0353 -0.0353,0.0353 h -0.0353 l -0.0353,0.0353 h -0.0353 m 1.02305,0 h -0.0705 l -0.0353,-0.0353 h -0.0353 l -0.0353,-0.0353 v -0.0353 l -0.0353,-0.0353 -0.0353,-0.0353 v -0.0353 -0.0353 m 0.45861,0 v 0.0353 0.0353 l -0.0353,0.0353 v 0.0353 l -0.0353,0.0353 -0.0353,0.0353 h -0.0353 l -0.0353,0.0353 h -0.0353 m -9.94833,8.43139 v -0.0353 m 1.30528,0 v 0.0353 m 11.43,-0.0353 v 0.0353 m -1.30528,0 v -0.0353 m -11.07722,-4.65667 h 2.78694 m 0,1.09361 v -1.09361 m 6.45584,0 h 2.78694 M 294.1496,123.9576 h 13.44084 m -9.94834,3.31611 h 6.45584 m -32.45555,-0.14111 0.0353,-0.35278 0.14111,-0.35278 0.24694,-0.3175 0.28222,-0.21167 0.35278,-0.14111 0.38806,-0.0705 0.35278,0.0705 0.35277,0.14111 0.3175,0.21167 0.21167,0.3175 0.14111,0.35278 0.0706,0.35278 m 0,0 -0.0706,0.38805 -0.14111,0.35278 -0.21167,0.28222 -0.3175,0.24695 -0.35277,0.14111 -0.35278,0.0353 -0.38806,-0.0353 -0.35278,-0.14111 -0.28222,-0.24695 -0.24694,-0.28222 -0.14111,-0.35278 -0.0353,-0.38805 m 1.44638,-1.44639 -0.28222,0.0353 -0.35277,0.10583 -0.28223,0.21167 -0.24694,0.24694 -0.17639,0.3175 -0.10583,0.35278 v 0.38805 l 0.10583,0.3175 0.17639,0.35278 0.24694,0.24695 0.28223,0.21166 0.35277,0.10584 h 0.28222 m 11.21833,1.09361 v 0 -0.0353 m 0,0 v 0 0.0353 m 0.0353,-0.0353 h -0.0353 m 0.0353,0 h -0.0353 m -5.75026,-3.4925 v 0.38805 m 14.04054,0.74084 v 0.67028 m 0,-0.67028 h -0.21166 m 0,-0.10584 h 0.21166 m 0,0 v 0.10584 m 0.49389,-0.10584 v 0.77612 m -0.49389,1.48166 v 0.24695 m 0.49389,-2.50473 h -0.49389 m 0,2.50473 v -0.24695 m 4.65667,0.24695 v 0 h -0.0353 -0.0353 v -0.0353 m 0.0706,0.0353 v 0 h -0.0353 -0.0353 v -0.0353 m -35.73639,2.78694 v -0.28222 m -0.28222,0.28222 h 0.28222 m 0,0 -0.17638,0.24695 m 0,0 h -0.10518 m 10.40695,0.70555 h 0.24694 m -0.24694,-1.16416 v 1.16416 m 0,0 v -1.16416 m 17.35666,-3.63361 v 0.10583 m 0,0 v 0 -0.0353 -0.0353 -0.0353 -0.0353 m 0.24694,0.52916 v 0.59973 m 0.10584,-0.59973 h -0.10584 m -1.19944,0 v 0.59973 m 1.19944,-0.59973 h -1.19944 m 0,0 h -0.0706 m -18.94416,-0.52916 h 0.10583 m -0.10583,0 v 0.0353 0.0353 0.0353 0.0353 0.0353 0.0705 0.0353 m 2.68111,-6.77333 0.0353,-0.35278 0.14111,-0.35278 0.24694,-0.3175 0.28223,-0.21166 0.35277,-0.14112 0.38806,-0.0705 0.35278,0.0705 0.35278,0.14112 0.3175,0.21166 0.21166,0.3175 0.14111,0.35278 0.0706,0.35278 m 0,0 -0.0706,0.38805 -0.14111,0.35278 -0.21166,0.28222 -0.3175,0.24695 -0.35278,0.14111 -0.35278,0.0353 -0.38806,-0.0353 -0.35277,-0.14111 -0.28223,-0.24695 -0.24694,-0.28222 -0.14111,-0.35278 -0.0353,-0.38805 m 1.44639,-1.44639 -0.28223,0.0353 -0.35277,0.10583 -0.28223,0.21167 -0.24694,0.24694 -0.17639,0.3175 -0.10583,0.35278 v 0.38805 l 0.10583,0.3175 0.17639,0.35278 0.24694,0.24695 0.28223,0.21166 0.35277,0.10584 h 0.28223 m -11.25361,6.17361 v -0.0353 m -1.19945,0 v 0.0353 m 0,-0.0353 v 0 0.0353 m 1.5875,-0.0353 v 0.0353 m 0,-0.0353 v 0 0.0353 m 0.49389,-0.0353 v 0.0353 m 0,-0.0353 v 0 0.0353 m 0.49389,-0.0353 v 0.0353 m 0,-0.0353 v 0 0.0353 m 0.52917,-0.0353 v 0.0353 m 0,-0.0353 v 0 0.0353 m 0.49389,-0.0353 v 0.0353 m 0,-0.0353 v 0 0.0353 m 0.49388,-0.0353 v 0.0353 m 0,-0.0353 v 0 0.0353 m 0.49389,-0.0353 v 0.0353 m 0,-0.0353 v 0 0.0353 m 0.49389,-0.0353 v 0.0353 m 0,-0.0353 v 0 0.0353 m 0.59972,-0.0353 v 0.0353 m 0,-0.0353 v 0 0.0353 m -4.48027,-0.0353 v 0 0.0353 m 0.59972,-0.0353 v 0 0.0353 m 0.49389,-0.0353 v 0 0.0353 m 0.49389,-0.0353 v 0 0.0353 m 0.49389,-0.0353 v 0 0.0353 m 0.49388,-0.0353 v 0 0.0353 m 0.52917,-0.0353 v 0 0.0353 m 0.49389,-0.0353 v 0 0.0353 m 0.49389,-0.0353 v 0 0.0353 m 1.5875,-0.0353 v 0 0.0353 m 13.05278,-0.0353 v 0.0353 m 0.42334,-0.0353 v 0.0353 m 0.52916,-0.0353 v 0.0353 m 0.42334,-0.0353 v 0.0353 m -14.28751,0 v -0.0353 m 25.57638,-1.09361 h -0.84666 m -3.4925,0 h -0.635 m -1.51695,0 h -0.17639 m 0,-0.59972 h 0.17639 m 5.64445,0 h 0.84666 m -0.49388,0.88194 h -0.35278 m 0.35278,0.59972 h -0.35278 m -17.81524,2.99861 h 0.14111 m -0.14111,0.17639 0.14111,-0.17639 m 0,-0.28222 v 0.28222 m 34.57222,-2.75166 h -0.49389 -0.59972 -0.59972 m 0,0 H 292.3869 m -3.21027,0 h -1.19945 m -1.76389,0 h -8.53721 m -9.17223,0 h -8.53722 m 29.35111,-0.59973 h -0.0353 m -1.37584,0 h -0.0705 m 14.32278,0.59973 v -0.0353 m -23.53027,0 v 0.0353 m 0,-0.0353 v 0 0.0353 m 1.5875,-0.0353 v 0.0353 m 0,-0.0353 v 0 0.0353 m 0.49389,-0.0353 v 0.0353 m 0,-0.0353 v 0 0.0353 m 0.52917,-0.0353 v 0.0353 m 0,-0.0353 v 0 0.0353 m 0.49389,-0.0353 v 0.0353 m 0,-0.0353 v 0 0.0353 m 0.49388,-0.0353 v 0.0353 m 0,-0.0353 v 0 0.0353 m 0.49388,-0.0353 v 0.0353 m 0,-0.0353 v 0 0.0353 m 0.49389,-0.0353 v 0.0353 m 0,-0.0353 v 0 0.0353 m 0.52917,-0.0353 v 0.0353 m 0,-0.0353 v 0 0.0353 m 0.59972,-0.0353 v 0.0353 m 0,-0.0353 v 0 0.0353 m -4.51554,-0.0353 v 0 0.0353 m 0.59972,-0.0353 v 0 0.0353 m 0.49389,-0.0353 v 0 0.0353 m 0.49389,-0.0353 v 0 0.0353 m 0.52916,-0.0353 v 0 0.0353 m 0.49388,-0.0353 v 0 0.0353 m 0.49389,-0.0353 v 0 0.0353 m 0.49389,-0.0353 v 0 0.0353 m 0.49389,-0.0353 v 0 0.0353 m 1.5875,-0.0353 v 0 0.0353 m -25.18833,0 v -0.0353 m 0,0.0353 v -0.0353 m 25.85861,0 v 0.0353 m 0,-0.0353 v 0.0353 m 7.12611,0 v -0.0353 m -0.70556,0 h -0.21166 m 0.67027,-11.85333 h 0.17639 m -0.17639,-0.84667 h 0.17639 m -4.65666,16.1925 v 0 h 0.0353 0.14111 0.21166 0.28223 0.3175 0.28222 m -1.44639,-0.59972 v 0 h 0.10583 0.17639 0.28222 0.3175 m 0.56445,0.52916 -0.10584,-0.0353 -0.14111,-0.10584 -0.3175,-0.38805 m 0,0 v -0.38806 m -4.02166,-2.71639 h -3.45722 m 4.55083,-1.09361 v 0.21167 l -0.0706,0.21166 -0.10584,0.17639 -0.14111,0.17639 -0.17639,0.14111 -0.17638,0.10584 -0.21167,0.0705 h -0.21167 m 1.09361,-1.65805 v 0.56444 m -1.09361,-1.65805 h 0.21167 l 0.21167,0.0705 0.17638,0.10583 0.17639,0.14112 0.14111,0.17638 0.10584,0.17639 0.0706,0.21167 v 0.21167 m -7.4436,-1.09361 h 6.34999 m -7.4436,1.09361 v -0.21167 l 0.0706,-0.21167 0.10583,-0.17639 0.14111,-0.17638 0.14111,-0.14112 0.21167,-0.10583 0.21166,-0.0705 h 0.21167 m -1.09361,1.65805 v -0.56444 m 1.09361,1.65805 h -0.21167 l -0.21166,-0.0705 -0.21167,-0.10584 -0.14111,-0.14111 -0.14111,-0.17639 -0.10583,-0.17639 -0.0706,-0.21166 v -0.21167 m 3.95111,1.09361 h -2.8575 m 2.8575,0.21167 v -0.21167 m -2.8575,0.21167 h 2.8575 m -4.16278,-1.30528 0.0353,0.24695 0.0705,0.24694 0.10583,0.24694 0.17639,0.17639 0.17639,0.17639 0.24695,0.10584 0.24694,0.0705 0.24694,0.0353 m -1.30527,-1.30528 v -0.56444 m 1.30527,-1.30528 -0.24694,0.0353 -0.24694,0.0705 -0.24695,0.14111 -0.17639,0.14111 -0.17639,0.21167 -0.10583,0.21167 -0.0705,0.24694 -0.0353,0.24695 m 1.30528,-1.30528 h 6.34999 m 0,0 0.24694,0.0353 0.24695,0.0705 0.21166,0.14111 0.21167,0.14111 0.17639,0.21167 0.10583,0.21167 0.0705,0.24694 0.0353,0.24695 m 0,0.56444 v -0.56444 m -1.30528,1.86972 0.24695,-0.0353 0.24694,-0.0705 0.21167,-0.10584 0.21167,-0.17639 0.17638,-0.17639 0.10584,-0.24694 0.0705,-0.24694 0.0353,-0.24695 m -4.76249,1.30528 h 3.45721 m -3.45721,-0.21167 v 0.21167 m 0,0 v -0.3175 m 0,0 v 0.10583 m 3.45721,0 v -0.10583 m 0,0 h -3.45721 m -2.89278,0 v 0.10583 m 2.8575,-0.10583 h -2.8575 m 2.8575,0.10583 v -0.10583 m -3.84528,-1.55222 h -0.10583 m 1.09361,-1.09361 v 0.10583 m 0,0 h -0.21167 l -0.17638,0.0705 -0.17639,0.10584 -0.14111,0.10583 -0.14112,0.14111 -0.0706,0.17639 -0.0706,0.21167 v 0.17639 m -0.10583,0.56444 h 0.10583 m 0,0 v 0.21167 l 0.0706,0.17639 0.0706,0.17639 0.14112,0.14111 0.14111,0.14111 0.17639,0.0705 0.17638,0.0706 h 0.21167 m -0.98778,-1.55222 v 0.56444 m 7.33777,-1.55222 v -0.10583 m -6.34999,0.10583 h 6.34999 m 1.09361,0.98778 h -0.10583 m 0,0 v -0.17639 l -0.0706,-0.21167 -0.10583,-0.17639 -0.10584,-0.14111 -0.14111,-0.10583 -0.17639,-0.10584 -0.21166,-0.0705 h -0.17639 m 0.98777,1.55222 h 0.10584 m -1.09361,0.98778 h 0.17639 l 0.21166,-0.0706 0.17639,-0.0705 0.14111,-0.14111 0.10584,-0.14111 0.10583,-0.17639 0.0706,-0.17639 v -0.21167 m 0,0 v -0.56444 m -7.86694,-1.19945 -0.17638,0.10584 -0.14112,0.10583 -0.14111,0.14111 -0.10583,0.14111 -0.10583,0.17639 -0.0353,0.17639 -0.0705,0.17639 v 0.17639 m 1.30527,-1.30528 h -0.0706 l -0.0706,0.0353 h -0.0705 -0.0706 l -0.0353,0.0353 h -0.0706 l -0.0706,0.0353 h -0.0705 m -0.77611,1.83445 0.0353,0.21166 0.0705,0.24695 0.14111,0.21166 0.14112,0.21167 0.21166,0.14111 0.21167,0.10584 0.24694,0.0705 0.24695,0.0353 m -1.30528,-1.30528 v 0.0706 m 0,0 v -0.0706 -0.0705 -0.0353 0.0705 0.0353 m 0,1.30528 v -1.23472 m 0,1.09361 v 0.0353 0.0353 0.0353 0.0353 0.0353 m 0,-1.27 v 1.09361 m 0,-1.16417 v -0.0353 -0.0705 0.0353 0.0705 0.0706 m 0,0 v -0.10584 -0.0705 -0.0353 -0.0353 0.0353 0.0706 0.0705 m 0,1.30528 v -1.23472 m 0,-0.49389 v 1.72861 m 0,-1.86972 v 0.14111 m 7.65527,1.41111 h 0.17639 l 0.17639,-0.0706 0.17638,-0.0705 0.14112,-0.10584 0.14111,-0.14111 0.10583,-0.17639 0.0353,-0.17638 0.0353,-0.17639 m 0,-0.0706 v 0.0706 m 0,-0.0706 v 0 -0.0705 -0.0353 0.0705 0.0353 m 0,0.84667 v 0.45861 m 0,0 v 0 -0.0353 -0.0353 -0.0353 -0.0353 m 0,0 v -0.3175 m 0,-0.84667 v -0.0353 -0.0705 0.0353 0.0705 m -4.48027,0.98778 v 0 h 0.0353 m -0.0353,0.3175 v -0.3175 m 0.0353,0.3175 h -0.0353 m 4.79777,-1.30528 v 0.0706 m -8.64305,0.77611 v 0.49389 m 8.64305,-1.27 v 0.84666 m -5.71499,-2.36361 v 0 -0.0353 -0.0353 -0.0353 m 0,0.10583 h -0.81139 m 0,-0.10583 v 0 0.0353 0.0353 0.0353 m 4.09221,-0.10583 v 0 0.0353 0.0353 0.0353 m 0,0 h -0.84666 m 0,-0.10583 v 0 0.0353 0.0353 0.0353 m -3.24555,0 h -0.0353 -0.0353 -0.0353 -0.0353 m -0.10583,-0.10583 h 0.0353 0.0353 v 0.0353 h 0.0353 v 0.0353 0.0353 m 1.09361,0 v 0 h -0.0353 -0.0353 -0.0353 -0.0353 m 0.24694,-0.10583 v 0 h -0.0353 -0.0353 v 0.0353 h -0.0353 v 0.0353 0.0353 m 2.29305,0 v 0 h -0.0353 -0.0353 -0.0353 m 0,0 v 0 -0.0353 l -0.0353,-0.0353 -0.0353,-0.0353 h -0.0353 m 1.19944,0.10583 h -0.0353 -0.0353 -0.0353 -0.0353 m 0.24695,-0.10583 h -0.0353 -0.0353 v 0.0353 h -0.0353 v 0.0353 0.0353 m -3.42194,0 v 0.0353 m 0,0 h -0.81138 m 0,0 v -0.0353 m -0.14112,0.0353 v 0 h 0.0353 0.0353 0.0353 0.0353 m -0.14111,0 v -0.0353 m 0.14111,0.14111 v 0 -0.0353 -0.0353 -0.0353 m 0.81139,0 v 0 0.0353 0.0353 0.0353 m -0.81139,0 h 0.81139 m 0,2.18723 v 0.10583 m -0.81139,0 v -0.10583 m 0,0 h 0.81139 m 0,0 v -0.0353 -0.0353 -0.0353 -0.0353 m -0.81139,0.14112 v -0.0353 -0.0353 -0.0353 -0.0353 m 0.81139,0 h -0.81139 m 0,0.14112 h -0.0353 -0.0353 -0.0353 -0.0353 m 0,0.10583 v -0.10583 m 1.09362,-2.29306 v -0.0353 m -0.14112,0.0353 h 0.0353 0.0353 0.0353 0.0353 m 0,2.29306 v 0 h -0.0353 -0.0353 -0.0353 -0.0353 m 0.14112,0.10583 v -0.10583 m 3.13971,-2.32834 v 0.0353 m 0,0 h -0.84667 m 0,0 v -0.0353 m -0.10583,0.0353 v 0 h 0.0353 0.0353 0.0353 m -0.10584,-0.0353 v 0.0353 m 0.10584,0.10583 h 0.84666 m -0.84666,0 v 0 -0.0353 -0.0353 -0.0353 m 0.84666,0.10583 v 0 -0.0353 -0.0353 -0.0353 m 0,2.15194 h -0.84666 m 0.84666,0.14112 v -0.0353 -0.0353 -0.0353 -0.0353 m -0.84666,0.14112 h 0.84666 m -0.84666,0 v -0.0353 -0.0353 -0.0353 -0.0353 m 0.84666,0.14112 v 0.10583 m -0.84666,0 v -0.10583 m 0,0 v 0 h -0.0353 -0.0353 -0.0353 m 0,0.10583 v -0.10583 m 1.09361,-2.29306 v -0.0353 m -0.14111,0.0353 h 0.0353 0.0353 0.0353 0.0353 m 0,2.29306 h -0.0353 -0.0353 -0.0353 -0.0353 m 0.14111,0.10583 v -0.10583 m -4.23332,-2.18723 h -0.0353 -0.0353 v -0.0353 h -0.0353 v -0.0353 l -0.0353,-0.0353 m 0,2.29306 v -0.0353 l 0.0353,-0.0353 v -0.0353 h 0.0353 l 0.0353,-0.0353 h 0.0353 m 0.9525,0.14112 v -0.0353 -0.0353 h -0.0353 v -0.0353 h -0.0353 l -0.0353,-0.0353 h -0.0353 m 0,-2.04611 h 0.0353 0.0353 v -0.0353 h 0.0353 v -0.0353 h 0.0353 v -0.0353 m 2.18721,0 v 0 0.0353 h 0.0353 v 0.0353 l 0.0353,0.0353 h 0.0353 m -0.10584,2.18723 v -0.0353 -0.0353 h 0.0353 v -0.0353 h 0.0353 l 0.0353,-0.0353 m 0.98778,0.14112 -0.0353,-0.0353 v -0.0353 -0.0353 h -0.0353 -0.0353 v -0.0353 h -0.0353 m 0,-2.04611 h 0.0353 l 0.0353,-0.0353 h 0.0353 v -0.0353 -0.0353 h 0.0353 m -4.48027,-0.14111 h 0.0353 0.0353 v 0.0353 h 0.0353 v 0.0353 0.0353 m 3.17499,-0.10583 v 0 h 0.0353 l 0.0353,0.0353 0.0353,0.0353 v 0.0353 m -3.13971,0.14111 h -0.0353 -0.0353 v -0.0353 h -0.0353 v -0.0353 l -0.0353,-0.0353 m 0,2.29306 v -0.0353 l 0.0353,-0.0353 v -0.0353 h 0.0353 l 0.0353,-0.0353 h 0.0353 m -0.14111,-2.15194 v -0.0353 m 0,2.43417 v -0.10583 m 3.38666,-2.18723 v 0 h -0.0353 l -0.0353,-0.0353 v -0.0353 h -0.0353 v -0.0353 m 0,2.29306 v -0.0353 -0.0353 h 0.0353 v -0.0353 h 0.0353 l 0.0353,-0.0353 m -0.10584,-2.15194 v -0.0353 m 0,2.43417 v -0.10583 m -8.60777,2.99861 v 1.16416 m -0.24694,0 h 0.24694 m -14.81664,-6.20824 h -0.28222 m 12.065,5.00945 v 0.24694 m 0,0 h 0.0353 m 0,0.0706 -0.0353,-0.0706 m 0.0353,0.0706 -0.0353,-0.0706 m 0,-0.24694 v 0.24694 m 32.77305,-2.75166 0.0353,-0.0353 m -6.17361,0.0353 v -0.0353 m -4.93889,0.0353 v -0.0353 m -0.49389,-0.21167 v 0.24695 m 0,-0.24695 h 0.49389 m -0.49389,0.24695 v 0 -0.0353 -0.0353 -0.0353 -0.0353 -0.0706 -0.0706 m 0,0 v -0.49388 m 0,0 v 0 -0.0353 -0.0353 m 0,0 v -0.28222 m 0,0 v 0.0353 0.0353 0.0353 0.0353 0.0353 0.0705 0.0353 m 0,0 v 0.52917 m 0,0 v 0 0.0353 0.0353 m 0,-0.88194 h 0.49389 m -0.14111,-0.84667 h 0.14111 m -0.84667,1.94028 h 0.21167 m 0.49389,-2.15195 h 0.14111 m -13.08806,12.45316 h 0.81138 m 0,0 v 0.98778 m 0,0 h -0.81138 m 0,0 v -0.98778 m 5.78554,0 h 0.0353 m -0.0353,0 h -1.55222 m 0,0 h -0.45861 m 0,0 h -0.42334 m -5.25637,0.98778 h 0.0353 m 0,0 h 1.86972 m 0.81139,0 H 281.38 m 2.53999,-0.98778 v 0.98778 m 0,0 h -0.42333 m 0,-0.98778 v 0.98778 m 0.88194,0 h -0.45861 m 2.01083,0 h -1.55222 m 1.5875,0 h -0.0353 m -4.97416,-0.98778 h 0.42334 m 0,0 v 0.98778 m -1.23473,-0.98778 h -1.86972 m -0.0353,0 h 0.0353 m 6.10305,0.98778 v -0.98778 m 1.55222,0.98778 v -0.98778 m -7.65527,0.98778 v -0.98778 m 9.17221,-7.26722 0.10584,0.0353 0.10583,0.0705 0.0706,0.10583 0.0353,0.10584 m 0,0.24694 v 0.14111 0.14111 0.10584 m 0,-0.635 v 0.24694 m -11.32416,0 h 11.32416 m -11.32416,0 v -0.24694 m 0,0 0.0353,-0.10584 0.0706,-0.10583 0.10584,-0.0705 0.10583,-0.0353 m 10.68916,0 h -10.68917 m -0.3175,0.9525 v 0 -0.10584 -0.14111 -0.14111 m 11.32415,14.39333 v 0.24695 m 0,-0.635 v 0.0353 0.0705 0.14111 0.14111 m -11.00665,0.56448 h 10.68915 m -10.68915,0 -0.10583,-0.0353 -0.10584,-0.0705 -0.0706,-0.0706 -0.0353,-0.14111 m 0,0 v -0.24695 m 11.32416,0 h -11.32415 m 11.32415,0.24695 -0.0353,0.14111 -0.0706,0.0706 -0.10583,0.0705 -0.10583,0.0353 m -11.00665,-0.56445 v -0.14111 -0.14111 -0.0705 -0.0353 m 12.94693,-0.56445 h -0.635 m 0,0 h -0.14111 -0.14111 -0.0706 -0.0353 m 0.38806,-12.48833 h 0.635 m 0,0 v 12.48833 m -0.635,-12.48833 v 12.48833 m -0.38806,-4.58611 v 4.58611 m 0,-12.48833 v 4.58611 m 0,-4.58611 h 0.0353 0.0706 0.14111 0.14111 m -12.31193,-0.56447 h 11.32415 m 0,13.61722 h -11.32415 m -0.98779,-0.56445 h -0.635 m 1.02306,0 h -0.0353 -0.0706 -0.14111 -0.14111 m 0,-12.48833 h 0.14111 0.14111 0.0706 0.0353 m 0,4.58611 v -4.58611 m 0,12.48833 v -4.58611 m -0.38806,4.58611 v -12.48833 m -0.635,0 h 0.635 m -0.635,12.48833 v -12.48833 m 3.42196,6.73806 v -0.98778 m 7.72582,0.98778 v -0.98778 m -10.12472,1.79917 h 12.52361 m -12.52361,0.38805 h 12.52361 m -12.52361,-0.0353 v -0.0705 -0.0706 -0.10583 -0.10583 m 12.52361,0 v 0.10583 0.10583 0.0706 0.0705 m -4.86834,-2.15194 h -0.0353 m 0,0 v 0.98778 m 0,0 h 0.0353 m 4.86834,-1.79917 h -12.52334 m 12.52361,0 v 2.61056 m -12.52361,0 v -2.61056 m 12.52361,-0.38805 h -12.52361 m 0,0.38805 v -0.10583 -0.0706 -0.10583 -0.0706 m 12.52361,0 v 0.0706 0.10583 0.0706 0.10583 m 0.28222,8.50194 v 0.42334 m 0,-0.42334 v -0.49388 m 0,0 v -0.45862 m 0,-12.48833 v -0.45861 m -13.08805,0 v 0.45861 m 0,12.48833 v 0.45862 m 0,0.49388 v 0.42334 m 0,-0.91722 v 0.49388 m 12.69999,-14.28749 h -0.49389 m -11.32415,0 h -0.4939 m 11.81805,14.18166 h 0.49389 m -12.31194,0 h 0.4939 m 11.92388,-0.84667 v 0.45862 m 0,-13.40556 v 0.45861 m -12.52361,12.94695 v -0.45862 m 0,-12.48833 v -0.45861 m 0.59973,13.51139 h -0.4939 m 12.31194,0 h -0.49389 m 0,-13.61722 h 0.49389 m -12.31194,0 h 0.4939 m 10.65388,2.04611 v -0.9525 m -9.9836,0.9525 h 9.9836 m -9.9836,-0.9525 v 0.9525 m 9.9836,-0.9525 h -9.9836 m 0,0 -0.42334,-0.38806 m -0.0706,1.83445 0.49389,-0.49389 m -0.49389,-1.34056 v 1.83445 m 0,-1.83445 h 0.0706 m 10.83027,0 -0.42333,0.38806 m 0.42333,-0.38806 H 276.6883 m -0.0706,1.86973 h 10.97138 m -10.97138,-0.0353 v 0.0353 m 10.97138,-0.0353 -0.49389,-0.49389 m 0.49389,0.49389 v 0.0353 m -10.47749,7.97277 -0.49389,0.49389 m 0.49389,-0.49389 h 9.9836 m 0.49389,0.49389 -0.49389,-0.49389 m 0.49389,0.49389 v 0.0353 m -10.97138,0 h 10.97138 m -10.97138,0 v -0.0353 m 10.47749,-0.49389 v -0.9525 m 0.42334,-0.38805 -0.42334,0.38805 m 0.42334,-0.38805 h 0.0705 m 0,0 v 1.83444 m -0.0705,-10.33639 h 0.0705 m 0,0 v 1.83445 m -10.90083,6.6675 0.42334,0.38805 m 0,0.9525 v -0.9525 m -0.49389,-0.38805 v 1.83444 m 0.0706,-1.83444 h -0.0706 m 10.90082,0 h -10.83026 m 10.40694,0.38805 h -9.9836 m 11.14776,4.02167 h 0.0353 l 0.0353,-0.0353 v -0.0353 l 0.0353,-0.0353 m -0.10583,0.38805 h 0.14111 l 0.14111,-0.10583 0.0706,-0.14111 0.0353,-0.14111 m -12.80583,0 0.0353,0.0353 v 0.0353 l 0.0353,0.0353 h 0.0353 m -0.38805,-0.10583 0.0353,0.14111 0.0705,0.14111 0.14111,0.10583 h 0.14111 m 0,-13.89944 -0.0353,0.0353 h -0.0353 v 0.0353 l -0.0353,0.0353 m 0.10583,-0.38805 -0.14111,0.0353 -0.14111,0.0706 -0.0705,0.14111 -0.0353,0.14111 m 13.08805,0 -0.0353,-0.14111 -0.0706,-0.14111 -0.14111,-0.0706 -0.14111,-0.0353 m 0.10583,0.38805 -0.0353,-0.0353 v -0.0353 h -0.0353 l -0.0353,-0.0353 m 0.10584,12.065 -0.81139,-0.3175 m 0,0 v 0 -0.0353 h 0.0353 0.0706 m 0.70555,-8.14917 -0.81138,-0.3175 m 0,0 v 0 -0.0353 h 0.0353 0.0706 m -0.0706,7.16138 0.77611,-0.3175 m -11.71221,1.69334 -0.8114,0.3175 m 0.77612,-0.35278 h 0.0353 v 0.0353 m 10.9361,-9.87778 0.77611,-0.3175 m -11.71221,1.69333 -0.8114,0.3175 m 0.8114,-0.3175 v 0 m -0.8114,-1.69333 0.77612,0.3175 m -0.77612,8.18444 0.77612,0.3175 m 10.9361,-7.79638 v 0.67027 m 0,8.50195 v -0.67028 m -10.90082,-8.50194 v 0.67027 m 0,8.50195 v -0.67028 m 3.24555,-5.96194 0.0353,-0.0353 0.0706,-0.0706 m -1.79916,0 0.0353,0.0706 0.0705,0.0353 m -0.21167,-0.70556 0.10583,0.59972 m 1.79917,0 0.0705,-0.59972 m 0,0 h -1.97556 m 6.31472,9.2075 -0.21167,-0.74083 m 1.79917,0 -0.21167,0.74083 m 0.21167,-0.74083 h -1.79917 m 1.79917,-12.17084 -0.21167,-0.70555 m -1.37583,0 -0.21167,0.70555 m -5.99721,12.17084 0.21166,0.74083 m 1.37584,0 0.21166,-0.74083 m 0,0 h -1.79916 m 1.5875,-12.87639 0.21166,0.70555 m -1.79916,0 0.21166,-0.70555 m -0.24694,5.11528 -0.0705,-0.42334 m 2.01083,0 -0.0706,0.42334 m -1.72861,-5.11528 -0.14111,0.49389 m 1.86972,0 -0.14111,-0.49389 m 4.2686,13.12333 0.14111,0.49389 m 1.5875,0 0.14111,-0.49389 m -1.86972,-12.62944 0.14111,-0.49389 m 1.5875,0 0.14111,0.49389 m -7.72582,13.12333 -0.14111,-0.49389 m 1.86972,0 -0.14111,0.49389 m 4.12749,-13.61722 0.0706,0.10583 m 0.0353,0.10583 v -0.0706 l -0.0353,-0.0353 m 0.0705,0.35278 -0.0353,-0.24695 m 0.0353,0.24695 v 0.0353 0.0353 -0.0353 m -0.0705,-0.0706 v -0.0353 m -0.24694,-0.38805 0.24694,0.38805 m 0.0353,0.28223 v 0.0353 m 0,-0.0353 -0.0353,-0.24695 m -3.91582,13.19389 -0.0705,-0.10583 m -0.0353,-0.10584 v 0.0706 l 0.0353,0.0353 m -0.0706,-0.35278 0.0353,0.24694 m -0.0353,-0.24694 v -0.0353 m 0.0353,-0.14111 0.0353,0.24694 m 0,0 v 0 m 0.24694,0.38806 -0.24694,-0.38806 m -0.0353,-0.24694 v -0.10583 l -0.0353,-0.0706 -0.0353,0.0706 m 0.0353,-12.3825 v 0 0.0353 -0.0353 -0.0353 m 0.0353,-0.24695 -0.0353,0.24695 m 0.0706,-0.35278 -0.0353,0.0353 v 0.0706 m 0.10583,-0.21166 -0.0705,0.10583 m 0,0.28222 0.24694,-0.38805 m -0.24694,0.38805 v 0.0353 m -0.0353,0.24695 0.0353,-0.24695 m -0.0353,0.28222 v -0.0353 m 4.02166,12.84111 0.0353,-0.0353 v -0.0706 m -0.10584,0.21167 0.0706,-0.10583 m 0,-0.28223 -0.24694,0.38806 m 0.28222,-0.635 -0.0353,0.24694 m 0.0705,-0.10583 v 0 0.0353 m -0.0353,0.24694 0.0353,-0.24694 m -0.0705,0.0705 v 0 m 0.10583,-0.35277 -0.0353,-0.0706 -0.0353,0.0706 v 0.10583 m -6.03248,0.52917 0.0353,-0.0353 v -0.0706 m -0.0353,0.10584 -0.0706,0.10583 m 0.14111,-0.49389 v 0 0.0353 m 0,0 -0.0353,0.24694 m -0.0353,-0.17639 -0.24695,0.38806 m 0.24695,-0.38806 v 0 m 0,0 0.0353,-0.24694 m 0.0706,-0.10583 -0.0353,-0.0706 -0.0353,0.0706 v 0.10583 m 7.90221,-12.48833 v 0 0.0353 -0.0353 -0.0353 m 0,0 0.0353,-0.24695 m 0.0353,-0.10583 -0.0353,0.0353 v 0.0706 m 0.0353,-0.10583 0.0705,-0.10583 m -0.0705,0.38805 0.24694,-0.38805 m -0.24694,0.38805 v 0.0353 m 0,0 -0.0353,0.24695 m 0,0.0353 v -0.0353 m 0.28222,12.94694 -0.24694,-0.38806 m 0,0.28223 0.0705,0.10583 m -0.10584,-0.21167 v 0.0706 l 0.0353,0.0353 m -0.0706,-0.35278 0.0353,0.24694 m -0.0353,-0.24694 v -0.0353 m 0.0706,0.10583 -0.0353,-0.24694 m 0.0353,0.24694 v 0 m -0.0353,-0.24694 v -0.10583 l -0.0353,-0.0706 -0.0353,0.0706 m -7.90221,-12.77056 -0.0706,-0.10583 m 0.10583,0.21166 v -0.0706 l -0.0353,-0.0353 m 0.0705,0.35278 -0.0353,-0.24695 m 0.0353,0.24695 v 0.0353 0.0353 -0.0353 m -0.0705,-0.0706 v -0.0353 m -0.24694,-0.38805 0.24694,0.38805 m 0.0353,0.28223 v 0.0353 m -0.0353,-0.28222 0.0353,0.24695 m 1.97556,3.81 0.0353,0.28222 m 0,0.0353 0.21167,0.3175 m -0.17639,0 -0.0353,-0.0353 m 0,-0.10584 v 0.0706 0.0353 m 0,-0.10584 -0.0353,-0.28222 m 0,0 v 0 m 0,-0.21166 v -0.0706 -0.0353 l -0.0353,0.0353 m 0.0706,0.35278 v 0.0353 m -2.29306,0.3175 0.17639,-0.3175 m 0.0353,-0.0353 v -0.28222 m 0.0353,0.21166 -0.0353,0.28222 m 0,0.10584 v -0.0353 -0.0706 m 0,0.10584 -0.0353,0.0353 m 0,-0.3175 h 0.0353 v -0.0353 m 0.0353,-0.35278 v -0.0353 0.0353 l -0.0353,0.0706 m 0.0353,0.21166 v 0 m 4.51555,-1.51694 h 0.9525 m -0.9525,-0.59972 v 0.59972 m 0.9525,-0.59972 v 0.59972 m 1.55222,0 h 0.9525 m -0.9525,-0.59972 v 0.59972 m 0.9525,-0.59972 v 0.59972 m -3.45722,7.90222 v 0.59972 m 0.9525,-0.59972 v 0.59972 m -0.9525,0 h 0.9525 m 1.55222,0 h 0.9525 m -0.9525,-0.59972 v 0.59972 m 0.9525,-0.59972 v 0.59972 m -3.45722,0 v 0.0706 m -1.02305,-8.5725 h -0.9525 m 0,-0.59972 v 0.59972 m 0.9525,-0.59972 v 0.59972 m -2.50472,-0.59972 v 0.59972 m 0,0 h -0.9525 m 0,-0.59972 v 0.59972 m 0.9525,7.90222 v 0.59972 m 0,0 h -0.9525 m 0,-0.59972 v 0.59972 m 3.45722,-0.59972 v 0.59972 m 0,0 v 0.0706 m -0.9525,-0.67028 v 0.59972 m 0.9525,0 h -0.9525 m 0,0 v 0.0706 m 2.92805,-0.0706 v 0.0706 m 4.33916,2.75166 v 0.59973 m 0,-1.09362 v 0.49389 m -11.60638,0.59973 v -0.59973 m 0,0 h 0.28223 m 11.04193,0 h 0.28222 m -11.60638,-0.49389 v 0.49389 m 11.60638,-0.49389 h -0.14111 m -11.32416,0 h -0.14111 m 1.79917,-9.24277 v 0 m 1.97556,0 h 0.0353 m -2.01084,0.0353 h 0.0353 m 1.94028,0 h 0.0353 m 3.45721,6.94972 h -0.9525 m -1.97554,0 h 0.9525 m -5.75028,3.35139 v -1.19945 m 12.5236,0 v 1.19945 m 0,-1.09362 h 0.28222 m 0,0.42334 0.42334,0.67028 m -0.35278,0 -0.35278,-0.59973 m -12.87638,0.59973 0.35278,-0.59973 m -0.28223,-0.0705 -0.42333,0.67028 m 0.70556,-1.09362 h -0.28223 m 8.74889,-5.50333 -0.0353,0.0353 -0.0706,0.0706 m 1.79916,0 -0.0706,-0.0706 -0.0353,-0.0353 m 0.21167,0.70556 -0.10583,-0.59972 m -1.86973,0.59972 h 1.97556 m -1.905,-0.59972 -0.0706,0.59972 m 0.0706,-0.70556 v 0.10584 m 1.79917,0 v -0.10584 m 0.0353,0 0.0706,0.45861 m -2.01084,0 0.0706,-0.45861 m -0.0706,0.45861 h 0.0706 m 1.86973,0 h 0.0706 m -7.90222,-0.35277 0.0353,-0.0706 0.0706,-0.0353 m -0.10583,0.10584 v -0.10584 m -0.10583,0.70556 h 1.97555 m -1.97555,0 0.10583,-0.59972 m 1.69333,-0.10584 0.0706,0.0353 0.0353,0.0706 m 0,0 0.0705,0.59972 m -0.0705,-0.70556 v 0.10584 m 0.10584,0.35277 -0.0706,-0.45861 m -1.86973,0 -0.0705,0.45861 m 0,0 h 0.0705 m 1.86973,0 h 0.0706 m 14.71082,3.24556 v 1.905 m 3.21028,-1.905 h -3.21028 m 3.21028,1.905 v -1.905 m -3.21028,1.905 h 3.21028 m 5.60917,-1.905 v 1.905 m 3.175,-1.905 h -3.175 m 3.175,1.905 v -1.905 m -3.175,1.905 h 3.175 m -18.16806,-0.45861 h 1.19944 m 2.54,0 h 0.45861 m 0,-0.84667 h -0.45861 m -2.54,0 h -0.45861 m -0.74083,1.51694 h 1.19944 m 2.54,0 h 0.45861 m -21.48417,-4.90362 h 0.45862 m 2.50472,0 h 0.49389 m -6.91445,-3.10444 h -0.0353 m -1.86972,0 h 1.86972 m -1.86972,0 h -0.81139 m 0,0 h -0.42333 m 0.42333,0.98778 h -0.42333 m 0.42333,0 h 0.81139 m 1.86973,0 h -1.86973 m 1.905,0 h -0.0353 m -5.64444,0 h 0.42333 m -0.42333,-0.98778 v 0.98778 m 0,-0.98778 h 0.42333 m 0,0 v 0.98778 m 2.54,-0.98778 v 0.98778 m -0.42333,-0.98778 v 0.98778 m -2.96333,-0.98778 h 0.42333 m -1.97555,0 h 1.55222 m -1.55222,0 h -0.0353 m 1.5875,0.98778 h 0.42333 m -0.42333,0 v -0.98778 m 4.19805,0.98778 v -0.98778 m -5.75028,0.98778 h 1.55223 m -1.5875,0 h 0.0353 m 0,0 v -0.98778 m 7.62,0.98778 v -0.98778 m -9.17223,-7.26722 h 10.72445 m -10.72445,0 -0.10583,0.0353 -0.10583,0.0705 -0.0353,0.10583 -0.0353,0.10584 m 0,0 v 0.24694 m 0,0 v 0.14111 0.14111 0.10584 m 11.28888,-0.635 v -0.10584 l -0.0706,-0.10583 -0.10583,-0.0705 -0.10583,-0.0353 m 0.28222,0.56444 v -0.24694 m 0,0.24694 h -11.28907 m 11.28889,0.38806 v 0 -0.10584 -0.14111 -0.14111 m -11.28889,14.64028 0.0353,0.14111 0.0353,0.0706 0.10583,0.0705 0.10584,0.0353 m 10.72444,0 h -10.72445 m 11.00667,-0.3175 v -0.24695 m 0,0 v -0.14111 -0.14111 -0.0705 -0.0353 m -11.28889,0.38805 v 0.24695 m 0,-0.24695 h 11.28889 m -0.28223,0.56445 0.10584,-0.0353 0.10583,-0.0705 0.0706,-0.0706 v -0.14111 m -11.28889,-0.635 v 0.0353 0.0705 0.14111 0.14111 m -0.59972,-13.44083 h -0.0353 -0.0706 -0.14111 -0.14111 m 0.38805,0 v 4.58611 m 0,3.31611 v 4.58611 m -0.38805,0 h 0.14111 0.14111 0.0706 0.0353 m -0.38806,-12.48833 v 12.48833 m -0.67027,0 h 0.67027 m 0,-12.48833 h -0.67027 m 0,0 v 12.48833 m 1.65805,0.56445 h 11.28889 m 0,-13.61722 h -11.28889 m 12.94694,0.56444 h -0.635 m 0,0 h -0.17639 -0.10583 -0.10583 -0.0353 m 1.05833,12.48833 v -12.48833 m -0.635,12.48833 h 0.635 m -0.635,0 v -12.48833 m -0.42333,12.48833 h 0.0353 0.10583 0.10583 0.17639 m -0.42333,0 v -4.58611 m 0,-3.31611 v -4.58611 m -2.39889,6.73806 v -0.98778 m -7.69056,0.98778 v -0.98778 m 10.08945,2.18722 h -12.48833 m 12.48833,-0.38805 h -12.48833 m 12.48833,0.35277 v -0.0705 -0.0706 -0.10583 -0.10583 m -12.48833,0 v 0.10583 0.10583 0.0706 0.0705 m 4.90361,-1.16416 h -0.0706 m 0.0706,-0.98778 v 0.98778 m -0.0706,-0.98778 h 0.0706 m -4.90361,-0.81139 h 12.48833 m -12.48833,0 v 2.61056 m 12.48833,0 v -2.61056 m -12.48833,-0.38805 h 12.48833 m 0,0.38805 v -0.10583 -0.0706 -0.10583 -0.0706 m -12.48833,0 v 0.0706 0.10583 0.0706 0.10583 m -0.3175,-4.93889 v -0.45861 m 0,13.40556 v -0.45862 m 0,0.9525 v -0.49388 m 0,0.49388 v 0.42334 m 13.12333,-0.42334 v 0.42334 m 0,-1.37584 v 0.45862 m 0,-13.40556 v 0.45861 m 0,12.94695 v 0.49388 m -0.91722,-14.28749 h 0.49389 m -12.27667,0 h 0.49389 m 11.78278,14.18166 h -0.49389 m -11.28889,0 h -0.49389 m -0.10583,-0.84667 v 0.45862 m 0,-13.40556 v 0.45861 m 12.48833,12.94695 v -0.45862 m 0,-12.48833 v -0.45861 m -12.3825,13.51139 h 0.49389 m 11.28889,0 h 0.49389 m 0,-13.61722 h -0.49389 m -11.28889,0 h -0.49389 m 11.14778,1.09361 0.38806,-0.38806 m -10.40695,0.38806 h 10.01889 m -10.40694,-0.38806 0.38805,0.38806 m -0.38805,-0.38806 h 10.795 m 0.10583,0 v 1.83445 m 0,0 -0.49389,-0.49389 m 0,-0.9525 v 0.9525 m 0.49389,-1.34056 h -0.10584 m -0.38805,1.34056 h -10.01889 m 0,0 v -0.9525 m -0.49389,1.44639 0.49389,-0.49389 m 10.51278,0.49389 v 0.0353 m 0,0 h -11.00667 m 0,-0.0353 v 0.0353 m 11.00667,8.50194 h -11.00667 m 0,-0.0353 v 0.0353 m 0,-0.0353 0.49389,-0.49389 m 10.01889,0 h -10.01889 m 10.01889,0 0.49389,0.49389 m 0,0.0353 v -0.0353 m -11.00667,-1.83444 v 1.83444 m 0.10583,-1.83444 h -0.10583 m 0.10583,0 0.38806,0.38805 m 0,0.9525 v -0.9525 m -0.49389,-8.89 v 1.83445 m 0.10583,-1.83445 h -0.10583 m 11.00667,8.50195 v 1.83444 m -0.49389,-0.49389 v -0.9525 m 0.38805,-0.38805 -0.38805,0.38805 m 0.38805,-0.38805 h 0.10584 m -10.51278,0.38805 h 10.01889 m -10.40695,-0.38805 h 10.795 m -11.53583,4.69194 h -0.17639 l -0.10583,-0.10583 -0.10584,-0.14111 -0.0353,-0.14111 m 0.42334,0.10583 h -0.0353 l -0.0353,-0.0353 -0.0353,-0.0353 v -0.0353 m 12.48833,0 v 0.0353 l -0.0353,0.0353 v 0.0353 h -0.0705 m 0.42333,-0.10583 -0.0353,0.14111 -0.10583,0.14111 -0.10583,0.10583 h -0.17639 m 0,-13.89944 0.0705,0.0353 0.0353,0.0353 v 0.0353 m -0.10583,-0.38805 0.17639,0.0353 0.10583,0.0706 0.10583,0.14111 0.0353,0.14111 m -12.80583,0 v -0.0353 l 0.0353,-0.0353 h 0.0353 l 0.0353,-0.0353 m -0.42333,0.10583 0.0353,-0.14111 0.10583,-0.14111 0.10583,-0.0706 0.17639,-0.0353 m -0.10583,12.34722 0.77611,-0.3175 m 0,0 h 0.0353 l -0.0353,-0.0353 m -0.77611,-8.14917 0.77611,-0.3175 m 0,0 h 0.0353 l -0.0353,-0.0353 h -0.0353 -0.0353 m 0.0353,7.16138 -0.74083,-0.3175 m 11.71222,1.69334 0.77611,0.3175 m -0.67028,-0.35278 h -0.0706 -0.0353 v 0.0353 m -10.97139,-9.87778 -0.74083,-0.3175 m 11.71222,1.69333 0.77611,0.3175 m -0.67027,-0.35277 h -0.0705 -0.0353 v 0.0353 m 0.77611,-1.69333 -0.74084,0.3175 m 0.74084,8.18444 -0.74084,0.3175 m -10.97138,-7.79638 v 0.67027 m 0,8.50195 v -0.67028 m 10.93611,-8.50194 v 0.67027 m 0,8.50195 v -0.67028 m -1.48167,-6.6675 -0.10583,0.59972 m 0,0 -0.0353,0.0706 -0.0353,0.0353 m -1.62278,0 -0.0353,-0.0353 -0.0353,-0.0706 m 0,0 -0.10584,-0.59972 m 0,0 h 1.97556 m -6.31472,-4.40972 0.21167,0.70555 m -1.76389,0 0.21166,-0.70555 m 7.58473,12.87639 -0.21167,0.74083 m -1.37583,0 -0.21167,-0.74083 m 0,0 h 1.79917 m -0.0353,-12.17084 -0.17639,-0.70555 m -1.37584,0 -0.21166,0.70555 m -4.445,12.91167 0.24694,-0.74083 m -1.79917,0 0.21167,0.74083 m -0.21167,-0.74083 h 1.79917 m 5.99722,-7.76111 0.0706,-0.42334 m -1.97555,0 0.0706,0.42334 m -4.16278,-4.62139 -0.14111,-0.49389 m -1.55222,0 -0.14111,0.49389 m 7.69055,13.12333 0.14111,-0.49389 m -1.83444,0 0.14111,0.49389 m 1.55222,-13.61722 0.14111,0.49389 m -1.83444,0 0.14111,-0.49389 m -4.30389,13.12333 -0.14111,0.49389 m -1.55222,0 -0.14111,-0.49389 m 1.86971,-12.66472 v 0.0353 0.0353 h -0.0353 v -0.0353 m 0.0353,-0.0353 0.0353,-0.24695 m 0,0 v -0.0353 -0.0706 m 0.0705,-0.10583 -0.0705,0.10583 m 0.0353,0.3175 v -0.0353 m 0.24695,-0.38805 -0.24695,0.38805 m -0.0353,0.28223 v 0.0353 m 0,-0.0353 0.0353,-0.24695 m 4.02167,12.73528 0.0353,-0.0353 m -0.0353,0.0353 v 0.24694 m 0,0 -0.0353,0.0706 v 0.0353 m -0.0705,0.10583 0.0705,-0.10583 m 0,-0.52917 -0.0353,0.24694 m 0,0 v 0 m -0.21167,0.38806 0.21167,-0.38806 m 0.0353,-0.24694 0.0353,-0.10583 v -0.0706 h 0.0353 l 0.0353,0.0706 m -0.17639,-12.87639 0.0705,0.10583 m 0,0 v 0.0706 l 0.0353,0.0353 m 0,0 v 0.24695 m 0.0353,0.0353 v 0.0353 -0.0353 l -0.0353,-0.0353 m -0.0706,-0.0706 -0.21167,-0.38805 m 0.21167,0.38805 v 0.0353 m 0.0353,0.24695 -0.0353,-0.24695 m 0.0706,0.28222 -0.0353,-0.0353 m -4.09222,12.45305 v 0 h 0.0353 v 0.0353 m 0.0353,-0.17639 0.0353,0.24694 m 0,0 0.24694,0.38806 m -0.21166,0 -0.0705,-0.10583 m 0,0 v -0.0353 -0.0706 m 0,0 -0.0353,-0.24694 m 0.0705,0.0705 v 0 m -0.10584,-0.35277 v -0.0706 h 0.0353 v 0.0706 l 0.0353,0.10583 m 5.92667,0.14111 v 0 h 0.0353 v 0.0353 m 0.0706,0.35278 0.0353,0.10583 m -0.0353,-0.10583 -0.0353,-0.0353 v -0.0706 m -0.0353,-0.24694 0.0353,0.24694 m 0.0353,-0.17639 0.24694,0.38806 m -0.24694,-0.38806 v 0 m 0,0 -0.0353,-0.24694 m -0.0706,-0.10583 v -0.0706 h 0.0353 l 0.0353,0.0706 v 0.10583 m -7.97278,-12.87639 -0.0706,-0.10583 m 0.0706,0.10583 v 0.0706 0.0353 m 0.0353,0.24695 -0.0353,-0.24695 m 0.0706,0.28223 v 0.0353 l -0.0353,-0.0353 v -0.0353 m -0.0706,-0.0706 -0.21166,-0.38805 m 0.21166,0.38805 v 0.0353 m 0,0 0.0353,0.24695 m 0,0.0353 v -0.0353 m 0.0353,12.48833 v -0.0353 h 0.0353 m -0.0353,0.0353 -0.0353,0.24694 m 0,0 v 0.0706 0.0353 m 0,0 -0.0706,0.10583 m -0.17639,0 0.21167,-0.38806 m 0,0 0.0353,-0.24694 m -0.0353,0.24694 v 0 m 0.0353,-0.24694 0.0353,-0.10583 v -0.0706 h 0.0353 l 0.0353,0.0706 m 7.83167,-12.41778 v 0.0353 0.0353 h -0.0353 v -0.0353 m 0.0353,-0.0353 0.0353,-0.24695 m 0,0 v -0.0353 l 0.0353,-0.0706 m 0,0 0.0353,-0.10583 m -0.0353,0.42333 v -0.0353 m 0.24694,-0.38805 -0.24694,0.38805 m -0.0353,0.28223 v 0.0353 m 0.0353,-0.28222 -0.0353,0.24695 m -2.04612,4.1275 -0.21166,0.3175 m 0.24694,-0.635 -0.0353,0.28222 m 0,0.35278 v -0.0353 m 0.0353,-0.10584 v 0.0706 l -0.0353,0.0353 m 0.0353,-0.10584 0.0353,-0.28222 m 0,0 v 0 m -0.0353,-0.21166 v -0.0706 l 0.0353,-0.0353 v 0.0353 m -0.0706,0.35278 v 0.0353 m 2.11667,-0.0353 -0.0353,-0.28222 m 0.24694,0.635 -0.21166,-0.3175 m -0.0353,-0.10584 v 0.28222 m 0.0353,0.10584 v -0.0353 l -0.0353,-0.0706 m 0.0353,0.10584 v 0.0353 m 0,-0.3175 v 0 -0.0353 m -0.0706,-0.35261 v -0.0353 h 0.0353 v 0.0353 0.0706 m -0.0353,0.21166 h 0.0353 m -4.55084,-1.51694 h -0.9525 m 0.9525,-0.59972 v 0.59972 m -0.9525,-0.59972 v 0.59972 m -1.55222,0 h -0.9525 m 0.9525,-0.59972 v 0.59972 m -0.9525,-0.59972 v 0.59972 m 0.9525,8.50194 h -0.9525 m 0.9525,-0.59972 v 0.59972 m -0.9525,-0.59972 v 0.59972 m 3.45722,-0.59972 v 0.59972 m 0,0 v 0.0706 m -0.9525,-0.67028 v 0.59972 m 0.9525,0 h -0.9525 m 2.01084,-8.50194 h 0.9525 m 0,-0.59972 v 0.59972 m -0.9525,-0.59972 v 0.59972 m 2.50472,-0.59972 v 0.59972 m 0,0 h 0.9525 m 0,-0.59972 v 0.59972 m -0.9525,7.90222 v 0.59972 m 0,0 h 0.9525 m 0,-0.59972 v 0.59972 m -3.45722,-0.59972 v 0.59972 m 0,0 v 0.0706 m 0.9525,-0.67028 v 0.59972 m -0.9525,0 h 0.9525 m 0,0 v 0.0706 m -2.96334,-0.0706 v 0.0706 m -4.30389,2.25777 h 0.14112 m 11.28888,0 h 0.17639 m 0,0 v 0.49389 m 0,0 h -0.3175 m -11.00666,0 h -0.28223 m 0,-0.49389 v 0.49389 m 0,0 v 0.59973 m 11.60639,0 v -0.59973 m -1.79916,-9.73666 h -0.0353 m -1.97556,0 h -0.0353 m 2.04611,0.0353 h -0.0353 m -1.97556,0 h -0.0353 m -3.45722,6.94972 h 0.9525 m 2.01084,0 h -0.9525 m 5.715,3.35139 v -1.19945 m -12.48834,0 v 1.19945 m 0,-1.09362 h -0.3175 m 0,0.42334 -0.38805,0.67028 m 0.35278,0 0.35277,-0.59973 m 12.87639,0.59973 -0.38805,-0.59973 m 0.3175,-0.0705 0.42333,0.67028 m -0.74083,-1.09362 h 0.3175 m -2.68112,-5.39749 -0.0353,-0.0706 -0.0353,-0.0353 m 0.0705,0.10584 v -0.10584 m -1.65805,0 -0.0706,0.0353 -0.0353,0.0706 m 0,0 -0.10583,0.59972 m 1.97555,0 h -1.97555 m 1.97555,0 -0.10583,-0.59972 m -1.76389,-0.10584 v 0.10584 m -0.10583,0.35277 0.0706,-0.45861 m 1.83444,0 0.0706,0.45861 m 0,0 h -0.0353 m -1.905,0 h -0.0353 m -4.19805,-0.45861 0.0353,0.0353 0.0353,0.0706 m 0,-0.10584 v 0.10584 m -1.76389,0 0.0353,-0.0706 0.0353,-0.0353 m -0.17639,0.70556 0.10583,-0.59972 m 1.86972,0.59972 h -1.97555 m 1.86972,-0.59972 0.10583,0.59972 m -1.86972,-0.59972 v -0.10584 m -0.0353,0 -0.0706,0.45861 m 1.97556,0 -0.0706,-0.45861 m 0.0706,0.45861 h -0.0353 m -1.905,0 h -0.0353 m -1.97556,6.13834 h 13.72306 m 2.54,0 h 15.45165 m 2.68111,0 h 0.35278 m 15.94556,0 h 0.3175 0.0706 m -52.84611,0 h 0.24695 0.49389 0.49388 0.52917 m 50.69416,0 h -15.9456 m 0,0 v -13.29973 m 0,0 h 15.94556 m 0,13.29973 v -13.29973 m -1.97555,9.63084 v -6.91445 m 0,0 h -11.99445 m 0,0 v 6.91445 m 0,0 h 4.02167 m 0,0 v 2.68111 m 0,0 h 3.98639 m 0,0 v -2.68111 m 0,0 h 3.98639 m -32.49083,-4.02167 h 0.49389 m 14.56971,0 h 0.45861 m 2.54,0 h 0.45861 m -28.3986,-8.36083 h 0.0353 0.17639 0.17639 0.21167 0.14111 0.14111 0.0353 m 1.51694,0 h 0.0353 0.10584 0.17639 0.17638 0.21167 0.14111 0.14111 0.0353 m 41.20443,-16.54551 h -0.38805 -0.56445 -0.59972 -0.59972 -0.56445 -0.56444 -0.52917 -0.45861 -0.38806 -0.35277 m 0,0 v -0.24694 m -26.4936,11.88861 h -0.45862 -0.0353 m 0.67028,-0.635 h -0.10583 -0.45861 m 25.04721,2.50472 v 0 0.0353 m -42.65082,-1.27 v 0 m 8.96055,0 h -0.0353 m 28.7161,1.27 v 0 -0.0353 m 10.3364,0.0353 v 0.52916 m -29.98611,-1.79916 v 0 m 8.96055,0 v 0 m 6.17361,0.9525 h 0.49389 m -0.49389,-0.52917 h 0.49389 m -13.22916,9.91306 v -0.10584 m -1.79917,0 v 0.10584 m 1.83445,-4.65667 h -0.0353 m -1.79917,0 h -0.0353 m 5.99721,12.7 h 0.0353 m 1.79917,0 h 0.0353 m -5.99721,0 h -0.0353 m -1.79917,0 h -0.0353 m 5.99721,-12.7 h 0.0353 m 1.79917,0 h 0.0353 m -5.96193,-0.24695 h -0.14111 m -1.69333,0 h -0.10584 m 5.99721,13.19389 h 0.14111 m 1.65806,0 h 0.14111 m -7.93749,0 h 0.10584 m 1.69333,0 h 0.14111 m 5.99721,-13.19389 h -0.14111 m -1.65806,0 h -0.14111 m -0.0353,13.29973 h 0.17639 m 1.65806,0 h 0.17639 m -2.01084,-13.40556 h 0.17639 m 1.65806,0 h 0.17639 m -5.99722,13.40556 h -0.21166 m -1.62278,0 h -0.17639 m 2.01083,-13.40556 h -0.21166 m -1.62278,0 h -0.17639 m -11.92389,5.00945 v -0.10584 m 1.76389,0 v 0.10584 m -1.83444,-4.65667 h 0.0353 m 1.83444,0 h 0.0353 m -5.99722,12.7 h -0.0353 m -1.83445,0 h -0.0353 m 5.99723,0 h 0.0353 m 1.83444,0 h 0.0353 m -5.99722,-12.7 h -0.0353 m -1.83445,0 h -0.0353 m 5.99723,-0.24695 h 0.10583 m 1.69333,0 h 0.14111 m -5.99722,13.19389 h -0.14111 m -1.69333,0 h -0.14111 m 7.97277,0 h -0.14111 m -1.69333,0 h -0.10583 m -6.0325,-13.19389 h 0.14111 m 1.69333,0 h 0.14111 m 0,13.29973 h -0.17639 m -1.62278,0 h -0.17638 m 1.97555,-13.40556 h -0.17639 m -1.62278,0 h -0.17638 m 5.99722,13.40556 h 0.17639 m 1.62277,0 h 0.21167 m -2.01083,-13.40556 h 0.17639 m 1.62277,0 h 0.21167 m 40.005,14.99306 v 0.21166 m -49.98861,0.21167 v -0.42333"
       style="fill:none;stroke:#000000;stroke-width:0.179917;stroke-linecap:round;stroke-linejoin:round;stroke-miterlimit:10;stroke-dasharray:none;stroke-opacity:1" />
    <path
       id="path4-7"
       d="m 292.91608,116.65492 v 0 m -52.42277,21.02555 v 0 m 0,1.37584 v 0 m 0,2.11666 v 0 m 0,-2.11666 v 0 m 0,-0.42334 v 0 m 0.10583,-24.48277 v 0 m 0,40.18138 v 0 m 0,-1.48166 v 0 m 28.46917,-25.18833 v 0 m 0,0.84666 v 0 m 2.75166,4.1275 v 0 m 0,16.01611 v 0 m 14.9225,-20.14361 v 0 m 0,-0.84666 v 0 m 3.10444,4.97416 v 0 m 0,16.01611 v 0 m 19.43806,-32.0675 v 0 m 0,18.76778 v 0 m 0,-5.67972 v 0 m 0,18.76778 v 0 M 260.3547,124.66298 v 0 m 0,-2.57528 v 0 m 1.12889,0.45861 v 0 m 0.3175,0.35278 v 0 m 0.67027,-0.81139 v 0 m 0.59973,2.57528 v 0 m 0.70555,-2.57528 v 0 m 0.77611,2.57528 v 0 m 0.70556,-2.57528 v 0 m 0.81139,2.57528 v 0 m 0,-2.57528 v 0 m 1.34055,1.97555 v 0 m 0.24695,-1.23472 v 0 m -0.28223,-0.3175 v 0 m 0.38806,2.15195 v 0 m 7.33778,-8.60778 v 0 m 0,0.42333 v 0 m 0.74083,2.15195 v 0 m 0,-2.15195 v 0 m -3.24556,0.84667 v 0 m 1.16417,1.30528 v 0 m 0,-2.61056 v 0 m 0.56445,1.65806 v 0 m -0.0353,-0.81139 v 0 m -3.38667,-0.81139 v 0 m -0.9525,2.57528 v 0 m 1.5875,-1.02306 v 0 m 0.35278,1.02306 v 0 m -0.21167,-0.59973 v 0 m 7.65528,4.02167 v 0 m -1.19944,1.34056 v 0 m 1.19944,1.27 v 0 m 0.56445,-0.9525 v 0 m -0.0353,-0.81139 v 0 m 0.84667,0.49389 v 0 m 1.23472,1.30527 v 0 m -1.12889,-1.97555 v 0 m 0.56444,-0.56445 v 0 m 0.56445,-0.10583 v 0 m 1.62277,2.61056 v 0 m 0,-2.57528 v 0 m 1.51694,2.57528 v 0 m 0.0353,-2.57528 v 0 m 1.62278,10.58333 v 0 m -7.61999,0 v 0 m 5.07999,0 v 0 m -2.53999,0 v 0 m 0,0 v 0 m -0.42334,0 v 0 m -24.765,-0.0706 v 0 m 0,0 v 0 m 22.64834,0.0706 v 0 m -0.42334,0 v 0 m 8.04333,0 v 0 m -0.42334,0 v 0 m -9.73665,0 v 0 m 4.65666,0 v 0 m 2.96333,0 v 0 m -0.42334,0 v 0 m 2.54,0 v 0 m -9.73665,0 v 0 m -0.42334,0 v 0 m 2.54,0 v 0 m -2.54,0 v 0 m 7.61999,0 v 0 m -4.5861,-4.90361 v 0 m 0,0.59972 v 0 m 1.51695,0 v 0 m 0,-0.59972 v 0 m 2.50471,0.59972 v 0 m 0,-0.59972 v 0 m 1.48167,0 v 0 m 0,0.59972 v 0 m -3.49249,-0.59972 v 0 m 0,0.59972 v 0 m 0.49389,0 v 0 m 0,-0.59972 v 0 m 0.49387,0.59972 v 0 m 0,-0.59972 v 0 m 0.52917,0 v 0 m 0,0.59972 v 0 m -3.6336,-0.59972 v 0 m 0,0.59972 v 0 m -20.81389,4.05695 v 0 m 0.14111,0.24694 v 0 m 2.68111,-4.90361 v 0 m 0,0.59972 v 0 m 19.86139,4.05695 v 0 m 0.17639,0.24694 v 0 m -17.35667,-3.35139 v 0 m 0,0.3175 v 0 m -3.38667,-3.06916 v 0 m -0.77611,1.19944 v 0 m 0,0.56444 v 0 m 0,0 v 0 m 0,-0.42333 v 0 m 8.64306,-0.14111 v 0 m 0,0.56444 v 0 m -7.05556,-0.56444 v 0 m 0,0.59972 v 0 m 1.51695,-0.59972 v 0 m 0,0.59972 v 0 m 2.50472,0 v 0 m 0,-0.59972 v 0 m 1.48166,0.59972 v 0 m 0,-0.59972 v 0 m -3.4925,0.59972 v 0 m 0,-0.59972 v 0 m 0.49389,0.59972 v 0 m 0,-0.59972 v 0 m 0.49389,0.59972 v 0 m 0,-0.59972 v 0 m 0.49389,0 v 0 m 0,0.59972 v 0 m 28.53972,1.27 v 0 m 0,-12.7 v 0 m 13.6525,2.29306 v 0 m -3.91583,8.60777 v 0 m 0,1.05834 v 0 m 1.12889,-1.62278 v 0 m 0,-2.29305 v 0 m 0,1.09361 v 0 m 0,1.76388 v 0 m 2.78694,-2.85749 v 0 m 0,1.09361 v 0 m -35.31305,7.3025 v 0 m 10.23056,-4.05695 v 0 m 0,0.3175 v 0 m -3.42195,-3.06916 v 0 m -0.77611,1.19944 v 0 m 0,0.56444 v 0 m 0,0 v 0 m 0,-0.42333 v 0 m 8.64305,-0.14111 v 0 m 0,0.56444 v 0 m -14.71083,4.09223 v 0 m 21.20194,-3.59834 v 0 m 0,-0.28222 v 0 m 0,0.88194 v 0 m -4.09222,18.20334 v 0 m -13.08805,0 v 0 m -18.06223,0 v 0 m 13.12334,0 v 0"
       style="fill:none;stroke:#000000;stroke-width:0.179917;stroke-linecap:round;stroke-linejoin:round;stroke-miterlimit:10;stroke-dasharray:none;stroke-opacity:1" />
  </g>
</svg>
