<?xml version="1.0" encoding="UTF-8" standalone="no"?>
<!-- Created with Inkscape (http://www.inkscape.org/) -->

<svg
   width="77.46627mm"
   height="72.344116mm"
   viewBox="0 0 77.46627 72.344119"
   version="1.1"
   id="svg1"
   inkscape:version="1.4 (e7c3feb100, 2024-10-09)"
   sodipodi:docname="v3-rear-view-numbered.svg"
   xmlns:inkscape="http://www.inkscape.org/namespaces/inkscape"
   xmlns:sodipodi="http://sodipodi.sourceforge.net/DTD/sodipodi-0.dtd"
   xmlns="http://www.w3.org/2000/svg"
   xmlns:svg="http://www.w3.org/2000/svg">
  <title
     id="title1">PIKVM V3 Line Drawings</title>
  <sodipodi:namedview
     id="namedview1"
     pagecolor="#ffffff"
     bordercolor="#000000"
     borderopacity="0.25"
     inkscape:showpageshadow="2"
     inkscape:pageopacity="0.0"
     inkscape:pagecheckerboard="0"
     inkscape:deskcolor="#d1d1d1"
     inkscape:document-units="mm"
     inkscape:zoom="2.0078515"
     inkscape:cx="146.17615"
     inkscape:cy="136.7133"
     inkscape:window-width="1280"
     inkscape:window-height="681"
     inkscape:window-x="0"
     inkscape:window-y="0"
     inkscape:window-maximized="1"
     inkscape:current-layer="layer1"
     showguides="false">
    <inkscape:page
       x="-6.6927571e-20"
       y="0"
       width="77.46627"
       height="72.344124"
       id="page2"
       inkscape:label="v3-rear-view-numbered"
       margin="0"
       bleed="0"
       inkscape:export-filename="v4-right-view-numbered.svg"
       inkscape:export-xdpi="96"
       inkscape:export-ydpi="96" />
    <sodipodi:guide
       position="-8.5795322,31.443381"
       orientation="0,-1"
       id="guide13"
       inkscape:locked="false" />
    <sodipodi:guide
       position="-29.720553,74.499725"
       orientation="0,-1"
       id="guide16"
       inkscape:locked="false" />
    <sodipodi:guide
       position="6.1809421,63.313164"
       orientation="0,-1"
       id="guide17"
       inkscape:locked="false" />
    <sodipodi:guide
       position="65.394801,16.362134"
       orientation="0,-1"
       id="guide18"
       inkscape:locked="false" />
    <sodipodi:guide
       position="87.383431,36.941047"
       orientation="0,-1"
       id="guide26"
       inkscape:locked="false" />
    <sodipodi:guide
       position="-83.10108,9.235627"
       orientation="1,0"
       id="guide5"
       inkscape:locked="false" />
    <sodipodi:guide
       position="107.85333,13.991088"
       orientation="1,0"
       id="guide6"
       inkscape:locked="false" />
    <sodipodi:guide
       position="66.407831,-70.91499"
       orientation="0,-1"
       id="guide7"
       inkscape:locked="false" />
    <sodipodi:guide
       position="-52.044428,24.313622"
       orientation="1,0"
       id="guide1"
       inkscape:locked="false" />
    <sodipodi:guide
       position="55.293531,57.580565"
       orientation="1,0"
       id="guide2"
       inkscape:locked="false" />
    <sodipodi:guide
       position="-14.791116,14.774631"
       orientation="0,-1"
       id="guide3"
       inkscape:locked="false" />
    <sodipodi:guide
       position="245.83516,59.565946"
       orientation="0,-1"
       id="guide4"
       inkscape:locked="false" />
    <sodipodi:guide
       position="341.75988,25.92806"
       orientation="1,0"
       id="guide8"
       inkscape:locked="false" />
  </sodipodi:namedview>
  <defs
     id="defs1" />
  <g
     inkscape:label="Layer 1"
     inkscape:groupmode="layer"
     id="layer1"
     transform="translate(-140.9245,-14.816667)">
    <path
       style="font-variation-settings:normal;opacity:1;vector-effect:none;fill:none;fill-opacity:1;stroke:#005cd8;stroke-width:0.529167;stroke-linecap:round;stroke-linejoin:round;stroke-miterlimit:4;stroke-dasharray:none;stroke-dashoffset:0;stroke-opacity:1;-inkscape-stroke:none;stop-color:#000000;stop-opacity:1"
       d="m 174.57654,72.386161 v 9.160986"
       id="path17"
       sodipodi:nodetypes="cc" />
    <circle
       style="font-variation-settings:normal;opacity:1;vector-effect:none;fill:#005cd8;fill-opacity:1;stroke:none;stroke-width:0.529167;stroke-linecap:butt;stroke-linejoin:miter;stroke-miterlimit:4;stroke-dasharray:none;stroke-dashoffset:0;stroke-opacity:1;-inkscape-stroke:none;stop-color:#000000;stop-opacity:1"
       id="circle17"
       cx="174.57643"
       cy="83.616585"
       r="2.0694654" />
    <path
       style="font-weight:800;font-size:2.91279px;line-height:1.25;font-family:Cantarell;-inkscape-font-specification:'Cantarell Ultra-Bold';fill:#ffffff;stroke-width:0.529167"
       d="m 174.43195,84.627327 h 0.50391 v -2.021476 h -0.30001 l -0.81267,0.404877 0.18933,0.361186 0.41944,-0.174767 z"
       id="text17"
       aria-label="1" />
    <path
       style="font-variation-settings:normal;opacity:1;vector-effect:none;fill:none;fill-opacity:1;stroke:#005cd8;stroke-width:0.529167;stroke-linecap:round;stroke-linejoin:round;stroke-miterlimit:4;stroke-dasharray:none;stroke-dashoffset:0;stroke-opacity:1;-inkscape-stroke:none;stop-color:#000000;stop-opacity:1"
       d="M 162.08679,29.58023 V 20.419244"
       id="path23"
       sodipodi:nodetypes="cc" />
    <circle
       style="font-variation-settings:normal;opacity:1;vector-effect:none;fill:#005cd8;fill-opacity:1;stroke:none;stroke-width:0.529167;stroke-linecap:butt;stroke-linejoin:miter;stroke-miterlimit:4;stroke-dasharray:none;stroke-dashoffset:0;stroke-opacity:1;-inkscape-stroke:none;stop-color:#000000;stop-opacity:1"
       id="circle23"
       cx="162.08672"
       cy="-18.3498"
       r="2.0694654"
       transform="scale(1,-1)" />
    <path
       style="font-weight:800;font-size:2.91279px;line-height:1.25;font-family:Cantarell;-inkscape-font-specification:'Cantarell Ultra-Bold';fill:#ffffff;stroke-width:0.529167"
       d="m 161.98573,19.36782 h 0.49226 v -0.37575 h 0.35537 v -0.425267 h -0.35537 V 17.33178 h -0.47769 l -0.94083,1.395226 v 0.265064 h 0.92626 z m 0,-0.80393 -0.42235,-0.0029 0.42235,-0.667029 z"
       id="text23"
       aria-label="4" />
    <path
       style="font-variation-settings:normal;opacity:1;vector-effect:none;fill:none;fill-opacity:1;stroke:#005cd8;stroke-width:0.529167;stroke-linecap:round;stroke-linejoin:round;stroke-miterlimit:4;stroke-dasharray:none;stroke-dashoffset:0;stroke-opacity:1;-inkscape-stroke:none;stop-color:#000000;stop-opacity:1"
       d="M 172.63484,29.58023 V 20.419244"
       id="path24"
       sodipodi:nodetypes="cc" />
    <circle
       style="font-variation-settings:normal;opacity:1;vector-effect:none;fill:#005cd8;fill-opacity:1;stroke:none;stroke-width:0.529167;stroke-linecap:butt;stroke-linejoin:miter;stroke-miterlimit:4;stroke-dasharray:none;stroke-dashoffset:0;stroke-opacity:1;-inkscape-stroke:none;stop-color:#000000;stop-opacity:1"
       id="circle24"
       cx="172.63472"
       cy="-18.3498"
       r="2.0694654"
       transform="scale(1,-1)" />
    <path
       style="font-weight:800;font-size:2.91279px;line-height:1.25;font-family:Cantarell;-inkscape-font-specification:'Cantarell Ultra-Bold';fill:#ffffff;stroke-width:0.529167"
       d="m 172.50365,19.389666 c 0.54469,0 0.90296,-0.235936 0.90296,-0.594209 0,-0.256325 -0.17185,-0.448569 -0.43983,-0.501 0.20098,-0.05243 0.32623,-0.215546 0.32623,-0.442744 0,-0.337883 -0.26798,-0.541779 -0.71654,-0.541779 -0.23885,0 -0.4777,0.05826 -0.69907,0.17768 l 0.11359,0.37575 c 0.1806,-0.07865 0.33789,-0.122337 0.48061,-0.122337 0.1806,0 0.29711,0.06991 0.29711,0.186419 0,0.133988 -0.14855,0.224285 -0.36993,0.224285 h -0.13981 v 0.378662 h 0.13981 c 0.2942,0 0.48353,0.09612 0.48353,0.241762 0,0.119424 -0.12816,0.186418 -0.35828,0.186418 -0.17768,0 -0.37575,-0.03787 -0.54469,-0.107773 l -0.11651,0.393227 c 0.21555,0.101948 0.40197,0.145639 0.64082,0.145639 z"
       id="text24"
       aria-label="3" />
    <path
       style="font-variation-settings:normal;opacity:1;vector-effect:none;fill:none;fill-opacity:1;stroke:#005cd8;stroke-width:0.529167;stroke-linecap:round;stroke-linejoin:round;stroke-miterlimit:4;stroke-dasharray:none;stroke-dashoffset:0;stroke-opacity:1;-inkscape-stroke:none;stop-color:#000000;stop-opacity:1"
       d="M 186.64012,29.58023 V 20.419244"
       id="path25"
       sodipodi:nodetypes="cc" />
    <circle
       style="font-variation-settings:normal;opacity:1;vector-effect:none;fill:#005cd8;fill-opacity:1;stroke:none;stroke-width:0.529167;stroke-linecap:butt;stroke-linejoin:miter;stroke-miterlimit:4;stroke-dasharray:none;stroke-dashoffset:0;stroke-opacity:1;-inkscape-stroke:none;stop-color:#000000;stop-opacity:1"
       id="circle25"
       cx="186.64005"
       cy="-18.3498"
       r="2.0694654"
       transform="scale(1,-1)" />
    <path
       style="font-weight:800;font-size:2.91279px;line-height:1.25;font-family:Cantarell;-inkscape-font-specification:'Cantarell Ultra-Bold';fill:#ffffff;stroke-width:0.529167"
       d="m 185.96428,19.375103 h 1.42727 v -0.436919 h -0.69325 c 0.42818,-0.340796 0.64082,-0.667028 0.64082,-0.987435 0,-0.378663 -0.29711,-0.62625 -0.75442,-0.62625 -0.26215,0 -0.501,0.08156 -0.69615,0.241761 l 0.12816,0.369925 c 0.16312,-0.113599 0.32332,-0.171855 0.46896,-0.171855 0.20098,0 0.32914,0.107773 0.32914,0.265064 0,0.2505 -0.32331,0.55343 -0.85053,0.990349 z"
       id="text25"
       aria-label="2" />
    <path
       id="path6-6"
       d="m 155.61337,72.336354 v -1.622778 m -6.985,0 v 1.622778 m 61.98305,0 v -1.622778 m -6.985,0 v 1.622778 m -8.99583,-28.751387 v 0 L 194.1367,43.6908 m -40.005,-3.774722 v -7.408333 m 34.32528,13.47611 v 0 M 185.77587,39.2458 v 0.740833 m -1.12889,4.656667 h -0.91722 m 5.82083,0 h -0.88194 m -2.82223,-3.739444 h 1.62278 m -7.58472,1.164166 V 41.4683 m 13.51139,0 v 0.599722 M 182.0717,40.727467 h 1.16417 m 6.84389,0 h 1.16416 m -27.41083,-3.351389 v -1.728611 m -0.45861,0 v 1.728611 m -4.62139,0 v -1.728611 m -0.45861,0 v 1.728611 m 1.48167,0 v -1.728611 m -0.45861,0 v 1.728611 m 1.48166,0 v -1.728611 m -0.45861,0 v 1.728611 m 1.48167,0 v -1.728611 m -0.45861,0 v 1.728611 m 1.44639,0 v -1.728611 m -0.45861,0 v 1.728611 m 2.50472,0 v -1.728611 m -0.45861,0 v 1.728611 m 1.48166,0 v -1.728611 m -0.45861,0 v 1.728611 m -10.58333,8.643055 v 0.03528 m 3.06917,0 v -0.03528 m 8.36083,0 v 0.03528 m 3.06916,0 v -0.03528 m -9.38388,0 v 0.03528 m 0.45861,0 v -0.03528 m 2.08139,0 v 0.03528 m 0.45861,0 v -0.03528 m 2.08139,0 v 0.03528 m 0.45861,0 v -0.03528 m -6.80861,0 v 0.03528 m 0.45861,0 v -0.03528 m 2.08139,0 v 0.03528 m 0.45861,0 v -0.03528 m 2.08139,0 v 0.03528 m 0.45861,0 v -0.03528 m 5.3975,0 v 0.03528 m -20.99028,26.281941 v 0 h 0.10583 0.17639 0.24695 0.35277 0.38806 0.45861 0.52917 0.52916 0.56445 0.56444 0.52917 0.52917 0.49389 0.45861 0.35277 0.3175 0.21167 0.14111 0.0353 m 48.01305,0 v 0 h 0.10584 0.17639 0.24694 0.35278 0.38805 0.45861 0.52917 0.52917 0.56444 0.56445 0.56444 0.49389 0.49389 0.45861 0.35278 0.3175 0.21166 0.14112 0.0353 M 169.72448,33.460245 h 0.59972 m -0.59972,1.164166 h 0.59972 m 0,-1.199444 h -0.59972 m -5.04472,-0.105833 -0.0353,-0.03528 -0.0353,-0.07056 v -0.07055 l 0.0353,-0.105833 0.0706,-0.07056 0.0705,-0.03528 m 0,0 0.14111,-0.03528 0.24695,-0.07056 0.35278,-0.105833 0.98777,-0.176389 0.38806,-0.07056 m 1.05833,0 v 0.03528 m 0,0 -0.49389,0.03528 -0.67028,0.03528 -0.74083,0.141112 -0.49389,0.105833 -0.38805,0.105833 -0.24695,0.07056 -0.10583,0.03528 m 0,0 h -0.0353 l -0.0353,0.07055 -0.0353,0.03528 v 0.03528 l 0.0353,0.07055 0.0353,0.03528 0.0353,0.03528 h 0.0353 m 0,0 h 5.46805 m -5.64444,0 -0.0353,-0.03528 -0.0353,-0.07056 v -0.07055 l 0.0353,-0.105833 0.0706,-0.07056 0.0705,-0.03528 m 3.175,-0.352778 h 2.15195 m -2.15195,-0.105833 v 0.105833 m 0,-0.07055 v 0.07055 m 2.15195,0 h -2.15195 m 2.36361,2.645834 h -0.59972 m 0,2.010833 h 1.48167 m 0.88194,-0.635 v -0.458611 m -4.7625,-3.598333 0.0706,0.07055 0.24694,0.282222 0.21167,0.352778 v 0.07056 m 0,0 v -0.07056 l -0.21167,-0.352778 -0.24694,-0.282222 -0.0706,-0.07055 m -13.47611,7.373055 v 0 h 0.17639 0.10583 m 63.07667,14.181666 h -0.10584 m 0.10584,-2.645833 h -0.10584 m 0.10584,0.105833 v -0.07056 -0.03528 m 0,0.03528 h -0.10584 m 0.10584,2.575278 V 51.48717 m 0,2.575278 h -0.10584 m 0.10584,3.4925 v -1.128889 m 0,0.599722 v -0.388055 -0.282223 m 0,0 v -1.340555 m 0,2.575278 v 0 -0.141111 -0.176389 -0.246945 m 0,0.141111 v -0.03528 -0.07056 -0.105833 -0.246945 -0.282222 m 0,-0.141111 h -0.10584 m 0.10584,1.305278 v -0.105834 -0.352777 -0.388056 -0.458611 m 0,1.305278 h -0.10584 m 0.10584,-1.940278 h -0.10584 m 0.10584,0.635 v -0.352778 -0.282222 m 0,-0.564444 h -0.10584 m 0.10584,0.564444 v -0.388056 -0.176388 m 0,-0.105834 h -0.10584 m 0.10584,0.105834 v -0.105834 m 0,2.187222 v -0.07056 -0.282222 -0.246945 -0.282222 m 0,0 v -0.352778 -0.3175 -0.176389 -0.03528 M 154.90781,27.604134 v 0.105833 m 1.30528,-0.105833 v 0.105833 m 0,-0.105833 h -0.24694 -0.24695 -0.24694 -0.17639 -0.17639 -0.10583 -0.0706 -0.0353 m 10.72445,0 v 0.105833 m 0,-0.105833 h -9.41917 m 10.72445,0 v 0.105833 m -1.30528,-0.105833 h 0.24694 0.24695 0.24694 0.17639 0.17639 0.10583 0.0706 0.0353 m -12.02973,0 v 0.105833 m 26.84639,40.216665 v -1.093611 m 0,0 -0.0353,-0.282222 -0.0706,-0.246945 -0.14111,-0.246944 -0.17639,-0.211667 -0.21167,-0.176389 -0.24694,-0.141111 -0.28222,-0.07055 -0.28223,-0.03528 m 0,0 h -11.50055 m 0,0 -0.28222,0.03528 -0.24695,0.07055 -0.24694,0.141111 -0.21167,0.176389 -0.17639,0.211667 -0.14111,0.246944 -0.0706,0.246945 -0.0353,0.282222 m 0,0 v 1.093611 m 0,0 h -25.29417 m 0,0 V 30.532189 m 0,0 0.0706,-0.564444 0.14111,-0.529167 0.28222,-0.458611 0.35278,-0.423333 0.42333,-0.352778 0.45861,-0.282222 0.52917,-0.141111 0.56444,-0.07056 m 0,0 h 69.39139 m 0,0 0.56444,0.07056 0.49389,0.141111 0.49389,0.282222 0.42333,0.352778 0.35278,0.423333 0.24695,0.458611 0.17639,0.529167 0.0353,0.564444 m 0,0 v 37.394443 m 0,0 h -35.34833 m -7.33778,-22.754166 v -7.619999 m 0,0 -0.0353,-0.282222 -0.0706,-0.246945 -0.14111,-0.246944 -0.14111,-0.211667 -0.24695,-0.176389 -0.21166,-0.141111 -0.28222,-0.07055 -0.28223,-0.03528 m 0,0 h -2.15194 m 0,0 h -0.10583 l -0.10584,-0.03528 -0.0705,-0.03528 -0.10584,-0.07055 -0.0353,-0.07056 -0.0706,-0.07055 v -0.105834 l -0.0353,-0.105833 m 0,0 v -2.681111 m -0.49389,-0.493889 0.10584,0.03528 h 0.10583 l 0.0706,0.07055 0.0705,0.03528 0.0706,0.105834 0.0353,0.07055 0.0353,0.105833 v 0.07056 m -0.49389,-0.493889 h -15.48684 m -0.49389,0.493889 v -0.07056 l 0.0353,-0.105833 0.0353,-0.07055 0.0706,-0.105834 0.0706,-0.03528 0.0705,-0.07055 h 0.10584 l 0.10583,-0.03528 m -0.49389,0.493889 v 13.123328 m 0.49389,0.493889 h -0.10583 l -0.10584,-0.03528 -0.0705,-0.03528 -0.0706,-0.07056 -0.0706,-0.07055 -0.0353,-0.105833 -0.0353,-0.07056 v -0.105826 m 0.49389,0.493889 h 18.66194 m 0,0 0.28223,-0.03528 0.28222,-0.07056 0.21166,-0.141111 0.24695,-0.176389 0.14111,-0.211666 0.14111,-0.246945 0.0706,-0.246944 0.0353,-0.282223 m 6.31473,0.3175 0.14111,0.105834 0.10583,0.105833 0.14111,0.07056 0.14111,0.105833 0.17639,0.03528 0.14111,0.03528 0.17639,0.03528 h 0.17639 m 0,0 h 9.45444 m 0,0 h 0.14112 l 0.17638,-0.03528 0.17639,-0.03528 0.14111,-0.03528 0.14112,-0.105833 0.14111,-0.07056 0.14111,-0.105833 0.10583,-0.105834 m 0,0 0.77611,-0.846666 m 0,0 0.3175,-0.07056 m 0,0 0.21167,-0.105833 0.21167,-0.141111 0.21166,-0.141111 0.17639,-0.211667 0.10583,-0.211667 0.10584,-0.246944 0.0705,-0.246944 v -0.246945 m 0,0 V 40.83329 m 0,0 -0.0353,-0.282222 -0.0706,-0.3175 -0.14111,-0.282222 -0.21167,-0.246945 -0.24694,-0.176389 -0.28222,-0.176389 -0.28223,-0.07055 -0.3175,-0.03528 m 0,0 h -13.0175 m 0,0 -0.28222,0.03528 -0.3175,0.07055 -0.28222,0.176389 -0.24694,0.176389 -0.17639,0.246945 -0.14111,0.282222 -0.10584,0.3175 -0.0353,0.282222 m 0,0 v 2.187222 m 0,0 0.0353,0.246945 0.0353,0.246944 0.10583,0.246944 0.14111,0.211667 0.17639,0.176389 0.17639,0.176389 0.21167,0.141111 0.24694,0.07056 m 0,0 0.3175,0.141111 m 0,0 0.74084,0.811388 m -38.62917,-14.957777 0.0706,-0.564444 0.14111,-0.529167 0.28222,-0.458611 0.35278,-0.423333 0.42333,-0.352778 0.45861,-0.282222 0.52917,-0.141111 0.56444,-0.07056 M 142.10199,69.2319 v -0.03528 -0.07056 -0.141111 -0.141111 -0.141111 m 0,-0.776111 v 0.246944 0.246945 0.211667 0.211666 0.141111 0.141111 0.07056 0.03528 m 0,-38.699721 v 37.394443 m 0,2.786944 v -0.03527 -0.176389 -0.246945 -0.352778 -0.423333 -0.493889 -0.529166 -0.529167 m 0,0.776111 v 0.282222 0.493889 0.423333 0.352778 0.246945 0.176389 0.03528 m 0,0 h 25.29417 m 0,0 v -0.03528 -0.176389 -0.246945 -0.352778 -0.423333 -0.493889 -0.529166 -0.529167 m 2.92805,-34.960276 v -0.07056 l -0.0353,-0.105833 -0.0353,-0.07055 -0.0706,-0.105834 -0.0705,-0.03528 -0.0706,-0.07055 h -0.10583 l -0.10584,-0.03528 m 0.49389,3.175 v -2.681111 m 0.52917,3.175 h -0.10583 l -0.10584,-0.03528 -0.0705,-0.03528 -0.10584,-0.07055 -0.0353,-0.07056 -0.0706,-0.07055 v -0.105834 l -0.0353,-0.105833 m 4.09222,1.905 -0.0353,-0.282222 -0.0706,-0.246945 -0.14111,-0.246944 -0.14111,-0.211667 -0.24695,-0.176389 -0.21166,-0.141111 -0.28222,-0.07055 -0.28223,-0.03528 m 0,10.442222 0.28223,-0.03528 0.28222,-0.07056 0.21166,-0.141111 0.24695,-0.176389 0.14111,-0.211666 0.14111,-0.246945 0.0706,-0.246944 0.0353,-0.282223 m 0,0 v -7.619999 m 7.33778,29.280554 -0.0353,-0.282222 -0.0706,-0.246945 -0.14111,-0.246944 -0.17639,-0.211667 -0.21167,-0.176389 -0.24694,-0.141111 -0.28222,-0.07055 -0.28223,-0.03528 m 36.79472,2.504722 v 0.529167 0.529166 0.493889 0.423333 0.352778 0.246945 0.176389 0.03528 m -35.34833,0 h 35.34833 m -35.34833,-2.786944 v 0.529167 0.529166 0.493889 0.423333 0.352778 0.246945 0.176389 0.03528 m 0,-1.481666 v 1.481669 m 0,-2.786944 v 0.246944 0.246945 0.211667 0.211666 0.141111 0.141111 0.07056 0.03528 m 0,-1.305278 v -1.093611 m 9.63083,-20.849166 h 0.14112 l 0.17638,-0.03528 0.17639,-0.03528 0.14111,-0.03528 0.14112,-0.105833 0.14111,-0.07056 0.14111,-0.105833 0.10583,-0.105834 m 0,0 0.77611,-0.846666 m 1.41111,-3.81 -0.0353,-0.282222 -0.0706,-0.3175 -0.14111,-0.282222 -0.21167,-0.246945 -0.24694,-0.176389 -0.28222,-0.176389 -0.28223,-0.07055 -0.3175,-0.03528 m 0.17639,5.3975 0.3175,-0.07056 m 0,0 0.21167,-0.105833 0.21167,-0.141111 0.21166,-0.141111 0.17639,-0.211667 0.10583,-0.211667 0.10584,-0.246944 0.0705,-0.246944 v -0.246945 m 0,0 v -2.187222 m -27.34027,28.39861 h 0.17639 0.28222 0.35278 0.42333 0.52917 0.56444 0.635 0.70556 0.74083 0.74083 0.81139 0.81139 0.81139 0.81139 0.77611 0.77611 0.74083 0.67028 0.635 0.59972 0.49389 0.42334 0.38805 0.24695 0.21166 m 0,1.481666 h -0.21166 -0.24695 -0.38805 -0.42334 -0.49389 -0.59972 -0.635 -0.67028 -0.74083 -0.77611 -0.77611 -0.81139 -0.81139 -0.81139 -0.81139 -0.74083 -0.74083 -0.70556 -0.635 -0.56444 -0.52917 -0.42333 -0.35278 -0.28222 -0.17639 m -2.04611,-37.74722 v 0.352778 m -0.21167,-0.846667 0.0706,0.105833 0.0705,0.105834 0.0353,0.105833 m 0.0353,0.105833 v 0.07056 m 8.85472,9.560277 h 0.21166 m -9.27805,-10.054166 0.0706,0.105833 0.0705,0.105834 0.0353,0.105833 m 0.0353,0.105833 v 0.07056 m 0,0 v 0.352778 m -9.27806,15.804443 -0.35278,0.9525 m 0,0 h 0.70556 m 0,0 -0.35278,-0.9525 m 1.23472,1.975556 h -0.52916 m 0,0 -0.21167,-0.599722 m 0,0 h -0.98778 m 0,0 -0.21166,0.599722 m 0,0 h -0.52917 m 0,0 0.9525,-2.575278 m 0,0 h 0.52917 m 0,0 0.98777,2.575278 m -2.46944,0 0.9525,-2.575278 m 0.635,1.552222 -0.35278,-0.9525 m 0.70556,1.975556 -0.21167,-0.599722 m 0.84667,-1.552222 v -0.423334 m 0,0.423334 v -0.423334 m 1.23472,0.423334 v 2.151944 m 0,0 h -0.49389 m 0,0 v -2.151956 m 1.27,-0.423334 v 0.423334 m 0,0 h -0.77611 m -1.23472,-0.423334 h 2.01083 m -1.27,0.423334 h -0.74083 m 0.74083,2.151944 v -2.151944 m 2.50472,1.234722 -0.59972,0.917222 m 0,0 h -0.56444 m 0,0 0.88194,-1.375833 m 0,0 -0.77611,-1.199445 m 0,0 h 0.56444 m 0,0 0.49389,0.740833 m 0,0 0.49389,-0.740833 m 0,0 h 0.59972 m 0,0 -0.81139,1.199445 m 0,0 0.88195,1.375833 m 0,0 h -0.56445 m 0,0 -0.59972,-0.917222 m -1.16416,0.917222 0.88194,-1.375833 m 0,0 -0.77611,-1.199445 m 1.05833,0.740833 0.49389,-0.740833 m 0.10583,2.575278 -0.59972,-0.917222 m 18.27389,-1.658056 h 0.52917 m 0,0 0.70555,1.905 m 0,0 0.67028,-1.905 m 0,0 h 0.52917 m 0,0 -0.9525,2.575278 m 0,0 h -0.52917 m 0,0 -0.9525,-2.575278 m 0.9525,2.575278 -0.9525,-2.575278 m 1.23472,1.905 0.67028,-1.905 m 0.70556,2.575278 v -2.575278 m 0,2.575278 v -2.575278 m 0.49388,2.575278 h -0.49388 m 0,-2.575278 h 0.49388 m 0,0 v 2.575278 m 1.44639,-0.458611 h 0.17639 0.14111 m 0,0 0.24695,-0.141111 0.10583,-0.246945 0.0706,-0.458611 m 0,0 -0.0353,-0.282222 -0.0706,-0.282222 -0.14111,-0.176389 -0.21166,-0.07056 m 0,0 -0.24695,-0.03528 h -0.21167 m 0,0 h -0.24694 m 0,0 v 1.693333 m 0,0 h 0.42333 m 0.0706,0.458611 h -0.98778 m 0,0 v -2.575278 m 0,0 h 0.9525 m 0,0 h 0.28222 l 0.21167,0.03528 m 0,0 0.35278,0.211667 0.24694,0.388055 0.0706,0.3175 0.0353,0.352778 m 0,0 -0.0353,0.3175 -0.0353,0.211667 m 0,0 -0.14111,0.282222 -0.14111,0.176389 m 0,0 -0.21167,0.141111 -0.14111,0.07055 m 0,0 -0.28222,0.03528 -0.17639,0.03528 m -0.98778,0 v -2.575278 m 1.65806,1.27 -0.0353,-0.282222 -0.0706,-0.282222 -0.14111,-0.176389 -0.21166,-0.07056 m 0.0353,1.658056 0.24695,-0.141111 0.10583,-0.246945 0.0706,-0.458611 m 0.91722,1.305278 v -2.575278 m 0,2.575278 v -2.575278 m 0,0 h 1.905 m 0,0 v 0.423334 m 0,0 h -1.41111 m 0,0 v 0.564444 m 0,0 h 1.30528 m 0,0 v 0.423333 m 0,0 h -1.30528 m 0,0 v 0.705556 m 0,0 h 1.44639 m 0,0 v 0.458611 m 0,0 h -1.94028 m 3.4925,-0.423333 0.35278,-0.07056 0.24694,-0.246944 0.10583,-0.282223 v -0.282222 m 0,0 -0.0353,-0.352778 -0.17639,-0.3175 -0.21167,-0.176388 -0.28222,-0.03528 m 0,0 -0.35278,0.07055 -0.24694,0.246945 -0.10584,0.282222 -0.0353,0.282222 m 0,0 0.0705,0.352778 0.14111,0.3175 0.24695,0.176389 0.28222,0.03528 m 1.19944,-0.881945 -0.0705,0.564445 -0.3175,0.458611 -0.38806,0.246944 -0.42333,0.03528 m 0,0 -0.56445,-0.105833 -0.42333,-0.352778 -0.17639,-0.388056 -0.0705,-0.423333 m 0,0 0.0353,-0.388056 0.10584,-0.282222 m 0,0 0.24694,-0.388055 0.28222,-0.176389 m 0,0 0.3175,-0.105834 h 0.24695 m 0,0 0.52916,0.105834 0.45862,0.352778 0.17638,0.423333 0.0353,0.423333 m -2.43416,0.03528 0.0353,-0.388056 0.10584,-0.282222 m 0,0 0.24694,-0.388055 0.28222,-0.176389 m 3.66889,2.504722 h -0.49389 m 0,0 V 48.52384 m 0,0 h 0.49389 m 0,0 v 2.575278 m -0.49389,0 V 48.52384 m 3.03389,2.575278 h -0.52916 m 0,0 -0.98778,-1.693333 m 0,0 v 1.693333 m 0,0 h -0.49389 m 0,0 V 48.52384 m 0.49389,0 1.02305,1.693333 m 0,0 V 48.52384 m 0,0 h 0.49389 m 0,0 v 2.575278 m -2.01083,-2.575278 h 0.49389 m -0.49389,2.575278 V 48.52384 m 1.48167,2.575278 -0.98778,-1.693333 m 1.02305,0.811388 V 48.52384 m -26.67,1.340556 V 48.52384 m 0,1.340556 V 48.52384 m 1.02306,2.151945 0.24694,-0.03528 0.14112,-0.07056 0.0705,-0.105833 0.0353,-0.246945 v -0.282222 m 0,0 v -1.411111 m 0,0 h 0.49389 m 0,0 v 1.340556 m 0,0 v 0.352777 l -0.0353,0.352778 -0.17639,0.282222 -0.35278,0.211667 -0.42333,0.03528 m 0,0 h -0.35278 l -0.3175,-0.141111 -0.21166,-0.176389 -0.10584,-0.246945 m 0,0 -0.0353,-0.352777 v -0.3175 m 0.49389,-1.340556 v 1.375833 m 0,0 v 0.246945 0.176389 m 0,0 0.0706,0.176389 0.17639,0.141111 0.28222,0.03528 m -1.02306,-2.151945 h 0.49389 m -0.45861,2.010833 -0.0353,-0.352777 v -0.3175 m 1.51695,0.07055 v -1.411111 m 2.96333,1.799167 -0.0353,0.282222 -0.14111,0.211667 -0.21166,0.176389 -0.28223,0.105833 h -0.3175 m 0,0 -0.45861,-0.03528 -0.35277,-0.211667 -0.17639,-0.282222 -0.0706,-0.352778 m 0,0 0.49389,-0.03528 m 0,0 0.0706,0.246944 0.14111,0.176389 0.17639,0.07056 h 0.17638 m 0,0 h 0.17639 l 0.17639,-0.07056 0.10584,-0.141111 0.0353,-0.141111 m 0,0 v -0.105834 l -0.0705,-0.07055 -0.14111,-0.07056 m 0,0 -0.24695,-0.07055 -0.17639,-0.03528 m 0,0 -0.35277,-0.141111 -0.24695,-0.141111 m 0,0 -0.17639,-0.246945 -0.0705,-0.246944 m 0,0 0.10583,-0.352778 0.28222,-0.246944 0.24695,-0.105834 h 0.28222 m 0,0 0.38805,0.03528 0.35278,0.176389 0.17639,0.246945 0.0706,0.282222 m 0,0 -0.49389,0.03528 m 0,0 -0.0706,-0.176388 -0.10583,-0.105834 -0.28222,-0.07055 m 0,0 -0.21167,0.03528 -0.14111,0.03528 m 0,0 -0.0706,0.105834 -0.0353,0.07055 m 0,0 0.0353,0.105833 0.0706,0.03528 m 0,0 0.28222,0.141111 0.3175,0.07056 0.28222,0.105833 0.21167,0.105834 0.17639,0.141111 0.10583,0.211666 v 0.246945 m -1.72861,-0.635 -0.17639,-0.246945 -0.0705,-0.246944 m 0.84666,0.776111 -0.35277,-0.141111 -0.24695,-0.141111 m 1.02306,0.388055 -0.24695,-0.07055 -0.17639,-0.03528 m 0.635,0.352778 v -0.105834 l -0.0705,-0.07055 -0.14111,-0.07056 m 2.08139,-0.105833 h -0.42334 m 0,0 v 0.670278 m 0,0 h 0.49389 m 0,0 h 0.21167 0.14111 m 0,0 0.14111,-0.03528 0.10583,-0.105833 0.0353,-0.07056 v -0.105833 m 0,0 v -0.105834 l -0.0705,-0.105833 -0.0706,-0.07055 -0.10583,-0.03528 -0.45861,-0.03528 m -0.91723,1.128889 v -2.575278 m 0,0 h 1.02306 m 0,0 h 0.35278 l 0.3175,0.07056 0.24694,0.246944 0.0706,0.141111 v 0.176389 m 0,0 v 0.176389 l -0.10584,0.176389 -0.21166,0.211667 m 0,0 0.17639,0.105833 0.17638,0.176389 0.0706,0.3175 m 0,0 -0.0353,0.3175 -0.17639,0.246944 -0.21166,0.105834 -0.21167,0.07055 m 0,0 h -0.35278 l -0.28222,0.03528 m 0,0 h -0.84667 m 0.84667,-1.552222 h 0.21167 l 0.17639,-0.03528 m 0,0 h 0.14111 l 0.10583,-0.105833 0.0353,-0.07056 v -0.105833 m 0,0 v -0.105834 l -0.0706,-0.105833 -0.17639,-0.07056 m 0,0 h -0.28222 -0.21167 m 0,0 h -0.28222 m 0,0 v 0.599722 m 0,0 h 0.35278 m -0.84667,1.552222 v -2.575278 m 1.23473,0.987778 h 0.14111 l 0.10583,-0.105833 0.0353,-0.07056 v -0.105833 m 0,0 v -0.105834 l -0.0706,-0.105833 -0.17639,-0.07056 m 0.0706,1.693333 0.14111,-0.03528 0.10583,-0.105833 0.0353,-0.07056 v -0.105833 m 5.46806,-6.773333 h -0.49389 m 2.39889,-4.303889 V 39.9866 m 0.635,0 v -0.740833 m -7.26723,5.715 v -1.411078 m 0,0 h -0.21166 m -3.31611,-5.820833 h 0.17639 m 0.0353,-0.246945 h -0.10583 m 0,0 -0.10583,0.246945 m -0.9525,5.820833 h 0.59972 m 0,0 h 0.52917 m 3.13972,0 h 0.21166 m 0,0 v 0 m 4.23334,0 h 0.49389 m 0,0 v -3.951111 m 0,3.668889 v 0 m -4.72723,0.282222 v 0 m 0,0 V 44.9608 m -3.42194,-7.478889 h 0.10583 m 8.04334,5.785556 v 0 m 2.54,-4.021667 v 0.740833 m -11.60639,6.0325 v 0.03528 m 10.97139,-6.067778 v -0.740833 m -10.05417,-1.763889 h 0.10583 m 11.67695,8.501944 h 0.17639 m -12.41796,-2.434168 v 0.3175 m 0.52917,-0.3175 h -0.52917 m 17.74472,2.434166 v 0 m 0,0 v 0 m -5.32694,0 h -0.17639 m -12.84111,-2.434166 v 0.105833 m 0,0.211667 v -0.3175 m 0.9525,0 v -5.820833 m -0.35278,5.820833 h -0.59972 m 0.59972,0.3175 v -0.3175 m -0.45861,2.469444 v 0.03528 m -0.14111,-2.504722 v 0.3175 m 0.9525,-6.138333 v 5.820833 m 0.17639,-5.820833 h -0.17639 m 8.255,1.869722 v 3.951111 m 9.13694,2.434166 v 0 m 0,0 v 0 m -18.34444,-2.434168 h 0.21166 m 0.74084,-5.820833 0.10583,-0.246945 m -4.83305,8.5725 v -0.03528 m 0,0 v 0.03528 m -0.635,0 v -0.03528 m 4.02166,0.03528 v -0.03528 m 4.7625,-2.8575 -0.10583,0.03528 m 0.10583,-0.03528 h 0.10583 m -0.10583,0 -0.10583,0.03528 m -3.03389,-5.3975 0.0705,-0.423333 0.10584,-0.176389 0.14111,-0.176389 0.17639,-0.141111 0.17639,-0.105833 0.42333,-0.07056 m 0,0 h 0.74083 m 0,0 0.42334,0.07056 0.21166,0.105833 0.14111,0.141111 0.17639,0.176389 0.0706,0.176389 0.10583,0.423333 m 0,0 V 44.3258 m 0,0 -0.10583,0.423333 -0.0706,0.176389 -0.17639,0.176389 -0.14111,0.141111 -0.21166,0.105833 -0.42334,0.07056 m 0,0 h -0.74083 m 0,0 -0.42333,-0.07056 -0.17639,-0.105833 -0.17639,-0.141111 -0.14111,-0.176389 -0.10584,-0.176389 -0.0705,-0.423333 m 0,0 v -6.526389 m 1.76389,-0.987777 h -0.56445 m 0,0 -0.42333,0.07055 -0.17639,0.105833 -0.17639,0.141112 -0.14111,0.176388 -0.10583,0.176389 -0.0706,0.423334 m 0,0 v 6.314722 m 0,0 0.0706,0.423333 0.10583,0.211666 0.14111,0.176389 0.17639,0.141111 0.17639,0.07056 0.42333,0.105833 m 0,0 h 0.56445 m 0,0 0.38805,-0.105833 0.21167,-0.07056 0.17639,-0.141111 0.14111,-0.176389 0.10583,-0.211666 0.0706,-0.423333 m 0,0 V 37.90524 m 0,0 -0.0706,-0.423334 -0.10583,-0.176389 -0.14111,-0.176388 -0.17639,-0.141112 -0.21167,-0.105833 -0.38805,-0.07055 m -0.67028,-0.211667 h 0.74083 m 0,0 v 0 0.03528 0.03528 0.03528 m -0.74083,0 v -0.03528 -0.03528 -0.03528 m 0.10583,0.282222 h 0.56445 m -0.56445,-0.07055 v 0 0.03528 0.03528 m 0.56445,0 v 0 -0.03528 -0.03528 m -1.86972,7.514166 v -6.526389 m 0,0 v 0 h 0.0353 0.0353 0.0353 m -0.10583,6.526389 v 0 h 0.0353 0.0353 0.0353 m 0.17639,-0.105833 V 37.90525 m 0,6.314722 v 0 h -0.0353 -0.0353 m 0.0706,-6.314722 v 0 h -0.0353 -0.0353 m 2.92806,-0.105834 v 6.526389 m -0.0706,0 v 0 h 0.0353 0.0353 m -0.0706,-6.526389 v 0 h 0.0353 0.0353 m -0.28222,6.420556 v 0 h 0.0353 0.0353 0.0353 m -0.10583,-6.314722 v 6.314722 m 0,-6.314722 v 0 h 0.0353 0.0353 0.0353 m -1.65806,7.337777 v 0 0.03528 0.03528 0.03528 m 0.56445,-0.105833 h -0.56445 m 0.56445,0 v 0 0.03528 0.03528 0.03528 m 0.0705,0.07056 v 0.03528 0.03528 0.03528 m 0,0 h -0.74083 m 0,-0.105833 v 0.03528 0.03528 0.03528 m -1.19944,-7.725833 0.0353,-0.246944 0.0353,-0.211667 0.14111,-0.211666 0.14111,-0.176389 0.17639,-0.141111 0.21167,-0.105834 0.21167,-0.07055 0.24694,-0.03528 m 0.74083,0 0.24695,0.03528 0.21166,0.07055 0.21167,0.105834 0.21167,0.141111 0.14111,0.176389 0.10583,0.211666 0.0706,0.211667 v 0.246944 m -2.8575,0.105834 0.0353,-0.211667 0.0705,-0.176389 0.0706,-0.176389 0.14111,-0.141111 0.14111,-0.141111 0.17639,-0.07056 0.17639,-0.07056 0.21166,-0.03528 m 0.56445,0 0.17639,0.03528 0.17639,0.07056 0.17638,0.07056 0.17639,0.141111 0.10584,0.141111 0.10583,0.176389 0.0353,0.176389 0.0353,0.211667 m -1.65806,7.619999 h -0.24694 l -0.21167,-0.07056 -0.21167,-0.105834 -0.17639,-0.176389 -0.14111,-0.176388 -0.14111,-0.211667 -0.0353,-0.211667 -0.0353,-0.246944 m 1.30527,0.917222 -0.21166,-0.03528 -0.17639,-0.03528 -0.17639,-0.105833 -0.14111,-0.105833 -0.14111,-0.176389 -0.0706,-0.176389 -0.0705,-0.176389 -0.0353,-0.211666 m 2.57528,0 -0.0353,0.211666 -0.0353,0.176389 -0.10583,0.176389 -0.10584,0.176389 -0.17639,0.105833 -0.17638,0.105833 -0.17639,0.03528 -0.17639,0.03528 m 1.27,-0.917222 v 0.246944 l -0.0706,0.211667 -0.10583,0.211667 -0.14111,0.176388 -0.21167,0.176389 -0.21167,0.105834 -0.21166,0.07056 h -0.24695 m 0,-8.925277 0.24695,0.03528 0.21166,0.07055 0.21167,0.105834 0.21167,0.141111 0.14111,0.176389 0.10583,0.211666 0.0706,0.211667 v 0.03528 m -3.13972,0.211666 0.0353,-0.246944 0.0353,-0.211667 0.14111,-0.211666 0.14111,-0.176389 0.17639,-0.141111 0.21167,-0.105834 0.21167,-0.07055 0.24694,-0.03528 m 1.65806,1.305278 -0.0353,-0.211667 m -0.88195,-1.093611 h -0.74083 m -0.88194,7.831666 v 0 l 0.0705,0.176389 0.0706,0.176389 0.14111,0.176389 0.14111,0.105833 0.17639,0.105833 0.17639,0.03528 0.21166,0.03528 m -1.27,-0.670278 -0.0353,-0.03528 V 44.431673 44.32584 m 1.86972,0.917222 0.17639,-0.03528 0.17639,-0.03528 0.17638,-0.105833 0.17639,-0.105833 0.10584,-0.176389 0.10583,-0.176389 0.0353,-0.176389 0.0353,-0.211666 m -1.55223,1.023055 h 0.56445 m -0.77611,-7.090833 v -0.141111 l 0.0353,-0.07056 0.0706,-0.07056 0.0706,-0.03528 0.0705,-0.03528 0.14111,-0.03528 m 0,0 h 0.21167 m 0,0 0.14111,0.03528 0.0706,0.03528 0.0705,0.03528 0.0353,0.07056 0.0353,0.07056 0.0353,0.141111 m 0,0 v 5.820833 m 0,0 -0.0353,0.141111 -0.0353,0.07056 -0.0353,0.07055 -0.0705,0.03528 -0.0706,0.03528 -0.14111,0.03528 m 0,0 h -0.21167 m 0,0 -0.14111,-0.03528 -0.0705,-0.03528 -0.0706,-0.03528 -0.0706,-0.07055 -0.0353,-0.07056 v -0.141111 m 0,0 v -5.820869 m 0.59972,-0.493889 h -0.21167 m 0.21167,0 v 0 0.03528 0.03528 0.03528 m -0.21167,0 v 0 -0.03528 -0.03528 -0.03528 m -0.49389,0.493889 v 5.820833 m 0.10584,-5.820833 h -0.0353 -0.0353 -0.0353 m 0,5.820833 v 0 h 0.0353 0.0353 0.0353 m 1.09361,0 v -5.820833 m -0.10584,5.820833 v 0 h 0.0353 0.0353 0.0353 m 0,-5.820833 v 0 h -0.0353 -0.0353 -0.0353 m -0.38805,6.208889 v 0.03528 0.03528 0.03528 m -0.21167,0 h 0.21167 m -0.21167,0 v 0 -0.03528 -0.03528 -0.03528 m -0.49389,-6.208889 v -0.07055 l 0.0353,-0.105834 0.0353,-0.07055 0.0705,-0.105834 0.0706,-0.03528 0.0706,-0.07056 h 0.10583 l 0.10583,-0.03528 m 0.21167,0 0.0705,0.03528 h 0.10584 l 0.0705,0.07056 0.10584,0.03528 0.0353,0.105834 0.0706,0.07055 v 0.105834 l 0.0353,0.07055 m -0.70556,6.314722 h -0.10583 l -0.10583,-0.03528 -0.0706,-0.03528 -0.0706,-0.07055 -0.0705,-0.07056 -0.0353,-0.105833 -0.0353,-0.07056 v -0.105833 m 1.19945,0 -0.0353,0.105833 v 0.07056 l -0.0706,0.105833 -0.0353,0.07056 -0.10584,0.07055 -0.0705,0.03528 -0.10584,0.03528 h -0.0705 m -0.21167,-6.808611 -0.10583,0.03528 h -0.10583 l -0.0706,0.07056 -0.0706,0.03528 -0.0705,0.105834 -0.0353,0.07055 -0.0353,0.105834 v 0.07055 m 0,5.820833 v 0.105833 m 1.16417,-5.997221 v 0 -0.105834 l -0.0706,-0.07055 -0.0353,-0.105834 -0.10584,-0.03528 -0.0705,-0.07056 h -0.10584 l -0.0705,-0.03528 m -0.21167,0 h 0.21167 m 1.16417,8.008055 v -0.529161 m -2.57528,0.529166 v -0.529166 m 0,0.529166 h 2.57528 m -2.57528,0.388056 v -0.388056 m -0.28222,0.388056 V 44.3258 m 2.8575,1.340555 v 0.388056 m 0.28222,-1.728611 v 1.5875 m -2.01084,-0.246945 v 0.388056 m 0.14112,0 v -0.388056 m 0.59972,0 v 0.388056 m 0.14111,0 v -0.388056 m -8.64306,0.352778 v 0.03528 m 0.38806,0 v -0.03528 m -0.38806,0.03528 v 0 -0.03528 m 30.26834,-5.609166 h -0.74084 m -0.14111,-0.176389 h 0.81139 m -33.54916,4.162777 V 45.2783 m 0,0.740833 v 0.03528 m 0,0 v -0.03528 m 0,-0.740833 v -0.881945 m -0.14112,-0.282222 0.14112,0.282222 m 0,0 h -0.635 m 0.17638,-0.282222 -0.17638,0.282222 m 0.49388,-0.282222 h -0.3175 m -0.17638,0.282222 V 45.2783 m 0,0.740833 v 0.03528 m 0.635,-1.658056 -0.14112,-0.282222 m 8.78417,1.905 h 0.35278 m -3.88056,0.03528 h 0.0353 m 0,0 h -0.0353 m 6.17361,-0.352778 v 0.352778 m 0.52917,-0.352778 v 0.352778 m -0.52917,-0.352778 h 0.52917 m 10.05417,0.282222 v 0 m -13.22939,-2.11667 h 1.34056 m -1.34056,0.987777 h 1.34056 m 0,0.176389 h -1.34056 m 0,0.987778 h 0.635 m 0.56444,0 h 0.14112 m 0.28222,0 h 0.38805 m 0.35278,0 h 0.0353 m 0.67028,-0.3175 v -0.03528 m 1.5875,-0.176389 h -0.17639 m 0.14111,0.105834 h -0.14111 m 0.21166,-0.635 h -0.21166 m -1.30528,1.093611 v -0.352778 m 0.28222,0.352778 v -0.352778 m 0,0 h -0.10583 m -0.14111,0 h -0.0353 m 9.59556,-6.455833 v 0.740833 m 0,0 v -0.740833 m -28.36334,-5.08 h 0.3175 m -0.3175,-0.846666 h 0.3175 m 19.82611,12.488332 v -0.105833 m 0,0 h -0.0705 m 18.94416,-5.715 0.21167,0.03528 0.17639,0.03528 0.17639,0.105833 0.14111,0.105834 0.14111,0.176388 0.0706,0.176389 0.0705,0.176389 v 0.176389 m 0,2.187222 v -2.187222 m 0,2.187222 v 0.176389 l -0.0353,0.141111 -0.0705,0.141111 -0.0706,0.141111 -0.10583,0.141112 -0.14111,0.07055 -0.10584,0.105833 -0.14111,0.03528 m 0,0 -0.35277,0.141111 m -0.21167,0.105834 v 0 l 0.0353,-0.03528 h 0.0353 v -0.03528 h 0.0353 l 0.0353,-0.03528 h 0.0353 0.0353 m -0.21167,0.105834 -0.77611,0.846666 m 0,0 -0.0706,0.07056 -0.10583,0.07055 -0.0706,0.07056 -0.10583,0.03528 -0.10583,0.03528 -0.0706,0.03528 h -0.10583 -0.10584 m -9.45444,0 h 9.45444 m -9.45444,0 h -0.10583 -0.10584 l -0.10583,-0.03528 -0.10583,-0.03528 -0.0706,-0.03528 -0.10583,-0.07056 -0.0706,-0.07055 -0.0705,-0.07056 m 0,0 -0.77611,-0.846666 m -0.21167,-0.105834 h 0.0353 l 0.0353,0.03528 h 0.0353 l 0.0353,0.03528 h 0.0353 v 0.03528 h 0.0353 m -0.21167,-0.105834 -0.35278,-0.141111 m 0,0 -0.14111,-0.03528 -0.14111,-0.105833 -0.10583,-0.07055 -0.10584,-0.141112 -0.10583,-0.141111 -0.0353,-0.141111 -0.0705,-0.141111 v -0.176389 m 0,-2.187222 v 2.187222 m 0,-2.187222 0.0353,-0.176389 0.0353,-0.176389 0.10584,-0.176389 0.10583,-0.176388 0.17639,-0.105834 0.17639,-0.105833 0.17639,-0.03528 0.17638,-0.03528 m 0,0 h 13.0175 m -13.0175,0.493889 h 13.0175 m -13.51138,0.493889 0.0353,-0.07055 v -0.105834 l 0.0706,-0.07055 0.0353,-0.105834 0.10583,-0.03528 0.0706,-0.07056 h 0.10583 l 0.0705,-0.03528 m -0.49388,2.681111 V 40.97441 m 0.35277,2.681111 -0.0705,-0.03528 -0.0706,-0.03528 -0.0353,-0.07056 -0.0706,-0.03528 -0.0353,-0.07055 -0.0353,-0.07056 -0.0353,-0.07055 v -0.105834 m 0.35277,0.493889 0.35278,0.105833 m 0,0 0.0706,0.03528 h 0.0353 l 0.0706,0.03528 0.0706,0.03528 0.0353,0.03528 0.0706,0.03528 0.0353,0.07056 0.0353,0.03528 m 0,0 0.77612,0.846666 m 0.38805,0.141111 h -0.0705 -0.0353 -0.0706 l -0.0353,-0.03528 -0.0353,-0.03528 h -0.0706 l -0.0353,-0.03528 -0.0353,-0.03528 m 9.84249,0.141111 h -9.45444 m 9.80722,-0.141111 -0.0353,0.03528 -0.0353,0.03528 h -0.0353 l -0.0353,0.03528 -0.0705,0.03528 h -0.0353 -0.0706 -0.0353 m 0.35278,-0.141111 0.77611,-0.846666 m 0,0 0.0353,-0.03528 0.0706,-0.07056 0.0353,-0.03528 0.0706,-0.03528 0.0353,-0.03528 0.0705,-0.03528 h 0.0706 l 0.0353,-0.03528 m 0,0 0.35277,-0.105833 m 0.35278,-0.493889 v 0.105834 l -0.0353,0.07055 v 0.07056 l -0.0706,0.07055 -0.0353,0.03528 -0.0705,0.07056 -0.0706,0.03528 -0.0706,0.03528 m 0.35278,-2.681111 v 2.187222 m -0.49389,-2.681111 0.10584,0.03528 h 0.0705 l 0.10584,0.07056 0.0705,0.03528 0.0706,0.105834 0.0353,0.07055 0.0353,0.105834 v 0.07055 m -0.49389,-0.987778 h -13.0175 m 3.45723,0 h 0.52916 m -2.43416,0 h 1.905 m -2.43417,0 h 0.52917 m -0.0353,0 h -0.49389 m 2.50472,0 h -2.01083 m 2.46944,0 h -0.45861 m 5.50333,0 h 0.52917 m -0.0353,0 h -0.49389 m 2.46945,0 h -1.97556 m 2.46945,0 h -0.49389 m -0.0353,0 h 0.52917 m -2.43417,0 h 1.905 m -3.52778,0 h 0.0706 m -2.92806,0 h 2.8575 m -2.92805,0 h 0.0705 m -0.56444,0 h 0.49389 m 0.3175,0 h -0.81139 m 3.21028,0 h -2.39889 m 3.175,0 h -0.77611 m 0.28222,0 h 0.49389 m -8.50195,0 -0.17638,0.03528 -0.17639,0.03528 -0.17639,0.105833 -0.17639,0.105834 -0.10583,0.176388 -0.10584,0.176389 -0.0353,0.176389 -0.0353,0.176389 m 14.99305,-0.176389 v 0 l -0.0705,-0.176389 -0.0706,-0.176389 -0.14111,-0.176388 -0.14111,-0.105834 -0.17639,-0.105833 -0.17639,-0.03528 -0.21167,-0.03528 m -14.00527,3.175 v 0.176389 l 0.0353,0.03528 m -0.0353,-0.211667 v 0.141111 l 0.0353,0.07056 m 14.46389,-2.398889 v -0.07055 m -13.97,2.363611 v 0.07055 l 0.0353,0.07056 0.0353,0.07055 0.0706,0.03528 0.0353,0.07056 0.0706,0.03528 0.0705,0.03528 m 0.35278,0.105833 -0.35278,-0.105833 m 0.77611,0.388056 -0.0353,-0.03528 -0.0353,-0.07056 -0.0706,-0.03528 -0.0353,-0.03528 -0.0706,-0.03528 -0.0706,-0.03528 h -0.0353 l -0.0706,-0.03528 m 0.42333,0.282223 v 0 m 0.77612,0.846666 -0.77612,-0.846666 m 0.77612,0.846666 0.0353,0.03528 0.0353,0.03528 h 0.0706 l 0.0353,0.03528 0.0353,0.03528 h 0.0706 0.0353 0.0705 m 0,0 h 1.79917 m 0.98778,0 h 3.88055 m 0.9525,0 h 1.83444 m -6.45583,0 h -1.5875 m 2.11667,0 h -0.52917 m 0.10584,0 h 0.42333 m -0.74083,0 h 0.3175 m -1.69334,0 h 0.38806 m 5.82083,0 h 0.38806 m -1.69334,0 h 0.35278 m -0.74083,0 h 0.38805 m 0.10584,0 h -0.49389 m 2.08139,0 h -1.5875 m 4.93888,-1.375833 0.0706,-0.03528 0.0706,-0.03528 0.0705,-0.07056 0.0353,-0.03528 0.0706,-0.07055 v -0.07056 l 0.0353,-0.07055 v -0.105834 m -0.35278,0.493889 -0.35277,0.105833 m -0.42334,0.282223 v 0 m 0.42334,-0.282223 -0.0353,0.03528 h -0.0706 l -0.0705,0.03528 -0.0353,0.03528 -0.0706,0.03528 -0.0353,0.03528 -0.0706,0.07056 -0.0353,0.03528 m 0,0 -0.77611,0.846666 m -0.35278,0.141111 h 0.0353 0.0706 0.0353 l 0.0705,-0.03528 0.0353,-0.03528 h 0.0353 l 0.0353,-0.03528 0.0353,-0.03528 m -7.02027,0.105834 v 0 0.03528 m -0.14112,0 0.0353,-0.176389 m 0,0 v -0.07055 -0.07056 -0.03528 l 0.0353,-0.03528 0.0353,0.03528 v 0.07056 0.07056 0.07055 l 0.0353,0.105834 m -0.98778,-0.141112 v 0.176389 m 0,-0.176389 h 0.88194 m 4.09222,0 v 0.176389 m 0,-0.176389 h 0.84667 m 0,0.176389 V 44.85498 m -0.9525,0.141112 v 0 0.03528 m 0,-0.03528 v -0.105834 -0.07055 -0.07056 l 0.0353,-0.07056 v -0.03528 h 0.0353 v 0.03528 0.03528 l 0.0353,0.07056 v 0.07055 m -8.96055,-3.386666 -0.10583,-0.03528 m 0.10583,0.03528 v 0.599722 m -0.10583,0.03528 0.10583,-0.03528 m 13.82889,0 0.0706,0.03528 m -0.0706,-0.635 v 0.599722 m 0.0706,-0.635 -0.0706,0.03528 m -9.8425,3.175 v 0 0.03528 0.07056 0.105833 m 5.82083,0 v -0.105833 -0.07056 -0.03528 m -6.24417,-4.056944 0.35278,-0.105834 m -1.65805,0.105834 h 1.30527 m -1.65805,-0.105834 0.35278,0.105834 m -2.36361,3.951111 v -0.211667 m 0.38805,0 h -0.38805 m 0.38805,0 h 0.0706 0.0353 l 0.0353,0.03528 h 0.0706 l 0.0353,0.03528 0.0353,0.03528 h 0.0353 l 0.0706,0.03528 m 0,0 0.88194,0.987778 m 0.38806,0.176389 h -0.0706 -0.0353 l -0.0705,-0.03528 h -0.0353 l -0.0353,-0.03528 -0.0705,-0.03528 -0.0353,-0.03528 -0.0353,-0.03528 m 0.38806,0.176389 h 0.9525 m 0,0.352777 v -0.352777 m 0,0.352777 h -0.98778 m -1.62278,-1.658055 h -0.38805 m 10.33638,-3.739444 h 1.34056 m 0,0 0.3175,-0.105834 m -1.97556,0 0.3175,0.105834 m 2.01084,4.868333 -0.0353,0.03528 -0.0353,0.03528 -0.0353,0.03528 -0.0353,0.03528 h -0.0706 l -0.0353,0.03528 h -0.0706 -0.0353 m 0.35278,-0.176389 0.91722,-0.987778 m 0,0 0.0353,-0.03528 h 0.0353 l 0.0353,-0.03528 0.0706,-0.03528 h 0.0353 l 0.0353,-0.03528 h 0.0706 0.0353 m 0,0 h 0.38805 m 0,0.211667 v -0.211667 m -1.97555,1.658055 h -1.02306 m 0,0 v -0.352777 m 0,0 h 0.98778 m 2.01083,-1.305278 h -0.38805 m -12.84111,0.141111 -0.0706,-0.03528 h -0.0353 l -0.0353,-0.03528 -0.0353,-0.03528 h -0.0706 l -0.0353,-0.03528 h -0.0353 -0.0706 m 1.27,1.128889 -0.88194,-0.987778 m 0.88194,0.987778 0.0353,0.03528 0.0353,0.03528 0.0705,0.03528 0.0353,0.03528 h 0.0353 l 0.0705,0.03528 h 0.0353 0.0706 m 7.97277,0 h 0.10584 0.0705 0.10584 0.0705 0.0706 0.0353 0.0353 m -1.5875,0 h 1.09361 m -1.62277,0 h 0.0353 0.0706 0.0706 0.0705 0.0706 0.10583 0.10583 m -1.02305,0 h 0.10583 0.10583 0.0706 0.0706 0.0705 0.0353 0.0353 m -2.29306,0 h 1.79917 m -2.29306,0 v 0 h 0.0353 0.0353 0.0705 0.0706 0.10583 0.0706 0.10583 m -0.98778,0 h 0.10584 0.0705 0.10584 0.0705 0.0706 0.0353 0.0353 m -1.5875,0 h 1.09361 m -1.5875,0 v 0 h 0.0353 0.0353 0.0705 0.0706 0.0706 0.10583 0.10583 m -1.02305,0 h 0.10583 0.10583 0.0706 0.0705 0.0706 0.0353 0.0353 0.0353 m -1.48166,0 h 9.94833 m -1.48167,0 v 0 h 0.0353 0.0353 0.0705 0.0706 0.10583 0.0706 0.10583 m -7.47889,0.352777 v -0.352777 m 0,0.352777 h -0.0353 -0.0353 -0.0353 -0.0706 -0.0705 -0.0706 -0.10583 -0.10583 m 10.61861,-1.658055 h -0.0353 -0.0706 l -0.0353,0.03528 h -0.0353 l -0.0706,0.03528 -0.0353,0.03528 h -0.0353 l -0.0353,0.03528 m 0,0 -0.91722,0.987778 m -1.83445,0.176389 v 0.352777 m 0.49389,0 h -0.10583 -0.0706 -0.10583 -0.0706 -0.0705 -0.0353 -0.0353 m 1.48167,-0.352777 h 0.0353 0.0706 l 0.0353,-0.03528 h 0.0706 l 0.0353,-0.03528 0.0353,-0.03528 0.0353,-0.03528 0.0353,-0.03528 m 0.0705,-2.8575 v 0.211666 m 0,0 v 0.03528 0.03528 h -0.0353 v 0.03528 l -0.0353,0.03528 -0.0353,0.03528 h -0.0353 m 0,0 -0.52917,0.176389 m -0.0705,0 v 0 h 0.0353 0.0353 m -0.0705,0 h -9.34861 m 0,0 v 0 h -0.0353 m -0.52917,-0.176389 0.52917,0.176389 m -0.52917,-0.176389 h -0.0353 -0.0353 l -0.0353,-0.03528 v -0.03528 l -0.0353,-0.03528 v -0.03528 -0.03528 m 0,0 v -0.211682 m 0,0 v -0.03528 -0.03528 l 0.0353,-0.03528 v -0.03528 l 0.0353,-0.03528 h 0.0353 l 0.0353,-0.03528 h 0.0353 m 10.40695,0 h -10.40695 m 10.40695,0 h 0.0353 l 0.0353,0.03528 h 0.0353 l 0.0353,0.03528 0.0353,0.03528 v 0.03528 l 0.0353,0.03528 v 0.03528 m -9.13694,-0.211667 h -0.52917 m 0.98778,0 h -0.45861 m 0.98778,0 h -0.52917 m 0.98778,0 h -0.45861 m 1.02305,0 h -0.56444 m 1.02305,0 h -0.45861 m 0.98778,0 h -0.52917 m 0.98778,0 h -0.45861 m 1.02306,0 h -0.56445 m 0.98778,0 h -0.42333 m 0.98777,0 h -0.56444 m 1.02305,0 h -0.45861 m 0.98778,0 h -0.52917 m 0.98778,0 h -0.45861 m 1.02306,0 h -0.56445 m 0.98778,0 h -0.42333 m 0.98777,0 h -0.56444 m 1.02305,0 h -0.45861 m 0.91723,0 h -0.45862 m -9.45444,0 h -0.49389 m 0.9525,0 h -0.45861 m -0.49389,0 h -0.0353 l -0.0353,0.03528 h -0.0353 l -0.0353,0.03528 v 0.03528 l -0.0353,0.03528 v 0.03528 0.03528 m 0,0.211666 v 0.03528 m 10.795,-0.282222 v 0 l -0.0353,-0.03528 v -0.03528 l -0.0353,-0.03528 -0.0353,-0.03528 h -0.0353 l -0.0353,-0.03528 h -0.0353 m -4.30389,-1.763889 v 0.141111 l -0.0353,0.07056 -0.0353,0.03528 v 0.03528 l -0.0353,-0.03528 -0.0353,-0.07056 v -0.105839 l -0.0353,-0.105833 v -0.105834 m -1.41111,0 -0.0353,0.105834 v 0.105833 l -0.0353,0.105833 -0.0353,0.07056 v 0.03528 l -0.0353,-0.03528 -0.0353,-0.03528 v -0.07056 l -0.0353,-0.141111 m 0,0 -0.38805,-0.105833 m 0,0 v -0.03528 m 2.61055,0 v 0.03528 m 0,0 -0.42333,0.105833 m -2.82222,4.903611 h -0.98778 m 5.82083,0 h -0.9525 m -5.22111,-3.210277 h -0.45861 m 0.45861,0.07055 v -0.07055 m -0.45861,0 v 0.07055 m 0.45861,-0.07055 h -0.45861 m 1.44639,0 h -0.45861 m 0.45861,0.07055 v -0.07055 m -0.45861,0 v 0.07055 m 0.45861,-0.07055 h -0.45861 m 1.48166,0 h -0.45861 m 0.45861,0.07055 v -0.07055 m -0.45861,0 v 0.07055 m 0.45861,-0.07055 h -0.45861 m 1.44639,0 h -0.45861 m 0.45861,0 h -0.45861 m 0.45861,0.07055 v -0.07055 m -0.45861,0 v 0.07055 m -3.03389,0.846667 h -0.45861 m 0,-0.07056 v 0.07056 m 0.45861,0 v -0.07056 m 4.48028,-0.846666 h -0.42333 m 0.42333,0.07055 v -0.07055 m -0.42333,0 v 0.07055 m 0.42333,-0.07055 h -0.42333 m 1.44638,0 h -0.45861 m 0.45861,0 h -0.45861 m 0.45861,0.07055 v -0.07055 m -0.45861,0 v 0.07055 m 1.44639,-0.07055 h -0.45861 m 0.45861,0 h -0.45861 m 0.45861,0.07055 v -0.07055 m -0.45861,0 v 0.07055 m 1.44639,-0.07055 h -0.42333 m 0.42333,0.07055 v -0.07055 m -0.42333,0 v 0.07055 m 0.42333,-0.07055 h -0.42333 m 1.44638,0 h -0.45861 m 0.45861,0.07055 v -0.07055 m -0.45861,0 v 0.07055 m 0.45861,-0.07055 h -0.45861 m -7.51416,0.917222 h 0.45861 m -0.45861,-0.07056 v 0.07056 m 0.45861,-0.07056 v 0.07056 m 0.56444,0 h 0.42334 m -0.42334,-0.07056 v 0.07056 m 0.42334,-0.07056 v 0.07056 m 0.56444,0 h 0.45861 m -0.45861,-0.07056 v 0.07056 m 0.45861,-0.07056 v 0.07056 m 0.52917,0 h 0.45861 m -0.45861,-0.07056 v 0.07056 m 0.45861,-0.07056 v 0.07056 m 0.56444,0 h 0.42334 m -0.42334,-0.07056 v 0.07056 m 0.42334,-0.07056 v 0.07056 m 0.56444,0 h 0.45861 m -0.45861,-0.07056 v 0.07056 m 0.45861,-0.07056 v 0.07056 m 0.52917,0 h 0.45861 m -0.45861,-0.07056 v 0.07056 m 0.45861,-0.07056 v 0.07056 m 0.56444,0 h 0.42334 m -0.42334,-0.07056 v 0.07056 m 0.42334,-0.07056 v 0.07056 m -8.46667,-0.917222 h -0.45861 m 0.45861,0.07055 v -0.07055 m -0.45861,0 v 0.07055 m 0.45861,-0.07055 h -0.45861 m 11.71222,1.728611 v 0.282222 m 0.49389,-1.164167 v 1.128889 m -14.49916,0.03528 v -0.282222 m -0.49389,0.246944 v -1.128889 m 0.74083,-1.693333 v 0 h -0.0706 -0.0706 m 0,0.599722 h 0.0706 0.0706 m 13.51139,0 v 0 h 0.0705 0.10584 m 0,-0.599722 h -0.10584 -0.0705 m -7.65528,4.515555 v -0.352777 m 1.79917,0 v 0.352777 m 0,0 h -1.79917 m -0.49389,-0.352777 v 0.352777 m 0.49389,0 h -0.10583 -0.0706 -0.10583 -0.0706 -0.0705 -0.0353 -0.0353 m 2.78695,0 v -0.352777 m 0,0.352777 v 0 h -0.0353 -0.0353 -0.0705 -0.0706 -0.0706 -0.10583 -0.10583 m -4.30389,-5.256388 v 0 l 0.0353,-0.03528 0.0353,-0.105833 m -1.30527,0 0.0353,0.105833 v 0.03528 h 0.0353 m 9.17222,0 v 0 l 0.0353,-0.03528 0.0353,-0.105833 m -1.34056,0 0.0353,0.105833 0.0353,0.03528 h 0.0353 m -6.42056,4.903611 v 0.352777 m 0,0 h -0.10583 -0.10583 -0.0706 -0.0706 -0.0705 -0.0353 -0.0353 m 1.5875,-0.352777 v 0.352777 m 0.49389,0 v 0 h -0.0353 -0.0353 -0.0706 -0.0705 -0.10584 -0.0705 -0.10584 m 3.81,-0.352777 v 0.352777 m 0,0 h -0.10583 -0.10583 -0.0706 -0.0705 -0.0706 -0.0706 -0.0353 m 1.62277,-0.352777 v 0.352777 m 0.49389,0 v 0 h -0.0353 -0.0353 -0.0706 -0.0705 -0.10584 -0.0705 -0.10584 m -4.90361,0 h -1.09361 m 5.99722,0 H 188.563 m -6.31472,0 v 0 m 8.78417,0 v 0 m -8.50195,0 v 0 m 0.24695,0 v 0 m 0.74083,0 v 0 m 0.24695,0 v 0 m 0.77611,0 v 0 m 0.21166,0 v 0 m 0.77611,0 v 0 m 0.24695,0 v 0 m 0.74083,0 v 0 m 0.24695,0 v 0 m 0.77611,0 v 0 m 0.21166,0 v 0 m 0.77612,0 v 0 m 0.24694,0 v 0 m 0.77611,0 v 0 m 0.21167,0 v 0 m 0.77611,0 v 0 m 0.21166,0 v 0 m -8.50194,0 v 0 m 0.77611,0 v 0 m 0.24695,0 v 0 m 0.77611,0 v 0 m 0.21166,0 v 0 m 0.77612,0 v 0 m 0.21166,0 v 0 m 0.77611,0 v 0 m 0.24695,0 v 0 m 0.77611,0 v 0 m 0.21167,0 v 0 m 0.77611,0 v 0 m 0.24694,0 v 0 m 0.74083,0 v 0 m 0.24695,0 v 0 m 0.77611,0 v 0 m 0.21167,0 v 0 m 0.77611,0 v 0 m -0.0353,0 v 0 m -2.2225,0 v 0 m -0.77611,0 v 0 m -2.2225,0 v 0 m -19.57917,0.07056 v -0.03528 m 5.53861,-0.141111 v 0.176389 m 0.35278,-0.176389 v 0.176389 m 0,-0.176389 h -0.35278 m 0,0.176389 v 0 -0.03528 -0.03528 -0.03528 -0.07056 -0.03528 -0.07055 m 0,0 V 45.66634 m 0,0 v 0.105834 m 0,0 v 0 0.03528 0.03528 0.03528 m 0.35278,-0.105833 h -0.35278 m 0.35278,0 v 0 0.03528 0.03528 0.03528 m 0,-0.211667 v 0.105834 m -1.72861,-0.07056 v 0.352778 m 0.56444,-0.352778 h -0.56444 m 0.56444,0.352778 v -0.352778 m -0.56444,0 v 0.352778 m 12.66472,-6.808611 v 0.740833 m 0.635,0 v -0.740833 m -0.635,0 v 0.740833 m -8.92528,6.067778 h -20.24944 m 18.27389,0 v -0.352778 m 0.24694,0.352778 v -0.352778 m 0,0 h -0.0353 m -0.14112,0 h -0.0705 m 0,0 v 0.352778 m -1.76389,-0.03528 v 0.03528 m 0,-0.03528 v 0.03528 m -0.635,-12.735277 v 12.699999 m -15.27528,0 h 15.27528 M 154.4492,33.319134 v 12.699999 m 13.6525,-10.406944 v 1.834445 m -12.02972,-1.834445 h 12.02972 m -12.02972,1.834445 v -1.834445 m -0.74083,1.834445 h 0.74083 m -0.74083,3.174999 v -3.174999 m 0.74083,3.174999 h -0.74083 m 0.74083,1.834445 v -1.834445 m 2.78695,1.834445 h -2.78695 m 2.78695,1.763889 v -1.763889 m 1.12888,1.763889 h -1.12888 m 1.12888,1.058333 v -1.058333 m 4.19806,1.058333 h -4.19806 m 4.19806,-1.058333 V 45.2783 m 1.12889,-1.058333 h -1.12889 m 1.12889,-1.763889 v 1.763889 m 2.78694,-1.763889 h -2.78694 m 2.78694,-1.834445 v 1.834445 m 0.74084,-1.834445 h -0.74084 m 0.74084,-3.174999 v 3.174999 m -0.74084,-3.174999 h 0.74084 m -14.39334,-4.1275 h 15.27528 M 154.4492,46.019133 v 0 m 0,-12.699999 v 12.699999 m 0,-12.699999 v 0 m 1.62278,4.162777 v -0.03528 m 0,0.03528 h -0.70555 m -0.0353,-0.03528 0.0353,0.03528 m 0,0 v 2.8575 m 0,0 v 0.246945 m 0,0 -0.0353,0.03528 m 0.0353,-0.03528 h 0.70555 m 0,0.03528 v -0.03528 m 12.02972,-3.139722 v 0.03528 m 0,0 v -1.693333 m 0,0 v -0.176392 m -3.91583,9.666111 v -1.058333 m 1.12889,0 v -0.564445 m 0,0 v -2.293055 m 0,0 v 1.093611 m 3.4925,-4.974167 0.0353,-0.03528 m -0.0353,0.03528 h -0.70556 m 0,3.880556 v -0.776111 m 0,0 v 0.03528 m 0,1.834445 V 41.36247 m 0,-0.776111 h 0.70556 m 0.0353,0.03528 -0.0353,-0.03528 m 0,-0.246945 v -2.8575 m 0,3.104445 v -0.246945 m -0.70556,-4.550833 h -2.2225 m -0.45861,0 h -0.56444 m -0.45861,0 h -0.56445 m -0.45861,0 h -0.56444 m -0.45861,0 h -0.52917 m -0.45861,0 h -0.56445 m -0.45861,0 h -0.56444 m -0.45861,0 h -0.56445 m -0.45861,0 h -2.2225 m 9.34861,-0.141111 0.0353,-0.03528 h 0.0353 0.0705 0.0706 0.0353 0.0705 0.0353 0.0353 0.0353 l 0.0353,0.03528 m 0,0 v 0 m -0.45861,0 v 0 m -0.98778,0 0.0353,-0.03528 h 0.0353 0.0353 0.0705 0.0353 0.0706 0.0353 0.0353 0.0706 v 0.03528 m 0,0 v 0 m -0.45861,0 v 0 h 0.0353 m -2.04611,0 0.0353,-0.03528 h 0.0353 0.0353 0.0705 0.0353 0.0706 0.0353 0.0706 0.0353 v 0.03528 m 0,0 v 0 m -0.45861,0 v 0 h 0.0353 m -1.02305,0 0.0353,-0.03528 h 0.0353 0.0353 0.0706 0.0353 0.0706 0.0353 0.0705 0.0353 v 0.03528 m 0,0 h 0.0353 m -0.45861,0 v 0 m -1.02306,0 0.0353,-0.03528 h 0.0353 0.0705 0.0353 0.0706 0.0353 0.0353 0.0706 0.0353 v 0.03528 m 0,0 h 0.0353 m -0.45861,0 v 0 m -1.02305,0 0.0353,-0.03528 h 0.0353 0.0706 0.0353 0.0705 0.0353 0.0353 0.0705 0.0353 v 0.03528 m 0,0 h 0.0353 m -0.45861,0 v 0 m -1.02306,0 0.0353,-0.03528 h 0.0353 0.0705 0.0353 0.0706 0.0353 0.0353 0.0706 0.0353 l 0.0353,0.03528 m 0,0 v 0 m -0.45861,0 v 0 m 5.11528,0 0.0353,-0.03528 h 0.0353 0.0353 0.0706 0.0353 0.0705 0.0353 0.0353 0.0705 v 0.03528 m 0,0 v 0 m -0.45861,0 v 0 h 0.0353 m 0.42333,0 v 0 l -0.0353,0.03528 v 0.03528 l -0.0353,0.03528 h -0.0353 l -0.0353,0.03528 h -0.0353 -0.0353 m -0.21167,-0.141111 v 0 l 0.0353,0.03528 v 0.03528 l 0.0353,0.03528 h 0.0353 l 0.0353,0.03528 h 0.0353 0.0353 m -4.86834,-0.141111 -0.0353,0.03528 -0.0705,0.07055 -0.0706,0.03528 h -0.0705 -0.0706 l -0.0705,-0.03528 -0.0353,-0.07055 -0.0353,-0.03528 m 1.44639,0 v 0.03528 l -0.0706,0.07055 -0.0705,0.03528 h -0.0706 -0.0705 l -0.0706,-0.03528 -0.0353,-0.07055 -0.0353,-0.03528 m 1.44639,0 -0.0353,0.03528 -0.0353,0.07055 -0.0706,0.03528 h -0.0705 -0.0706 l -0.0705,-0.03528 -0.0353,-0.07055 -0.0353,-0.03528 m 1.44639,0 -0.0353,0.03528 -0.0353,0.07055 -0.0706,0.03528 h -0.0706 -0.0705 l -0.0706,-0.03528 -0.0353,-0.07055 -0.0353,-0.03528 m 1.44639,0 -0.0353,0.03528 -0.0353,0.07055 -0.0705,0.03528 h -0.0706 -0.0706 l -0.0705,-0.03528 -0.0353,-0.07055 -0.0353,-0.03528 m 2.46945,0 -0.0353,0.03528 -0.0353,0.07055 -0.0705,0.03528 h -0.0706 -0.0705 l -0.0706,-0.03528 -0.0706,-0.07055 v -0.03528 m 1.44639,0 -0.0353,0.03528 -0.0353,0.07055 -0.0706,0.03528 h -0.0705 -0.0706 l -0.0705,-0.03528 -0.0706,-0.07055 -0.0353,-0.03528 m -1.79916,1.975555 h -0.0353 l -0.0353,-0.03528 h -0.0353 l -0.0353,-0.03528 -0.0353,-0.03528 -0.0353,-0.03528 v -0.03528 l -0.0353,-0.03528 v -0.03528 m 0.45861,0 v 0.03528 0.03528 l -0.0353,0.03528 v 0.03528 l -0.0353,0.03528 -0.0353,0.03528 h -0.0353 l -0.0353,0.03528 h -0.0353 m -5.11528,0 h -0.0353 l -0.0353,-0.03528 h -0.0353 l -0.0353,-0.03528 -0.0353,-0.03528 v -0.03528 l -0.0353,-0.03528 v -0.03528 -0.03528 m 0.45861,0 v 0.03528 l -0.0353,0.03528 v 0.03528 l -0.0353,0.03528 -0.0353,0.03528 v 0.03528 h -0.0353 l -0.0705,0.03528 h -0.0353 m 1.02305,0 h -0.0353 l -0.0353,-0.03528 h -0.0353 l -0.0353,-0.03528 -0.0353,-0.03528 v -0.03528 l -0.0353,-0.03528 v -0.03528 -0.03528 m 0.45861,0 v 0.03528 l -0.0353,0.03528 v 0.03528 l -0.0353,0.03528 -0.0353,0.03528 -0.0353,0.03528 h -0.0353 l -0.0353,0.03528 h -0.0353 m 1.02306,0 h -0.0353 l -0.0353,-0.03528 h -0.0353 l -0.0353,-0.03528 -0.0353,-0.03528 -0.0353,-0.03528 v -0.03528 -0.03528 -0.03528 m 0.45861,0 v 0.03528 l -0.0353,0.03528 v 0.03528 l -0.0353,0.03528 -0.0353,0.03528 -0.0353,0.03528 h -0.0353 l -0.0353,0.03528 h -0.0353 m 1.02305,0 h -0.0353 l -0.0353,-0.03528 h -0.0353 l -0.0353,-0.03528 -0.0353,-0.03528 -0.0353,-0.03528 v -0.03528 -0.03528 -0.03528 m 0.45861,0 -0.0353,0.03528 v 0.03528 0.03528 l -0.0353,0.03528 -0.0353,0.03528 -0.0353,0.03528 h -0.0353 l -0.0353,0.03528 h -0.0353 m 1.02306,0 h -0.0353 l -0.0353,-0.03528 h -0.0353 l -0.0353,-0.03528 -0.0353,-0.03528 -0.0353,-0.03528 v -0.03528 -0.03528 l -0.0353,-0.03528 m 0.45861,0 v 0.03528 0.03528 0.03528 l -0.0353,0.03528 -0.0353,0.03528 -0.0353,0.03528 h -0.0353 l -0.0353,0.03528 h -0.0353 m 2.04611,0 h -0.0353 l -0.0353,-0.03528 h -0.0353 l -0.0353,-0.03528 -0.0353,-0.03528 -0.0353,-0.03528 v -0.03528 l -0.0353,-0.03528 v -0.03528 m 0.45861,0 v 0.03528 0.03528 l -0.0353,0.03528 v 0.03528 l -0.0353,0.03528 -0.0353,0.03528 h -0.0353 l -0.0353,0.03528 h -0.0353 m 1.02306,0 h -0.0353 l -0.0706,-0.03528 h -0.0353 l -0.0353,-0.03528 v -0.03528 l -0.0353,-0.03528 v -0.03528 l -0.0353,-0.03528 v -0.03528 m 0.45861,0 v 0.03528 0.03528 l -0.0353,0.03528 v 0.03528 l -0.0353,0.03528 -0.0353,0.03528 h -0.0353 l -0.0353,0.03528 h -0.0353 m -9.94834,8.431389 v -0.03528 m 1.30528,0 v 0.03528 m 11.43,-0.03528 v 0.03528 m -1.30528,0 v -0.03528 m -11.07722,-4.656666 h 2.78695 m 0,1.093611 v -1.093611 m 6.45583,0 h 2.78694 M 155.36492,40.33943 h 13.44083 m -9.94833,3.316111 h 6.45583 m 9.03111,-0.811389 h -0.0706 l -0.0353,0.03528 h -0.0353 m 0,0.282222 h 0.0353 0.0353 0.0353 0.0353 m 0,-0.3175 h 0.0705 m -0.0705,0.3175 h 0.0705 m -0.0705,-0.3175 h -0.0706 l -0.0353,0.03528 h -0.0353 m -10.58333,3.175 v -0.03528 m 0,-0.740833 v -0.881945 m 0,0 v 0.881945 m 0,0.740833 v 0.03528 m 0,-1.658056 h -0.635 m 0,1.658056 v -0.03528 m 0,-0.740833 v -0.881945 m 0.49388,-0.282222 0.14112,0.282222 m 0,0 -0.14112,-0.282222 m -0.49388,0.282222 0.17638,-0.282222 m 0,0 h 0.3175 m -4.83305,1.905 v 0.03528 m 0,0 v -0.03528 m -0.10583,0 v 0.03528 m 0,0 v -0.03528 m -0.635,0 v 0.03528 m 27.65777,-6.067778 v -0.740833 m 0,0.740833 v -0.740833 m -31.67944,5.009444 h -0.0353 m 0.59972,-0.282222 h -0.59972 m 0.59972,-1.799166 h -0.59972 m 0.0353,3.63361 h 0.56444 m -0.56444,0.246945 v -0.246945 m 0,0 v 0 -0.03528 m 0,0.03528 v 0.07056 0.03528 0.03528 0.03528 0.03528 0.03528 m 0,-1.693333 v 1.446388 m 0,-1.552222 v 0 0.03528 0.03528 0.03528 m 0,-0.352778 v 0.246944 m 0,0.03528 v -0.03528 -0.07055 -0.03528 -0.03528 -0.03528 -0.03528 -0.03528 m 0,0.282222 v 1.481667 m 0.56444,-1.763889 h -0.56444 m 20.39055,1.693333 v 0.105833 m 0,-0.105833 h 0.0353 m 5.3975,22.36611 v -0.9525 m -10.01889,0.9525 v -0.9525 m 10.01889,0 h -10.01889 m 10.01889,0.9525 h -10.01889 m -0.49389,0 v -0.9525 m 0.49389,0 h -0.0705 -0.10584 -0.10583 -0.0706 -0.0353 -0.0706 -0.0353 m 0.49389,0.9525 h -0.0705 -0.10584 -0.10583 -0.0706 -0.0353 -0.0706 -0.0353 m 11.00667,0 v -0.9525 m 0,0 v 0 h -0.0353 -0.0353 -0.0705 -0.0706 -0.10583 -0.0706 -0.10583 m 0.49389,0.9525 v 0 h -0.0353 -0.0353 -0.0705 -0.0706 -0.10583 -0.0706 -0.10583 m -2.15194,-0.9525 v 0 m 0,0 h 0.81139 m 0,0 v 0 m -6.42056,0 v 0 m 0,0 h 0.81139 m 0,0 v 0 m 2.54,0 v 0 m 0,0 h 0.81139 m 0,0 v 0 m 2.57528,0 v 0 m 0,0 h 0.81138 m 0,0 v 0 m -6.42055,0 v 0 m 0,0 h 0.81139 m 0,0 v 0 m 2.54,0 v 0 m 0,0 h 0.81139 m 0,0 v 0 m -6.42056,0 v 0 m 0,0 h 0.81139 m 0,0 v 0 m 2.57528,0 v 0 m 0,0 h 0.77611 m 0,0 v 0 m -6.87917,-0.493889 -0.0353,0.105834 -0.0353,0.105833 0.0353,0.105833 0.0353,0.105834 m 0,0 0.56445,1.199444 m 0,0 -0.24695,0.141111 m 0,0 -0.59972,-1.199444 m 0,0 -0.0706,-0.176389 v -0.176389 l 0.0353,-0.176389 v -0.03528 m 0.3175,0 v 0 m 0.56445,1.622778 0.10583,0.176389 0.0706,0.176389 0.0705,0.105833 v 0.03528 m -0.24694,0.105833 -0.0353,-0.03528 -0.0353,-0.105833 -0.10583,-0.141111 -0.0706,-0.176389 m 0.49389,0.352778 -0.24694,0.105833 m 0,0 0.24694,-0.105833 m 0.14111,-0.846667 h -0.14111 m 0.14111,0 v -0.917222 m 0,0 h 1.16417 m 0,0 h 1.19944 m 0,0 v -0.141111 m 0,0 h 0.35278 m 0,0 v 0.141111 m 0,0 h 0.77611 m 0,0 v -0.141111 m 0,0 h 0.3175 m 0,0 v 0.141111 m 0,0 h 0.77611 m 0,0 v -0.141111 m 0,0 h 0.3175 m 0,0 v 0.141111 m 0,0 h 0.77611 m 0,0 v -0.141111 m 0,0 h 0.35278 m 0,0 v 0.141111 m 0,0 h 0.74084 m 0,0 v -0.141111 m 0,0 h 0.35277 m 0,0 v 0.141111 m 0,0 h 0.74084 m 0,0 v -0.141111 m 0,0 h 0.35277 m 0,0 v 0.141111 m 0,0 h 0.74084 m 0,0 v -0.141111 m 0,0 h 0.35278 m 0,0 v 0.141111 m 0,0 h 0.77611 m 0,0 v -0.141111 m 0,0 h 0.3175 m 0,0 v 0.141111 m 0,0 h 0.28222 m 0,-0.352778 v 0.352778 m -9.66611,-0.352778 v 0.176389 m 0,0 h -1.23472 m 0.17638,-0.03528 h -0.14111 m -0.14111,0 v 0 m 0,0 v -0.141111 m 0.3175,0.176389 v 0 -0.03528 h -0.0353 m 0.21167,0.03528 v -0.03528 l -0.0353,-0.03528 m 7.76111,0.388055 v -0.211667 m -0.0353,-0.07055 h 0.0353 v 0.03528 0.03528 m 0.88195,0.07056 v 0.141111 m 1.19944,0 v -0.141111 m 0.42334,-0.141111 v 0.282222 m -10.51278,0.811389 h 0.24694 m 0,0.105833 h -0.24694 m 0,0 h -0.0353 -0.0353 l -0.0353,-0.03528 -0.0353,-0.03528 -0.0353,-0.03528 -0.0353,-0.03528 v -0.03528 -0.03528 m 0,-0.987778 v 0.987778 m 0.10584,-1.199445 v 0 l -0.0353,0.03528 -0.0353,0.03528 -0.0353,0.03528 v 0.03528 0.07056 m 0.77611,-0.105833 v -0.105834 m -0.56444,0.105834 h 0.56444 m -0.67027,0.105833 v -0.03528 l 0.0353,-0.03528 0.0353,-0.03528 h 0.0353 m -0.10583,1.093611 v -0.987778 m 0.10583,1.093611 v 0 h -0.0353 v -0.03528 h -0.0353 l -0.0353,-0.03528 v -0.03528 m -0.10584,-0.987778 v -0.03528 -0.03528 -0.03528 -0.03528 m 0.77611,0.03528 h 0.0353 0.0353 0.0353 m 10.83027,1.305277 h -0.24694 m 0.35278,-0.211666 v -0.987778 m -0.10584,-0.105833 h -0.24694 m 0.35278,-0.105834 h 0.0353 l 0.0353,0.03528 0.0353,0.03528 v 0.03528 0.03528 l 0.0353,0.07056 m 0,0 v 0.987778 m 0,0 -0.0353,0.03528 v 0.03528 0.03528 l -0.0353,0.03528 -0.0353,0.03528 -0.0353,0.03528 h -0.0353 -0.0706 m -0.24694,-0.105833 h 0.24694 m -0.24694,-1.199444 v -0.105834 m 0.35278,0.211667 v -0.03528 -0.03528 h -0.0353 v -0.03528 h -0.0353 -0.0353 m 0.10584,1.093611 v 0.03528 0.03528 h -0.0353 l -0.0353,0.03528 h -0.0353 m 0.24695,-1.234722 v 0 0.03528 0.03528 0.03528 m -0.59972,-0.07056 v 0 h 0.0353 0.0353 0.0353 m -11.35944,-0.105834 v 0 m 11.71222,0 v 0 m -9.59556,0.493889 v -0.141111 m 2.11667,0.141111 v -0.141111 m 7.58472,-0.282222 h 0.0353 m -8.81945,0.423333 v -0.141111 m 2.08139,-0.07056 v -0.03528 -0.03528 m 0,0.07055 v 0.211667 m 5.96195,-0.352778 h -0.17639 m 0.17639,0 V 66.62139 m 1.79916,0 H 167.3939 m 2.32833,-30.903331 h 0.59972 m 1.27,0.423333 v 0.564444 m 0,0 h -1.86972 m 1.86972,0.105834 v -0.105834 m 0,0 h 0.10584 0.0353 m -3.73944,-4.198055 v -0.03528 m 2.04611,0.03528 h -2.04611 m 0.38805,0.811389 -0.0353,-0.105834 -0.35278,-0.705555 m -0.59972,35.418887 h 0.77611 m 0.35278,0 h 0.24694 m 11.88861,0 h 1.09361 M 166.23198,46.019133 v 0.03528 m 3.52778,-0.03528 v 0.03528 m 15.76916,-0.07056 v 0 m -31.64416,-0.211664 h 0.56444 m 0,-1.481667 h -0.56444"
       style="fill:none;stroke:#000000;stroke-width:0.179917;stroke-linecap:round;stroke-linejoin:round;stroke-miterlimit:10;stroke-dasharray:none;stroke-opacity:1" />
    <path
       id="path7-2"
       d="m 174.20476,37.587744 v 0 m -3.10444,6.985 v 0 m 0.9525,-0.493889 v 0 m 1.16416,-5.997222 v 0 m 20.91972,2.716389 v 0 m -14.95777,2.575277 v 0 m 0,0 v 0 m 2.08139,-0.529166 v 0 m 10.79499,-0.282223 v 0 m -27.26972,-9.630832 v 0 m 3.175,-0.352778 v 0 m -25.85861,-2.046111 v 0 m 0,38.69972 v 0 m 0,1.481667 v 0 M 170.3242,32.966355 v 0 m 0,2.681111 v 0 m 4.09223,1.905 v 0 m 0,7.62 v 0 m 7.33777,21.660554 v 0 m 10.795,-21.343054 v 0 m 0.77611,-0.846667 v 0 m 1.41112,-3.81 v 0 m -1.09362,3.739445 v 0 m 1.09362,-1.552222 v 0 M 165.35004,32.966355 v 0 m -9.56028,15.5575 v 0 m -0.9525,2.575277 v 0 m 1.5875,-1.023055 v 0 m 0.35278,1.023055 v 0 m -0.21167,-0.599722 v 0 m 0.84667,-1.975555 v 0 m 0,0.423333 v 0 m 0.74083,2.151944 v 0 m 0,-2.151944 v 0 m 2.2225,0.776111 v 0 m -0.88194,1.375833 v 0 m 0.10583,-2.575277 v 0 m 1.55222,0 v 0 m 0.10584,2.575277 v 0 m 18.62666,0 v 0 m -0.9525,-2.575277 v 0 m 1.905,0 v 0 m 0.70556,0 v 0 m 0,2.575277 v 0 m 1.02305,-2.575277 v 0 m 0,2.575277 v 0 m 1.19945,-2.116666 v 0 m 0.0353,1.658055 v 0 m 0.42333,-0.846667 v 0 m 0.91722,-1.269999 v 0 m 0,2.575277 v 0 m 2.25778,-1.27 v 0 m 1.23472,1.27 v 0 m -1.09361,-1.940277 v 0 m 0.52917,-0.564445 v 0 m 0.56444,-0.105833 v 0 m 2.61056,2.610555 v 0 m 0,-2.575277 v 0 m 1.02305,2.575277 v 0 m 0,-2.575277 v 0 m 1.48167,2.575277 v 0 m 0.0353,-2.575277 v 0 m -26.67,0 v 0 m 0,1.340555 v 0 m 0.0353,0.670278 v 0 m 0.98778,0.564444 v 0 m 0.49389,-1.164166 v 0 m 0,-1.411111 v 0 m 1.97556,2.575277 v 0 m -0.0706,-2.610555 v 0 m -0.91722,0.705555 v 0 m 0.24694,0.493889 v 0 m 0.59973,0.282222 v 0 m 0.42333,0.105834 v 0 m 0.21167,0.246944 v 0 m 0.9525,0.776111 v 0 m 0,-2.575277 v 0 m 1.27,0.423333 v 0 m -0.0353,0.564444 v 0 m 0.38805,0.811389 v 0 m -0.28222,0.3175 v 0 m 0.17639,-1.411111 v 0 m -2.57528,-11.747499 v 0 m 0,0 v 0 m -9.91305,6.914444 v 0 m -0.14111,-0.282222 v 0 m 32.20861,-4.1275 v 0 m -13.0175,0 v 0 m -0.98778,0.987777 v 0 m 0,2.187223 v 0 m 0,0 v 0 m 14.49916,-2.187223 v 0 m -13.65249,2.681111 v 0 m 0.35277,0.105834 v 0 m 1.19945,1.128889 v 0 m 0.38805,0.141111 v 0 m 9.45445,0 v 0 m -8.04334,0 v 0 m 6.59695,0 v 0 m 3.35139,-1.375834 v 0 m 0.35277,-0.493888 v 0 m -0.70555,0.599722 v 0 m -1.19945,1.128889 v 0 m -11.71223,-0.564445 v 0 m -0.38805,0 v 0 m 13.61722,0 v 0 m 0.38805,0 v 0 m -13.22916,0.141111 v 0 m 0.88194,0.987778 v 0 m 0.38806,0.176389 v 0 m 6.35,0 v 0 m -2.78695,0 v 0 m -2.08138,0 v 0 m 8.46666,0 v 0 m -1.48167,0 v 0 m 2.75167,-1.164167 v 0 m -0.91722,0.987778 v 0 m -9.59556,-3.069166 v 0 m 0.52917,0 v 0 m 0.45861,0 v 0 m 0.52917,0 v 0 m 0.45861,0 v 0 m 0.56444,0 v 0 m 0.45861,0 v 0 m 0.52917,0 v 0 m 0.45861,0 v 0 m 0.56445,0 v 0 m 0.42333,0 v 0 m 0.56444,0 v 0 m 0.45862,0 v 0 m 0.52916,0 v 0 m 0.45861,0 v 0 m 0.56445,0 v 0 m 0.42333,0 v 0 m 0.56445,0 v 0 m 0.45861,0 v 0 m 0.45861,0 v 0 m -10.40695,0 v 0 m 0.49389,0 v 0 m -0.67027,0.211666 v 0 m 0,0.211667 v 0 m 2.11666,-0.493889 v 0 m -0.45861,0 v 0 m 1.44639,0 v 0 m -0.45861,0 v 0 m 1.48166,0 v 0 m -0.45861,0 v 0 m 1.44639,0 v 0 m -0.45861,0 v 0 m 1.44639,0 v 0 m -0.42333,0 v 0 m 1.44639,0 v 0 m -0.45862,0 v 0 m 1.44639,0 v 0 m -0.45861,0 v 0 m 1.44639,0 v 0 m -0.42333,0 v 0 m 1.44639,0 v 0 m -0.45861,0 v 0 m -8.53723,0 v 0 m -0.45861,0 v 0 m -10.19527,3.563055 v 0 m -1.37584,-0.176389 v 0 m 1.76389,0 v 0 M 168.1017,35.612189 v 0 m -3.91583,8.607777 v 0 m 0,1.058333 v 0 m 1.12889,-1.622778 v 0 m 0,-2.293055 v 0 m 0,1.093611 v 0 m 0,1.763889 v 0 m 2.78694,-2.8575 v 0 m 0,1.093611 v 0 m -4.48027,1.940278 v 0 m -0.14111,-0.282222 v 0 m -9.59556,0.141111 v 0 m 0,-0.246945 v 0 m 0,1.799167 v 0 m 15.02833,22.930554 v 0 m -0.24694,0.105834 v 0 m 0.35278,-2.081389 v 0 m 0,0 v 0 m -0.28223,-0.07056 v 0 m 0,0 v 0 m 0.88195,0.03528 v 0 m 11.07722,-0.03528 v 0 m -0.59972,0.03528 v 0 m 0,0 v 0"
       style="fill:none;stroke:#000000;stroke-width:0.179917;stroke-linecap:round;stroke-linejoin:round;stroke-miterlimit:10;stroke-dasharray:none;stroke-opacity:1" />
  </g>
</svg>
