<?xml version="1.0" encoding="UTF-8" standalone="no"?>
<!-- Created with Inkscape (http://www.inkscape.org/) -->

<svg
   width="55.656345mm"
   height="72.344116mm"
   viewBox="0 0 55.656345 72.344119"
   version="1.1"
   id="svg1"
   inkscape:version="1.4 (e7c3feb100, 2024-10-09)"
   sodipodi:docname="v3-top-view-numbered.svg"
   xmlns:inkscape="http://www.inkscape.org/namespaces/inkscape"
   xmlns:sodipodi="http://sodipodi.sourceforge.net/DTD/sodipodi-0.dtd"
   xmlns="http://www.w3.org/2000/svg"
   xmlns:svg="http://www.w3.org/2000/svg">
  <title
     id="title1">PIKVM V3 Line Drawings</title>
  <sodipodi:namedview
     id="namedview1"
     pagecolor="#ffffff"
     bordercolor="#000000"
     borderopacity="0.25"
     inkscape:showpageshadow="2"
     inkscape:pageopacity="0.0"
     inkscape:pagecheckerboard="0"
     inkscape:deskcolor="#d1d1d1"
     inkscape:document-units="mm"
     inkscape:zoom="2"
     inkscape:cx="184.75"
     inkscape:cy="161.25"
     inkscape:window-width="1280"
     inkscape:window-height="681"
     inkscape:window-x="0"
     inkscape:window-y="0"
     inkscape:window-maximized="1"
     inkscape:current-layer="layer1"
     showguides="false">
    <inkscape:page
       x="9.4554725e-06"
       y="0"
       width="55.656349"
       height="72.344124"
       id="page3"
       inkscape:label="v3-top-view-numbered"
       margin="0"
       bleed="0"
       inkscape:export-filename="v3-left-view-numbered.svg"
       inkscape:export-xdpi="96"
       inkscape:export-ydpi="96" />
    <sodipodi:guide
       position="-199.43023,31.443381"
       orientation="0,-1"
       id="guide13"
       inkscape:locked="false" />
    <sodipodi:guide
       position="-220.57125,74.499725"
       orientation="0,-1"
       id="guide16"
       inkscape:locked="false" />
    <sodipodi:guide
       position="-184.66975,63.313164"
       orientation="0,-1"
       id="guide17"
       inkscape:locked="false" />
    <sodipodi:guide
       position="-125.45589,16.362134"
       orientation="0,-1"
       id="guide18"
       inkscape:locked="false" />
    <sodipodi:guide
       position="-103.46726,36.941047"
       orientation="0,-1"
       id="guide26"
       inkscape:locked="false" />
    <sodipodi:guide
       position="-273.95177,9.235627"
       orientation="1,0"
       id="guide5"
       inkscape:locked="false" />
    <sodipodi:guide
       position="-82.997363,13.991088"
       orientation="1,0"
       id="guide6"
       inkscape:locked="false" />
    <sodipodi:guide
       position="-124.44286,-70.91499"
       orientation="0,-1"
       id="guide7"
       inkscape:locked="false" />
    <sodipodi:guide
       position="-242.89512,24.313622"
       orientation="1,0"
       id="guide1"
       inkscape:locked="false" />
    <sodipodi:guide
       position="-135.55716,57.580565"
       orientation="1,0"
       id="guide2"
       inkscape:locked="false" />
    <sodipodi:guide
       position="-205.64181,14.774631"
       orientation="0,-1"
       id="guide3"
       inkscape:locked="false" />
    <sodipodi:guide
       position="54.984462,59.565946"
       orientation="0,-1"
       id="guide4"
       inkscape:locked="false" />
    <sodipodi:guide
       position="150.90918,25.92806"
       orientation="1,0"
       id="guide8"
       inkscape:locked="false" />
  </sodipodi:namedview>
  <defs
     id="defs1" />
  <g
     inkscape:label="Layer 1"
     inkscape:groupmode="layer"
     id="layer1"
     transform="translate(-331.77518,-14.816667)">
    <path
       style="font-variation-settings:normal;opacity:1;vector-effect:none;fill:none;fill-opacity:1;stroke:#005cd8;stroke-width:0.529167;stroke-linecap:round;stroke-linejoin:round;stroke-miterlimit:4;stroke-dasharray:none;stroke-dashoffset:0;stroke-opacity:1;-inkscape-stroke:none;stop-color:#000000;stop-opacity:1"
       d="m 378.96767,72.386161 v 9.160986"
       id="path31"
       sodipodi:nodetypes="cc" />
    <circle
       style="font-variation-settings:normal;opacity:1;vector-effect:none;fill:#005cd8;fill-opacity:1;stroke:none;stroke-width:0.529167;stroke-linecap:butt;stroke-linejoin:miter;stroke-miterlimit:4;stroke-dasharray:none;stroke-dashoffset:0;stroke-opacity:1;-inkscape-stroke:none;stop-color:#000000;stop-opacity:1"
       id="circle31"
       cx="378.9671"
       cy="83.616585"
       r="2.0694654" />
    <path
       style="font-weight:800;font-size:2.91279px;line-height:1.25;font-family:Cantarell;-inkscape-font-specification:'Cantarell Ultra-Bold';fill:#ffffff;stroke-width:0.529167"
       d="m 378.82264,84.627327 h 0.50391 v -2.021476 h -0.30002 l -0.81267,0.404877 0.18934,0.361186 0.41944,-0.174767 z"
       id="text31"
       aria-label="1" />
    <path
       id="path15-1"
       d="m 385.00846,51.279871 h -0.28387 m 0,1.66219 h 0.28387 m 0.91245,0 0.0608,-0.02029 0.20278,-0.08109 0.16221,-0.141897 0.14194,-0.162165 0.0811,-0.202707 0.0203,-0.222973 -0.0203,-0.202708 -0.0811,-0.202707 -0.14194,-0.182435 -0.16221,-0.12162 -0.20278,-0.08109 -0.0608,-0.02029 m -47.16342,-19.01382 -0.0406,-0.263516 -0.0608,-0.243247 -0.14194,-0.243244 -0.16223,-0.202708 -0.20275,-0.162162 -0.22306,-0.121627 -0.26358,-0.08109 -0.2636,-0.02029 -0.2636,0.02029 -0.24331,0.08109 -0.24333,0.121627 -0.20277,0.162162 -0.16221,0.202708 -0.14194,0.243244 -0.0608,0.243247 -0.0406,0.263516 0.0406,0.263517 0.0608,0.263524 0.14194,0.222972 0.16221,0.202708 0.20277,0.182436 0.24333,0.121625 0.24331,0.08109 0.2636,0.02029 0.2636,-0.02029 0.26358,-0.08109 0.22306,-0.121625 0.20275,-0.182436 0.16223,-0.202708 0.14194,-0.222972 0.0608,-0.263524 0.0406,-0.263517 m -1.15577,-0.202701 0.24332,0.08108 m -0.24332,-0.08108 -0.0608,-0.243251 m 0,-0.304055 v 0.304055 m -0.28387,-0.304055 h 0.0405 l 0.0406,-0.02029 h 0.0203 0.0406 0.0406 0.0203 l 0.0406,0.02029 h 0.0406 m -0.28388,0.304055 v -0.304055 m 0,0.304055 -0.0608,0.243251 m 0,0 -0.24332,0.08108 m -0.30415,0 h 0.30415 m -0.32442,0.121619 v -0.02029 -0.02029 -0.02029 -0.02029 -0.02029 -0.02029 h 0.0203 m 0,0.263518 -0.0203,-0.02029 v -0.02029 -0.02029 -0.02029 -0.02029 -0.02029 -0.02029 m 0.32442,0.141897 H 336.649 m 0.30415,0 0.24332,0.06081 m 0,0 0.0608,0.243246 m 0,0.324332 v -0.324332 m 0.14194,0.324332 h -0.0203 -0.0203 -0.0203 -0.0203 -0.0203 -0.0203 -0.0203 m 0.28388,0 h -0.0203 -0.0203 -0.0203 -0.0203 -0.0203 -0.0203 -0.0203 m 0.14194,-0.324332 V 33.0563 m 0,-0.324332 0.0608,-0.243246 m 0,0 0.24331,-0.06081 m 0.32443,0 h -0.32443 m 0.32443,-0.141897 v 0.02029 0.02029 0.02029 0.02029 0.02029 0.02029 0.02029 m 0,-0.263518 v 0 0.02029 0.02029 0.02029 0.02029 0.02029 0.02029 m -0.32443,-0.121619 h 0.32443 m -0.32443,0.06081 -0.16221,-0.04056 -0.14194,-0.02029 m 0.0608,-0.08108 -0.0608,0.08108 m 0.30415,0 v 0.06081 m 0.32443,-0.06081 -0.0406,0.04057 m 0,0 -0.28387,0.02029 m -0.56775,0.202708 -0.1825,-0.04056 -0.14192,-0.02029 m 0.32442,0.06082 -0.0811,0.06081 m -0.24336,-0.121612 v 0.06082 m 0.30416,-0.891905 0.0406,0.02029 m 0,0 0.0406,0.30406 m 0,0 -0.0811,-0.02029 m 0.0203,0.324332 0.0203,-0.162163 0.0406,-0.141897 m -0.0608,0.30406 -0.0811,-0.08109 m -0.54747,0.344599 0.0203,-0.04056 m 0,0 0.28389,-0.02029 m 0.50691,-0.506763 0.0406,0.141897 0.0406,0.162163 m -0.0811,-0.30406 0.0811,-0.02029 m -0.0811,0.891905 0.0406,-0.14189 0.0406,-0.162165 m 0.0608,0.06081 -0.0608,-0.06081 m 0,0.304055 h -0.0811 m 0.0811,0.324332 -0.0406,-0.04056 m -0.0406,-0.283788 0.0406,0.283788 m 0,-1.459482 -0.0406,0.30406 m 0.0811,-0.324326 -0.0406,0.02029 m -0.22305,0.608122 -0.18249,0.02029 -0.14193,0.04056 m 0,-0.06081 v 0.06081 m 0.32442,0.202707 0.0203,0.162164 0.0406,0.141892 m -0.0811,0 h 0.0811 m 0.5069,-0.364872 -0.16221,0.02029 -0.14192,0.04056 m 0.30413,0 v -0.06082 m -1.17604,-0.162164 v 0 0.02029 0.02029 0.02029 0.02029 m -0.0406,0 h 0.0406 m -0.0203,-0.12162 0.0203,0.04056 m 0,0.08109 v 0.02029 0.02029 0.02029 0.02029 0.02029 m 0.72997,0.668932 v -0.04056 m 0.10139,0 h -0.0203 -0.0203 -0.0203 -0.0203 -0.0203 m -0.10139,0 h 0.0203 0.0203 0.0203 0.0203 0.0203 m -0.14194,0.04056 0.0406,-0.04056 m 0.83134,-0.729741 h 0.0406 m -0.0406,0 v 0 -0.02029 -0.02029 -0.02029 -0.02029 m 0,0.08109 v 0.02029 0.02029 0.02029 0.02029 0.02029 m 0.0406,0.04057 -0.0406,-0.04057 m -0.83134,-0.831094 h 0.0406 0.0203 0.0203 0.0203 0.0203 0.0203 0.0406 0.0203 m -0.16221,1.175694 -0.0406,0.283788 m -0.34471,-0.790551 -0.28388,-0.02029 m 1.45992,0.182436 -0.28387,-0.02029 m 0,27.953152 h 0.32443 m 0,0 -0.0406,0.04052 m 0,0 -0.28388,0.02029 m 0,-0.06081 v 0.06081 m 0,0 -0.16221,-0.04052 -0.14195,-0.02029 m 0.0608,-0.08109 -0.0608,0.08109 m 0.0608,-0.08109 0.24332,0.08109 m 0.91246,0.121619 -0.0406,-0.263518 -0.0608,-0.243245 -0.14194,-0.243244 -0.16222,-0.202709 -0.20277,-0.162163 -0.22304,-0.121625 -0.26359,-0.08109 -0.2636,-0.02029 -0.2636,0.02029 -0.24332,0.08109 -0.24331,0.121625 -0.20277,0.162163 -0.16221,0.202709 -0.14194,0.243244 -0.0608,0.243245 -0.0405,0.263518 0.0405,0.263522 0.0608,0.263517 0.14194,0.222974 0.16221,0.202707 0.20277,0.182435 0.24331,0.121625 0.24332,0.08109 0.2636,0.02029 0.2636,-0.02029 0.26359,-0.08109 0.22304,-0.121625 0.20277,-0.182435 0.16222,-0.202707 0.14194,-0.222974 0.0608,-0.263517 0.0406,-0.263522 m -1.15578,-0.202702 -0.0608,-0.243251 m 0,-0.304054 v 0.304054 m -0.28385,-0.304054 h 0.0405 l 0.0406,-0.02029 h 0.0203 0.0406 0.0406 0.0203 l 0.0406,0.02029 h 0.0406 m -0.28387,0.304054 v -0.304054 m 0,0.304054 -0.0608,0.243251 m 0,0 -0.24331,0.08109 m -0.30416,0 h 0.30416 m -0.32443,0.121619 v -0.02029 -0.02029 -0.02029 -0.02029 -0.02029 -0.02029 h 0.0203 m 0,0.263518 -0.0203,-0.02029 v -0.02029 -0.02029 -0.02029 -0.02029 -0.02029 -0.02029 m 0.32443,0.141898 h -0.30416 m 0.30416,0 0.24331,0.06081 m 0,0 0.0608,0.243251 m 0,0.324327 v -0.324327 m 0.14193,0.324327 h -0.0203 -0.0203 -0.0203 -0.0203 -0.0203 -0.0203 -0.0203 m 0.28388,0 h -0.0203 -0.0203 -0.0203 -0.0203 -0.0203 -0.0203 -0.0203 m 0.14194,-0.324327 v 0.324327 m 0,-0.324327 0.0608,-0.243251 m 0,0 0.24332,-0.06081 m 0.32443,0 h -0.32442 m 0.32443,-0.141898 v 0.02029 0.02029 0.02029 0.02029 0.02029 0.02029 0.02029 m 0,-0.263518 v 0 0.02029 0.02029 0.02029 0.02029 0.02029 0.02029 m -0.89217,0.141897 -0.1825,-0.04056 -0.14193,-0.02029 m 0.32443,0.06081 -0.0811,0.06081 m -0.24331,-0.12162 v 0.06081 m 0.32442,-0.263517 0.0203,-0.162163 0.0406,-0.141898 m -0.0608,0.304061 -0.0811,-0.08109 m 0.14194,-0.222979 -0.0811,-0.02029 m -0.60831,0.58785 0.0203,-0.04056 m 0,0 0.28387,-0.02029 m 0.30415,-0.831096 0.0406,0.02029 m 0,0 0.0406,0.30406 m 0.12167,0 0.0406,0.141897 0.0406,0.162164 m -0.0811,-0.304061 0.0811,-0.02029 m -0.0811,0.89191 0.0406,-0.141897 0.0406,-0.162164 m 0.0608,0.06081 -0.0608,-0.06081 m 0,0.304061 h -0.0811 m 0.0811,0.324327 -0.0406,-0.04056 m -0.0406,-0.283783 0.0406,0.283783 m 0,-1.459484 -0.0406,0.304061 m 0.0811,-0.324326 -0.0406,0.02029 m -0.22305,0.871641 0.0203,0.162163 0.0406,0.141897 m -0.0811,0 h 0.0811 m -0.0608,-0.567579 -0.18249,0.02029 -0.14193,0.04052 m 0,-0.06081 v 0.06081 m 0.89217,0.141897 -0.1622,0.02029 -0.14195,0.04056 m 0.30415,0 v -0.06081 m 0.28387,-0.08109 v 0.02029 0.02029 0.02029 0.02029 0.02029 m 0,-0.101355 h 0.0406 m 0,0.141898 -0.0406,-0.04057 m -1.50046,-0.101355 h 0.0406 m 0,0 v 0.02029 0.02029 0.02029 0.02029 0.02029 m 0.72996,0.66893 v -0.04056 m 0.10139,0 h -0.0203 -0.0203 -0.0203 -0.0203 -0.0203 m -0.1014,0 h 0.0203 0.0203 0.0203 0.0203 0.0203 m -0.14194,0.04056 0.0406,-0.04056 m 0.83135,-0.729741 v 0 -0.02029 -0.02029 -0.02029 -0.02029 m -1.45992,0 v 0 0.02029 0.02029 0.02029 0.02029 m -0.0203,-0.121619 0.0203,0.04051 m 0.62857,-0.648659 h 0.0406 0.0203 0.0203 0.0203 0.0203 0.0203 0.0406 0.0203 m -0.54746,0.668931 -0.28388,-0.02029 m 1.45992,0.182435 -0.28387,-0.02029 m -0.50692,0.36487 -0.0406,0.283784 m 33.88225,-29.007214 h 0.32442 m 0,0 -0.0405,0.04057 m 0,0 -0.28388,0.02029 m 0,-0.06081 v 0.06081 m 0.91245,0.06081 -0.0406,-0.263517 -0.0608,-0.243244 -0.12166,-0.243246 -0.18248,-0.202707 -0.20277,-0.162163 -0.22304,-0.121625 -0.2636,-0.08109 -0.2636,-0.02029 -0.2636,0.02029 -0.24332,0.08109 -0.24332,0.121625 -0.20275,0.162163 -0.16223,0.202707 -0.12166,0.243246 -0.0811,0.243244 -0.0203,0.263517 0.0203,0.263518 0.0811,0.263522 0.12166,0.222973 0.16223,0.202708 0.20275,0.182435 0.24332,0.121626 0.24332,0.08109 0.2636,0.02029 0.2636,-0.02029 0.2636,-0.08109 0.22304,-0.121626 0.20277,-0.182435 0.18248,-0.202708 0.12166,-0.222973 0.0608,-0.263522 0.0406,-0.263518 m -1.15576,-0.202701 0.24331,0.08109 m -0.24331,-0.08109 -0.0608,-0.243251 m 0,-0.304055 v 0.304055 m -0.28388,-0.304055 h 0.0406 l 0.0405,-0.02029 h 0.0203 0.0406 0.0406 0.0203 l 0.0406,0.02029 h 0.0405 m -0.28388,0.304055 v -0.304055 m 0,0.304055 -0.0608,0.243251 m 0,0 -0.24333,0.08109 m -0.30414,0 h 0.30414 m -0.32442,0.121621 v -0.02029 -0.02029 -0.02029 -0.02029 -0.02029 l 0.0203,-0.02029 m 0,0.263517 v -0.02029 l -0.0203,-0.02029 v -0.02029 -0.02029 -0.02029 -0.02029 -0.02029 m 0.32442,0.141898 h -0.30414 m 0.30414,0 0.24333,0.06081 m 0,0 0.0608,0.243245 m 0,0.324333 v -0.324333 m 0.14194,0.324333 h -0.0203 -0.0203 -0.0203 -0.0203 -0.0203 -0.0203 -0.0203 m 0.28388,0 h -0.0203 -0.0203 -0.0203 -0.0203 -0.0203 -0.0203 -0.0203 m 0.14194,-0.324333 v 0.324302 m 0,-0.324332 0.0608,-0.243246 m 0,0 0.24332,-0.06081 m 0.32442,0 h -0.32442 m 0.32442,-0.141897 v 0.02029 0.02029 0.02029 0.02029 0.02029 0.02029 0.02029 m 0,-0.263518 v 0 0.02029 0.02029 0.02029 0.02029 0.02029 0.02029 m -0.32442,-0.06081 -0.16222,-0.04056 -0.14193,-0.02029 m 0.0608,-0.08109 -0.0608,0.08109 m -0.2636,0.263516 -0.16221,-0.04057 -0.16222,-0.02029 m 0.32443,0.06082 -0.0811,0.06081 m -0.2433,-0.121697 v 0.06082 m 0.30416,-0.891905 0.0406,0.02029 m 0,0 0.0406,0.30406 m 0,0 -0.0811,-0.02029 m -0.6083,0.58785 0.0203,-0.04057 m 0,0 0.28388,-0.02029 m 0.32441,-0.202702 0.0203,-0.162163 0.0406,-0.141897 m -0.0608,0.30406 -0.0811,-0.08109 m 0.28389,-0.222979 0.0203,0.141898 0.0405,0.162162 m -0.0608,-0.30406 0.0608,-0.02029 m 0,1.216238 -0.0405,-0.04057 m -0.0203,-0.283788 0.0203,0.283788 m 0.0405,-0.283788 h -0.0608 m 0.0203,-1.175695 -0.0203,0.30406 m 0.0608,-0.324326 -0.0405,0.02029 m -0.0203,1.175695 0.0203,-0.141892 0.0405,-0.162164 m 0.0608,0.06081 -0.0608,-0.06081 m -0.2636,0 0.0203,0.162164 0.0405,0.141892 m -0.0811,0 h 0.0811 m -0.0608,-0.567573 -0.1622,0.02029 -0.16222,0.04056 m 0,-0.06081 v 0.06081 m 0.89218,0.141892 -0.16223,0.02029 -0.14193,0.04057 m 0.30416,0 v -0.06082 m -1.17605,-0.162163 v 0 0.02029 0.02029 0.02029 0.02029 m -0.0406,0 h 0.0406 m -0.0203,-0.121619 0.0203,0.04056 m 0,0.08109 v 0.02029 0.02029 0.02029 0.02029 0.02029 m 1.45992,-0.101354 h 0.0405 m -0.0405,0 v 0 -0.02029 -0.02029 -0.02029 -0.02029 m -0.83134,0.810824 h 0.0203 0.0203 0.0203 0.0203 0.0203 m 0,0.04056 v -0.04056 m -0.14193,0.04056 0.0406,-0.04056 m 0.20276,0 h -0.0203 -0.0203 -0.0203 -0.0203 -0.0203 m 0.72995,-0.729741 v 0.02029 0.02029 0.02029 0.02029 0.02029 m 0.0405,0.04056 -0.0405,-0.04056 m -0.83135,-0.831094 h 0.0405 0.0203 0.0203 0.0203 0.0203 0.0203 0.0406 0.0203 m -0.1622,1.175694 -0.0405,0.283788 m 0.83136,-0.628388 -0.28388,-0.02029 m -0.89217,-0.141892 -0.28388,-0.02029 m 1.17605,28.176124 -0.16222,-0.04051 -0.14194,-0.02029 m 0.0608,-0.08109 -0.0608,0.08109 m 0.0608,-0.08109 0.24333,0.08109 m 0,0 v 0.06081 m 0.91245,0.06081 -0.0406,-0.263516 -0.0608,-0.243247 -0.12166,-0.243244 -0.18249,-0.202708 -0.20276,-0.162164 -0.22306,-0.121625 -0.26359,-0.08109 -0.2636,-0.02029 -0.26359,0.02029 -0.24332,0.08109 -0.24332,0.121625 -0.20276,0.162164 -0.16222,0.202708 -0.12166,0.243244 -0.0811,0.243247 -0.0203,0.263516 0.0203,0.263522 0.0811,0.263518 0.12166,0.222973 0.16222,0.202708 0.20276,0.182434 0.24332,0.121627 0.24332,0.08108 0.26359,0.02029 0.2636,-0.02029 0.26359,-0.08108 0.22306,-0.121627 0.20276,-0.182434 0.18249,-0.202708 0.12166,-0.222973 0.0608,-0.263518 0.0406,-0.263522 m -1.15578,-0.202701 -0.0608,-0.243252 m 0,-0.304054 v 0.304054 m -0.28386,-0.304054 h 0.0406 l 0.0405,-0.02029 h 0.0203 0.0406 0.0406 0.0203 l 0.0406,0.02029 h 0.0405 m -0.28387,0.304054 v -0.304054 m 0,0.304054 -0.0608,0.243252 m 0,0 -0.24332,0.08109 m -0.30415,0 h 0.30415 m -0.32443,0.121619 v -0.02029 -0.02029 -0.02029 -0.02029 -0.02029 l 0.0203,-0.02029 m 0,0.263517 v -0.02029 l -0.0203,-0.02029 v -0.02029 -0.02029 -0.02029 -0.02029 -0.02029 m 0.32443,0.141897 h -0.30415 m 0.30415,0 0.24332,0.06081 m 0,0 0.0608,0.243251 m 0,0.324328 v -0.324328 m 0.14195,0.324328 h -0.0203 -0.0203 -0.0203 -0.0203 -0.0203 -0.0203 -0.0203 m 0.28386,0 h -0.0203 -0.0203 -0.0203 -0.0203 -0.0203 -0.0203 -0.0203 m 0.14193,-0.324328 v 0.324328 m 0,-0.324328 0.0608,-0.243251 m 0,0 0.24332,-0.06081 m 0.32442,0 h -0.32442 m 0.32442,-0.141897 v 0.02029 0.02029 0.02029 0.02029 0.02029 0.02029 0.02029 m 0,-0.263517 v 0 0.02029 0.02029 0.02029 0.02029 0.02029 0.02029 m -0.32442,-0.121619 h 0.32442 m 0,0 -0.0406,0.04051 m 0,0 -0.28387,0.02029 m -0.58803,-0.689199 0.0406,0.02029 m 0,0 0.0405,0.30406 m 0,0 -0.0811,-0.02029 m -0.60829,0.587849 0.0203,-0.04057 m 0,0 0.28387,-0.02029 m 0,0 v 0.06081 m 0.32443,0 -0.16222,-0.04056 -0.16221,-0.02029 m 0.32443,0.06081 -0.0811,0.06081 m 0.0811,-0.324327 0.0203,-0.162164 0.0405,-0.141897 m -0.0608,0.304061 -0.0811,-0.08109 m 0.28387,-0.222979 0.0203,0.141897 0.0406,0.162164 m -0.0608,-0.304061 0.0608,-0.02029 m -0.0608,0.891912 0.0203,-0.141899 0.0406,-0.162163 m 0.0608,0.06081 -0.0608,-0.06081 m 0,0.304062 h -0.0608 m 0.0203,-1.175701 -0.0203,0.304061 m 0.0608,-0.324327 -0.0406,0.02029 m 0.0406,1.500027 -0.0406,-0.04056 m -0.0203,-0.283783 0.0203,0.283783 m -0.22304,-0.851361 -0.16221,0.02029 -0.16221,0.04052 m 0,-0.06081 v 0.06081 m 0.32442,0.202707 0.0203,0.162164 0.0406,0.141897 m -0.0811,0 h 0.0811 m 0.50691,-0.364871 -0.16221,0.02029 -0.14194,0.04057 m 0.30415,0 v -0.06081 m 0.28388,-0.08109 v 0.02029 0.02029 0.02029 0.02029 0.02029 m 0,-0.101354 h 0.0406 m 0,0.141897 -0.0406,-0.04057 m -1.45991,-0.182434 v 0 0.02029 0.02029 0.02029 0.02029 m -0.0406,0 h 0.0406 m -0.0203,-0.12162 0.0203,0.04051 m 0.72995,0.851367 v -0.04056 m 0.1014,0 h -0.0203 -0.0203 -0.0203 -0.0203 -0.0203 m 0.72996,-0.729743 v 0 -0.02029 -0.02029 -0.02029 -0.02029 m -1.45991,0.08109 v 0.02029 0.02029 0.02029 0.02029 0.02029 m 0.62858,0.628387 h 0.0203 0.0203 0.0203 0.0203 0.0203 m -0.14193,0.04057 0.0406,-0.04057 m 0,-1.459483 h 0.0406 0.0203 0.0203 0.0203 0.0203 0.0203 0.0406 0.0203 m 0.62857,0.831096 -0.28387,-0.02029 m -0.89217,-0.141897 -0.28387,-0.02029 m 0.66913,0.527041 -0.0406,0.283783 m 6.52907,-15.466461 h 3.20371 m -3.20371,12.851556 V 45.705573 m 3.20371,12.851556 h -3.20371 m 3.20371,-12.851556 v 12.851556 m -3.89302,-13.317781 h 4.765 m -6.14381,-1.398667 1.37881,1.398667 m 6.14381,-1.398667 h -7.52263 m 6.14382,1.398667 1.37881,-1.398667 m -7.88761,-0.142013 v 17.35163 m 8.45536,-17.35163 h -8.45536 m 8.45536,17.35163 v -17.35163 m -8.45536,17.35163 h 8.45536 m -8.09038,-0.141897 h 7.52263 m 0.20277,-0.202701 -0.0203,0.06081 -0.0203,0.06081 -0.0406,0.04057 -0.0608,0.02029 -0.0608,0.02029 m 0.20276,-0.202702 v -16.66244 m -0.20276,-0.202701 0.0608,0.02029 0.0608,0.02029 0.0406,0.04056 0.0203,0.06081 0.0203,0.06081 m -7.94844,0 0.0203,-0.04056 0.0203,-0.06081 0.0203,-0.04056 0.0406,-0.02029 0.0608,-0.02029 0.0608,-0.02029 m -0.22304,0.2027 V 60.70572 m 0.22304,0.202702 h -0.0608 l -0.0608,-0.02029 -0.0406,-0.04056 -0.0203,-0.04057 -0.0203,-0.04052 -0.0203,-0.06081 m 7.94844,-16.662431 -1.37882,1.398673 m 0,0 v -0.08109 -0.06081 -0.06082 m 0,0 h -0.0811 -0.0608 -0.0608 m 0,14.290767 h -4.76501 m 6.14383,1.378401 -1.37882,-1.378401 m -4.76501,0 -1.37881,1.378401 m 6.34659,-15.46646 V 59.32726 m 0,0 1.37881,1.3784 m -1.58158,-1.175699 h 0.0608 0.0608 0.0811 m 0,0 v -0.08109 -0.06081 -0.06081 m -5.17054,0 V 45.441918 m -1.39908,15.263759 1.39908,-1.378402 m 0,-13.885357 -1.39908,-1.398673 m 1.39908,15.28403 v 0.06081 0.06081 0.08109 m 0,0 h 0.0608 0.0608 0.0811 m 0,-14.290767 h -0.0811 -0.0608 -0.0608 m 0,0 v 0.06082 0.06081 0.08109 m 8.45537,23.716594 v 0.324327 0.304061 0.263516 0.263519 0.182435 0.162162 0.08109 0.04057 m -50.30632,0 h 50.30632 m -50.30632,0 v -0.04057 -0.08109 -0.162162 -0.182435 -0.263519 -0.263516 -0.304061 -0.324327 m 50.30632,0 h -50.30629 m 0,0 V 29.286254 m 0,0 h 50.30632 m 0,0 v 39.872281 m -10.1586,-25.642301 h 8.80006 m -8.80006,17.716499 V 43.516234 m 8.80006,17.716499 h -8.80006 m 8.80006,-17.716499 v 17.716499 m -44.38553,-28.946409 -0.0203,-0.283783 -0.0811,-0.263522 -0.12166,-0.263519 -0.16221,-0.222972 -0.20276,-0.202708 -0.24333,-0.141892 -0.2636,-0.121625 -0.28387,-0.06081 -0.2636,-0.02029 -0.28386,0.04056 -0.28388,0.101354 -0.24332,0.121626 -0.22305,0.182435 -0.18248,0.202707 -0.14194,0.243246 -0.10139,0.283788 -0.0608,0.263517 v 0.28379 l 0.0608,0.283788 0.10139,0.263518 0.14194,0.243244 0.18248,0.22298 0.22305,0.162163 0.24332,0.141892 0.28388,0.08108 0.28386,0.04057 h 0.2636 l 0.28387,-0.08109 0.2636,-0.101355 0.24333,-0.162165 0.20276,-0.182434 0.16221,-0.243251 0.12166,-0.243245 0.0811,-0.283789 0.0203,-0.283789 m 0,28.155852 -0.0203,-0.283782 -0.0811,-0.263524 -0.12166,-0.263517 -0.16221,-0.222973 -0.20276,-0.202707 -0.24333,-0.141892 -0.2636,-0.121625 -0.28387,-0.06081 -0.2636,-0.02029 -0.28386,0.04057 -0.28388,0.101354 -0.24332,0.121625 -0.22305,0.182435 -0.18248,0.202708 -0.14194,0.243245 -0.10139,0.263517 -0.0608,0.283788 v 0.28379 l 0.0608,0.283789 0.10139,0.263517 0.14194,0.243245 0.18248,0.222979 0.22305,0.162164 0.24332,0.141892 0.28388,0.08109 0.28386,0.04052 0.2636,-0.02029 0.28387,-0.06081 0.2636,-0.101354 0.24333,-0.162164 0.20276,-0.182435 0.16221,-0.243246 0.12166,-0.243251 0.0811,-0.283788 0.0203,-0.28379 m 33.33477,0 -0.0203,-0.283782 -0.0811,-0.263524 -0.12167,-0.263517 -0.16221,-0.222973 -0.20276,-0.202707 -0.24332,-0.141892 -0.26359,-0.121625 -0.2636,-0.06081 -0.28387,-0.02029 -0.28387,0.04056 -0.28387,0.101355 -0.24332,0.121625 -0.22306,0.182436 -0.18248,0.202706 -0.14194,0.243246 -0.10139,0.263517 -0.0608,0.283788 v 0.28379 l 0.0608,0.283788 0.10139,0.263519 0.14194,0.243244 0.18248,0.222978 0.22306,0.162164 0.24332,0.141892 0.28387,0.08109 0.28387,0.04052 0.28387,-0.02029 0.2636,-0.06081 0.26359,-0.101355 0.24332,-0.162163 0.20276,-0.182436 0.16221,-0.243245 0.12167,-0.24325 0.0811,-0.28379 0.0203,-0.283789 m 0,-28.155852 -0.0203,-0.283784 -0.0811,-0.263522 -0.12167,-0.263518 -0.16221,-0.222973 -0.20276,-0.202707 -0.24332,-0.141893 -0.26359,-0.121625 -0.2636,-0.06081 -0.28387,-0.02029 -0.28387,0.04057 -0.28387,0.101354 -0.24332,0.121627 -0.22306,0.182434 -0.18248,0.202707 -0.14194,0.243247 -0.10139,0.283788 -0.0608,0.263518 v 0.283788 l 0.0608,0.283788 0.10139,0.263518 0.14194,0.243245 0.18248,0.222979 0.22306,0.162164 0.24332,0.141891 0.28387,0.08109 0.28387,0.04057 h 0.28387 l 0.2636,-0.08109 0.26359,-0.101354 0.24332,-0.162164 0.20276,-0.182436 0.16221,-0.243251 0.12167,-0.243245 0.0811,-0.283789 0.0203,-0.283788 m -37.89702,-3.000071 v -0.304054 -0.304062 -0.283788 -0.243246 -0.202707 -0.141891 -0.101354 -0.02029 m 50.30632,0 h -50.30632 m 50.30632,0 v 0.02029 0.101354 0.141891 0.202707 0.243246 0.283788 0.304062 0.304054 M 352.70843,70.84097 v -0.06081 m -0.30416,0.06081 v -0.06081 m 0,0.06081 h 0.16222 0.14194 m 0.70967,0 v -0.06081 m -0.70967,0.06081 h 0.32441 0.24333 0.12166 0.0203 m -1.33826,0 v -0.06081 m 0,0.06081 h 0.16222 0.1622 m -0.38525,0 v -0.06081 m 0,0.06081 h 0.0203 0.0406 m -0.26359,0 v -0.06081 m -1.11521,0.06081 h 1.11521 m -1.11521,0 v -0.06081 m 1.13548,0.06081 v -0.06081 m -0.0203,0.06081 h 0.0203 m -1.78434,0 v -0.06081 m -0.28387,0.06081 v -0.06081 m 0,0.06081 h 0.16221 0.12166 m -0.81107,0 v -0.06081 m 0,0.06081 h 0.5272 m 0.68941,0 v -0.06081 m -0.40554,0.06081 h 0.22305 0.12166 0.0608 m -1.52075,0 v -0.06081 m -0.28387,0.06081 v -0.06081 m 0,0.06081 h 0.28387 m -1.09494,0 v -0.06081 m -0.38525,0.06081 h 0.38525 m -0.38525,0 v -0.06081 m -0.30415,0.06081 v -0.06081 m 0,0.06081 h 0.30415 m 0.77051,0 v -0.06081 m -0.38526,0.06081 h 0.38526 m 0.30415,0 v -0.06081 m -0.30415,0.06081 h 0.30415 m 3.30508,0 h 0.16222 m -1.48019,0 v -0.06081 m 0,0.06081 h 0.14193 0.0406 m -1.7235,0 v -0.06081 m 0,0.06081 h 0.22305 m -0.64886,0 h 0.10139 m -8.47564,-35.068124 v -0.141891 l 0.0406,-0.141897 0.0811,-0.12162 0.0811,-0.121626 0.12165,-0.08109 0.12166,-0.08109 0.14194,-0.04057 h 0.14193 m 0,0 h 18.59367 m 0,0 h 0.1622 l 0.12167,0.04057 0.14193,0.08109 0.1014,0.08109 0.10139,0.121626 0.0608,0.12162 0.0406,0.141897 0.0203,0.141891 m 0,0 v 5.432523 m 0,0 -0.0203,0.141891 -0.0406,0.141891 -0.0608,0.121626 -0.10139,0.101355 -0.1014,0.101354 -0.14193,0.06081 -0.12167,0.04056 -0.1622,0.02029 m 0,0 H 340.90755 M 340.17759,41.2054 v 0.141893 l 0.0406,0.14189 0.0811,0.121626 0.0811,0.101354 0.12166,0.101354 0.12166,0.06081 0.14193,0.04056 0.14194,0.02029 m -0.72996,-0.729741 v -5.432523 m 7.88761,3.466272 v 1.054074 m 0.38525,-1.479754 -0.38525,0.42568 m 1.45991,1.054074 -1.07466,-1.479754 m 2.06822,1.479754 h -0.99356 m -0.50692,-2.047333 1.50048,2.047333 m -0.0811,-3.547359 -1.41937,1.500026 m 0.4461,-1.500026 h 0.97327 m -2.37236,1.54057 1.39909,-1.54057 m -1.39909,0 v 1.54057 m -0.79079,-1.54057 h 0.79079 m -0.79079,3.547359 V 36.7459 m 0.79079,3.547359 h -0.79079 m -1.60185,-3.709523 v 0.709471 m 0,0 h 0.85162 m 0,-0.709471 v 0.709471 m -0.85162,-0.709471 h 0.85162 m -0.83136,0.993259 v 2.716264 m 0,0 h 0.81107 m 0,-2.716264 v 2.716264 m -0.81107,-2.716264 h 0.81107 m 3.97422,-0.831095 1.41936,3.567626 m 0,0 h 0.72996 m 0,0 1.41937,-3.567626 m 0,0 h -0.87189 m 0,0 -0.89218,2.452747 m 0,0 -0.91244,-2.452747 m 0,0 h -0.89218 m 5.79912,2.73653 -0.93273,-1.43921 m 1.01384,1.43921 h -0.0811 m 1.03411,-1.459482 -0.953,1.459482 m 0.953,0.810829 v -2.270311 m 0.79079,2.270311 h -0.79079 m 0.79079,-3.547359 v 3.547359 m -0.8719,-3.547359 h 0.8719 m -1.76408,1.459483 0.89218,-1.459483 m -1.80462,0 0.91244,1.459483 M 354.55376,36.7459 h 0.8719 m -0.8719,3.547359 V 36.7459 m 0.79079,3.547359 h -0.79079 m 0.79079,-2.250039 v 2.250039 M 342.38779,36.7459 h 1.58158 m -1.58158,0 v 3.547359 m 0,0 h 0.79079 m 0,0 V 39.23918 m 0,0 h 0.79079 m 0,0 0.32442,-0.06081 0.30415,-0.121626 0.2636,-0.182435 0.1825,-0.263517 0.12166,-0.304061 0.0406,-0.324326 -0.0406,-0.324334 -0.1014,-0.304053 -0.20277,-0.263519 -0.2636,-0.182434 -0.30415,-0.121626 -0.32442,-0.04056 m -0.79079,1.783814 h 0.58802 m -0.58802,-1.054073 v 1.054073 m 0.58802,-1.054073 h -0.58802 m 0.58802,0 0.22305,0.02029 0.20277,0.101354 0.14192,0.162165 0.0608,0.222979 -0.0608,0.243244 -0.14192,0.162165 -0.20277,0.101354 -0.22305,0.04056 m -9.63139,30.628785 h -0.8719 m 0.8719,0 v 0.324327 0.304061 0.263516 0.263518 0.182435 0.162163 0.08109 0.04057 m -0.8719,0 h 0.8719 m -0.8719,-1.621647 v 0.324328 0.30406 0.263518 0.263516 0.182435 0.162164 0.08109 0.04057 m 0.8719,-43.095326 h -0.8719 m 0.8719,0 v 0.02029 0.101355 0.141892 0.202706 0.243246 0.283789 0.304061 0.304055 m -0.8719,0 h 0.8719 m -0.8719,-1.601375 v 0.02029 0.101354 0.141892 0.202707 0.243245 0.283789 0.304062 0.304054 m 0,0 v 39.872236 m 0.8719,-39.872259 v 39.872259 m 51.72566,0 h -0.85161 m 0,0 V 29.286277 m 0,0 h 0.85161 m 0,39.872258 V 29.286277 m -0.85161,41.493904 h 0.85161 m 0,0 v -0.04057 -0.08109 -0.162163 -0.182434 -0.263519 -0.263516 -0.304061 -0.324327 m -0.85161,1.621647 v -0.04057 -0.08109 -0.162163 -0.182436 -0.263517 -0.263517 -0.30406 -0.324328 M 385.861,27.684833 h -0.85162 m 0.85162,1.601374 V 28.982161 28.6781 28.394312 28.151067 27.948359 27.806468 27.705114 27.684824 m -0.85162,1.601374 v -0.304054 -0.304061 -0.283789 -0.243245 -0.202708 -0.14189 -0.101355 -0.02029 m -0.28387,0 h 0.0608 0.0811 0.0811 0.0406 0.0203 m 0,43.09528 h -0.0203 -0.0406 -0.0811 -0.0811 -0.0608 M 334.13533,27.684885 h 0.0203 0.0406 0.0608 0.1014 0.0608 m 0,43.095278 h -0.0608 -0.1014 -0.0608 -0.0406 -0.0203 m 0.75023,0 h 12.26737 m 1.78434,0 h 0.18249 m 0.72996,0 h 0.0608 m 0.28386,0 h 0.0406 m 0.22305,0 h 0.12166 m 1.86544,0 h 0.97328 m 16.34296,0 h 14.49779 m 1.66268,-11.817752 h -0.0608 m 0.0608,0.466222 v -0.466222 m 0,0.466222 h -0.0608 m 0.0608,-0.810828 h -0.0608 m 0.0608,0.344606 v -0.202708 -0.141898 m 0,-0.304054 h -0.0608 m 0.0608,0.304054 v -0.141891 -0.101355 -0.06081 m 0,-1.702728 h -0.0608 m 0.0608,0.222974 v -0.222974 m 0,0.222974 h -0.0608 m 0.0608,0.243245 h -0.0608 m 0.0608,0 v -0.243245 m 0,1.094611 h -0.0608 m 0.0608,0.28379 h -0.0608 m 0.0608,0 v -0.28379 m 0,-0.222978 h -0.0608 m 0.0608,0.222978 v -0.222978 m 0,-0.243246 h -0.0608 m 0.0608,0.243246 v -0.243246 m 0,-0.851361 v -0.304062 m 0,0 h -0.0608 m 0.0608,1.155422 v -0.385142 m 0,-2.128409 h -0.0608 m 0.0608,0.567578 h -0.0608 m 0.0608,0 v -0.202706 -0.182437 -0.08109 -0.06082 -0.04056 m 0,1.195966 h -0.0608 m 0.0608,0 v -0.628388 m 0,-0.689203 h -0.0608 m 0.0608,0.121625 V 54.82717 m 0,-5.006836 h -0.0608 m 0.0608,1.135157 h -0.0608 m 0.0608,0 v -1.135157 m 0,1.459482 h -0.0608 m 0.0608,0.445953 V 51.46225 51.279814 m 0,0.445953 h -0.0608 m 0.0608,0.668932 h -0.0608 m 0.0608,0 v -0.04056 -0.162163 -0.222979 -0.243245 m 0,-0.587844 h -0.0608 m 0.0608,0.141891 v -0.101355 -0.04057 m 0,-0.02029 h -0.0608 m 0.0608,2.250036 h -0.0608 m 0.0608,0.547305 v -0.547307 m 0,0.547306 h -0.0608 m 0.0608,-1.418939 h -0.0608 m 0.0608,0.567572 V 52.496 m 0,0.567572 h -0.0608 m 0.0608,0.304061 v -0.304044 m 0,-4.540612 h -0.0608 m 0.0608,0.689204 v -0.06082 -0.162165 -0.222972 -0.243252 m 0,0.689204 h -0.0608 m 0.0608,-1.114884 h -0.0608 m 0.0608,0.42568 v -0.263517 -0.162163 m 0,-0.162164 h -0.0608 m 0.0608,0.162164 v -0.101354 -0.06081 m 0,-0.02029 h -0.0608 m 0.0608,-1.581109 h -0.0608 m 0.0608,0.689204 v -0.30406 -0.263518 -0.101354 -0.02029 m 0,0.689203 h -0.0608 m 0.0608,0.324328 V 47.16482 47.022928 m 0,0.324328 h -0.0608 m 0.0608,0.324332 h -0.0608 m 0.0608,0 v -0.162169 -0.162163 m 0,0.385142 h -0.0608 m 0.0608,0 v -0.02029 -0.04052 m 0,-1.88517 h -0.0608 m 0.0608,0.304061 v -0.304051 m 0,0.304062 h -0.0608 m 0.0608,-0.891906 V 44.9148 m 0,0.283788 h -0.0608 m 0.0608,-0.283788 h -0.0608 m 0.0608,0.871632 V 45.198588 M 333.2229,36.401245 h 0.0406 m -0.0406,-0.547306 v 0.547306 m 0,-0.547306 h 0.0406 m -0.0406,-0.304054 h 0.0406 m -0.0406,0 v 0.304054 m 0,-0.871632 h 0.0406 m -0.0406,0 v 0.567578 m 0,2.067598 h 0.0406 m -0.0406,-1.155422 h 0.0406 m -0.0406,0 v 1.155422 m 0,0.445952 h 0.0406 m -0.0406,-0.344598 h 0.0406 m -0.0406,0 v 0.344598 m 0,0.28379 h 0.0406 m -0.0406,-0.28379 v 0.28379 m 0,0.283789 h 0.0406 m -0.0406,0.324326 h 0.0406 m -0.0406,-0.324326 v 0.324326 m 0,-0.608115 v 0.283789 m 0,-0.972993 h 0.0406 m -0.0406,0 v 0.06082 m 0,1.297319 h 0.0406 m -0.0406,-0.06082 v 0.06082 m 0,10.520434 h 0.0406 m -0.0406,-0.385142 v 0.385142 m 0,-0.385142 h 0.0406 m -0.0406,-0.304055 v 0.304055 m 0,-0.304055 h 0.0406 m -0.0406,1.07434 h 0.0406 m -0.0406,-0.385143 v 0.385143 m 0,0.30406 h 0.0406 m -0.0406,-0.30406 v 0.30406 m 0,0.405409 h 0.0406 m -0.0406,-0.283788 v 0.283788 m 0,-0.283788 h 0.0406 m -0.0406,1.398673 h 0.0406 m -0.0406,-0.283789 h 0.0406 m -0.0406,0 v 0.162163 0.121626 m 0,-0.810824 h 0.0406 m -0.0406,0 v 0.527035 m 0,0.689197 h 0.0406 m -0.0406,-0.405408 v 0.202706 0.141892 0.06081 m 0,0.243251 v 1.094612 m 0,0 h 0.0406 m -0.0406,-1.094612 h 0.0406 m -0.0406,1.114884 h 0.0406 m -0.0406,-0.02029 v 0.02029 m 0,0.891904 h 0.0406 m -0.0406,-0.30406 v 0.162163 0.141897 m 0,-0.30406 h 0.0406 m -0.0406,1.01353 h 0.0406 m -0.0406,-0.70947 v 0.324328 0.24325 0.101344 0.04057 m 0,-1.337856 h 0.0406 m -0.0406,0 v 0.141891 0.182436 m 0,-0.385143 h 0.0406 m -0.0406,0 v 0.02029 0.04056 m 0,2.128408 v 0.28379 m 0,-0.28379 h 0.0406 m -0.0406,0.28379 h 0.0406 m -0.0406,1.479755 h 0.0406 m -0.0406,-0.28379 h 0.0406 m -0.0406,0 v 0.28379 m 0,-0.871634 h 0.0406 m -0.0406,-0.30406 h 0.0406 m -0.0406,0 v 0.30406 m 0,0 v 0.587844 m 0,-14.452929 h 0.0406 m -0.0406,0.283788 h 0.0406 m -0.0406,-0.283788 v 0.283788 m 0,-0.891911 h 0.0406 m -0.0406,-0.283789 h 0.0406 m -0.0406,0 v 0.283789 m 0,0.02029 h 0.0406 m -0.0406,-0.02029 v 0 0.02029 m 0,0.283789 h 0.0406 m -0.0406,0 v 0.162163 0.06082 0.04056 0.04057 m 0,-0.567577 v 0.02029 0.08108 0.162164 m 0,1.945979 h 0.0406 m -0.0406,-0.547307 v 0.222975 0.182434 0.101355 0.04057 m 0,-0.547306 h 0.0406 m -0.0406,-0.52704 v 0.06082 0.141891 0.162165 0.162169 m 0,-0.52704 h 0.0406 m -0.0406,1.135156 h 0.0406 m -0.0406,0 v 0 m 0,-1.195966 h 0.0406 m -0.0406,0 v 0.04056 m 0,1.986516 h 0.0406 m -0.0406,-0.587849 h 0.0406 m -0.0406,0 v 0.587849 m 0,0.587844 h 0.0406 m -0.0406,-0.587844 v 0.202708 0.182435 0.141892 0.04056 0.02029 m 0,0.06082 h 0.0406 m -0.0406,-0.06082 v 0 0.06082 m 1.19632,-1.804082 h -0.28387 m 0.28387,1.824349 h -0.28387 m 50.63072,12.973181 v -3.648707 m -0.0406,4.39872 h 0.0406 m 0,-0.750013 v 0.162164 0.121625 0.141891 0.101354 0.101354 0.06082 0.04051 0.02029 m 0,-5.148733 h -0.0406 m 0.0406,0.750013 v -0.141891 -0.141897 -0.121621 -0.121625 -0.08109 -0.08109 -0.04056 -0.02029 m -0.0406,-14.169114 h 0.28388 m 0,-8.777169 h -0.28388 m 0,8.777169 h 0.28388 m -50.59017,8.432397 h -0.28388 m 0,8.615005 h 0.28388 m 0,-22.82469 h -0.28388 m 0,8.79744 h 0.28388 m 0,-8.79744 h -0.28388 m 50.63074,14.006983 V 45.11765 m 0,-0.750013 h -0.0406 m 0.0406,0.750013 v -0.141897 -0.141891 -0.121625 -0.121626 -0.101344 -0.06082 -0.04056 -0.02029 m -0.0406,5.148728 h 0.0406 m 0,-0.750008 v 0.141891 0.141893 0.141897 0.101355 0.101354 0.06081 0.04057 0.02029 m 1.19632,-5.655495 v -0.06081 -0.06081 -0.04056 -0.02029 m 0,6.506863 v -0.02029 -0.04056 -0.06082 -0.06081 m 0,-6.141991 v 6.141991 m 0,-6.324427 h -0.10139 m 0.0608,6.506862 h 0.0406 m -1.01383,-1.256774 v 0.04056 0.02029 l -0.0406,0.04056 -0.0203,0.02029 h -0.0203 m 0.14194,-0.04056 -0.0203,0.02029 h -0.0405 m 0,0 -0.0811,0.02029 m 0,-0.790552 0.0203,0.02029 0.0203,0.02029 0.0406,0.02029 v 0.02029 0.04056 m 0,0.547305 v -0.547341 m -0.0811,0.668926 -0.1014,0.02029 m 0,-0.831094 0.1014,0.02029 m 0.0811,0.02029 h 0.0406 l 0.0203,0.02029 m -0.14194,-0.04056 0.0811,0.02029 m 0,-3.344647 v -0.04056 l -0.0203,-0.04057 -0.0406,-0.02029 -0.0203,-0.02029 m 0.0811,0.668932 v -0.547306 m -0.0811,0.668925 0.0203,-0.02029 0.0406,-0.02029 0.0203,-0.04056 v -0.04052 m -0.18249,0.141892 0.10139,-0.02029 m 0,-0.790551 -0.10139,-0.02029 m 0.18249,0.04056 h 0.0406 l 0.0203,0.02029 m -0.14194,-0.04056 0.0811,0.02029 m 0.0608,0.729741 -0.0203,0.02029 h -0.0406 m 0,0 -0.0811,0.02029 m 0.14194,2.391933 -0.24333,-0.04057 m 0,1.398671 0.24333,-0.04051 m 0,-4.763591 -0.24333,-0.04056 m 0,1.398673 0.24333,-0.04057 m 0,-2.695987 h -0.28387 m 0,7.520388 h 0.28387 m 0.953,0.425686 v -0.36487 m 0,0.36487 h -0.0406 m 0.0406,-0.36487 -0.0203,-0.08109 -0.0203,-0.04056 m -0.0608,-7.885258 h 0.10139 m 0,0.364871 v -0.364871 m -0.10139,0.547305 0.0406,-0.02029 0.0406,-0.08109 0.0203,-0.08109 m 0,1.621647 0.20276,0.891904 m 0,0 0.0406,0.263518 m 0,0 v 0.243244 m 0,0 h -0.18249 m 0,0 V 45.88794 m 0,0 -0.0203,-0.222974 m -0.0406,-0.141898 0.0406,0.141898 m 0.20278,1.925701 v -0.243245 m -0.0406,0.709469 0.0406,-0.466224 m -0.0406,0.466224 -0.20276,1.074347 m 0.24331,-1.783816 h -0.18249 m -0.0406,0.668932 -0.0203,0.121619 m 0.0203,-0.121619 0.0406,-0.425687 m 0,-0.243245 v 0.243245 m 0,-9.810965 h -0.0608 m 0.0608,0 v 1.844626 m 0,0 h -0.0608 m 0.0608,-6.892006 h -0.0608 m 0.0608,0 v 1.824354 m 0,0 h -0.0608 m 0,19.500316 v 0 0.04052 0.06081 0.06082 m 0,6.162258 v 0.06081 0.06082 0.02029 0.02029 m 0,-0.162162 V 54.21919 m 0,6.32442 h -0.1014 m 0,-6.486584 h 0.1014 m -1.19632,4.560878 h 0.10139 m 0,0 0.0203,0.02029 0.0203,0.02029 0.0406,0.04057 v 0.02029 0.02029 m 0,0 v 0.567577 m 0,0 v 0.02029 0.02029 l -0.0406,0.04056 -0.0203,0.02029 h -0.0203 m 0,0 -0.10139,0.02029 m 0.18249,-0.02029 0.0203,-0.02029 0.0406,-0.02029 m -0.14192,0.04057 h 0.0811 m 0.0608,-0.729742 v 0 l -0.0406,-0.02029 -0.0203,-0.02029 m 0,0 -0.0811,-0.02029 m 0,-3.446 h -0.10139 m 0.18248,0.121625 v -0.04057 l -0.0203,-0.04052 -0.0406,-0.02029 -0.0203,-0.02029 m 0.0811,0.121625 v 0.567579 m -0.0811,0.101354 h 0.0203 l 0.0406,-0.04056 0.0203,-0.02029 v -0.04056 m -0.18248,0.121619 0.10139,-0.02029 m 0.14195,-0.729741 v 0 l -0.0406,-0.02029 -0.0203,-0.02029 m 0,0 -0.0811,-0.02029 m 0.0811,0.790557 0.0203,-0.02029 0.0406,-0.02029 m -0.14195,0.04056 h 0.0811 m -0.18248,-1.094612 0.24332,0.04052 m 0,1.337863 -0.24332,0.02029 m 0,2.047333 0.24332,0.04056 m 0,1.337863 -0.24332,0.04056 m 0.24332,1.337863 h -0.28388 m 0,-7.540664 h 0.28388 m 0.953,-0.425681 h -0.0406 m 0.0406,0 v 0.364872 m 0,0 -0.0203,0.101354 -0.0203,0.04056 m -0.0608,7.317685 0.0406,0.02029 0.0406,0.08109 0.0203,0.08108 m 0,0 v 0.385143 m -0.10139,0 h 0.10139 m 0.20275,-5.310897 -0.20275,-1.074341 m 0.20275,1.074341 0.0406,0.466224 m 0,0 v 0.243245 m 0,0 h -0.18248 m -0.0406,-0.689197 -0.0203,-0.101355 m 0.0203,0.101355 0.0406,0.445952 m 0,0.243245 V 56.65165 m 0.18248,1.459483 h -0.18248 m 0.18248,0.243245 v -0.243245 m -0.0406,0.486496 0.0406,-0.243251 m -0.24332,1.135156 0.20278,-0.891905 m -0.14194,-0.486496 v 0.243245 m 0,0 -0.0203,0.202707 m -0.0406,0.162163 0.0406,-0.162163 m -1.27742,-17.797582 h 0.28385 m 0.85163,0 h 0.10139 m 0,-9.162305 h -0.10139 m -0.85163,0 h -0.28385 m 1.23686,9.162305 v -9.162314 m -51.82704,13.398833 h 0.28387 m 0,0.445953 h -0.28387 m 50.63071,10.013672 h -0.0406 m 0,3.648707 h 0.0406 M 334.1356,56.996212 h 0.28387 m 0,-7.459577 h -0.28387 m 50.63072,-4.418987 h -0.0406 m 0,3.648706 h 0.0406 m 1.19632,-4.905486 h -0.10139 m 0.10139,6.141991 h -0.0406 m -0.97327,-1.07434 h 0.0608 m 0,-0.547306 h -0.0608 m 0.0608,-3.446 h -0.0608 m 0,0.547306 h 0.0608 m -0.28387,4.986564 h 0.28387 m -0.28387,-7.074434 h 0.28387 m 0.95301,16.986752 h -0.1014 m 0.1014,-6.162258 h -0.1014 m -0.85161,5.067647 -0.0608,0.02029 m 0,-0.567578 0.0608,0.02029 m -0.0608,-3.466271 h 0.0608 m 0,0.547306 -0.0608,0.02029 m -0.22303,-2.08787 h 0.28386 m -0.28386,7.054162 h 0.28386"
       style="fill:none;stroke:#000000;stroke-width:0.179917;stroke-linecap:round;stroke-linejoin:round;stroke-miterlimit:10;stroke-dasharray:none;stroke-opacity:1" />
  </g>
</svg>
