<?xml version="1.0" encoding="UTF-8" standalone="no"?>
<!-- Created with Inkscape (http://www.inkscape.org/) -->

<svg
   width="88.464684mm"
   height="72.344124mm"
   viewBox="0 0 88.464683 72.344127"
   version="1.1"
   id="svg1"
   inkscape:version="1.4 (e7c3feb100, 2024-10-09)"
   sodipodi:docname="v4-top-view-numbered.svg"
   xmlns:inkscape="http://www.inkscape.org/namespaces/inkscape"
   xmlns:sodipodi="http://sodipodi.sourceforge.net/DTD/sodipodi-0.dtd"
   xmlns="http://www.w3.org/2000/svg"
   xmlns:svg="http://www.w3.org/2000/svg">
  <sodipodi:namedview
     id="namedview1"
     pagecolor="#ffffff"
     bordercolor="#000000"
     borderopacity="0.25"
     inkscape:showpageshadow="2"
     inkscape:pageopacity="0.0"
     inkscape:pagecheckerboard="0"
     inkscape:deskcolor="#d1d1d1"
     inkscape:document-units="mm"
     inkscape:zoom="2.0078513"
     inkscape:cx="167.34307"
     inkscape:cy="136.71331"
     inkscape:window-width="1280"
     inkscape:window-height="681"
     inkscape:window-x="0"
     inkscape:window-y="0"
     inkscape:window-maximized="1"
     inkscape:current-layer="layer1"
     showguides="false">
    <inkscape:page
       x="0"
       y="0"
       width="88.464684"
       height="72.344131"
       id="page3"
       inkscape:label="v4-top-view-numbered"
       margin="0"
       bleed="0"
       inkscape:export-filename="v4-right-view-numbered.svg"
       inkscape:export-xdpi="96"
       inkscape:export-ydpi="96" />
    <sodipodi:guide
       position="-339.2965,31.44337"
       orientation="0,-1"
       id="guide13"
       inkscape:locked="false" />
    <sodipodi:guide
       position="-360.43752,74.499711"
       orientation="0,-1"
       id="guide16"
       inkscape:locked="false" />
    <sodipodi:guide
       position="-324.53602,63.31315"
       orientation="0,-1"
       id="guide17"
       inkscape:locked="false" />
    <sodipodi:guide
       position="-265.32218,16.362126"
       orientation="0,-1"
       id="guide18"
       inkscape:locked="false" />
    <sodipodi:guide
       position="-243.33356,36.941036"
       orientation="0,-1"
       id="guide26"
       inkscape:locked="false" />
  </sodipodi:namedview>
  <defs
     id="defs1" />
  <g
     inkscape:label="Layer 1"
     inkscape:groupmode="layer"
     id="layer1"
     transform="translate(-471.64148,-14.816667)">
    <path
       id="path15-1"
       d="m 474.4421,48.919512 h 0.0486 m -0.0486,0.752215 h 0.0486 m -0.0486,-7.230972 h -0.14559 m 0,5.847869 h 0.14559 m -0.14559,-5.847869 -0.14559,0.703688 -0.12133,0.727948 -0.0486,0.752214 -0.0243,0.727955 0.0243,0.727947 0.0486,0.752215 0.12133,0.727947 0.14559,0.727955 m 0,7.958919 -0.14559,0.727947 -0.12133,0.727948 -0.0486,0.727955 -0.0243,0.727947 0.0243,0.752215 0.0486,0.727954 0.12133,0.727948 0.14559,0.727947 m 0.14559,-5.847861 h -0.14559 m 0,5.847861 h 0.14559 m 82.9135,-11.744256 h -0.14559 m 0,8.104511 0.14559,-0.02428 m -0.14559,-34.262177 v 0.02428 0.07279 0.145592 0.169852 0.194119 0.242651 0.266918 0.266911 m 0,0 h -81.33628 m 0,0 v -0.02428 m -1.35884,-1.358836 0.0243,0.02428 0.0728,0.07279 0.12132,0.121326 0.16986,0.169852 0.21838,0.218385 0.21839,0.218385 0.26691,0.266918 0.26692,0.266911 m 81.33627,-1.358836 h -82.69513 m 1.35884,1.383102 v 45.739523 m 0,0 h -0.0243 m 0,0 -0.26692,0.266918 -0.24265,0.266911 -0.24265,0.218385 -0.19412,0.218385 -0.16985,0.169852 -0.12133,0.121325 -0.0728,0.0728 -0.0486,0.02428 m 0,-48.481461 v 48.481461 m 0,-48.481461 0.0486,0.02428 0.0728,0.09706 0.12133,0.121326 0.16985,0.169852 0.19412,0.194118 0.24265,0.242652 0.24265,0.242651 0.26692,0.266911 m 0,0 0.0243,0.02428 m 0,45.739522 v 0 m -0.26691,0.266918 0.0971,-0.09707 0.0728,-0.07279 0.0971,-0.09706 m 0,0 h 81.33628 m 0,0 v 0.266918 0.242644 0.242652 0.218385 0.169852 0.121326 0.0728 0.02428 m -82.69512,0 h 82.69512 m -81.33628,-1.358836 -0.26691,0.266918 -0.26692,0.266912 -0.21838,0.242651 -0.21839,0.194119 -0.16985,0.169851 -0.12133,0.121326 -0.0728,0.0728 -0.0243,0.02428 M 557.20999,71.29193 V 25.552318 m -24.92015,21.789966 v 17.131089 m 0,0 0.0243,0.291184 0.12132,0.266912 0.21839,0.242651 0.31544,0.169859 0.31545,0.04856 m 9.68174,0 0.26691,-0.02428 0.26691,-0.121326 0.24265,-0.218385 0.16986,-0.315444 0.0486,-0.339711 m 0,0 V 47.342305 m 0,0 -0.0243,-0.291178 -0.12133,-0.266911 -0.21838,-0.242651 -0.31545,-0.169859 -0.31544,-0.04856 m -9.68173,0 -0.26692,0.02428 -0.26691,0.121318 -0.24265,0.218385 -0.16986,0.315451 -0.0486,0.339704 m 10.6766,-1.019125 h -9.68173 m 0,19.169346 h 9.68173 m -67.35963,-40.207098 0.0728,0.07279 0.097,0.09706 0.0971,0.09706 m 0,0 -0.0971,-0.09706 -0.0728,-0.09706 -0.0971,-0.09706 m 0.26691,46.0307 -0.0971,0.07279 -0.097,0.09706 -0.0728,0.09707 m 10.82219,-47.462336 v 0.07279 m 0,-0.07279 h 0.0485 0.12133 0.16986 0.24264 0.24266 0.21838 0.16986 0.12132 0.0486 m 0,0 v 0.07279 m -1.65002,-0.07279 v 0.07279 m 0,-0.07279 h 0.26692 m 1.65002,0 v 0.07279 m -0.26692,-0.07279 h 0.26692 m -13.63694,19.460524 h 0.0486 m -0.0486,-0.825007 v 0.36397 0.315445 0.121325 0.02428 m 0,-0.825007 h 0.0486 m -0.0486,-0.849281 v 0.0728 0.194118 0.266918 0.315445 m 0,-0.849281 h 0.0486 m -0.0486,2.25665 h 0.0486 m -0.0486,-0.266918 v 0.266918 m 0,-0.266918 h 0.0486 m -0.0486,1.358843 h 0.0486 m -0.0486,-0.242652 v 0.242652 m 0,-0.242652 h 0.0486 m -0.0486,-0.43677 h 0.0486 m -0.0486,0 v 0.145593 0.145585 0.09706 0.04856 m 0,-0.849274 v 0 0.09706 0.145592 0.169852 m 0,0.970599 v 1.383103 m 0,-1.383103 h 0.0486 m -0.0486,1.383103 h 0.0486 m -0.0486,1.504435 h 0.0486 m -0.0486,-0.485303 v 0.291178 0.194125 m 0,-0.485303 h 0.0486 m -0.0486,0.630888 h 0.0486 m -0.0486,-0.145585 v 0.145585 m 0,7.983186 h 0.0486 m -0.0486,-0.849274 v 0.07279 0.218385 0.242652 0.315444 m 0,-0.849274 h 0.0486 m -0.0486,1.698547 h 0.0486 m -0.0486,-0.849273 v 0.388244 0.291177 0.121326 0.04856 m 0,1.674287 h 0.0486 m -0.0486,-0.266918 v 0.266918 m 0,-0.266918 h 0.0486 m -0.0486,-0.849274 h 0.0486 m -0.0486,-0.242651 h 0.0486 m -0.0486,0 v 0.242651 m 0,0.412504 h 0.0486 m -0.0486,0 v 0.145592 0.145592 0.09706 0.04856 m 0,-0.849273 v 0 0.09706 0.145592 0.169852 m 0,2.353709 h 0.0486 m -0.0486,-1.383103 v 1.383103 m 0,-1.383103 h 0.0486 m -0.0486,2.790472 h 0.0486 m -0.0486,-0.582362 h 0.0486 m -0.0486,0 v 0.0728 0.145586 0.169859 0.194118 m 0,0.533829 h 0.0486 m -0.0486,-0.533829 v 0.218385 0.194118 0.09706 0.02428 m 0,0.02428 h 0.0486 m -0.0486,-1.164717 h 0.0486 m -0.0486,-30.81655 h 0.0486 m -0.0486,0 v 0.33971 m 0,0.266911 v 0.09707 m 0,1.043391 h 0.0486 m -0.0486,0 v 0.266918 m 0,1.577222 h 0.0486 m -0.0486,-0.194119 v 0.194119 m 0,0 v 0.145592 m 0,7.279497 v 0.07279 0.02428 m 0,-0.09706 h 0.0486 m -0.0486,10.118502 h 0.0486 m -0.0486,-0.630888 v 0.04856 0.07279 0.121326 0.388237 m 0,-0.630889 h 0.0486 m -0.0486,1.286044 h 0.0486 m -0.0486,-0.655155 v 0.242651 0.242652 0.121326 0.04856 m 0,0.02428 h 0.0486 m -0.0486,-1.358836 h 0.0486 m -0.0486,0 v 0.02428 m 0,3.057389 h 0.0486 m -0.0486,-0.606621 h 0.0486 m -0.0486,0 v 0.242651 0.218385 0.09706 0.04856 m 0,-1.383103 h 0.0486 m -0.0486,0 v 0.776481 m 0,0.727948 h 0.0486 m -0.0486,-0.09706 v 0.09706 m 0,10.870723 h 0.0486 m -0.0486,-0.800747 v 0.04856 0.218385 0.242652 0.291184 m 0,-0.800747 h 0.0486 m -0.0486,1.480162 h 0.0486 m -0.0486,-0.679415 v 0.266911 0.218385 0.121326 0.07279 m 0,0.04856 h 0.0486 m -0.0486,0 v 0 m 0,1.674288 h 0.0486 m -0.0486,-0.582363 h 0.0486 m -0.0486,0 v 0.242652 0.218385 0.09706 0.02428 m 0,-1.358843 v 0.776481 m 0,-0.776481 h 0.0486 m -0.0486,1.504429 h 0.0486 m -0.0486,-0.09706 v 0.09706 m 0,-35.378369 h 0.0486 m -0.0486,-0.242644 v 0.242644 m 0,-0.242644 h 0.0486 m -0.0486,-0.84928 h 0.0486 m -0.0486,-0.266912 v 0.266912 m 0,-0.266912 h 0.0486 m -0.0486,0.679422 h 0.0486 m -0.0486,0 v 0.145585 0.145593 0.09706 0.04856 m 0,-0.84928 v 0 0.09707 0.145586 0.169858 m 0,1.674281 h 0.0486 m -0.0486,-0.606622 v 0.02428 0.09706 0.121326 0.36397 m 0,-0.606621 h 0.0486 m -0.0486,1.261776 h 0.0486 m -0.0486,-0.655155 v 0.266919 0.242651 0.121326 0.02428 m 0,0.04856 h 0.0486 m -0.0486,-1.383103 h 0.0486 m -0.0486,0 v 0.04849 m 0,2.936064 h 0.0486 m -0.0486,-0.582355 v 0.218384 0.218385 0.09706 0.04856 m 0,-0.582355 h 0.0486 m -0.0486,-0.679422 v 0.679422 m 0,-0.679422 h 0.0486 m -0.0486,1.31031 h 0.0486 m -0.0486,13.224425 v -0.04856 m 0,0 v -0.02428 -0.04856 -0.0728 -0.07279 -0.09706 -0.04856 m 0,0.776481 h 0.0486 m -0.0486,0.33971 v -0.02428 -0.07279 -0.09706 -0.145592 m 0,-0.121326 h 0.0486 m -0.0486,0.121326 V 49.21102 m 0,-0.121326 h 0.0486 m -0.0486,0 v -0.121318 m 0,0 h 0.0486 m -0.0486,0.242644 v -0.02428 -0.09707 m 30.69523,-16.08769 v 3.882397 m 1.4559,-2.062524 -1.4559,-1.819873 m 1.62575,1.892672 h -0.0728 l -0.0243,-0.02428 -0.0728,-0.04856 m 0.31545,0 -0.0486,0.02428 -0.0243,0.02428 -0.0728,0.02428 m 1.60149,-1.892672 -1.4559,1.819873 m 1.4559,2.062524 V 33.00198 m 0.21839,4.100782 -0.0971,-0.02428 -0.0728,-0.04856 -0.0243,-0.07279 -0.0243,-0.0728 m 1.4559,0.218385 h -1.23752 m 1.43164,-0.218385 -0.0243,0.09706 -0.0486,0.0728 -0.0485,0.02428 -0.0728,0.02428 m 0.19412,-6.430224 v 6.211839 m -0.19412,-6.405957 h 0.0728 l 0.0728,0.07279 0.0243,0.04856 0.0243,0.07279 m -1.35861,-0.194113 h 1.16472 m -1.33458,0.07279 0.0486,-0.04849 0.0243,-0.02428 h 0.0971 m -1.89266,2.256642 1.72281,-2.183849 m -3.46989,0 1.74708,2.183849 m -1.91694,-2.256642 h 0.0728 l 0.0243,0.02428 0.0728,0.04849 m -1.33457,-0.07279 h 1.16472 m -1.35884,0.194119 0.0243,-0.09706 0.0486,-0.04856 0.0728,-0.04856 h 0.0486 m -0.19412,6.405958 v -6.211839 m 0.19412,6.430224 -0.0728,-0.02428 -0.0728,-0.04856 -0.0243,-0.07279 -0.0243,-0.0728 m 1.43163,0.218385 h -1.23752 m -14.63179,-4.974322 h -1.26179 m 1.4559,-0.194119 -0.0243,0.07279 -0.0486,0.07279 -0.0486,0.02428 -0.0728,0.02428 m 0.19413,-1.455902 v 1.261784 m -0.19413,-1.455902 h 0.0971 l 0.0486,0.07279 0.0486,0.04856 v 0.07279 m -1.4559,-0.194119 h 1.26177 m -1.45589,0.194119 0.0243,-0.09706 0.0485,-0.04856 0.0486,-0.04856 h 0.0728 m -0.19412,1.455903 v -1.261784 m 17.5436,6.211839 -0.0243,0.09706 -0.0486,0.0728 -0.0728,0.02428 -0.0728,0.02428 m -18.32007,-6.04198 v 3.227242 m 2.64489,2.596353 -0.0243,0.09706 -0.0486,0.0728 -0.0486,0.02428 -0.0728,0.02428 m 5.24124,-6.624342 h 1.40739 m 15.4568,8.104236 h -21.45026 m 22.34806,-8.686873 v 0.946339 m -16.54873,1.33457 0.80075,-1.019126 m -8.51702,0.9706 -0.0728,-0.02428 -0.0728,-0.04856 -0.0486,-0.04856 v -0.07279 m -1.60149,-1.455903 0.26691,0.04856 0.19412,0.169852 0.0971,0.169852 0.0486,0.194125 m -5.02286,-0.582362 h 1.21325 1.26178 1.9412 m -4.63461,0.194118 0.0243,-0.09706 0.0485,-0.04856 0.0728,-0.04856 h 0.0728 m -0.21838,6.405957 V 30.67212 m 0.21838,6.430224 -0.0971,-0.02428 -0.0728,-0.04856 -0.0243,-0.07279 -0.0243,-0.0728 m 1.48017,0.218385 h -1.26179 m 1.4559,-0.218385 -0.0243,0.09706 -0.0486,0.0728 -0.0486,0.02428 -0.0728,0.02428 m 0.19413,-2.20811 v 1.989725 m 2.96033,-1.989725 h -0.82501 -0.84928 -1.28604 m 3.56695,-0.606629 -0.0728,0.266918 -0.14559,0.194119 -0.19412,0.09706 -0.19412,0.04856 m 3.25151,-1.941206 v 3.93093 m -0.19412,-4.125048 0.0971,0.02428 0.0486,0.04856 0.0486,0.04856 v 0.07279 m -1.4559,-0.194119 h 1.26177 m -1.45589,0.194119 0.0243,-0.09706 0.0486,-0.04856 0.0486,-0.04856 h 0.0728 m -0.19411,4.125048 v -3.93093 m 0.19411,4.149315 -0.0728,-0.02428 -0.0728,-0.04856 -0.0486,-0.07279 v -0.0728 m 1.4559,0.218385 h -1.26179 m 6.35743,-6.55155 0.0243,-0.04849 0.0486,-0.02428 h 0.0728 m -0.48529,0.485303 0.33971,-0.41251 m -2.23238,2.814745 1.89267,-2.402235 m -1.89267,-0.291185 v 2.69342 m -0.19412,-2.887538 h 0.0728 l 0.0728,0.07279 0.0243,0.04856 0.0243,0.07279 m -1.45589,-0.194119 h 1.26177 m -1.45589,0.194119 v -0.09706 l 0.0728,-0.04856 0.0486,-0.04856 h 0.0728 m -0.19412,6.405957 v -6.211839 m 0.19412,6.430224 -0.0971,-0.02428 -0.0486,-0.04856 -0.0486,-0.07279 v -0.0728 m 1.45591,0.218385 h -1.26179 m 1.45589,-0.218385 -0.0243,0.09706 -0.0486,0.0728 -0.0486,0.02428 -0.0728,0.02428 m 0.19412,-3.130182 v 2.911797 m 1.84414,-0.558096 -1.84414,-2.353701 m 2.40223,3.057389 -0.55809,-0.703688 m 0.72795,0.776481 -0.0728,-0.02428 h -0.0243 l -0.0728,-0.04856 m 1.79561,0.07279 h -1.62576 m 1.79561,-0.121326 -0.0243,0.04856 -0.0486,0.04856 h -0.0486 l -0.0486,0.02428 m 0.14559,-0.339711 0.0486,0.04856 v 0.07279 0.04856 l -0.0243,0.04849 m -2.59636,-3.445627 2.5721,3.227242 m -0.38825,-5.969188 -2.18385,2.741946 m 2.20812,-2.960331 v 0.07279 0.04856 l -0.0243,0.09706 m -0.16985,-0.315445 h 0.0728 l 0.0486,0.02428 0.0486,0.04849 0.0243,0.02428 m -6.18757,8.007452 v 0.946332 m 0,0 0.0486,0.169859 0.12132,0.145586 0.12133,0.0728 0.12132,0.02428 m 0,0 h 30.93788 m 0,0 0.16985,-0.04856 0.14559,-0.09706 0.0728,-0.121326 0.0243,-0.145592 m 0,0 v -7.789067 m 0,0 -0.0486,-0.169852 -0.0971,-0.121326 -0.12132,-0.07279 -0.14559,-0.02428 m 0,0 h -9.0023 m 0,0 v 6.308898 m 0,0 -0.0728,0.412504 -0.24265,0.291184 -0.26691,0.169852 -0.31545,0.04856 m 0.89781,-7.740534 h 9.00231 m 0,0 0.38824,0.09706 0.31545,0.242652 0.14558,0.266911 0.0486,0.291177 m 0,0 v 7.789157 m 0,0 -0.0728,0.388244 -0.24265,0.315444 -0.26691,0.145585 -0.31545,0.04856 m 0,0 h -30.93787 m 0,0 -0.38824,-0.07279 -0.29118,-0.242651 -0.16985,-0.266918 -0.0486,-0.315445 m 0,0 v -0.946332 m 0,0 h -9.00214 m 0,0 -0.38824,-0.09706 -0.29118,-0.242651 -0.16986,-0.266918 -0.0485,-0.315444 m 0,0 v -7.764801 m 0,0 0.0971,-0.388237 0.21838,-0.315444 0.26691,-0.145592 0.31546,-0.07279 m 0,0 h 30.93786 m 0,0 0.38824,0.09706 0.31545,0.242652 0.14559,0.266911 0.0486,0.315444 m -16.52446,2.523561 -0.0485,-0.07279 v -0.07279 -0.04856 l 0.0243,-0.04856 m 3.61548,4.78021 -3.59122,-4.537558 m 3.76107,4.610351 -0.0728,-0.02428 h -0.0243 l -0.0728,-0.04856 m 0.31545,0 -0.0486,0.02428 -0.0243,0.02428 -0.0728,0.02428 m 3.51843,-4.222107 -3.37284,4.149314 m 3.42137,-4.27064 v 0.07279 l -0.0486,0.04856 m 0.0486,-2.135324 v 2.013998 m -0.12133,-2.18385 0.0485,0.02428 0.0486,0.04856 0.0243,0.04856 v 0.04856 m -0.33971,-0.121325 0.0486,-0.04849 0.0486,-0.02428 h 0.0728 l 0.0486,0.02428 m -1.09192,1.091925 0.87354,-1.043399 m -3.25152,3.955196 2.37798,-2.911797 m -4.58609,0.121326 2.20811,2.790471 m -2.64488,-3.348567 0.43677,0.558096 m -0.60663,-0.630896 h 0.0485 l 0.0486,0.02428 0.0728,0.04856 m -0.31545,0 0.0243,-0.02428 0.0486,-0.02428 0.0728,-0.02428 m -11.5259,0.606485 h -1.89267 m 1.89267,1.916932 v -1.916932 m -1.89267,1.916932 h 1.89267 m -1.89267,-1.916932 v 1.916932 m 33.67982,-1.237511 -1.26178,3.736805 m 0,0 -0.0243,0.02428 -0.0243,0.02428 -0.0486,0.04856 m 0,0 h -0.0243 -0.0486 m 0,0 h -0.0243 -0.0243 m 0,0 -0.0728,-0.04856 -0.0486,-0.07279 m 0,0 -1.26178,-3.712545 m 0,0 v -0.0728 -0.04856 l 0.0243,-0.04856 0.0243,-0.02428 m 0,0 0.0485,-0.02428 0.0243,-0.02428 m 0,0 h 0.0486 0.0243 m 0,0 h 0.0486 l 0.0486,0.04849 0.0243,0.02428 0.0243,0.04856 m 0,0 1.09193,3.227242 m 0,0 1.09192,-3.227242 m 0,0 0.0243,-0.0728 0.0486,-0.02428 0.0971,-0.02428 m 0,0 h 0.0243 0.0486 m 0,0 0.0243,0.02428 0.0243,0.02428 m 0,0 0.0486,0.02428 v 0.04856 l 0.0243,0.04856 -0.0243,0.0728 m 2.30517,2.669146 v -2.11105 m 0.75222,2.475028 h -0.38825 m 0,0 v 0.606621 m 0,0 -0.0243,0.09706 -0.0243,0.04856 m 0,0 v 0 m 0,0 -0.0728,0.02428 -0.0485,0.02428 m 0,0 -0.0971,-0.02428 -0.0486,-0.02428 m 0,0 v 0 m 0,0 -0.0243,-0.07279 -0.0243,-0.0728 m 0,0 v -0.606622 m 0,0 h -1.57723 m 0,0 h -0.0243 -0.0243 m 0,0 h -0.0243 v -0.02428 m 0,0 v 0 m 0,0 h -0.0243 m 0,0 -0.0486,-0.04856 -0.0243,-0.04856 m 0,0 v -0.07279 -0.04856 m 0,0 v -0.02428 m 0,0 1.77134,-2.936064 m 0,0 0.0486,-0.02428 0.0243,-0.02428 m 0,0 0.0486,-0.02428 h 0.0486 m 0,0 h 0.0728 l 0.0486,0.04849 m 0,0 v 0 m 0,0 0.0486,0.04856 v 0.07279 m 0,0 v 2.741946 m 0,0 h 0.38824 m 0,0 0.0971,0.02428 0.0486,0.04856 m 0,0 v 0 m 0,0 0.0243,0.04856 0.0243,0.07279 m 0,0 -0.0243,0.0728 -0.0243,0.04849 m 0,0 -0.0728,0.04856 h -0.0728 m -0.75221,-2.475028 -1.26178,2.111051 m 0,0 h 1.26178 m -4.12505,2.644886 v 0 m -0.21839,-0.218385 0.0971,0.02428 0.0728,0.04856 0.0243,0.0728 0.0243,0.07279 m -0.72795,-0.218385 h 0.50956 m -0.50956,1.164718 v -1.164718 m 0.50956,1.164718 h -0.50956 m 0.72795,-0.218385 -0.0243,0.09706 -0.0486,0.0728 -0.0728,0.02428 -0.0728,0.02428 m 0.21838,-0.946332 v 0.727947 m -1.04339,-1.091925 v 1.916939 m 0.14559,-2.086791 -0.0728,0.02428 -0.0486,0.04856 -0.0243,0.04856 v 0.04856 m 0.82501,-0.169852 h -0.67942 m 1.21325,0.53383 -0.0486,-0.218385 -0.14559,-0.194119 -0.14559,-0.0728 -0.19412,-0.04849 m 0.53383,0.533829 v 0 m 0,0.727948 V 37.68497 m -0.53383,1.261777 0.24265,-0.04856 0.16986,-0.145592 0.0971,-0.145585 0.0243,-0.194126 m -1.04339,0.533829 h 0.50956 m -0.50956,0.291185 v -0.291185 m -0.16986,0.461037 0.0728,-0.02428 0.0486,-0.04856 0.0243,-0.04856 0.0243,-0.04856 m -0.31544,0 v 0.07279 l 0.0486,0.04856 0.0485,0.02428 0.0486,0.02428 m 2.18385,-0.994866 v -1.722813 m 0.19412,1.941198 -0.0728,-0.02428 -0.0728,-0.04856 -0.0486,-0.07279 v -0.0728 m 0.36397,0.363977 -0.0243,-0.07279 -0.0243,-0.04856 -0.0486,-0.02428 h -0.0728 m 0,0.315444 0.0728,-0.02428 0.0486,-0.04856 0.0243,-0.02428 0.0243,-0.07279 m -0.67941,-0.363977 0.0486,0.242651 0.14558,0.169859 0.1456,0.07279 0.16985,0.04856 m -0.50957,-2.256642 v 1.722813 m 0.1456,-1.892665 -0.0728,0.02428 -0.0486,0.04856 -0.0243,0.04856 v 0.04856 m 0.31545,0 -0.0243,-0.07279 -0.0486,-0.04856 -0.0243,-0.02428 -0.0728,-0.02428 m 2.32944,2.256643 v -1.455903 m -0.14559,1.625755 0.0486,-0.02428 0.0728,-0.04856 0.0243,-0.02428 v -0.07279 m -0.77648,0.169852 h 0.63088 m -1.14045,-0.53383 0.0486,0.242652 0.14559,0.169859 0.14559,0.07279 0.16985,0.04856 m -0.50956,-1.625754 v 1.091925 m 0.14559,-1.261777 -0.0486,0.02428 -0.0728,0.04856 -0.0243,0.04856 v 0.04856 m 0.31545,0 -0.0243,-0.07279 -0.0486,-0.04856 -0.0243,-0.02428 -0.0728,-0.02428 m 0.16986,1.261777 v -1.091925 m 0.19411,1.31031 -0.0728,-0.02428 -0.0728,-0.04856 -0.0486,-0.07279 v -0.0728 m 0.65515,0.218385 h -0.46103 m 0.46103,-1.31031 v 1.31031 m 0.16985,-1.480162 -0.0728,0.02428 -0.0486,0.04856 -0.0486,0.04856 v 0.04856 m 0.31545,0 -0.0243,-0.07279 -0.0243,-0.04856 -0.0486,-0.02428 -0.0486,-0.02428 m 1.45591,1.795606 0.21838,-0.04856 0.16985,-0.145593 0.0971,-0.145585 0.0243,-0.169859 m -0.77648,0.509563 h 0.26692 m -0.63089,-0.169852 0.19412,0.121326 0.16985,0.04856 m -0.4125,-0.266911 v 0.07279 l 0.0486,0.02428 m 0.0971,-0.266918 -0.0486,0.02428 -0.0728,0.04856 -0.0243,0.04856 v 0.04856 m 0.26692,-0.121326 -0.0486,-0.02428 -0.0728,-0.02428 m 0.26692,0.121325 -0.0971,-0.02428 -0.0486,-0.04856 m 0.41251,0.07279 h -0.26691 m 0.46103,-0.194118 -0.0243,0.09706 -0.0486,0.04856 -0.0486,0.02428 -0.0728,0.02428 m 0.19412,-0.218385 v 0.02428 m -0.16986,-0.218385 0.0728,0.02428 0.0486,0.04856 0.0243,0.04856 0.0243,0.07279 m -0.41251,-0.242645 0.24265,0.04849 m -0.67942,-0.558096 0.0486,0.218385 0.0971,0.145592 0.12133,0.09706 0.16985,0.04856 m -0.43677,-0.533836 v 0.02428 m 0.48531,-0.509562 -0.21839,0.04849 -0.16986,0.145593 -0.0728,0.121325 -0.0243,0.169852 m 0.67942,-0.485296 h -0.19409 m 0.55809,0.169852 -0.19412,-0.121326 -0.16985,-0.04849 m 0.4125,0.266911 v -0.04849 l -0.0486,-0.04856 m -0.0971,0.266918 0.0486,-0.02428 0.0728,-0.04856 0.0243,-0.02428 v -0.0728 m -0.26691,0.121325 0.0486,0.02428 0.0728,0.02428 m -0.26692,-0.121326 0.0971,0.02428 0.0486,0.04856 m -0.33972,-0.07279 h 0.19412 m -0.36397,0.169852 0.0243,-0.07279 0.0243,-0.04856 0.0486,-0.02428 0.0728,-0.02428 m -0.16986,0.194119 v -0.02428 m 0.16986,0.218385 -0.0728,-0.02428 -0.0728,-0.04856 -0.0243,-0.04856 v -0.0728 m 0.41251,0.242651 -0.24265,-0.04856 m 0.67942,0.558095 -0.0486,-0.194118 -0.12133,-0.169852 -0.12132,-0.09706 -0.14559,-0.04856 m 0.43677,0.533829 V 38.41278 M 475.36425,25.042769 v -0.02428 m 0,0 v 0 m 0,46.782914 v 0 m 0,0 v 0 m 81.91864,-6.333164 h -0.0728 m 0.0728,0.485303 v -0.315445 -0.169858 m 0,0.485303 h -0.0728 m 0.0728,-0.630889 h -0.0728 m 0.0728,0.145586 v -0.145586 m 0,-1.650021 h -0.0728 m 0.0728,0.53383 v -0.218385 -0.194119 -0.09706 -0.02428 m 0,0.533829 h -0.0728 m 0.0728,0.582362 v -0.0728 -0.145586 -0.169859 -0.194118 m 0,0.582362 h -0.0728 m 0.0728,-1.140458 h -0.0728 m 0.0728,1.164718 h -0.0728 m 0.0728,-2.98459 h -0.0728 m 0.0728,0.266911 V 61.82848 m 0,0.266911 h -0.0728 m 0.0728,0.485303 v -0.485303 m 0,0.485303 h -0.0728 m 0.0728,0.194118 h -0.0728 m 0.0728,0.485303 v -0.485303 m 0,0.485303 h -0.0728 m 0.0728,0.266911 v -0.266911 m 0,0.266911 h -0.0728 m 0.0728,-0.849273 h -0.0728 m 0.0728,0.09706 v -0.04856 -0.04856 m 0,0 v -0.04856 -0.04856 m 0,2.669146 h -0.0728 m 0.0728,0 v -0.43677 m 0,0.50957 v -0.0728 m 0,-1.625754 v -0.09706 m 0,-16.718585 h -0.0728 m 0.0728,0.242651 h -0.0728 m 0.0728,0 V 46.80832 m 0,-1.164718 h -0.0728 m 0.0728,0.849273 V 46.420081 46.225962 45.959044 45.6436 m 0,0.849273 h -0.0728 m 0.0728,-1.67428 h -0.0728 m 0.0728,0.825007 v -0.363977 -0.291178 -0.145592 -0.02428 m 0,-0.33971 v -0.02428 m 0,0.02428 h -0.0728 m 0.0728,10.894983 h -0.0728 m 0.0728,0.242651 v -0.242651 m 0,0.242651 h -0.0728 m 0.0728,-1.091925 v -0.266918 m 0,0.266918 h -0.0728 m 0.0728,-0.266918 h -0.0728 m 0.0728,0.703688 h -0.0728 m 0.0728,0.412504 v 0 -0.09706 -0.145592 -0.169852 m 0,0 v -0.145592 -0.145592 -0.09706 -0.04856 m 0,-1.916939 h -0.0728 m 0.0728,0.655155 v -0.242651 -0.242645 -0.121326 -0.04856 m 0,0.655155 h -0.0728 m 0.0728,0.606628 h -0.0728 m 0.0728,0 v -0.02428 -0.07279 -0.121325 -0.388244 m 0,-0.703681 h -0.0728 m 0.0728,1.383102 h -0.0728 m 0.0728,0 v -0.02428 m 0,-2.936064 h -0.0728 m 0.0728,0.582362 v -0.242651 -0.194119 -0.09706 -0.04856 m 0,0.582363 h -0.0728 m 0.0728,0.655155 h -0.0728 m 0.0728,0 v -0.655155 m 0,-0.655155 h -0.0728 m 0.0728,-11.161901 h -0.0728 m 0.0728,0 v 3.445626 m 0,0 h -0.0728 m 0.0728,1.261784 h -0.0728 m 0.0728,-1.261784 v 0.242652 0.242651 0.218385 0.194119 0.169859 0.09706 0.07279 0.02428 m 0,9.584673 h -0.0728 m 0.0728,-0.09706 v 0 0.02428 0.02428 0.02428 0.02428 m 0,1.019132 h -0.0728 m 0.0728,-1.019132 v 0.218385 m -82.9863,-11.817056 v 0.02428 0.09706 0.194119 0.242651 0.291185 0.339704 0.388244 0.43677 0.43677 0.461036 0.46103 0.43677 0.43677 0.388243 0.339711 0.315444 0.218385 0.194119 0.09706 0.04856 m 0,7.958919 v 0.02428 0.121326 0.169852 0.242651 0.291178 0.339711 0.412503 0.412503 0.43677 0.461037 0.461036 0.43677 0.43677 0.388237 0.339711 0.315444 0.242652 0.169859 0.09706 0.04856 m 68.74274,2.669153 -0.89781,-0.897806 m 0.89781,0.897806 h -9.82732 m 0.8978,-0.897806 -0.8978,0.897806 m 0.8978,-0.897806 h 8.03171 m -9.12363,0.679421 0.8978,-0.897806 m 0,0 v 0.07279 l 0.0486,0.0728 0.0486,0.04856 0.0486,0.02428 h 0.0486 m -0.89781,0.897806 -0.0728,-0.02428 -0.0486,-0.02428 -0.0486,-0.02428 -0.0243,-0.07279 v -0.07279 m 9.12363,-16.597259 0.89781,-0.897807 m -0.89781,0.897807 h -8.03171 m -0.89781,-0.897807 0.89781,0.897807 m -0.89781,-0.897807 h 9.82733 m -8.92952,0.897807 h -0.0728 l -0.0486,0.04856 -0.0485,0.04856 -0.0243,0.07279 v 0.04856 m 0,0 -0.89781,-0.897806 m 0,0 v -0.07279 l 0.0243,-0.0728 0.0486,-0.02428 0.0486,-0.02428 0.0728,-0.02428 m 9.75453,18.344339 v -0.02428 m -9.68173,0.02428 h 9.68173 m -9.68173,0 v -0.02428 m 0,0 h 9.68173 m -10.57954,-0.897807 0.0486,0.315451 0.14559,0.266911 0.24265,0.218385 0.26692,0.09706 0.19412,0.02428 m -0.89781,-0.922073 v 0 m 0,0 0.0486,0.315451 0.14559,0.266911 0.24265,0.194119 0.26692,0.09706 0.19412,0.02428 M 532.38732,47.342241 V 64.47333 m 0,-17.131089 v 0 m 0,0 V 64.47333 m 0.89781,-18.053155 v 0.02428 m 9.68173,-0.02428 h -9.68174 m 9.68173,0 v 0.02428 m 0,0 h -9.68173 m 10.57954,0.8978 -0.0486,-0.315444 -0.14559,-0.266911 -0.24265,-0.218385 -0.26692,-0.09706 -0.19411,-0.02428 m 0.8978,0.922066 v 0 m 0,0 -0.0728,-0.315444 -0.14558,-0.266911 -0.21839,-0.194119 -0.26692,-0.09707 -0.19411,-0.02428 m -0.63089,17.203881 0.8978,0.897807 m 0,0 v 0.07279 l -0.0243,0.04856 -0.0243,0.04849 -0.0486,0.02428 -0.0486,0.02428 h -0.0486 m -0.89779,-0.897806 0.0486,-0.02428 0.0728,-0.02428 0.0485,-0.04856 0.0243,-0.07279 v -0.04856 M 543.0394,47.05097 h 0.0486 l 0.0486,0.02428 0.0486,0.02428 0.0243,0.04849 0.0243,0.04856 v 0.07279 m 0,0 -0.89781,0.897806 m 0,0 v -0.07279 l -0.0486,-0.0728 -0.0486,-0.04856 -0.0485,-0.02428 h -0.0486 m -8.85672,-1.528695 -0.29118,0.04856 -0.29119,0.145592 -0.19412,0.242652 -0.097,0.266911 -0.0243,0.218385 m 0.8978,-0.8978 -0.29118,0.04849 -0.26691,0.145592 -0.21839,0.242652 -0.0971,0.242644 -0.0243,0.218385 m 11.47735,17.131089 V 47.342119 m -0.89781,18.028895 0.29118,-0.04856 0.26692,-0.145593 0.19411,-0.242651 0.12133,-0.242652 0.0243,-0.218385 m -0.63089,-17.203881 v 17.276681 m -10.21557,0 V 47.269292 m 10.84646,17.203881 V 47.342085 m 0,17.131088 v 0 m -0.89781,0.922073 0.29118,-0.04856 0.29119,-0.145586 0.19411,-0.242651 0.0971,-0.266918 0.0243,-0.218385 m -1.52869,-0.825007 V 48.167071 m -8.41996,0 v 15.481068 m 0.19412,-15.699453 -0.0728,0.02428 -0.0486,0.02428 -0.0486,0.04856 -0.0243,0.07279 v 0.04856 m 0,0 v 0 m 0.19412,-0.218385 v 0 m 8.22583,0.218385 -0.0243,-0.07279 -0.0243,-0.0728 -0.0486,-0.02428 -0.0486,-0.04856 h -0.0486 m 0,0 v 0 m 0.19412,0.218385 v 0 m -0.19412,15.699453 0.0486,-0.02428 0.0728,-0.02428 0.0485,-0.04856 0.0243,-0.07279 v -0.04856 m 0,0 v 0 m -0.19412,0.218385 v 0 m -8.22584,-0.218385 v 0.07279 l 0.0486,0.0728 0.0486,0.02428 0.0486,0.04856 h 0.0486 m 0,0 v 0 m -0.19411,-0.218385 v 0 m 8.41995,0 V 48.167071 m -8.22583,15.69968 h 8.03171 M 533.9158,48.167298 v 15.481068 m 8.22583,-15.699453 h -8.03171 m 7.74053,0.485296 h -7.44935 m 7.44935,14.947239 V 48.434209 m -7.44935,14.947239 h 7.44935 M 534.4011,48.434209 v 14.947239 m 22.8091,-35.499687 h 0.0243 m 0,0 v 10.531005 m -0.0243,0 h 0.0243 m -0.0243,-10.531005 h 0.0243 m -0.0243,28.462841 h 0.14559 m -0.14559,-3.906663 h 0.14559 m 0,0 v 0.36397 0.315451 0.315444 0.485297 0.485303 0.509562 0.485303 0.606622 0.339711 m 0,0 v 1.504428 m 0,-6.89126 v 1.480169 m 0,-2.086791 v 0.02428 0.04856 0.145592 0.194119 0.194118 m 0,6.891261 v 0.194118 0.194125 0.121319 0.0728 m -0.12141,-22.44512 v 0 l 0.0243,0.121319 0.0243,0.121326 v 0.145592 0.121326 l 0.0243,0.145592 v 0.121319 m 0,0 v 0.145592 l -0.0243,0.121326 v 0.145592 0.121326 l -0.0243,0.121319 -0.0243,0.145592 m 0.0728,-8.055978 v -0.121326 l -0.0243,-0.121326 V 29.119319 28.998 l -0.0243,-0.145592 -0.0243,-0.121326 m 0,1.577228 v 0 l 0.0243,-0.121326 0.0243,-0.145592 v -0.121326 -0.145592 l 0.0243,-0.121319 v -0.145592 m -0.0971,28.341516 h 0.14559 m -0.0728,-6.891261 h 0.0728"
       style="fill:none;stroke:#000000;stroke-width:0.179917;stroke-linecap:round;stroke-linejoin:round;stroke-miterlimit:10;stroke-dasharray:none;stroke-opacity:1" />
    <path
       id="path16-4"
       d="m 475.87373,71.291854 v 0 m 0,-45.739522 v 0 m 81.36054,2.329442 v 0"
       style="fill:none;stroke:#000000;stroke-width:0.179917;stroke-linecap:round;stroke-linejoin:round;stroke-miterlimit:10;stroke-dasharray:none;stroke-opacity:1" />
    <path
       style="font-variation-settings:normal;opacity:1;vector-effect:none;fill:none;fill-opacity:1;stroke:#005cd8;stroke-width:0.529167;stroke-linecap:round;stroke-linejoin:round;stroke-miterlimit:4;stroke-dasharray:none;stroke-dashoffset:0;stroke-opacity:1;-inkscape-stroke:none;stop-color:#000000;stop-opacity:1"
       d="m 538.26198,70.798657 v 9.160986"
       id="path31"
       sodipodi:nodetypes="cc" />
    <circle
       style="font-variation-settings:normal;opacity:1;vector-effect:none;fill:#005cd8;fill-opacity:1;stroke:none;stroke-width:0.529167;stroke-linecap:butt;stroke-linejoin:miter;stroke-miterlimit:4;stroke-dasharray:none;stroke-dashoffset:0;stroke-opacity:1;-inkscape-stroke:none;stop-color:#000000;stop-opacity:1"
       id="circle31"
       cx="538.26135"
       cy="82.029083"
       r="2.0694654" />
    <path
       style="font-weight:800;font-size:2.91279px;line-height:1.25;font-family:Cantarell;-inkscape-font-specification:'Cantarell Ultra-Bold';fill:#ffffff;stroke-width:0.529167"
       d="m 538.11689,83.039825 h 0.50391 v -2.021476 h -0.30002 l -0.81267,0.404878 0.18934,0.361186 0.41944,-0.174767 z"
       id="text31"
       aria-label="1" />
  </g>
</svg>
