<?xml version="1.0" encoding="UTF-8" standalone="no"?>
<!-- Created with Inkscape (http://www.inkscape.org/) -->

<svg
   width="82.178139mm"
   height="49.414616mm"
   viewBox="0 0 82.178139 49.414618"
   version="1.1"
   id="svg1"
   inkscape:version="1.4 (e7c3feb100, 2024-10-09)"
   sodipodi:docname="v3-parts.svg"
   xmlns:inkscape="http://www.inkscape.org/namespaces/inkscape"
   xmlns:sodipodi="http://sodipodi.sourceforge.net/DTD/sodipodi-0.dtd"
   xmlns="http://www.w3.org/2000/svg"
   xmlns:svg="http://www.w3.org/2000/svg">
  <title
     id="title1">PIKVM V3 Line Drawings</title>
  <sodipodi:namedview
     id="namedview1"
     pagecolor="#ffffff"
     bordercolor="#000000"
     borderopacity="0.25"
     inkscape:showpageshadow="2"
     inkscape:pageopacity="0.0"
     inkscape:pagecheckerboard="0"
     inkscape:deskcolor="#d1d1d1"
     inkscape:document-units="mm"
     inkscape:zoom="1.4142136"
     inkscape:cx="503.10647"
     inkscape:cy="491.79277"
     inkscape:window-width="1280"
     inkscape:window-height="681"
     inkscape:window-x="0"
     inkscape:window-y="0"
     inkscape:window-maximized="1"
     inkscape:current-layer="layer1"
     showguides="true">
    <sodipodi:guide
       position="78.305181,125.28786"
       orientation="0,-1"
       id="guide13"
       inkscape:locked="false" />
    <sodipodi:guide
       position="57.16416,168.34421"
       orientation="0,-1"
       id="guide16"
       inkscape:locked="false" />
    <sodipodi:guide
       position="93.065655,157.15765"
       orientation="0,-1"
       id="guide17"
       inkscape:locked="false" />
    <sodipodi:guide
       position="152.27951,110.20662"
       orientation="0,-1"
       id="guide18"
       inkscape:locked="false" />
    <sodipodi:guide
       position="174.26814,130.78553"
       orientation="0,-1"
       id="guide26"
       inkscape:locked="false" />
    <inkscape:page
       x="-4.6378223e-06"
       y="7.4427481e-07"
       width="82.178139"
       height="49.414619"
       id="page5"
       margin="0"
       bleed="0"
       inkscape:label="v3-ethernet-wiring" />
    <sodipodi:guide
       position="3.783633,103.08011"
       orientation="1,0"
       id="guide5"
       inkscape:locked="false" />
    <sodipodi:guide
       position="194.73804,107.83557"
       orientation="1,0"
       id="guide6"
       inkscape:locked="false" />
    <sodipodi:guide
       position="153.29254,22.929492"
       orientation="0,-1"
       id="guide7"
       inkscape:locked="false" />
    <sodipodi:guide
       position="34.840285,118.1581"
       orientation="1,0"
       id="guide1"
       inkscape:locked="false" />
    <sodipodi:guide
       position="142.17824,151.42505"
       orientation="1,0"
       id="guide2"
       inkscape:locked="false" />
    <sodipodi:guide
       position="72.093597,108.61911"
       orientation="0,-1"
       id="guide3"
       inkscape:locked="false" />
    <sodipodi:guide
       position="332.71987,153.41043"
       orientation="0,-1"
       id="guide4"
       inkscape:locked="false" />
    <sodipodi:guide
       position="428.64459,119.77254"
       orientation="1,0"
       id="guide8"
       inkscape:locked="false" />
    <sodipodi:guide
       position="78.814803,33.01425"
       orientation="0,-1"
       id="guide9"
       inkscape:locked="false" />
    <sodipodi:guide
       position="70.753752,39.999285"
       orientation="1,0"
       id="guide10"
       inkscape:locked="false" />
    <sodipodi:guide
       position="166.57164,51.359284"
       orientation="0,-1"
       id="guide19"
       inkscape:locked="false" />
    <sodipodi:guide
       position="10.516988,20.525936"
       orientation="1,0"
       id="guide20"
       inkscape:locked="false" />
    <sodipodi:guide
       position="76.303093,69.632973"
       orientation="0,-1"
       id="guide21"
       inkscape:locked="false" />
  </sodipodi:namedview>
  <defs
     id="defs1" />
  <g
     inkscape:label="Layer 1"
     inkscape:groupmode="layer"
     id="layer1"
     transform="translate(-54.039792,-108.66114)">
    <circle
       style="font-variation-settings:normal;vector-effect:none;fill:none;fill-opacity:1;stroke:#005cd8;stroke-width:1.05833;stroke-linecap:butt;stroke-linejoin:miter;stroke-miterlimit:4;stroke-dasharray:none;stroke-dashoffset:0;stroke-opacity:1;-inkscape-stroke:none;stop-color:#000000"
       id="circle12-9"
       cx="118.08562"
       cy="141.58107"
       r="13.41443" />
    <path
       id="path3-2"
       d="m 71.376086,155.96376 v -1.62278 m -7.020277,0 v 1.62278 m 62.018321,0 v -1.62278 m -6.985,0 v 1.62278 m -36.759433,-23.28333 -0.07056,-0.52917 m 2.610555,0.52917 -0.03528,-0.52917 m -1.023056,0 0.03528,0.52917 m -1.516944,0 v 0 m 1.516944,0 v 0 m 1.023055,0 v 0 m 35.665819,-16.79222 v 1.05833 m -23.424429,12.7 v 0.0353 m -18.697223,-3.52778 v 0.3175 m 17.497773,3.175 v 0.0353 m 0.49389,0 v -0.0353 m 5.291659,0 v 0.0353 m 0.49389,0 v -0.0353 m -24.2711,0 v 0.0353 m 0.493888,0 v -0.0353 m 5.256389,0 v 0.0353 m 0.529167,0 v -0.0353 m 35.383606,-8.64306 v -1.72861 m -0.45861,0 v 1.72861 m -4.62139,0 v -1.72861 m -0.45861,0 v 1.72861 m 1.48167,0 v -1.72861 m -0.45862,0 v 1.72861 m 1.48167,0 v -1.72861 m -0.45861,0 v 1.72861 m 1.44639,0 v -1.72861 m -0.45861,0 v 1.72861 m 1.48166,0 v -1.72861 m -0.45861,0 v 1.72861 m 2.50473,0 v -1.72861 m -0.45862,0 v 1.72861 m 1.48167,0 v -1.72861 m -0.45861,0 v 1.72861 m -10.58333,8.64306 v 0.0353 m 3.03389,0 v -0.0353 m 8.39611,0 v 0.0353 m 3.03389,0 v -0.0353 m -9.34862,0 v 0.0353 m 0.45862,0 v -0.0353 m 2.08138,0 v 0.0353 m 0.45862,0 v -0.0353 m 2.08138,0 v 0.0353 m 0.45862,0 v -0.0353 m -6.80862,0 v 0.0353 m 0.45862,0 v -0.0353 m 2.08138,0 v 0.0353 m 0.45862,0 v -0.0353 m 2.08137,0 v 0.0353 m 0.45862,0 v -0.0353 m -29.915546,-3.95111 v 0 m 0,2.89278 v 0 m -8.643055,4.09222 v -0.52917 m -0.529166,0 v 0.52917 m 9.172221,-12.065 v 0 m 0,2.89278 v 0 m -3.668888,9.2075 v -0.56445 m -0.493889,0 v 0.52917 m 24.588593,-3.03389 v 0.0353 m -5.11527,2.8575 0.17639,0.59972 m -0.17639,-0.98778 v 0.38806 m -7.549439,1.09361 v 0 m -3.4925,13.61722 v 0 m 9.489719,-13.61722 v 0 m -3.4925,0 v 0 m -5.997219,0 v 0 m 9.489719,13.61722 v 0 M 82.594419,133.63293 v 0 m 3.4925,13.61722 v 0 m -9.489722,-13.61722 v 0 m 3.4925,0 v 0 m 5.997222,0 v 0 m -9.489722,13.61722 v 0 m -12.241388,8.71361 h 0.07055 0.141111 0.211667 0.282222 0.388056 0.423333 0.493889 0.529166 0.564445 0.564444 0.564445 0.529166 0.493889 0.458611 0.423334 0.352777 0.246945 0.176389 0.105833 m 48.013049,0 h 0.0353 0.14111 0.21167 0.28222 0.38805 0.42334 0.49388 0.52917 0.56444 0.56445 0.56444 0.52916 0.49389 0.49389 0.38806 0.35277 0.24695 0.17639 0.10583 M 77.161641,126.57737 v 0.42334 m 0.3175,2.64583 h 0.105834 m 0.846666,-3.4925 v 0.3175 m 47.730819,-3.03389 v 6.06778 m -0.38805,0.0706 0.38805,-0.0706 m 0,0 0.3175,0.14111 h 0.0706 m -0.38806,18.90889 v -13.82889 m -0.10583,13.82889 h 0.10583 m -2.61055,-13.12334 v -0.77611 m -1.30528,0.77611 v -0.77611 m 3.91583,13.89945 0.3175,0.14111 M 78.431641,132.68043 v -0.52917 m -1.27,0.52917 v -0.52917 m -2.363611,16.43944 0.282222,0.0706 m -0.529166,-0.21167 v -1.76389 m 0,-12.48833 v -2.04611 m -0.635,16.58056 h 0.03528 l 0.282222,-0.0353 0.211667,-0.10584 m -0.846667,0.10584 0.3175,0.0353 m 36.406652,-31.64417 v 1.16417 m -0.67028,-1.16417 h 0.67028 m -0.67028,1.16417 h 0.67028 m -0.21166,-1.30528 h -0.45862 m 0.52917,-0.28222 h 0.0353 l 0.0353,0.0705 0.0353,0.0353 v 0.0353 l -0.0353,0.0705 -0.0353,0.0353 -0.0353,0.0353 h -0.0705 m -0.45862,-0.42333 0.17639,0.0353 0.21167,0.0706 0.14111,0.0353 m 0.0353,-0.10584 -0.14111,-0.0353 -0.28222,-0.0706 -0.10584,-0.0353 m 0.42334,0.635 0.10583,-0.0353 0.0706,-0.0353 0.0353,-0.0706 0.0353,-0.0705 v -0.0706 l -0.0353,-0.10583 -0.0353,-0.0706 -0.0706,-0.0353 m -0.56445,0.49389 h 0.45862 m 0.0705,-0.38805 h 0.0353 l 0.0353,0.0705 0.0353,0.0353 v 0.0353 l -0.0353,0.0705 -0.0353,0.0353 -0.0353,0.0353 h -0.0705 m 11.25361,-0.81139 h 0.0353 l 0.14112,-0.24694 m 5.00944,7.54944 h -0.52917 -0.21166 m -4.97417,-7.47889 v -0.0353 -0.0353 M 57.758966,136.41968 H 57.8648 m -0.105834,-1.34055 v 0.14111 0.35278 0.38805 0.45861 m 0,-1.34055 H 57.8648 m -0.105834,2.2225 v -0.0706 -0.28222 -0.24695 -0.28222 m 0,0 v -0.38805 -0.3175 -0.14111 -0.0353 m 0,0 v 0.0705 0.24695 0.28222 0.28222 m 0,0 v 0.35278 0.3175 0.14111 0.0706 m 0,-0.88195 v -0.35278 -0.28222 m 0,0 v -0.38805 -0.21167 m 0,0 v -0.0706 -0.0353 m 0,1.34055 v 0.56445 0.45861 0.21166 0.0706 m 0,0 v -0.10583 -0.35278 -0.38806 -0.45861 m 0,1.30528 H 57.8648 m -0.105834,-0.0353 v -0.42333 m 0,-1.69333 v 0 m 0,1.69333 v 0.42333 m 0,0.9525 v 0.42334 m 0,0 H 57.8648 m -0.105834,-0.42334 H 57.8648 m -0.105834,2.54 v -2.11666 m 0,0 v -0.42334 m 0,0.42334 v 2.11666 m 0,0 H 57.8648 m -0.105834,0.0353 H 57.8648 m -0.105834,-2.50472 v -0.10584 m 0,0 H 57.8648 m 50.20027,-27.37555 v 0.10583 m 1.26999,-0.10583 v 0.10583 m 0,-0.10583 h -0.24694 -0.24694 -0.21167 -0.17639 -0.17639 -0.10583 -0.0706 -0.0353 m 10.72444,0 v 0.10583 m 0,-0.10583 h -9.45445 m 10.72445,0 v 0.10583 m 0,-0.10583 v 0 h -0.0706 -0.14111 -0.14111 -0.21167 -0.21166 -0.24695 -0.24694 m -10.72444,0 v 0.10583 m -50.20027,2.82223 0.07055,-0.56445 0.141111,-0.52917 0.282223,-0.45861 0.3175,-0.42333 0.458611,-0.35278 0.458611,-0.28222 0.529166,-0.14111 0.564445,-0.0706 m -2.822222,2.82223 0.07055,-0.56445 0.141111,-0.52917 0.282223,-0.45861 0.3175,-0.42333 0.458611,-0.35278 0.458611,-0.28222 0.529166,-0.14111 0.564445,-0.0706 m 0,0 H 130.0783 m 0,0 0.52916,0.0706 0.52917,0.14111 0.49389,0.28222 0.42333,0.35278 0.35278,0.42333 0.24694,0.45861 0.17639,0.52917 0.0353,0.56445 m 0,0 v 37.39444 m 0,0 H 57.864698 m 0,0 V 114.1596 m 16.227777,34.99555 -0.105834,-0.0353 h -0.07056 l -0.105833,-0.0705 -0.07056,-0.0353 -0.07056,-0.10584 -0.03528,-0.0705 -0.03528,-0.10583 v -0.0706 m 0.493889,0.49389 h 14.499166 m 0.493889,-0.49389 v 0.0706 l -0.03528,0.10583 -0.03528,0.0705 -0.07056,0.10584 -0.07055,0.0353 -0.07056,0.0705 h -0.105833 l -0.105833,0.0353 m 0.493889,-0.49389 v -16.01611 m -0.493889,-0.49389 h 0.105833 l 0.105833,0.0353 0.07056,0.0353 0.07055,0.0705 0.07056,0.0706 0.03528,0.10583 0.03528,0.0706 v 0.10583 m -0.493889,-0.49389 H 74.092475 m -0.493889,0.49389 v -0.10583 l 0.03528,-0.0706 0.03528,-0.10583 0.07056,-0.0706 0.07056,-0.0705 0.105833,-0.0353 0.07056,-0.0353 h 0.105834 m -0.493889,0.49389 v 16.01611 m 32.243886,-18.66194 0.24694,-0.0353 0.24694,-0.14111 0.17639,-0.21167 0.0706,-0.24694 v -0.24695 l -0.0706,-0.24694 -0.17639,-0.21167 -0.24694,-0.10583 -0.24694,-0.0706 -0.24695,0.0706 -0.24694,0.10583 -0.14112,0.21167 -0.10583,0.24694 v 0.24695 l 0.10583,0.24694 0.14112,0.21167 0.24694,0.14111 0.24695,0.0353 m -27.657775,0.0353 h 6.632222 m 0,0 0.282222,-0.0353 0.282222,-0.0706 0.282222,-0.14111 0.211667,-0.21167 0.176389,-0.21166 0.141111,-0.24695 0.105833,-0.28222 0.03528,-0.3175 m 0,0 v -0.84667 m 0,0 -0.03528,-0.28222 -0.105833,-0.28222 -0.141111,-0.28222 -0.176389,-0.21167 -0.211667,-0.17639 -0.282222,-0.14111 -0.282222,-0.10583 -0.282222,-0.0353 m 0,0 h -6.632222 m 0,0 -0.282222,0.0353 -0.282223,0.10583 -0.282222,0.14111 -0.211667,0.17639 -0.211666,0.21167 -0.105833,0.28222 -0.105834,0.28222 -0.03528,0.28222 m 0,0.84667 v -0.84667 m 0,0.84667 0.03528,0.3175 0.105834,0.28222 0.105833,0.24695 0.211666,0.21166 0.211667,0.21167 0.282222,0.14111 0.282223,0.0706 0.282222,0.0353 m 48.365825,-0.35277 v -13.08806 m 0,0 v -0.14111 l -0.0706,-0.14111 -0.0353,-0.10583 -0.10584,-0.10584 -0.10583,-0.0706 -0.10583,-0.0706 -0.14111,-0.0353 -0.14112,-0.0353 m 0,0 h -15.48694 m 0,0 -0.14111,0.0353 -0.14111,0.0353 -0.10584,0.0706 -0.10583,0.0706 -0.10583,0.10584 -0.0706,0.10583 -0.0353,0.14111 v 0.14111 m 0,0 v 13.08806 m 0,0 v 0.10583 l 0.0353,0.10583 0.0353,0.0706 0.0706,0.0705 0.0705,0.0706 0.10583,0.0706 h 0.0706 l 0.10583,0.0353 m 0,0 h 15.91028 m 0,0 0.10583,-0.0353 h 0.0706 l 0.10583,-0.0706 0.0706,-0.0706 0.0705,-0.0705 0.0353,-0.0706 0.0353,-0.10583 v -0.10583 m -32.173329,-2.01084 v 0.84667 m 0,0 0.0353,0.3175 0.0705,0.28222 0.14111,0.24695 0.17639,0.21166 0.24695,0.21167 0.24694,0.14111 0.28222,0.0706 0.3175,0.0353 m 0,0 h 6.632219 m 0,0 0.28222,-0.0353 0.28222,-0.0706 0.24695,-0.14111 0.24694,-0.21167 0.17639,-0.21166 0.14111,-0.24695 0.0706,-0.28222 0.0353,-0.3175 m 0,-0.84667 v 0.84667 m 0,-0.84667 -0.0353,-0.28222 -0.0706,-0.28222 -0.14111,-0.28222 -0.17639,-0.21167 -0.24694,-0.17639 -0.24695,-0.14111 -0.28222,-0.10583 -0.28222,-0.0353 m 0,0 h -6.632219 m 0,0 -0.3175,0.0353 -0.28222,0.10583 -0.24694,0.14111 -0.24695,0.17639 -0.17639,0.21167 -0.14111,0.28222 -0.0705,0.28222 -0.0353,0.28222 m 32.173329,20.77861 v -13.08805 m 0,0 v -0.14111 l -0.0706,-0.14111 -0.0353,-0.10584 -0.10584,-0.10583 -0.10583,-0.10583 -0.10583,-0.0706 -0.14111,-0.0353 h -0.14112 m 0,0 h -15.48694 m 0,0 h -0.14111 l -0.14111,0.0353 -0.10584,0.0706 -0.10583,0.10583 -0.10583,0.10583 -0.0706,0.10584 -0.0353,0.14111 v 0.14111 m 0,0 v 13.08805 m 0,0 v 0.10584 l 0.0353,0.0705 0.0353,0.10584 0.0706,0.0705 0.0705,0.0706 0.10583,0.0353 0.0706,0.0353 h 0.10583 m 0,0 h 15.91028 m 0,0 h 0.10583 l 0.0706,-0.0353 0.10583,-0.0353 0.0706,-0.0706 0.0705,-0.0705 0.0353,-0.10584 0.0353,-0.0705 v -0.10584 m -34.466381,0.70556 -0.07056,-0.0353 h -0.105833 l -0.07056,-0.0705 -0.105833,-0.0353 -0.03528,-0.10584 -0.07056,-0.0705 -0.03528,-0.10583 v -0.0706 m 0.493889,0.49389 H 106.5833 m 0.52917,-0.49389 -0.0353,0.0706 v 0.10583 l -0.0706,0.0705 -0.0705,0.10584 -0.0706,0.0353 -0.0705,0.0705 h -0.10584 l -0.10583,0.0353 m 0.52917,-0.49389 v -16.01611 m -0.52917,-0.49389 h 0.10583 l 0.10584,0.0353 0.0705,0.0353 0.0706,0.0705 0.0705,0.0706 0.0706,0.10583 v 0.0706 l 0.0353,0.10583 m -0.52917,-0.49389 H 92.084141 m -0.493889,0.49389 v -0.10583 l 0.03528,-0.0706 0.07056,-0.10583 0.03528,-0.0706 0.105833,-0.0705 0.07056,-0.0353 0.105833,-0.0353 h 0.07056 m -0.493889,0.49389 v 16.01611 m -1.234723,-24.94139 0.388056,-0.0353 0.388056,-0.14111 0.352777,-0.21166 0.282223,-0.28223 0.211666,-0.35277 0.141111,-0.35278 0.03528,-0.42333 -0.03528,-0.38806 -0.141111,-0.38805 -0.211666,-0.35278 -0.282223,-0.28222 -0.352777,-0.21167 -0.388056,-0.14111 -0.388056,-0.0353 -0.423333,0.0353 -0.352778,0.14111 -0.352777,0.21167 -0.282223,0.28222 -0.211666,0.35278 -0.141111,0.38805 -0.03528,0.38806 0.03528,0.42333 0.141111,0.35278 0.211666,0.35277 0.282223,0.28223 0.352777,0.21166 0.352778,0.14111 0.423333,0.0353 m 0,5.08 0.388056,-0.0353 0.388056,-0.14111 0.352777,-0.21166 0.282223,-0.28223 0.211666,-0.35277 0.141111,-0.35278 0.03528,-0.42333 -0.03528,-0.38806 -0.141111,-0.38806 -0.211666,-0.35277 -0.282223,-0.28223 -0.352777,-0.21166 -0.388056,-0.14111 -0.388056,-0.0353 -0.423333,0.0353 -0.352778,0.14111 -0.352777,0.21166 -0.282223,0.28223 -0.211666,0.35277 -0.141111,0.38806 -0.03528,0.38806 0.03528,0.42333 0.141111,0.35278 0.211666,0.35277 0.282223,0.28223 0.352777,0.21166 0.352778,0.14111 0.423333,0.0353 M 57.864698,114.1596 v 37.39444 m 0,2.78694 v -0.0353 -0.17638 -0.24695 -0.35278 -0.42333 -0.49389 -0.52917 -0.52916 m 0,0.77611 v 0.28222 0.49389 0.42333 0.35278 0.24695 0.17638 0.0353 m 0,-1.48166 v -0.0353 -0.0706 -0.14111 -0.14111 -0.14111 m 0,-0.77611 v 0.24694 0.24695 0.21166 0.21167 0.14111 0.14111 0.0706 0.0353 m 75.000542,-1.30528 v 0.52916 0.52917 0.49389 0.42333 0.35278 0.24695 0.17638 0.0353 m -75.000542,0 h 75.000542 m -46.531377,-26.67 -0.03528,-0.28222 -0.105833,-0.28222 -0.141111,-0.28222 -0.176389,-0.21167 -0.211667,-0.17639 -0.282222,-0.14111 -0.282222,-0.10583 -0.282222,-0.0353 m 0,3.88055 0.282222,-0.0353 0.282222,-0.0706 0.282222,-0.14111 0.211667,-0.21167 0.176389,-0.21166 0.141111,-0.24695 0.105833,-0.28222 0.03528,-0.3175 m 0,0 v -0.84667 m 4.021666,-3.95111 0.388056,-0.0353 0.388056,-0.14111 0.352777,-0.21166 0.282223,-0.28223 0.211666,-0.35277 0.141111,-0.35278 0.03528,-0.42333 -0.03528,-0.38806 -0.141111,-0.38805 -0.211666,-0.35278 -0.282223,-0.28222 -0.352777,-0.21167 -0.388056,-0.14111 -0.388056,-0.0353 m 0,8.67833 0.388056,-0.0353 0.388056,-0.14111 0.352777,-0.21166 0.282223,-0.28223 0.211666,-0.35277 0.141111,-0.35278 0.03528,-0.42333 -0.03528,-0.38806 -0.141111,-0.38806 -0.211666,-0.35277 -0.282223,-0.28223 -0.352777,-0.21166 -0.388056,-0.14111 -0.388056,-0.0353 M 89.08553,132.645 v -0.10583 l -0.03528,-0.0706 -0.03528,-0.10583 -0.07056,-0.0706 -0.07055,-0.0705 -0.07056,-0.0353 -0.105833,-0.0353 h -0.105833 m 0,17.00389 0.105833,-0.0353 H 88.8033 l 0.07056,-0.0705 0.07055,-0.0353 0.07056,-0.10584 0.03528,-0.0705 0.03528,-0.10583 v -0.0706 m 0,0 v -16.01611 m 13.44082,-2.61056 0.28222,-0.0353 0.28223,-0.0706 0.24694,-0.14111 0.24694,-0.21167 0.17639,-0.21166 0.14111,-0.24695 0.0706,-0.28222 0.0353,-0.3175 m 0,-0.84667 -0.0353,-0.28222 -0.0706,-0.28222 -0.14111,-0.28222 -0.17639,-0.21167 -0.24694,-0.17639 -0.24694,-0.14111 -0.28223,-0.10583 -0.28222,-0.0353 m 1.48167,2.36361 v -0.84667 m 1.83445,2.32834 0.24694,-0.0353 0.24694,-0.14111 0.17639,-0.21167 0.0706,-0.24694 v -0.24695 l -0.0706,-0.24694 -0.17639,-0.21167 -0.24694,-0.10583 -0.24694,-0.0706 m 1.27,4.16278 -0.0353,-0.10583 v -0.0706 l -0.0706,-0.10583 -0.0705,-0.0706 -0.0706,-0.0705 -0.0705,-0.0353 -0.10584,-0.0353 h -0.10583 m 0,17.00389 0.10583,-0.0353 h 0.10584 l 0.0705,-0.0705 0.0706,-0.0353 0.0705,-0.10584 0.0706,-0.0705 v -0.10583 l 0.0353,-0.0706 m 0,0 v -16.01611 m 19.43805,-16.05139 v -0.14111 l -0.0706,-0.14111 -0.0353,-0.10583 -0.10584,-0.10584 -0.10583,-0.0706 -0.10583,-0.0706 -0.14111,-0.0353 -0.14112,-0.0353 m 0.70556,19.47333 v -0.14111 l -0.0706,-0.14111 -0.0353,-0.10584 -0.10584,-0.10583 -0.10583,-0.10583 -0.10583,-0.0706 -0.14111,-0.0353 h -0.14112 m 0.21167,-4.445 0.10583,-0.0353 h 0.0706 l 0.10583,-0.0706 0.0706,-0.0706 0.0705,-0.0705 0.0353,-0.0706 0.0353,-0.10583 v -0.10583 m -0.49389,19.26166 h 0.10583 l 0.0706,-0.0353 0.10583,-0.0353 0.0706,-0.0706 0.0705,-0.0705 0.0353,-0.10584 0.0353,-0.0705 v -0.10584 m 0,-18.76777 v -13.08806 m 0,31.85583 v -13.08805 m -5.89139,-19.26167 0.10583,0.0353 h 0.0706 m -11.00667,-0.0353 h 10.83028 m -20.10833,10.37167 v -0.3175 m 20.28472,-10.01889 v 0 h -0.0706 l -0.10583,-0.0353 m -42.544989,7.19667 h 0.282222 m 0,0 h 0.211667 l 0.211667,-0.0706 0.105833,-0.0353 0.07056,-0.0706 0.03528,-0.10583 0.03528,-0.10584 m 0,0 -0.03528,-0.14111 -0.07055,-0.10583 -0.105833,-0.0706 -0.105834,-0.0353 m 0,0 -0.211666,-0.0353 h -0.176389 m 0,0 h -0.246945 m 0,0 v 0.77611 m -0.493889,1.37583 v -2.57527 m 0,0 h 0.811389 m 0,0 h 0.352778 l 0.246944,0.0353 m 0,0 0.246945,0.14111 0.176389,0.21167 0.105833,0.42333 m 0,0 -0.03528,0.28223 -0.141111,0.24694 -0.176389,0.14111 -0.211666,0.10583 m 0,0 -0.3175,0.0353 h -0.246945 m 0,0 h -0.3175 m 0,0 v 0.9525 m 0,0 h -0.493889 m 0,0 v -2.57527 m 1.446389,0.81138 -0.03528,-0.14111 -0.07055,-0.10583 -0.105833,-0.0706 -0.105834,-0.0353 m 1.5875,2.11666 -0.599722,-2.57527 m 0,0 h 0.493876 m 0,0 0.388055,1.76388 m 0,0 0.423334,-1.76388 m 0,0 h 0.670277 m 0,0 0.423334,1.79916 m 0,0 0.388055,-1.79916 m 0,0 h 0.529167 m 0,0 -0.599722,2.57527 m 0,0 h -0.635 m 0,0 -0.423334,-1.94027 m 0,0 -0.458611,1.94027 m 0,0 h -0.599722 m 0,0 -0.599722,-2.57527 m 0.881944,1.76388 0.423334,-1.76388 m 0.776111,2.57527 -0.423334,-1.94027 m 0.740834,1.16416 0.388055,-1.79916 m 1.693333,1.05833 0.458612,-0.0353 0.105833,-0.0353 0.07055,-0.0353 0.07056,-0.10583 v -0.10583 m 0,0 -0.03528,-0.14111 -0.07055,-0.0706 -0.176389,-0.10583 m 0,0 h -0.211667 -0.176389 m 0,0 h -0.423333 m 0,0 v 0.635 m 0,0 h 0.388055 m -0.881944,1.51694 v -2.57527 m 0,0 h 1.093611 m 0,0 0.352778,0.0353 0.3175,0.0706 0.141111,0.14111 0.105833,0.14111 0.07056,0.3175 m 0,0 -0.03528,0.28222 -0.176389,0.24695 -0.211666,0.14111 -0.211667,0.0353 m 0,0 0.3175,0.35277 0.211667,0.28223 m 0,0 0.3175,0.52916 m 0,0 h -0.599723 m 0,0 -0.352777,-0.59972 m 0,0 -0.176389,-0.21167 -0.141111,-0.17639 -0.211667,-0.10583 h -0.211667 m 0,0 h -0.105833 m 0,0 v 1.09361 m 0,0 h -0.493889 m 0,0 v -2.57527 m 1.5875,0.74083 -0.03528,-0.14111 -0.07055,-0.0706 -0.176389,-0.10583 m 0.388055,2.15194 -0.352777,-0.59972 m 8.431388,-5.43278 v -2.15194 m -0.740833,0 v -0.42333 m 0,0 h 1.975551 m 0,0 v 0.42333 m 0,0 h -0.74083 m 0,0 v 2.15194 m 0,0 h -0.493888 m 0,-2.15194 H 92.36637 m 0,0 v -0.42333 m 0.740833,2.57527 v -2.15194 m -1.516944,1.19944 0.493889,0.14111 m 0,0 -0.176389,0.38806 -0.282223,0.28222 -0.282222,0.10584 -0.3175,0.0353 m 0,0 -0.529166,-0.14111 -0.423334,-0.3175 -0.176389,-0.38805 -0.03528,-0.45861 m 0,0 0.07055,-0.52917 0.282222,-0.49389 0.388056,-0.21167 0.423333,-0.0706 m 0,0 0.458611,0.0706 0.3175,0.21167 m 0,0 0.176389,0.24694 0.07056,0.21167 m 0,0 -0.493889,0.10583 m 0,0 -0.07056,-0.17638 -0.176389,-0.14112 -0.141111,-0.0705 -0.176389,-0.0353 m 0,0 -0.211666,0.0353 -0.211667,0.10583 -0.141111,0.17639 -0.07056,0.28222 v 0.24695 m 0,0 v 0.35278 l 0.141112,0.3175 0.246944,0.17638 0.246944,0.0706 m 0,0 0.246945,-0.0706 0.176389,-0.14111 0.176389,-0.3175 m -4.374445,0.9525 0.9525,-2.57527 m -0.9525,2.57527 0.9525,-2.57527 m 0.635,1.55222 -0.352777,-0.91722 m 0,0 -0.352778,0.91722 m 0,0 h 0.705555 m 0.881945,1.02305 H 89.15608 m 0,0 -0.211667,-0.59972 m 0,0 h -0.987777 m 0,0 -0.211667,0.59972 m 0.423333,-2.57527 h 0.529167 m 0,0 0.987778,2.57527 m -1.940278,0 h -0.529167 m 1.5875,-1.02305 -0.352777,-0.91722 m 0.705555,1.94027 -0.211667,-0.59972 m 6.455838,5.36222 0.10583,-0.56444 0.28222,-0.45861 0.38806,-0.24695 0.42333,-0.0705 m 0,2.61055 -0.56444,-0.10583 -0.38806,-0.35278 -0.17639,-0.38805 -0.0706,-0.42334 m 1.76389,0.3175 0.49389,0.17639 m 0,0 -0.17639,0.35278 -0.28222,0.28222 -0.3175,0.10583 -0.28222,0.0353 m 0,-2.61055 0.45861,0.0705 0.28222,0.21167 m 0,0 0.17639,0.24694 0.10583,0.24695 m 0,0 -0.49389,0.0705 m 0,0 -0.10583,-0.17638 -0.14111,-0.14112 -0.14111,-0.0705 -0.17639,-0.0353 m 0,0 -0.21167,0.0353 -0.21166,0.14111 -0.14112,0.17639 -0.0706,0.24694 -0.0353,0.28222 m 0,0 0.0353,0.35278 0.14112,0.3175 0.21166,0.14111 0.28222,0.0706 m 0,0 0.24695,-0.0706 0.17639,-0.14111 0.17639,-0.3175 m 2.046104,0.98778 -0.564447,-0.10583 -0.423327,-0.35278 -0.17639,-0.42333 -0.0706,-0.42334 m 1.234714,0.88195 0.35278,-0.10584 0.246947,-0.24694 0.0706,-0.28222 0.0353,-0.28223 m 0,0 -0.0353,-0.35277 -0.17639,-0.3175 -0.211667,-0.14111 -0.28222,-0.0706 m 0,0 -0.352777,0.10583 -0.282217,0.24695 -0.0705,0.24694 -0.0353,0.28222 m 0,0 0.0353,0.38806 0.176387,0.3175 0.24694,0.14111 0.282217,0.0706 m -1.234714,-0.88195 0.0353,-0.38805 0.0706,-0.28222 m 0,0 0.28222,-0.35278 0.282227,-0.21167 m 0,0 0.3175,-0.0705 0.246937,-0.0353 m 0,0 0.529167,0.10583 0.458608,0.38806 0.17639,0.38805 0.0353,0.45861 m 0,0 -0.0706,0.52917 -0.3175,0.49389 -0.388055,0.21166 -0.42333,0.0706 m -1.234714,-1.30528 0.0353,-0.38805 0.0706,-0.28222 m 0,0 0.28222,-0.35278 0.282217,-0.21167 m 2.187212,2.50472 v -2.57527 m 0,0 h 0.52917 m 0,0 1.02305,1.69333 m 0,0 v -1.69333 m 0,0 h 0.49389 m 0,0 v 2.57527 m 0,0 h -0.52916 m 0,0 -1.02306,-1.65805 m 0,0 v 1.65805 m 0,0 h -0.49389 m 0,0 v -2.57527 m 1.51695,2.57527 -1.02306,-1.65805 m 1.05833,0.77611 v -1.69333 m -2.998605,7.58472 v -0.0353 m 4.621385,3.03389 0.10584,-0.24695 m -8.254989,-6.27944 v 0.38805 m 0.635,-0.0705 v -0.3175 m 2.539997,0 v 0.3175 m 1.904992,-0.3175 v 0.3175 m 0.635,0 v -0.3175 m -8.254989,6.27944 h 0.635 m 0,0 v -0.28222 m -0.635,0 v 0.28222 m 3.06916,0.24695 0.10584,-0.24695 m 4.550819,0.24695 h 0.42333 m 2.64584,-0.52917 v 0.28222 m -30.374159,0.17639 v -0.3175 m -0.141111,0.3175 h 0.141111 m 30.374159,-0.17639 v -0.28222 m -0.635,0.28222 h 0.635 m -0.635,-0.28222 v 0.28222 m -2.54,0 h 0.635 m 0,0 v -0.28222 m -0.635,0 v 0.28222 m 0.52916,0.24695 0.10584,-0.24695 m -6.349989,-5.53861 h -0.635 m 8.889989,0 v -0.38805 m -4.550832,6.17361 0.10584,-0.24695 m -4.162777,-2.82222 h -0.0353 m 8.290269,0.0706 v -0.0353 m 0.56444,-2.46945 h 0.24694 m -5.432759,5.50334 h 0.423327 m 2.010822,-6.20889 v -0.3175 m 17.39195,3.52778 v -0.0353 m -0.45861,0 v 0.0353 m -19.473329,-3.21028 v -0.3175 m 0.634997,6.27944 v -0.28222 m -0.634997,0.28222 h 0.634997 m -0.634997,-0.28222 v 0.28222 m -3.35138,-5.25639 h -0.10584 -0.45861 m 0.67028,-0.17638 h -0.42333 -0.17639 m 21.237209,2.68111 v -0.0353 m -21.836939,2.78694 -0.10583,0.24695 m 0,0 h -0.42333 m 0,0 -0.10584,-0.24695 m 0,0 h 0.635 m -20.214162,0.17639 v -0.3175 m 0,0 v 0.3175 m 29.739151,-6.10305 v 0.38805 m -8.889989,0 h 0.635 m -21.484162,5.715 h -0.141111 m 6.632222,-2.92805 v 0 m 0,0 v -0.0353 m -6.491111,2.96333 h -0.141111 m 44.732212,-2.92805 v -0.0353 m -38.09999,0 v 0 0.0353 m 23.24804,2.75166 v -0.28222 m -7.514149,0.52917 h 0.42333 m -2.96333,0 h 0.42333 m 4.55083,-0.24695 v -0.28222 m 1.446381,-2.46944 v -0.0353 m 3.739448,3.03389 h 0.42333 m -10.159989,0 0.10583,-0.24695 m 4.445,0 0.10584,0.24695 m -2.64584,-0.24695 h 0.635 m 0,0 v -0.28222 m -0.635,0 v 0.28222 M 115.79085,129.681 v -0.0353 m -19.296939,2.78694 -0.10583,0.24695 m 0,0 h -0.42333 m 0,0 -0.10584,-0.24695 m 0,0 h 0.635 m 20.037769,-2.75166 v -0.0353 m -15.59278,2.78694 v -0.28222 m -7.619989,0.28222 v -0.28222 m 7.725829,0.52917 h 0.42333 m -3.069159,-6.52639 v 0.3175 m 0.634997,0 v -0.3175 m 4.444992,6.27944 0.10584,0.24695 m -8.713599,-3.06917 h -0.0353 m 1.65805,2.54 v 0.28222 m 7.443599,-5.25639 h -0.24694 m -0.56445,2.46945 v 0.0353 m -9.701369,2.99861 h 0.42333 m 20.143599,-3.03389 v 0.0353 m -15.063602,2.99861 h -0.423327 m 0.529157,-0.24695 -0.10583,0.24695 m -0.529167,-0.24695 h 0.634997 m -0.529157,0.24695 -0.10584,-0.24695 m 3.174989,-6.27944 v 0.3175 m 0,5.96194 -0.10583,0.24695 m 0,0 h -0.42333 m 0,0 -0.10584,-0.24695 m 0,0 h 0.635 m -5.714989,0 0.10584,0.24695 m 5.609149,-0.52917 v 0.28222 m -8.254989,0 0.10584,0.24695 m 10.159979,0 h 0.42334 m -23.777192,-2.99779 v 0 -0.0353 m 13.723053,2.50472 v 0.28222 m 5.891381,-2.75166 v -0.0353 m -0.458607,0 v 0.0353 m -2.892774,-3.52778 v 0.3175 m 2.539997,5.67972 v 0.28222 m -0.529157,0.24695 h 0.423327 M 118.4014,129.6818 v -0.0353 m -4.40972,0.0353 v -0.0353 m -18.026929,3.03389 h 0.42333 m 7.725819,-0.24695 -0.10583,0.24695 m 0,0 h -0.42334 m 0,0 -0.10583,-0.24695 m 0,0 h 0.635 m 14.2875,-2.78694 v 0.0353 m -22.542489,-3.13973 v -0.38805 m 22.013329,3.52778 v -0.0353 m -1.34056,0 v 0.0353 m -15.59278,2.75166 0.10584,0.24695 m -5.185829,-0.24695 v -0.28222 m 7.972769,-3.59833 h 0.17639 m 11.85333,1.09361 v 0.0353 m -30.691654,-3.03389 h 0.141112 0.599722 m -6.808611,2.99861 v 0.0353 m 17.603612,-1.905 h -0.24695 m 0.24695,0.59972 v 0 m 0,-0.59972 v 0 m -0.24695,0.59972 v 0 m 0,-0.59972 v 0 m 0.24695,0.59972 h -0.24695 m 1.76389,0 v 0 m 0,-0.59972 v 0 m -0.24694,0.59972 v 0 m 0,-0.59972 v 0 m 0.24694,0.59972 h -0.24694 m 0.24694,-0.59972 h -0.24694 m 2.751659,0.59972 v 0 m 0,-0.59972 v 0 m 0,0.59972 h -0.24695 m 0,0 v 0 m 0,-0.59972 v 0 m 0.24695,0 h -0.24695 m 1.72861,0.59972 v 0 m 0,-0.59972 v 0 m -0.24694,0.59972 v 0 m 0,-0.59972 v 0 m 0.24694,0 h -0.24699 m 0.24694,0.59972 h -0.24694 m -3.245552,0 v 0 m 0,-0.59972 v 0 m -0.246937,0.59972 v 0 m 0,-0.59972 v 0 m 0.246937,0 h -0.246937 m 0.246937,0.59972 h -0.246937 m 0.740824,0 v 0 m 0,-0.59972 v 0 m 0,0.59972 h -0.246937 m 0,0 v 0 m 0,-0.59972 v 0 m 0.246937,0 h -0.246937 m 0.776104,0.59972 v 0 m 0,-0.59972 v 0 m 0,0.59972 h -0.282217 m 0,0 v 0 m 0,-0.59972 v 0 m 0.282217,0 h -0.282217 m 0.776105,0.59972 v 0 m 0,-0.59972 v 0 m -0.246948,0.59972 v 0 m 0,-0.59972 v 0 m 0.246948,0 h -0.246948 m 0.246948,0.59972 h -0.246948 m -14.040545,1.12889 h -0.03528 m -0.07056,0 h 0.07056 m 0.388055,-0.70556 h -0.458611 m -0.705555,0.84667 v 0.0353 m 0,-0.0353 v 0.0353 m 0.705555,-0.17639 h 0.07056 m 0,0 v 0.0706 m 10.72444,-1.69333 h 5.397489 m -5.468039,-0.10583 0.0706,0.10583 m -0.0706,-0.10583 h 5.538599 m -0.0706,0.10583 0.0706,-0.10583 m -0.0706,0.10583 v 0.38806 m 0,0 h -5.397489 m 0,-0.38806 v 0.38806 m 0,0 -0.0706,0.10583 m -0.21167,0 h 0.21167 m -0.21167,0 v -0.59972 m 0,0 h 0.21167 m 0,0.59972 h 5.538599 m 0,0 -0.0706,-0.10583 m 0.0706,0.10583 h 0.21167 m -0.21167,-0.59972 h 0.21167 m 0,0.59972 v -0.59972 m -5.961939,0.59972 v -0.59972 m 7.161379,1.86972 h -0.98778 m -6.349979,0 h -0.98778 m 24.341649,0.0353 v 0 m 0.0706,-0.0353 v 0.0353 h -0.0353 -0.0353 m -18.76777,-3.21028 v -0.3175 m -25.223603,6.27944 h 0.635 m 0,0 -0.176389,0.24695 m -0.07056,0 h -0.246944 m -0.141111,-0.24695 0.141111,0.24695 m -0.141111,-0.24695 v -0.28222 m 0.635,0.28222 v -0.28222 m -0.493889,0.52917 -0.141111,-0.24695 m 0,-0.28222 v 0.28222 m 3.104444,-4.55083 h 5.3975 m -5.468056,-0.10583 0.07056,0.10583 m -0.07056,-0.10583 h 5.538611 m -0.07055,0.10583 0.07055,-0.10583 m -0.07055,0.10583 v 0.38806 m 0,0 h -5.3975 m 0,-0.38806 v 0.38806 m 0,0 -0.07056,0.10583 m -0.211666,0 h 0.211666 m -0.211666,0 v -0.59972 m 0,0 h 0.211666 m 0,0.59972 h 5.538611 m 0,0 -0.07055,-0.10583 m 0.07055,0.10583 h 0.211667 m -0.211667,-0.59972 h 0.211667 m 0,0.59972 v -0.59972 m -5.961944,0.59972 v -0.59972 m 7.161388,1.86972 h -0.987778 m -6.349999,0 h -1.022976 m 20.14361,0 v 0.0353 m 8.113879,-0.98778 v 0 -0.0353 -0.0353 m -25.505822,1.02306 v 0.0353 m 23.918322,-0.98778 h 0.17639 m 1.34056,0 h 0.98777 m -20.496376,0.81139 h 0.07056 m 0,0.0706 v -0.0706 m 12.311947,-3.35139 v 0.3175 m 0,5.67972 v 0.28222 m 0,0 h 0.17639 m 0.10583,0.24695 h -0.10583 m 0,0 -0.17639,-0.24695 m 0.17639,0.24695 -0.17639,-0.24695 m 0,-6.27944 v 0.3175 m 0,5.67972 v 0.28222 m 17.215539,-2.75166 v -0.0353 m 0.24694,0.0353 v -0.0353 m -31.15026,-0.21167 h -3.492499 m 4.586111,-1.09361 -0.03528,0.21167 -0.03528,0.21166 -0.105833,0.17639 -0.141111,0.17639 -0.176389,0.14111 -0.176389,0.10584 -0.211667,0.0706 h -0.211667 m 1.093612,-1.65805 v 0.56444 m -1.093612,-1.65805 h 0.211667 l 0.211667,0.0705 0.176389,0.10583 0.176389,0.14112 0.141111,0.17638 0.105833,0.17639 0.03528,0.21167 0.03528,0.21167 m -7.443611,-1.09361 h 6.349999 m -7.478888,1.09361 0.03528,-0.21167 0.07055,-0.21167 0.105834,-0.17639 0.141111,-0.17638 0.141111,-0.14112 0.211666,-0.10583 0.211667,-0.0705 h 0.211667 m -1.128889,1.65805 v -0.56444 m 1.128889,1.65805 h -0.211667 l -0.211667,-0.0706 -0.211666,-0.10584 -0.141111,-0.14111 -0.141111,-0.17639 -0.105834,-0.17639 -0.07055,-0.21166 -0.03528,-0.21167 m 3.986389,1.09361 h -2.8575 m 2.8575,0.21167 v -0.21167 m -2.8575,0.21167 h 2.8575 m -4.162778,-1.30528 0.03528,0.24695 0.07055,0.24694 0.105834,0.24694 0.176389,0.17639 0.176388,0.17639 0.246945,0.10584 0.211667,0.0706 0.282222,0.0353 m -1.305278,-1.30528 v -0.56444 m 1.305278,-1.30528 -0.282222,0.0353 -0.211667,0.0705 -0.246945,0.14111 -0.176388,0.14111 -0.176389,0.21167 -0.105834,0.21167 -0.07055,0.24694 -0.03528,0.24695 m 1.305278,-1.30528 h 6.349999 m 0,0 0.246945,0.0353 0.246944,0.0705 0.211667,0.14111 0.211667,0.14111 0.141111,0.21167 0.141111,0.21167 0.07055,0.24694 0.03528,0.24695 m 0,0.56444 v -0.56444 m -1.305278,1.86972 0.246945,-0.0353 0.246944,-0.0706 0.211667,-0.10584 0.211667,-0.17639 0.141111,-0.17639 0.141111,-0.24694 0.07055,-0.24694 0.03528,-0.24695 m -4.797777,1.30528 h 3.492499 m -3.492499,-0.21167 v 0.21167 m 0,0 v -0.3175 m 0,0 v 0.10583 m 3.492499,0 v -0.10583 m 0,0 h -3.492499 m -2.8575,0 v 0.10583 m 2.8575,-0.10583 h -2.8575 m 2.8575,0.10583 v -0.10583 m -3.880556,-1.55222 h -0.105821 m 1.128889,-1.09361 v 0.10583 m 0,0 H 77.97303 l -0.176389,0.0705 -0.176389,0.10584 -0.141111,0.10583 -0.141111,0.14111 -0.105833,0.17639 -0.03528,0.21167 -0.03528,0.17639 m -0.105833,0.56444 h 0.105833 m 0,0 0.03528,0.21167 0.03528,0.17639 0.105833,0.17639 0.141111,0.14111 0.141111,0.14111 0.176389,0.0705 0.176389,0.0706 h 0.211667 m -1.023056,-1.55222 v 0.56444 m 7.373055,-1.55222 v -0.10583 m -6.349999,0.10583 h 6.349999 m 1.093612,0.98778 h -0.105834 m 0,0 -0.03528,-0.17639 -0.03528,-0.21167 -0.105834,-0.17639 -0.105833,-0.14111 -0.176389,-0.10583 -0.141111,-0.10584 -0.211667,-0.0705 h -0.176389 m 0.987778,1.55222 h 0.105839 m -1.093612,0.98778 h 0.176389 l 0.211667,-0.0706 0.141111,-0.0705 0.176389,-0.14111 0.105833,-0.14111 0.105834,-0.17639 0.03528,-0.17639 0.03528,-0.21167 m 0,0 v -0.56444 m -7.866944,-1.19945 -0.176389,0.10584 -0.141111,0.10583 -0.141111,0.14111 -0.105833,0.14111 -0.105834,0.17639 -0.07055,0.17639 -0.03528,0.17639 v 0.17639 m 1.305278,-1.30528 h -0.07056 l -0.07055,0.0353 h -0.07056 -0.07055 l -0.07056,0.0353 h -0.07056 l -0.03528,0.0353 h -0.07056 m -0.776111,1.83445 0.03528,0.21166 0.07055,0.24695 0.141111,0.21166 0.141112,0.21167 0.211666,0.14111 0.211667,0.10584 0.246944,0.0706 0.246945,0.0353 m -1.305278,-1.30528 v 0.0706 m 0,0 v -0.0706 -0.0705 -0.0353 0.0705 0.0353 m 0,0.91722 v -0.84666 m 0,0 v 0.84666 m 0,-0.91722 v -0.0353 -0.0705 0.0353 0.0705 0.0706 m 0,0 v -0.10584 -0.0705 -0.0353 -0.0353 0.0353 0.0706 0.0705 m 0,0.91722 v -0.84666 m 0,-0.49389 v 1.34055 m 0,-1.48166 v 0.14111 m 7.655277,1.41111 h 0.176389 l 0.176389,-0.0706 0.176389,-0.0705 0.141111,-0.10584 0.141111,-0.14111 0.07056,-0.17639 0.07055,-0.17638 0.03528,-0.17639 m 0,-0.0706 v 0.0706 m 0,1.27 v -0.0353 m 0,-1.30528 v 0 -0.0705 -0.0353 0.0705 0.0353 m 0,0.84667 v 0.49389 m 0,0 v 0 -0.0353 -0.0353 -0.0353 -0.0353 -0.0353 m 0,0 v -0.3175 m 0,-0.84667 v -0.0353 -0.0705 0.0353 0.0705 m 0,1.34056 v -0.0353 m -4.480277,-0.3175 v 0 m 0,0.3175 v -0.3175 m 0,0.3175 v 0 m 4.797777,-1.30528 v 0.0706 m -8.678333,0.77611 v 0.45861 m 8.678333,-1.23472 v 1.23472 m -5.715,-2.75167 v 0 -0.0353 -0.0353 -0.0353 m 0,0.10583 h -0.846659 m 0,-0.10583 v 0 0.0353 0.0353 0.0353 m 4.1275,-0.10583 v 0 0.0353 0.0353 0.0353 m 0,0 h -0.846667 m 0,-0.10583 v 0 0.0353 0.0353 0.0353 m -3.280833,0 v 0 h -0.03528 -0.03528 -0.03528 m -0.105833,-0.10583 v 0 h 0.03528 0.03528 v 0.0353 l 0.03528,0.0353 v 0.0353 m 1.093612,0 v 0 h -0.03528 -0.03528 -0.03528 -0.03528 m 0.246945,-0.10583 h -0.03528 -0.03528 v 0.0353 h -0.03528 v 0.0353 0.0353 m 2.293055,0 h -0.03528 -0.03528 -0.03528 m 0,0 v 0 l -0.03528,-0.0353 v -0.0353 l -0.03528,-0.0353 h -0.03528 -0.03528 m 1.199444,0.10583 v 0 h -0.03528 -0.03528 -0.03528 m 0.246944,-0.10583 h -0.03528 -0.03528 l -0.03528,0.0353 v 0.0353 l -0.03528,0.0353 m -3.386667,0 v 0.0353 m 0,0 h -0.84662 m 0,0 v -0.0353 m -0.105834,0.0353 v 0 h 0.03528 0.03528 0.03528 m -0.105834,0 v -0.0353 m 0.105834,0.14111 v 0 -0.0353 -0.0353 -0.0353 m 0.846666,0 v 0 0.0353 0.0353 0.0353 m -0.846666,0 h 0.846666 m 0,2.18723 v -0.0353 -0.0353 -0.0353 -0.0353 m -0.846666,0.14112 h 0.846666 m -0.846666,0 v -0.0353 -0.0353 -0.0353 -0.0353 m 0.846666,0 h -0.846672 m 0.846666,0.14112 v 0.10583 m -0.846666,0 v -0.10583 m 0,0 v 0 h -0.03528 -0.03528 -0.03528 m 0,0.10583 v -0.10583 m 1.093612,-2.29306 v -0.0353 m -0.141112,0.0353 h 0.03528 0.03528 0.03528 0.03528 m 0,2.29306 v 0 h -0.03528 -0.03528 -0.03528 -0.03528 m 0.141112,0.10583 v -0.10583 m 3.139722,-2.32834 v 0.0353 m 0,0 h -0.846667 m 0,0 v -0.0353 m -0.105833,0.0353 v 0 h 0.03528 0.03528 0.03528 m -0.105833,-0.0353 v 0.0353 m 0.105833,0.10583 h 0.846666 m -0.846667,0 v 0 -0.0353 -0.0353 -0.0353 m 0.846667,0.10583 v 0 -0.0353 -0.0353 -0.0353 m 0,2.29306 v 0.10583 m -0.846667,0 v -0.10583 m 0,0 h 0.846667 m 0,-0.14112 h -0.846667 m 0.846667,0.14112 v -0.0353 -0.0353 -0.0353 -0.0353 m -0.846667,0.14112 v -0.0353 -0.0353 -0.0353 -0.0353 m 0,0.14112 h -0.03528 -0.03528 -0.03528 m 0,0.10583 v -0.10583 m 1.058333,-2.29306 v -0.0353 m -0.105833,0.0353 h 0.03528 0.03528 0.03528 m 0,2.29306 v 0 h -0.03528 -0.03528 -0.03528 m 0.105833,0.10583 v -0.10583 m -4.233326,-2.1872 v 0 h -0.03528 v -0.0353 h -0.03528 v -0.0353 h -0.03528 v -0.0353 m 0,2.29306 v -0.0353 -0.0353 h 0.03528 v -0.0353 h 0.03528 l 0.03528,-0.0353 m 0.987778,0.14112 v -0.0353 l -0.03528,-0.0353 v -0.0353 h -0.03528 l -0.03528,-0.0353 h -0.03528 m 0,-2.04611 h 0.03528 0.03528 v -0.0353 h 0.03528 v -0.0353 l 0.03528,-0.0353 m 2.187222,0 v 0 0.0353 l 0.03528,0.0353 0.03528,0.0353 h 0.03528 m -0.105833,2.18723 v -0.0353 -0.0353 l 0.03528,-0.0353 h 0.03528 v -0.0353 h 0.03528 m 0.9525,0.14112 v -0.0353 -0.0353 l -0.03528,-0.0353 h -0.03528 v -0.0353 h -0.03529 m 0,-2.04611 h 0.03528 l 0.03528,-0.0353 0.03528,-0.0353 v -0.0353 m -4.445,-0.14111 v 0 h 0.03528 0.03528 v 0.0353 l 0.03528,0.0353 v 0.0353 m 3.139723,-0.10583 h 0.03528 0.03528 l 0.03528,0.0353 v 0.0353 l 0.03528,0.0353 m -3.175,0.14111 v 0 h -0.03528 v -0.0353 h -0.03528 v -0.0353 h -0.03528 v -0.0353 m 0,2.29306 v -0.0353 -0.0353 h 0.03528 v -0.0353 h 0.03528 l 0.03528,-0.0353 m -0.105834,-2.15194 v -0.0353 m 0,2.43417 v -0.10583 m 3.386667,-2.18723 h -0.03528 l -0.03528,-0.0353 -0.03528,-0.0353 v -0.0353 m 0,2.29306 v -0.0353 -0.0353 l 0.03528,-0.0353 h 0.03528 v -0.0353 h 0.03528 m -0.105856,-2.1513 v -0.0353 m 0,2.43417 v -0.10583 m 3.774722,-0.67028 h -0.388056 m 0,-0.59972 h 0.493889 m 15.23999,1.69333 v 0 0.0353 m -18.767768,0 v -0.0353 M 78.71386,127.7768 h -0.246944 m 0.246944,0.59972 v 0 m 0,-0.59972 v 0 m 0,0.59972 h -0.246944 m 0,0 v 0 m 0,-0.59972 v 0 m 1.763889,0 H 79.98386 m 0.246945,0.59972 v 0 m 0,-0.59972 v 0 m -0.246945,0.59972 v 0 m 0,-0.59972 v 0 m 0.246945,0.59972 H 79.98386 m 2.751667,0 v 0 m 0,-0.59972 v 0 m -0.246945,0.59972 v 0 m 0,-0.59972 v 0 m 0.246945,0.59972 h -0.246945 m 0.246945,-0.59972 h -0.246945 m 1.728611,0.59972 v 0 m 0,-0.59972 v 0 m 0,0.59972 h -0.246944 m 0,0 v 0 m 0,-0.59972 v 0 m 0.246944,0 h -0.246944 m -3.245555,0.59972 v 0 m 0,-0.59972 v 0 m -0.246945,0.59972 v 0 m 0,-0.59972 v 0 m 0.246945,0.59972 h -0.246945 m 0.246945,-0.59972 h -0.246945 m 0.740834,0.59972 v 0 m 0,-0.59972 v 0 m 0,0.59972 h -0.246942 m 0,0 v 0 m 0,-0.59972 v 0 m 0.246945,0 h -0.246945 m 0.740833,0.59972 v 0 m 0,-0.59972 v 0 m 0,0.59972 H 81.46553 m 0,0 v 0 m 0,-0.59972 v 0 m 0.246944,0 H 81.46553 m 0.740833,0 h -0.246944 m 0.246944,0.59972 v 0 m 0,-0.59972 v 0 m -0.246944,0.59972 v 0 m 0,-0.59972 v 0 m 0.246944,0.59972 h -0.246944 m 43.814991,-11.43 v 12.7 m -15.27528,0 h 15.27528 m -15.27528,-12.7 v 12.7 m 13.6525,-10.40694 v 1.83444 m -12.02972,-1.83444 h 12.02972 m -12.02972,1.83444 v -1.83444 m -0.74083,1.83444 h 0.74083 m -0.74083,3.175 v -3.175 m 0.74083,3.175 h -0.74083 m 0.74083,1.83444 v -1.83444 m 2.78694,1.83444 h -2.78694 m 2.78694,1.76389 v -1.76389 m 1.12889,1.76389 h -1.12889 m 1.12889,1.05834 v -1.05834 m 4.19806,1.05834 h -4.19806 m 4.19806,-1.05834 v 1.05834 m 1.12889,-1.05834 h -1.12889 m 1.12889,-1.76389 v 1.76389 m 2.78694,-1.76389 h -2.78694 m 2.78694,-1.83444 v 1.83444 m 0.74083,-1.83444 h -0.74083 m 0.74083,-3.175 v 3.175 m -0.74083,-3.175 h 0.74083 m -14.39333,-4.1275 h 15.27528 m -15.27528,0 v 12.7 m 1.62278,-8.53722 v -0.0353 m 0,0.0353 h -0.70556 m -0.0353,-0.0353 0.0353,0.0353 m 0,0 v 2.8575 m 0,0 v 0.24694 m 0,0 -0.0353,0.0353 m 0.0353,-0.0353 h 0.70556 m 0,0.0353 v -0.0353 m 12.02972,-3.13972 v 0.0353 m 0,0 v -1.69334 m 0,0 v -0.17638 m -3.91583,9.66611 v -1.05834 m 1.12889,0 v -0.56444 m 0,0 v -2.29306 m 0,0 v 1.09361 m 3.4925,-4.97416 0.0353,-0.0353 m -0.0353,0.0353 h -0.70556 m 0,3.88055 v -0.77611 m 0,0 v 0.0353 m 0,1.83444 v -1.09361 m 0,-0.77611 h 0.70556 m 0.0353,0.0353 -0.0353,-0.0353 m 0,-0.24694 v -2.8575 m 0,3.10444 v -0.24694 m -0.70556,-4.55084 h -2.2225 m -0.45861,0 h -0.56444 m -0.45862,0 h -0.56444 m -0.45861,0 h -0.56445 m -0.45861,0 h -0.56444 m -0.45861,0 h -0.52917 m -0.45861,0 h -0.56444 m -0.45862,0 h -0.56444 m -0.45861,0 h -2.2225 m 9.34861,-0.14111 0.0353,-0.0353 h 0.0353 0.0705 0.0353 0.0705 0.0353 0.0706 0.0353 0.0353 l 0.0353,0.0353 m 0,0 v 0 m -0.45861,0 v 0 m -1.02306,0 0.0353,-0.0353 h 0.0353 0.0706 0.0705 0.0353 0.0705 0.0353 0.0353 0.0353 l 0.0353,0.0353 m 0,0 v 0 m -0.45862,0 v 0 m -2.01083,0 0.0353,-0.0353 h 0.0353 0.0353 0.0706 0.0353 0.0705 0.0353 0.0353 0.0705 v 0.0353 m 0,0 v 0 m -0.45861,0 v 0 h 0.0353 m -1.02305,0 0.0353,-0.0353 h 0.0353 0.0353 0.0705 0.0353 0.0706 0.0353 0.0705 0.0353 v 0.0353 m 0,0 v 0 m -0.45861,0 v 0 h 0.0353 m -1.02306,0 0.0353,-0.0353 h 0.0353 0.0353 0.0706 0.0353 0.0705 0.0353 0.0706 0.0353 v 0.0353 m 0,0 h 0.0353 m -0.45861,0 v 0 m -1.02306,0 0.0353,-0.0353 h 0.0353 0.0706 0.0353 0.0706 0.0353 0.0353 0.0706 0.0353 v 0.0353 m 0,0 h 0.0353 m -0.45862,0 v 0 m -1.02305,0 0.0353,-0.0353 h 0.0353 0.0706 0.0353 0.0705 0.0353 0.0353 0.0705 0.0353 v 0.0353 m 0,0 h 0.0353 m -0.45861,0 v 0 m 5.11528,0 0.0353,-0.0353 h 0.0353 0.0353 0.0706 0.0353 0.0706 0.0353 0.0353 0.0706 v 0.0353 m 0,0 v 0 m -0.45861,0 v 0 h 0.0353 m 0.42333,0 v 0 l -0.0353,0.0353 -0.0353,0.0353 v 0.0353 h -0.0353 l -0.0353,0.0353 h -0.0353 -0.0353 m -0.21166,-0.14111 v 0 0.0353 l 0.0353,0.0353 0.0353,0.0353 h 0.0353 l 0.0353,0.0353 h 0.0353 0.0353 m -4.90361,-0.14111 v 0.0353 l -0.0705,0.0706 -0.0706,0.0353 h -0.0705 -0.0706 l -0.0706,-0.0353 -0.0353,-0.0706 -0.0353,-0.0353 m 1.44639,0 -0.0353,0.0353 -0.0353,0.0706 -0.0705,0.0353 h -0.0706 -0.0705 l -0.0706,-0.0353 -0.0353,-0.0706 -0.0353,-0.0353 m 1.44639,0 -0.0353,0.0353 -0.0353,0.0706 -0.0706,0.0353 h -0.0705 -0.0706 l -0.0705,-0.0353 -0.0353,-0.0706 -0.0353,-0.0353 m 1.44639,0 -0.0353,0.0353 -0.0353,0.0706 -0.0705,0.0353 h -0.0706 -0.0705 l -0.0706,-0.0353 -0.0353,-0.0706 -0.0353,-0.0353 m 1.44638,0 -0.0353,0.0353 -0.0353,0.0706 -0.0706,0.0353 h -0.0705 -0.0706 l -0.0705,-0.0353 -0.0353,-0.0706 -0.0353,-0.0353 m 2.46945,0 -0.0353,0.0353 -0.0353,0.0706 -0.0706,0.0353 h -0.0705 -0.0706 l -0.0705,-0.0353 -0.0706,-0.0706 -0.0353,-0.0353 m 1.48167,0 -0.0353,0.0353 -0.0705,0.0706 -0.0353,0.0353 h -0.0706 -0.0705 l -0.0706,-0.0353 -0.0705,-0.0706 -0.0353,-0.0353 m -1.79917,1.97556 h -0.0353 l -0.0353,-0.0353 h -0.0353 l -0.0353,-0.0353 -0.0353,-0.0353 -0.0353,-0.0353 v -0.0353 l -0.0353,-0.0353 v -0.0353 m 0.45861,0 v 0.0353 0.0353 l -0.0353,0.0353 v 0.0353 l -0.0353,0.0353 -0.0353,0.0353 h -0.0353 l -0.0353,0.0353 h -0.0353 m -5.11527,0 h -0.0353 l -0.0353,-0.0353 h -0.0353 l -0.0353,-0.0353 -0.0353,-0.0353 v -0.0353 l -0.0353,-0.0353 v -0.0353 -0.0353 m 0.45861,0 v 0.0353 l -0.0353,0.0353 v 0.0353 l -0.0353,0.0353 -0.0353,0.0353 -0.0353,0.0353 h -0.0353 l -0.0353,0.0353 h -0.0353 m 1.02305,0 h -0.0353 l -0.0353,-0.0353 h -0.0353 l -0.0353,-0.0353 -0.0353,-0.0353 -0.0353,-0.0353 v -0.0353 -0.0353 -0.0353 m 0.45862,0 v 0.0353 l -0.0353,0.0353 v 0.0353 l -0.0353,0.0353 -0.0353,0.0353 -0.0353,0.0353 h -0.0353 l -0.0353,0.0353 h -0.0353 m 1.02306,0 h -0.0353 l -0.0353,-0.0353 h -0.0353 l -0.0353,-0.0353 -0.0353,-0.0353 -0.0353,-0.0353 v -0.0353 -0.0353 -0.0353 m 0.45861,0 -0.0353,0.0353 v 0.0353 0.0353 l -0.0353,0.0353 -0.0353,0.0353 -0.0353,0.0353 h -0.0353 l -0.0353,0.0353 h -0.0353 m 1.02305,0 h -0.0353 l -0.0353,-0.0353 h -0.0353 l -0.0353,-0.0353 -0.0353,-0.0353 -0.0353,-0.0353 v -0.0353 -0.0353 l -0.0353,-0.0353 m 0.45861,0 v 0.0353 0.0353 0.0353 l -0.0353,0.0353 -0.0353,0.0353 -0.0353,0.0353 h -0.0353 l -0.0353,0.0353 h -0.0353 m 1.02306,0 h -0.0353 l -0.0353,-0.0353 h -0.0353 l -0.0353,-0.0353 -0.0353,-0.0353 -0.0353,-0.0353 v -0.0353 l -0.0353,-0.0353 v -0.0353 m 0.45861,0 v 0.0353 0.0353 l -0.0353,0.0353 v 0.0353 l -0.0353,0.0353 -0.0353,0.0353 h -0.0353 l -0.0353,0.0353 h -0.0353 m 2.04611,0 h -0.0353 l -0.0705,-0.0353 h -0.0353 l -0.0353,-0.0353 v -0.0353 l -0.0353,-0.0353 v -0.0353 l -0.0353,-0.0353 v -0.0353 m 0.45862,0 v 0.0353 0.0353 l -0.0353,0.0353 v 0.0353 l -0.0353,0.0353 -0.0353,0.0353 h -0.0353 l -0.0353,0.0353 h -0.0353 m 1.02305,0 h -0.0705 l -0.0353,-0.0353 h -0.0353 l -0.0353,-0.0353 v -0.0353 l -0.0353,-0.0353 -0.0353,-0.0353 v -0.0353 -0.0353 m 0.45861,0 v 0.0353 0.0353 l -0.0353,0.0353 v 0.0353 l -0.0353,0.0353 -0.0353,0.0353 h -0.0353 l -0.0353,0.0353 h -0.0353 m -9.94833,8.43139 v -0.0353 m 1.30528,0 v 0.0353 m 11.43,-0.0353 v 0.0353 m -1.30528,0 v -0.0353 m -11.07722,-4.65667 h 2.78694 m 0,1.09361 v -1.09361 m 6.45584,0 h 2.78694 M 111.41505,123.967 h 13.44084 m -9.94834,3.31611 h 6.45584 m -32.455549,-0.14111 0.03528,-0.35278 0.141112,-0.35278 0.246944,-0.3175 0.282222,-0.21167 0.352778,-0.14111 0.388055,-0.0705 0.352778,0.0705 0.352778,0.14111 0.3175,0.21167 0.211667,0.3175 0.141111,0.35278 0.07055,0.35278 m 0,0 -0.07055,0.38805 -0.141111,0.35278 -0.211667,0.28222 -0.3175,0.24695 -0.352778,0.14111 -0.352778,0.0353 -0.388055,-0.0353 -0.352778,-0.14111 -0.282222,-0.24695 -0.246944,-0.28222 -0.141112,-0.35278 -0.03528,-0.38805 m 1.446388,-1.44639 -0.282222,0.0353 -0.352777,0.10583 -0.282223,0.21167 -0.246944,0.24694 -0.176389,0.3175 -0.105833,0.35278 v 0.38805 l 0.105833,0.3175 0.176389,0.35278 0.246944,0.24695 0.282223,0.21166 0.352777,0.10584 h 0.282222 m 11.218321,1.09361 v 0 -0.0353 m 0,0 v 0 0.0353 m 0.0353,-0.0353 h -0.0353 m 0.0353,0 h -0.0353 m -5.750269,-3.4925 v 0.38805 m 14.040549,0.74084 v 0.67028 m 0,-0.67028 h -0.21167 m 0,-0.10584 h 0.21167 m 0,0 v 0.10584 m 0.49389,-0.10584 v 0.77612 m -0.49389,1.48166 v 0.24695 m 0.49389,-2.50473 h -0.49389 m 0,2.50473 v -0.24695 m 4.65667,0.24695 v 0 h -0.0353 -0.0353 v -0.0353 m 0.0706,0.0353 v 0 h -0.0353 -0.0353 v -0.0353 m -35.736377,2.78694 v -0.28222 m -0.282222,0.28222 h 0.282222 m 0,0 -0.176388,0.24695 m 0,0 h -0.105834 m 10.406944,0.70555 h 0.246945 m -0.246945,-1.16416 v 1.16416 m 0,0 v -1.16416 m 17.356655,-3.63361 v 0.10583 m 0,0 v 0 -0.0353 -0.0353 -0.0353 -0.0353 m 0.24695,0.52916 v 0.59973 m 0.10583,-0.59973 h -0.10583 m -1.19945,0 v 0.59973 m 1.19945,-0.59973 h -1.19945 m 0,0 h -0.0706 M 86.226646,128.553 h 0.105833 m -0.105833,0 v 0.0353 0.0353 0.0353 0.0353 0.0353 0.0705 0.0353 m 2.681111,-6.77333 0.03528,-0.35278 0.141112,-0.35278 0.246944,-0.3175 0.282222,-0.21166 0.352778,-0.14112 0.388055,-0.0705 0.352778,0.0705 0.352778,0.14112 0.3175,0.21166 0.211667,0.3175 0.141111,0.35278 0.07055,0.35278 m 0,0 -0.07055,0.38805 -0.141111,0.35278 -0.211667,0.28222 -0.3175,0.24695 -0.352778,0.14111 -0.352778,0.0353 -0.388055,-0.0353 -0.352778,-0.14111 -0.282222,-0.24695 -0.246944,-0.28222 -0.141112,-0.35278 -0.03528,-0.38805 m 1.446388,-1.44639 -0.282222,0.0353 -0.352777,0.10583 -0.282223,0.21167 -0.246944,0.24694 -0.176389,0.3175 -0.105833,0.35278 v 0.38805 l 0.105833,0.3175 0.176389,0.35278 0.246944,0.24695 0.282223,0.21166 0.352777,0.10584 h 0.282222 m -11.25361,6.17361 v -0.0353 m -1.199444,0 v 0.0353 m 0,-0.0353 v 0 0.0353 m 1.587499,-0.0353 v 0.0353 m 0,-0.0353 v 0 0.0353 m 0.493889,-0.0353 v 0.0353 m 0,-0.0353 v 0 0.0353 m 0.493889,-0.0353 v 0.0353 m 0,-0.0353 v 0 0.0353 m 0.529167,-0.0353 v 0.0353 m 0,-0.0353 v 0 0.0353 m 0.493889,-0.0353 v 0.0353 m 0,-0.0353 v 0 0.0353 m 0.493889,-0.0353 v 0.0353 m 0,-0.0353 v 0 0.0353 m 0.493888,-0.0353 v 0.0353 m 0,-0.0353 v 0 0.0353 m 0.493889,-0.0353 v 0.0353 m 0,-0.0353 v 0 0.0353 m 0.599722,-0.0353 v 0.0353 m 0,-0.0353 v 0 0.0353 m -4.480277,-0.0353 v 0 0.0353 m 0.599722,-0.0353 v 0 0.0353 m 0.493889,-0.0353 v 0 0.0353 m 0.493889,-0.0353 v 0 0.0353 m 0.493889,-0.0353 v 0 0.0353 m 0.493889,-0.0353 v 0 0.0353 m 0.529166,-0.0353 v 0 0.0353 m 0.493889,-0.0353 v 0 0.0353 m 0.493889,-0.0353 v 0 0.0353 m 1.5875,-0.0353 v 0 0.0353 m 13.052774,-0.0353 v 0.0353 m 0.42334,-0.0353 v 0.0353 m 0.529157,-0.0353 v 0.0353 m 0.423337,-0.0353 v 0.0353 m -14.287497,0 v -0.0353 m 25.576382,-1.09361 h -0.84667 m -3.49249,0 h -0.635 m -1.51696,0 h -0.17638 m 0,-0.59972 h 0.17638 m 5.64445,0 h 0.84667 m -0.49389,0.88194 h -0.35278 m 0.35278,0.59972 h -0.35278 m -17.815268,2.99861 h 0.141111 m -0.141111,0.17639 0.141111,-0.17639 m 0,-0.28222 v 0.28222 m 34.572217,-2.75166 h -0.49389 -0.59972 -0.59972 m 0,0 h -15.20473 m -3.21027,0 h -1.19945 m -1.76389,0 h -8.537209 m -9.172226,0 h -8.537222 m 29.351107,-0.59973 h -0.0353 m -1.37584,0 h -0.0705 m 14.32278,0.59973 v -0.0353 m -23.530269,0 v 0.0353 m 0,-0.0353 v 0 0.0353 m 1.5875,-0.0353 v 0.0353 m 0,-0.0353 v 0 0.0353 m 0.49389,-0.0353 v 0.0353 m 0,-0.0353 v 0 0.0353 m 0.52917,-0.0353 v 0.0353 m 0,-0.0353 v 0 0.0353 m 0.493887,-0.0353 v 0.0353 m 0,-0.0353 v 0 0.0353 m 0.493877,-0.0353 v 0.0353 m 0,-0.0353 v 0 0.0353 m 0.493887,-0.0353 v 0.0353 m 0,-0.0353 v 0 0.0353 m 0.493888,-0.0353 v 0.0353 m 0,-0.0353 v 0 0.0353 m 0.52917,-0.0353 v 0.0353 m 0,-0.0353 v 0 0.0353 m 0.59972,-0.0353 v 0.0353 m 0,-0.0353 v 0 0.0353 m -4.515539,-0.0353 v 0 0.0353 m 0.59972,-0.0353 v 0 0.0353 m 0.49389,-0.0353 v 0 0.0353 m 0.493887,-0.0353 v 0 0.0353 m 0.529157,-0.0353 v 0 0.0353 m 0.493887,-0.0353 v 0 0.0353 m 0.493888,-0.0353 v 0 0.0353 m 0.49389,-0.0353 v 0 0.0353 m 0.49389,-0.0353 v 0 0.0353 m 1.5875,-0.0353 v 0 0.0353 m -25.188324,0 v -0.0353 m 0,0.0353 v -0.0353 m 25.858594,0 v 0.0353 m 0,-0.0353 v 0.0353 m 7.12612,0 v -0.0353 m -0.70556,0 h -0.21167 m 0.67028,-11.85333 h 0.17639 m -0.17639,-0.84667 h 0.17639 m -4.65666,16.1925 v 0 h 0.0353 0.14111 0.21167 0.28222 0.3175 0.28223 m -1.44639,-0.59972 v 0 h 0.10583 0.17639 0.28222 0.3175 m 0.56445,0.52916 -0.10584,-0.0353 -0.14111,-0.10584 -0.3175,-0.38805 m 0,0 v -0.38806 m -4.02167,-2.71639 h -3.457212 m 4.550822,-1.09361 v 0.21167 l -0.0705,0.21166 -0.10583,0.17639 -0.14111,0.17639 -0.17639,0.14111 -0.17639,0.10584 -0.21167,0.0706 h -0.21166 m 1.09361,-1.65805 v 0.56444 m -1.09361,-1.65805 h 0.21166 l 0.21167,0.0705 0.17639,0.10583 0.17639,0.14112 0.14111,0.17638 0.10583,0.17639 0.0705,0.21167 v 0.21167 m -7.443599,-1.09361 h 6.349989 m -7.443599,1.09361 v -0.21167 l 0.0706,-0.21167 0.10583,-0.17639 0.14112,-0.17638 0.14111,-0.14112 0.21166,-0.10583 0.21167,-0.0705 h 0.21167 m -1.09361,1.65805 v -0.56444 m 1.09361,1.65805 h -0.21167 l -0.21167,-0.0706 -0.21166,-0.10584 -0.14111,-0.14111 -0.14112,-0.17639 -0.10583,-0.17639 -0.0706,-0.21166 v -0.21167 m 3.951107,1.09361 h -2.857497 m 2.857497,0.21167 v -0.21167 m -2.857497,0.21167 h 2.857497 m -4.162767,-1.30528 0.0353,0.24695 0.0705,0.24694 0.10583,0.24694 0.17639,0.17639 0.17639,0.17639 0.24694,0.10584 0.24695,0.0706 0.24694,0.0353 m -1.30528,-1.30528 v -0.56444 m 1.30528,-1.30528 -0.24694,0.0353 -0.24695,0.0705 -0.24694,0.14111 -0.17639,0.14111 -0.17639,0.21167 -0.10583,0.21167 -0.0705,0.24694 -0.0353,0.24695 m 1.30527,-1.30528 h 6.349989 m 0,0 0.24695,0.0353 0.24694,0.0705 0.21167,0.14111 0.21166,0.14111 0.17639,0.21167 0.10584,0.21167 0.0705,0.24694 0.0353,0.24695 m 0,0.56444 v -0.56444 m -1.30528,1.86972 0.24694,-0.0353 0.24695,-0.0706 0.21167,-0.10584 0.21166,-0.17639 0.17639,-0.17639 0.10583,-0.24694 0.0705,-0.24694 0.0353,-0.24695 m -4.762492,1.30528 h 3.457222 m -3.457222,-0.21167 v 0.21167 m 0,0 v -0.3175 m 0,0 v 0.10583 m 3.457222,0 v -0.10583 m 0,0 h -3.457222 m -2.892767,0 v 0.10583 m 2.857497,-0.10583 h -2.857497 m 2.857497,0.10583 v -0.10583 m -3.845277,-1.55222 h -0.10583 m 1.09361,-1.09361 v 0.10583 m 0,0 h -0.21167 l -0.17639,0.0705 -0.17639,0.10584 -0.14111,0.10583 -0.14111,0.14111 -0.0706,0.17639 -0.0705,0.21167 v 0.17639 m -0.10583,0.56444 h 0.10583 m 0,0 v 0.21167 l 0.0705,0.17639 0.0706,0.17639 0.14111,0.14111 0.14111,0.14111 0.17639,0.0705 0.17639,0.0706 h 0.21167 m -0.98778,-1.55222 v 0.56444 m 7.337769,-1.55222 v -0.10583 m -6.349989,0.10583 h 6.349989 m 1.09361,0.98778 h -0.10584 m 0,0 v -0.17639 l -0.0706,-0.21167 -0.10583,-0.17639 -0.10583,-0.14111 -0.14111,-0.10583 -0.17639,-0.10584 -0.21167,-0.0705 h -0.17639 m 0.98778,1.55222 h 0.10583 m -1.09361,0.98778 h 0.17639 l 0.21167,-0.0706 0.17639,-0.0705 0.14111,-0.14111 0.10583,-0.14111 0.10583,-0.17639 0.0706,-0.17639 v -0.21167 m 0,0 v -0.56444 m -7.866929,-1.19945 -0.17639,0.10584 -0.14111,0.10583 -0.14111,0.14111 -0.10583,0.14111 -0.10584,0.17639 -0.0353,0.17639 -0.0705,0.17639 v 0.17639 m 1.30528,-1.30528 h -0.0706 l -0.0706,0.0353 h -0.0705 -0.0706 l -0.0353,0.0353 h -0.0706 l -0.0706,0.0353 h -0.0705 m -0.77611,1.83445 0.0353,0.21166 0.0705,0.24695 0.14111,0.21166 0.14111,0.21167 0.21167,0.14111 0.21167,0.10584 0.24694,0.0706 0.24694,0.0353 m -1.30527,-1.30528 v 0.0706 m 0,0 v -0.0706 -0.0705 -0.0353 0.0705 0.0353 m 0,1.30528 V 128.412 m 0,1.09361 v 0.0353 0.0353 0.0353 0.0353 0.0353 m 0,-1.27 v 1.09361 m 0,-1.16417 v -0.0353 -0.0705 0.0353 0.0705 0.0706 m 0,0 v -0.10584 -0.0705 -0.0353 -0.0353 0.0353 0.0706 0.0705 m 0,1.30528 v -1.23472 m 0,-0.49389 v 1.72861 m 0,-1.86972 v 0.14111 m 7.655259,1.41111 h 0.17639 l 0.17639,-0.0706 0.17639,-0.0705 0.14111,-0.10584 0.14111,-0.14111 0.10584,-0.17639 0.0353,-0.17638 0.0353,-0.17639 m 0,-0.0706 v 0.0706 m 0,-0.0706 v 0 -0.0705 -0.0353 0.0705 0.0353 m 0,0.84667 v 0.45861 m 0,0 v 0 -0.0353 -0.0353 -0.0353 -0.0353 m 0,0 v -0.3175 m 0,-0.84667 v -0.0353 -0.0705 0.0353 0.0705 m -4.480272,0.98778 v 0 h 0.0353 m -0.0353,0.3175 v -0.3175 m 0.0353,0.3175 h -0.0353 m 4.797772,-1.30528 v 0.0706 m -8.643049,0.77611 v 0.49389 m 8.643049,-1.27 v 0.84666 m -5.714989,-2.36361 v 0 -0.0353 -0.0353 -0.0353 m 0,0.10583 h -0.81139 m 0,-0.10583 v 0 0.0353 0.0353 0.0353 m 4.092209,-0.10583 v 0 0.0353 0.0353 0.0353 m 0,0 h -0.84667 m 0,-0.10583 v 0 0.0353 0.0353 0.0353 m -3.245539,0 h -0.0353 -0.0353 -0.0353 -0.0353 m -0.10584,-0.10583 h 0.0353 0.0353 v 0.0353 h 0.0353 v 0.0353 0.0353 m 1.09361,0 v 0 h -0.0353 -0.0353 -0.0353 -0.0353 m 0.24695,-0.10583 v 0 h -0.0353 -0.0353 v 0.0353 h -0.0353 v 0.0353 0.0353 m 2.293049,0 v 0 h -0.0353 -0.0353 -0.0353 m 0,0 v 0 -0.0353 l -0.0353,-0.0353 -0.0353,-0.0353 h -0.0353 m 1.19944,0.10583 h -0.0353 -0.0353 -0.0353 -0.0353 m 0.24694,-0.10583 h -0.0353 -0.0353 v 0.0353 h -0.0353 v 0.0353 0.0353 m -3.421929,0 v 0.0353 m 0,0 h -0.81139 m 0,0 v -0.0353 m -0.14111,0.0353 v 0 h 0.0353 0.0353 0.0353 0.0353 m -0.14111,0 v -0.0353 m 0.14111,0.14111 v 0 -0.0353 -0.0353 -0.0353 m 0.81139,0 v 0 0.0353 0.0353 0.0353 m -0.81139,0 h 0.81139 m 0,2.18723 v 0.10583 m -0.81139,0 v -0.10583 m 0,0 h 0.81139 m 0,0 v -0.0353 -0.0353 -0.0353 -0.0353 m -0.81139,0.14112 v -0.0353 -0.0353 -0.0353 -0.0353 m 0.81139,0 h -0.81139 m 0,0.14112 h -0.0353 -0.0353 -0.0353 -0.0353 m 0,0.10583 v -0.10583 m 1.09361,-2.29306 v -0.0353 m -0.14111,0.0353 h 0.0353 0.0353 0.0353 0.0353 m 0,2.29306 v 0 h -0.0353 -0.0353 -0.0353 -0.0353 m 0.14111,0.10583 v -0.10583 m 3.139709,-2.32834 v 0.0353 m 0,0 h -0.84666 m 0,0 v -0.0353 m -0.10584,0.0353 v 0 h 0.0353 0.0353 0.0353 m -0.10583,-0.0353 v 0.0353 m 0.10583,0.10583 h 0.84667 m -0.84667,0 v 0 -0.0353 -0.0353 -0.0353 m 0.84667,0.10583 v 0 -0.0353 -0.0353 -0.0353 m 0,2.15194 h -0.84667 m 0.84667,0.14112 v -0.0353 -0.0353 -0.0353 -0.0353 m -0.84667,0.14112 h 0.84667 m -0.84667,0 v -0.0353 -0.0353 -0.0353 -0.0353 m 0.84667,0.14112 v 0.10583 m -0.84667,0 v -0.10583 m 0,0 v 0 h -0.0353 -0.0353 -0.0353 m 0,0.10583 v -0.10583 m 1.09361,-2.29306 v -0.0353 m -0.14111,0.0353 h 0.0353 0.0353 0.0353 0.0353 m 0,2.29306 h -0.0353 -0.0353 -0.0353 -0.0353 m 0.14111,0.10583 v -0.10583 m -4.233319,-2.18723 h -0.0353 -0.0353 v -0.0353 h -0.0353 v -0.0353 l -0.0353,-0.0353 m 0,2.29306 v -0.0353 l 0.0353,-0.0353 v -0.0353 h 0.0353 l 0.0353,-0.0353 h 0.0353 m 0.9525,0.14112 v -0.0353 -0.0353 h -0.0353 v -0.0353 h -0.0353 l -0.0353,-0.0353 h -0.0353 m 0,-2.04611 h 0.0353 0.0353 v -0.0353 h 0.0353 v -0.0353 h 0.0353 v -0.0353 m 2.187209,0 v 0 0.0353 h 0.0353 v 0.0353 l 0.0353,0.0353 h 0.0353 m -0.10583,2.18723 v -0.0353 -0.0353 h 0.0353 v -0.0353 h 0.0353 l 0.0353,-0.0353 m 0.98778,0.14112 -0.0353,-0.0353 v -0.0353 -0.0353 h -0.0353 -0.0353 v -0.0353 h -0.0353 m 0,-2.04611 h 0.0353 l 0.0353,-0.0353 h 0.0353 v -0.0353 -0.0353 h 0.0353 m -4.480269,-0.14111 h 0.0353 0.0353 v 0.0353 h 0.0353 v 0.0353 0.0353 m 3.174989,-0.10583 v 0 h 0.0353 l 0.0353,0.0353 0.0353,0.0353 v 0.0353 m -3.139709,0.14111 h -0.0353 -0.0353 v -0.0353 h -0.0353 v -0.0353 l -0.0353,-0.0353 m 0,2.29306 v -0.0353 l 0.0353,-0.0353 v -0.0353 h 0.0353 l 0.0353,-0.0353 h 0.0353 m -0.14111,-2.15194 v -0.0353 m 0,2.43417 v -0.10583 m 3.386649,-2.18723 v 0 h -0.0353 l -0.0353,-0.0353 v -0.0353 h -0.0353 v -0.0353 m 0,2.29306 v -0.0353 -0.0353 h 0.0353 v -0.0353 h 0.0353 l 0.0353,-0.0353 m -0.10583,-2.15194 v -0.0353 m 0,2.43417 v -0.10583 m -8.607767,2.99861 v 1.16416 m -0.246944,0 h 0.246944 M 77.02022,127.17709 h -0.282222 m 12.064999,5.00945 v 0.24694 m 0,0 h 0.03528 m 0,0.0706 -0.03528,-0.0706 m 0.03528,0.0706 -0.03528,-0.0706 m 0,-0.24694 v 0.24694 m 32.773043,-2.75166 0.0353,-0.0353 m -6.17361,0.0353 v -0.0353 m -4.93889,0.0353 v -0.0353 m -0.49389,-0.21167 v 0.24695 m 0,-0.24695 h 0.49389 m -0.49389,0.24695 v 0 -0.0353 -0.0353 -0.0353 -0.0353 -0.0706 -0.0706 m 0,0 v -0.49388 m 0,0 v 0 -0.0353 -0.0353 m 0,0 v -0.28222 m 0,0 v 0.0353 0.0353 0.0353 0.0353 0.0353 0.0705 0.0353 m 0,0 v 0.52917 m 0,0 v 0 0.0353 0.0353 m 0,-0.88194 h 0.49389 m -0.14111,-0.84667 h 0.14111 m -0.84667,1.94028 h 0.21167 m 0.49389,-2.15195 h 0.14111 m -13.088049,12.45306 h 0.81139 m 0,0 v 0.98778 m 0,0 h -0.81139 m 0,0 v -0.98778 m 5.785549,0 h 0.0353 m -0.0353,0 h -1.55224 m 0,0 h -0.45861 m 0,0 h -0.42334 m -5.256379,0.98778 h 0.0353 m 0,0 h 1.86973 m 0.81139,0 h 0.423327 m 2.539992,-0.98778 v 0.98778 m 0,0 h -0.42334 m 0,-0.98778 v 0.98778 m 0.88195,0 h -0.45861 m 2.01083,0 h -1.55222 m 1.5875,0 h -0.0353 m -4.974159,-0.98778 h 0.423327 m 0,0 v 0.98778 m -1.234717,-0.98778 h -1.86972 m -0.0353,0 h 0.0353 m 6.103049,0.98778 v -0.98778 m 1.55222,0.98778 v -0.98778 m -7.655269,0.98778 v -0.98778 m 9.172209,-7.26722 0.10584,0.0353 0.10583,0.0705 0.0706,0.10583 0.0353,0.10584 m 0,0.24694 v 0.14111 0.14111 0.10584 m 0,-0.635 v 0.24694 m -11.324159,0 h 11.324159 m -11.324159,0 v -0.24694 m 0,0 0.0353,-0.10584 0.0706,-0.10583 0.10584,-0.0705 0.10583,-0.0353 m 10.689149,0 H 94.024421 m -0.3175,0.9525 v 0 -0.10584 -0.14111 -0.14111 m 11.324149,14.39333 v 0.24695 m 0,-0.635 v 0.0353 0.0706 0.14111 0.14111 m -11.006649,0.56445 h 10.689149 m -10.689149,0 -0.10584,-0.0353 -0.10583,-0.0705 -0.0706,-0.0706 -0.0353,-0.14111 m 0,0 v -0.24695 m 11.324159,0 H 93.706921 m 11.324149,0.24695 -0.0353,0.14111 -0.0706,0.0706 -0.10583,0.0705 -0.10583,0.0353 M 93.706921,147.6382 v -0.14111 -0.14111 -0.0706 -0.0353 m 12.946929,-0.56445 h -0.635 m 0,0 h -0.14111 -0.14111 -0.0705 -0.0353 m 0.38805,-12.48833 h 0.635 m 0,0 v 12.48833 m -0.635,-12.48833 v 12.48833 m -0.38805,-4.58611 v 4.58611 m 0,-12.48833 v 4.58611 m 0,-4.58611 h 0.0353 0.0705 0.14111 0.14111 m -12.311929,-0.56444 h 11.324149 m 0,13.61722 H 93.706921 m -0.987781,-0.56445 h -0.634999 m 1.023055,0 h -0.03528 -0.07055 -0.141111 -0.141112 m 0,-12.48833 h 0.141112 0.141111 0.07055 0.03528 m 0,4.58611 v -4.58611 m 0,12.48833 v -4.58611 m -0.388056,4.58611 V 134.1973 m -0.634999,0 h 0.634999 m -0.634999,12.48833 V 134.1973 m 3.42194,6.73806 v -0.98778 m 7.725829,0.98778 v -0.98778 m -10.124714,1.79917 H 105.6308 M 93.107196,142.1348 H 105.6308 m -12.523604,-0.0353 v -0.0705 -0.0706 -0.10583 -0.10583 m 12.523604,0 v 0.10583 0.10583 0.0706 0.0705 m -4.86834,-2.15194 h -0.0353 m 0,0 v 0.98778 m 0,0 h 0.0353 m 4.86834,-1.79917 H 93.107196 m 12.523604,0 v 2.61056 m -12.523604,0 v -2.61056 M 105.6308,138.74821 H 93.107196 m 0,0.38805 v -0.10583 -0.0706 -0.10583 -0.0706 m 12.523604,0 v 0.0706 0.10583 0.0706 0.10583 m 0.28222,8.50194 v 0.42334 m 0,-0.42334 v -0.49388 m 0,0 v -0.45862 m 0,-12.48833 v -0.45861 m -13.088046,0 v 0.45861 m 0,12.48833 v 0.45862 m 0,0.49388 v 0.42334 m 0,-0.91722 v 0.49388 m 12.699996,-14.28749 h -0.4939 m -11.324149,0 h -0.493892 m 11.818041,14.18166 h 0.4939 m -12.311941,0 h 0.493892 M 105.6308,146.6857 v 0.45862 m 0,-13.40556 v 0.45861 m -12.523604,12.94695 v -0.45862 m 0,-12.48833 v -0.45861 m 0.599725,13.51139 h -0.493892 m 12.311941,0 h -0.4939 m 0,-13.61722 h 0.4939 m -12.311941,0 h 0.493892 m 10.653879,2.04611 v -0.9525 m -9.983599,0.9525 h 9.983599 m -9.983599,-0.9525 v 0.9525 m 9.983599,-0.9525 h -9.983599 m 0,0 -0.42334,-0.38806 m -0.0706,1.83445 0.49389,-0.49389 m -0.49389,-1.34056 v 1.83445 m 0,-1.83445 h 0.0706 m 10.830269,0 -0.42333,0.38806 m 0.42333,-0.38806 H 93.953861 m -0.0706,1.86973 h 10.971379 m -10.971379,-0.0353 v 0.0353 m 10.971379,-0.0353 -0.49389,-0.49389 m 0.49389,0.49389 v 0.0353 m -10.477489,7.97277 -0.49389,0.49389 m 0.49389,-0.49389 h 9.983599 m 0.49389,0.49389 -0.49389,-0.49389 m 0.49389,0.49389 v 0.0353 m -10.971379,0 h 10.971379 m -10.971379,0 v -0.0353 m 10.477489,-0.49389 v -0.9525 m 0.42334,-0.38805 -0.42334,0.38805 m 0.42334,-0.38805 h 0.0705 m 0,0 v 1.83444 m -0.0705,-10.33639 h 0.0705 m 0,0 v 1.83445 m -10.900829,6.6675 0.42334,0.38805 m 0,0.9525 v -0.9525 m -0.49389,-0.38805 v 1.83444 m 0.0706,-1.83444 h -0.0706 m 10.900819,0 H 93.953771 m 10.406939,0.38805 h -9.983599 m 11.147769,4.02167 h 0.0353 l 0.0353,-0.0353 v -0.0353 l 0.0353,-0.0353 m -0.10583,0.38805 h 0.14111 l 0.14111,-0.10583 0.0705,-0.14111 0.0353,-0.14111 m -12.805824,0 0.03528,0.0353 v 0.0353 l 0.03528,0.0353 h 0.03528 m -0.388055,-0.10583 0.03528,0.14111 0.07055,0.14111 0.141111,0.10583 h 0.141111 m 0,-13.89944 -0.03528,0.0353 h -0.03528 v 0.0353 l -0.03528,0.0353 m 0.105833,-0.38805 -0.141111,0.0353 -0.141111,0.0706 -0.07055,0.14111 -0.03528,0.14111 m 13.088046,0 -0.0353,-0.14111 -0.0705,-0.14111 -0.14111,-0.0706 -0.14111,-0.0353 m 0.10583,0.38805 -0.0353,-0.0353 v -0.0353 h -0.0353 l -0.0353,-0.0353 m 0.10583,12.065 -0.81139,-0.3175 m 0,0 v 0 -0.0353 h 0.0353 0.0706 m 0.70556,-8.14917 -0.8114,-0.3175 m 0,0 v 0 -0.0353 h 0.0353 0.0706 m -0.0706,7.16138 0.77612,-0.3175 m -11.712219,1.69334 -0.811385,0.3175 m 0.776115,-0.35278 h 0.0353 v 0.0353 m 10.936099,-9.87778 0.77611,-0.3175 m -11.712209,1.69333 -0.811393,0.3175 m 0.811393,-0.3175 v 0 m -0.811393,-1.69333 0.776113,0.3175 m -0.776113,8.18444 0.776113,0.3175 m 10.936099,-7.79638 v 0.67027 m 0,8.50195 v -0.67028 m -10.900819,-8.50194 v 0.67027 m 0,8.50195 v -0.67028 m 3.24555,-5.96194 0.0353,-0.0353 0.0706,-0.0706 m -1.79917,0 0.0353,0.0706 0.0706,0.0353 m -0.21166,-0.70556 0.10583,0.59972 m 1.79917,0 0.0705,-0.59972 m 0,0 h -1.97556 m 6.314719,9.2075 -0.21167,-0.74083 m 1.79917,0 -0.21167,0.74083 m 0.21167,-0.74083 h -1.79917 m 1.79917,-12.17084 -0.21167,-0.70555 m -1.37583,0 -0.21167,0.70555 m -5.997209,12.17084 0.21166,0.74083 m 1.37584,0 0.21166,-0.74083 m 0,0 h -1.79916 m 1.5875,-12.87639 0.21166,0.70555 m -1.79916,0 0.21166,-0.70555 m -0.24694,5.11528 -0.0705,-0.42334 m 2.01083,0 -0.0706,0.42334 m -1.72861,-5.11528 -0.14111,0.49389 m 1.86972,0 -0.14111,-0.49389 m 4.268599,13.12333 0.14111,0.49389 m 1.5875,0 0.14111,-0.49389 m -1.86972,-12.62944 0.14111,-0.49389 m 1.5875,0 0.14111,0.49389 m -7.725819,13.12333 -0.14111,-0.49389 m 1.86972,0 -0.14111,0.49389 m 4.127489,-13.61722 0.0706,0.10583 m 0.0353,0.10583 v -0.0705 l -0.0353,-0.0353 m 0.0706,0.35278 -0.0353,-0.24695 m 0.0353,0.24695 v 0.0353 0.0353 -0.0353 m -0.0706,-0.0706 v -0.0353 m -0.24694,-0.38805 0.24694,0.38805 m 0.0353,0.28223 v 0.0353 m 0,-0.0353 -0.0353,-0.24695 m -3.915819,13.19389 -0.0705,-0.10583 m -0.0353,-0.10584 v 0.0706 l 0.0353,0.0353 m -0.0706,-0.35278 0.0353,0.24694 m -0.0353,-0.24694 v -0.0353 m 0.0353,-0.14111 0.0353,0.24694 m 0,0 v 0 m 0.24694,0.38806 -0.24694,-0.38806 m -0.0353,-0.24694 v -0.10583 l -0.0353,-0.0706 -0.0353,0.0706 m 0.0353,-12.3825 v 0 0.0353 -0.0353 -0.0353 m 0.0353,-0.24695 -0.0353,0.24695 m 0.0706,-0.35278 -0.0353,0.0353 v 0.0705 m 0.10583,-0.21166 -0.0705,0.10583 m 0,0.28222 0.24694,-0.38805 m -0.24694,0.38805 v 0.0353 m -0.0353,0.24695 0.0353,-0.24695 m -0.0353,0.28222 v -0.0353 m 4.021659,12.84111 0.0353,-0.0353 v -0.0706 m -0.10584,0.21167 0.0706,-0.10583 m 0,-0.28223 -0.24694,0.38806 m 0.28222,-0.635 -0.0353,0.24694 m 0.0705,-0.10583 v 0 0.0353 m -0.0353,0.24694 0.0353,-0.24694 m -0.0705,0.0705 v 0 m 0.10583,-0.35277 -0.0353,-0.0706 -0.0353,0.0706 v 0.10583 m -6.032489,0.52917 0.0353,-0.0353 v -0.0706 m -0.0353,0.10584 -0.0706,0.10583 m 0.14112,-0.49389 v 0 0.0353 m 0,0 -0.0353,0.24694 m -0.0353,-0.17639 -0.24695,0.38806 m 0.24695,-0.38806 v 0 m 0,0 0.0353,-0.24694 m 0.0706,-0.10583 -0.0353,-0.0706 -0.0353,0.0706 v 0.10583 m 7.902209,-12.48833 v 0 0.0353 -0.0353 -0.0353 m 0,0 0.0353,-0.24695 m 0.0353,-0.10583 -0.0353,0.0353 v 0.0705 m 0.0353,-0.10583 0.0705,-0.10583 m -0.0705,0.38805 0.24694,-0.38805 m -0.24694,0.38805 v 0.0353 m 0,0 -0.0353,0.24695 m 0,0.0353 v -0.0353 m 0.28222,12.94694 -0.24694,-0.38806 m 0,0.28223 0.0705,0.10583 m -0.10584,-0.21167 v 0.0706 l 0.0353,0.0353 m -0.0706,-0.35278 0.0353,0.24694 m -0.0353,-0.24694 v -0.0353 m 0.0706,0.10583 -0.0353,-0.24694 m 0.0353,0.24694 v 0 m -0.0353,-0.24694 v -0.10583 l -0.0353,-0.0706 -0.0353,0.0706 m -7.902209,-12.77056 -0.0706,-0.10583 m 0.10583,0.21166 v -0.0705 l -0.0353,-0.0353 m 0.0705,0.35278 -0.0353,-0.24695 m 0.0353,0.24695 v 0.0353 0.0353 -0.0353 m -0.0705,-0.0706 v -0.0353 m -0.24694,-0.38805 0.24694,0.38805 m 0.0353,0.28223 v 0.0353 m -0.0353,-0.28222 0.0353,0.24695 m 1.97556,3.81 0.0353,0.28222 m 0,0.0353 0.21167,0.3175 m -0.17639,0 -0.0353,-0.0353 m 0,-0.10584 v 0.0706 0.0353 m 0,-0.10584 -0.0353,-0.28222 m 0,0 v 0 m 0,-0.21166 v -0.0706 -0.0353 l -0.0353,0.0353 m 0.0706,0.35278 v 0.0353 m -2.29306,0.3175 0.17639,-0.3175 m 0.0353,-0.0353 v -0.28222 m 0.0353,0.21166 -0.0353,0.28222 m 0,0.10584 v -0.0353 -0.0706 m 0,0.10584 -0.0353,0.0353 m 0,-0.3175 h 0.0353 v -0.0353 m 0.0353,-0.35278 v -0.0353 0.0353 l -0.0353,0.0706 m 0.0353,0.21166 v 0 m 4.515541,-1.51694 h 0.952498 m -0.952498,-0.59972 v 0.59972 m 0.952498,-0.59972 v 0.59972 m 1.55223,0 h 0.9525 m -0.9525,-0.59972 v 0.59972 m 0.9525,-0.59972 v 0.59972 m -3.457228,7.90222 v 0.59972 m 0.952498,-0.59972 v 0.59972 m -0.952498,0 h 0.952498 m 1.55223,0 h 0.9525 m -0.9525,-0.59972 v 0.59972 m 0.9525,-0.59972 v 0.59972 m -3.457228,0 v 0.0706 m -1.023044,-8.5725 h -0.952497 m 0,-0.59972 v 0.59972 m 0.952497,-0.59972 v 0.59972 m -2.504717,-0.59972 v 0.59972 m 0,0 h -0.9525 m 0,-0.59972 v 0.59972 m 0.9525,7.90222 v 0.59972 m 0,0 h -0.9525 m 0,-0.59972 v 0.59972 m 3.457217,-0.59972 v 0.59972 m 0,0 v 0.0706 m -0.952497,-0.67028 v 0.59972 m 0.952497,0 h -0.952497 m 0,0 v 0.0706 m 2.928039,-0.0706 v 0.0706 m 4.33917,2.75166 v 0.59973 m 0,-1.09362 v 0.49389 m -11.606379,0.59973 v -0.59973 m 0,0 h 0.28222 m 11.041939,0 h 0.28222 M 93.565881,147.6382 v 0.49389 m 11.606369,-0.49389 h -0.14111 m -11.324149,0 h -0.14111 m 1.79916,-9.24277 v 0 m 1.97556,0 h 0.0353 m -2.01083,0.0353 h 0.0353 m 1.94027,0 h 0.0353 m 3.457219,6.94972 h -0.952498 m -1.975551,0 h 0.952497 m -5.750275,3.35139 v -1.19945 m 12.523607,0 v 1.19945 m 0,-1.09362 h 0.28222 m 0,0.42334 0.42333,0.67028 m -0.35277,0 -0.35278,-0.59973 m -12.876385,0.59973 0.352778,-0.59973 m -0.282222,-0.0705 -0.423334,0.67028 m 0.705556,-1.09362 h -0.282352 m 8.748879,-5.50333 -0.0353,0.0353 -0.0705,0.0706 m 1.79917,0 -0.0706,-0.0706 -0.0353,-0.0353 m 0.21166,0.70556 -0.10583,-0.59972 m -1.86972,0.59972 h 1.97555 m -1.905,-0.59972 -0.0706,0.59972 m 0.0706,-0.70556 v 0.10584 m 1.79917,0 v -0.10584 m 0.0353,0 0.0706,0.45861 m -2.01083,0 0.0706,-0.45861 m -0.0706,0.45861 h 0.0706 m 1.86972,0 h 0.0706 m -7.902209,-0.35277 0.0353,-0.0706 0.0706,-0.0353 m -0.10584,0.10584 v -0.10584 m -0.10583,0.70556 h 1.97556 m -1.97556,0 0.10583,-0.59972 m 1.69334,-0.10584 0.0706,0.0353 0.0353,0.0706 m 0,0 0.0705,0.59972 m -0.0705,-0.70556 v 0.10584 m 0.10583,0.35277 -0.0706,-0.45861 m -1.86972,0 -0.0705,0.45861 m 0,0 h 0.0705 m 1.86972,0 h 0.0706 m 14.710819,3.24556 v 1.905 m 3.21028,-1.905 h -3.21028 m 3.21028,1.905 v -1.905 m -3.21028,1.905 h 3.21028 m 5.60917,-1.905 v 1.905 m 3.175,-1.905 h -3.175 m 3.175,1.905 v -1.905 m -3.175,1.905 h 3.175 m -18.16806,-0.45861 h 1.19945 m 2.53999,0 h 0.45862 m 0,-0.84667 h -0.45862 m -2.53999,0 h -0.45862 m -0.74083,1.51694 h 1.19945 m 2.53999,0 h 0.45862 m -21.484409,-4.90361 h 0.458612 m 2.504722,0 h 0.493889 m -6.914445,-3.10444 h -0.03528 m -1.869722,0 h 1.869722 m -1.869722,0 h -0.811399 m 0,0 h -0.423334 m 0.423334,0.98778 h -0.423334 m 0.423334,0 h 0.811389 m 1.869722,0 h -1.869722 m 1.904999,0 h -0.03528 m -5.644445,0 h 0.423337 m -0.423334,-0.98778 v 0.98778 m 0,-0.98778 h 0.423334 m 0,0 v 0.98778 m 2.54,-0.98778 v 0.98778 m -0.423334,-0.98778 v 0.98778 m -2.963333,-0.98778 h 0.423333 m -1.975555,0 h 1.552222 m -1.552222,0 h -0.03528 m 1.5875,0.98778 h 0.423333 m -0.423333,0 v -0.98778 m 4.198056,0.98778 v -0.98778 m -5.750278,0.98778 h 1.552222 m -1.5875,0 h 0.03528 m 0,0 v -0.98778 m 7.62,0.98778 v -0.98778 m -9.172222,-7.26722 h 10.724444 m -10.724444,0 -0.105833,0.0353 -0.105834,0.0705 -0.03528,0.10583 -0.03528,0.10584 m 0,0 v 0.24694 m 0,0 v 0.14111 0.14111 0.10584 m 11.288888,-0.635 v -0.10584 l -0.07056,-0.10583 -0.105833,-0.0705 -0.105833,-0.0353 m 0.282222,0.56444 V 132.998 m 0,0.24694 H 75.679975 m 11.288888,0.38806 v 0 -0.10584 -0.14111 -0.14111 m -11.288888,14.64028 0.03528,0.14111 0.03528,0.0706 0.105834,0.0705 0.105833,0.0353 m 10.724444,0 H 75.962197 m 11.006666,-0.3175 v -0.24695 m 0,0 v -0.14111 -0.14111 -0.0706 -0.0353 m -11.288888,0.38805 v 0.24695 m 0,-0.24695 h 11.288888 m -0.282222,0.56445 0.105833,-0.0353 0.105833,-0.0705 0.07056,-0.0706 v -0.14111 m -11.288888,-0.635 v 0.0353 0.0706 0.14111 0.14111 m -0.599723,-13.44083 h -0.03528 -0.07056 -0.141111 -0.141111 m 0.388055,0 v 4.58611 m 0,3.31611 v 4.58611 m -0.388055,0 h 0.141111 0.141111 0.07056 0.03528 m -0.388055,-12.48833 v 12.48833 m -0.670278,0 h 0.670278 m 0,-12.48833 h -0.670278 m 0,0 v 12.48833 m 1.658056,0.56445 h 11.288888 m 0,-13.61722 H 75.679975 m 12.946943,0.56444 h -0.635 m 0,0 h -0.176388 -0.105834 -0.105833 -0.03528 m 1.058333,12.48833 v -12.48833 m -0.635,12.48833 h 0.635 m -0.635,0 v -12.48833 m -0.423333,12.48833 h 0.03528 0.105833 0.105834 0.176388 m -0.423333,0 v -4.58611 m 0,-3.31611 v -4.58611 m -2.398889,6.73806 v -0.98778 m -7.690555,0.98778 v -0.98778 m 10.089444,2.18722 H 75.080252 m 12.488333,-0.38805 H 75.080252 m 12.488333,0.35277 v -0.0705 -0.0706 -0.10583 -0.10583 m -12.488333,0 v 0.10583 0.10583 0.0706 0.0705 m 4.903611,-1.16416 h -0.07056 m 0.07055,-0.98778 v 0.98778 m -0.07055,-0.98778 h 0.07055 m -4.903611,-0.81139 h 12.488333 m -12.488333,0 v 2.61056 m 12.488333,0 v -2.61056 m -12.488333,-0.38805 h 12.488333 m 0,0.38805 v -0.10583 -0.0706 -0.10583 -0.0706 m -12.488333,0 v 0.0706 0.10583 0.0706 0.10583 m -0.3175,-4.93889 v -0.45861 m 0,13.40556 v -0.45862 m 0,0.9525 v -0.49388 m 0,0.49388 v 0.42334 m 13.123333,-0.42334 v 0.42334 m 0,-1.37584 v 0.45862 m 0,-13.40556 v 0.45861 m 0,12.94695 v 0.49388 m -0.917222,-14.28749 h 0.493889 m -12.276666,0 h 0.493889 m 11.782777,14.18166 h -0.493889 m -11.288888,0 h -0.493884 m -0.105834,-0.84667 v 0.45862 m 0,-13.40556 v 0.45861 m 12.488333,12.94695 v -0.45862 m 0,-12.48833 v -0.45861 m -12.382499,13.51139 h 0.493889 m 11.288888,0 h 0.493889 m 0,-13.61722 h -0.493889 m -11.288888,0 h -0.493889 m 11.147777,1.09361 0.388056,-0.38806 m -10.406944,0.38806 h 10.018888 m -10.406944,-0.38806 0.388056,0.38806 m -0.388056,-0.38806 h 10.795 m 0.105833,0 v 1.83445 m 0,0 -0.493889,-0.49389 m 0,-0.9525 v 0.9525 m 0.493889,-1.34056 h -0.105833 m -0.388056,1.34056 H 76.314975 m 0,0 v -0.9525 m -0.493889,1.44639 0.493889,-0.49389 m 10.512777,0.49389 v 0.0353 m 0,0 H 75.821086 m 0,-0.0353 v 0.0353 m 11.006666,8.50194 H 75.821086 m 0,-0.0353 v 0.0353 m 0,-0.0353 0.493889,-0.49389 m 10.018888,0 H 76.314975 m 10.018888,0 0.493889,0.49389 m 0,0.0353 v -0.0353 M 75.821086,142.8405 v 1.83444 m 0.105833,-1.83444 h -0.105833 m 0.105833,0 0.388056,0.38805 m 0,0.9525 v -0.9525 m -0.493889,-8.89 v 1.83445 m 0.105833,-1.83445 h -0.105833 m 11.006666,8.50195 v 1.83444 m -0.493889,-0.49389 v -0.9525 m 0.388056,-0.38805 -0.388056,0.38805 m 0.388056,-0.38805 h 0.105833 m -10.512777,0.38805 H 86.333863 M 75.926919,142.8405 h 10.795 m -11.535833,4.69194 h -0.176389 l -0.105833,-0.10583 -0.105834,-0.14111 -0.03528,-0.14111 m 0.423334,0.10583 h -0.03528 l -0.03528,-0.0353 -0.03528,-0.0353 v -0.0353 m 12.488333,0 v 0.0353 l -0.03528,0.0353 v 0.0353 h -0.07055 m 0.423333,-0.10583 -0.03528,0.14111 -0.105833,0.14111 -0.105833,0.10583 h -0.176389 m 0,-13.89944 0.07055,0.0353 0.03528,0.0353 v 0.0353 m -0.105833,-0.38805 0.176389,0.0353 0.105833,0.0706 0.105833,0.14111 0.03528,0.14111 m -12.805833,0 v -0.0353 l 0.03528,-0.0353 h 0.03528 l 0.03528,-0.0353 m -0.423334,0.10583 0.03528,-0.14111 0.105834,-0.14111 0.105833,-0.0706 0.176389,-0.0353 m -0.105834,12.34722 0.776112,-0.3175 m 0,0 h 0.03528 l -0.03528,-0.0353 m -0.776112,-8.14917 0.776112,-0.3175 m 0,0 h 0.03528 l -0.03528,-0.0353 h -0.03528 -0.03528 m 0.03528,7.16138 -0.740834,-0.3175 m 11.712222,1.69334 0.776111,0.3175 m -0.670278,-0.35278 h -0.07055 -0.03528 v 0.0353 m -10.971388,-9.87778 -0.740834,-0.3175 m 11.712222,1.69333 0.776111,0.3175 m -0.670278,-0.35277 h -0.07055 -0.03528 v 0.0353 m 0.776111,-1.69333 -0.740833,0.3175 m 0.740833,8.18444 -0.740833,0.3175 m -10.971388,-7.79638 v 0.67027 m 0,8.50195 v -0.67028 m 10.93611,-8.50194 v 0.67027 m 0,8.50195 v -0.67028 m -1.481666,-6.6675 -0.105834,0.59972 m 0,0 -0.03528,0.0706 -0.03528,0.0353 m -1.622778,0 -0.03528,-0.0353 -0.03528,-0.0706 m 0,0 -0.105833,-0.59972 m 0,0 h 1.975557 m -6.314722,-4.40972 0.211666,0.70555 m -1.763889,0 0.211667,-0.70555 m 7.584722,12.87639 -0.211667,0.74083 m -1.375833,0 -0.211667,-0.74083 m 0,0 h 1.799167 m -0.03528,-12.17084 -0.176389,-0.70555 m -1.375833,0 -0.211667,0.70555 m -4.444999,12.91167 0.246944,-0.74083 m -1.799167,0 0.211667,0.74083 m -0.211667,-0.74083 h 1.799167 m 5.997222,-7.76111 0.07056,-0.42334 m -1.975556,0 0.07056,0.42334 m -4.162778,-4.62139 -0.141111,-0.49389 m -1.552222,0 -0.141111,0.49389 m 7.690555,13.12333 0.141111,-0.49389 m -1.834444,0 0.141111,0.49389 m 1.552222,-13.61722 0.141111,0.49389 m -1.834444,0 0.141111,-0.49389 m -4.303889,13.12333 -0.141111,0.49389 m -1.552222,0 -0.141111,-0.49389 m 1.869716,-12.66479 v 0.0353 0.0353 h -0.03528 v -0.0353 m 0.03528,-0.0353 0.03528,-0.24695 m 0,0 v -0.0353 -0.0706 m 0.07055,-0.10583 -0.07055,0.10583 m 0.03528,0.3175 v -0.0353 m 0.246945,-0.38805 -0.246945,0.38805 m -0.03528,0.28223 v 0.0353 m 0,-0.0353 0.03528,-0.24695 m 4.021667,12.73528 0.03528,-0.0353 m -0.03528,0.0353 v 0.24694 m 0,0 -0.03528,0.0706 v 0.0353 m -0.07055,0.10583 0.07055,-0.10583 m 0,-0.52917 -0.03528,0.24694 m 0,0 v 0 m -0.211666,0.38806 0.211666,-0.38806 m 0.03528,-0.24694 0.03528,-0.10583 v -0.0706 h 0.03528 l 0.03528,0.0706 m -0.176388,-12.87639 0.07055,0.10583 m 0,0 v 0.0706 l 0.03528,0.0353 m 0,0 v 0.24695 m 0.03528,0.0353 v 0.0353 -0.0353 l -0.03528,-0.0353 m -0.07056,-0.0706 -0.211666,-0.38805 m 0.211666,0.38805 v 0.0353 m 0.03528,0.24695 -0.03528,-0.24695 m 0.07056,0.28222 -0.03528,-0.0353 m -4.092222,12.45305 v 0 h 0.03528 v 0.0353 m 0.03528,-0.17639 0.03528,0.24694 m 0,0 0.246945,0.38806 m -0.211667,0 -0.07055,-0.10583 m 0,0 v -0.0353 -0.0706 m 0,0 -0.03528,-0.24694 m 0.07055,0.0705 v 0 m -0.105833,-0.35277 v -0.0706 h 0.03528 v 0.0706 l 0.03528,0.10583 m 5.926666,0.14111 v 0 h 0.03528 v 0.0353 m 0.07055,0.35278 0.03528,0.10583 m -0.03528,-0.10583 -0.03528,-0.0353 v -0.0706 m -0.03528,-0.24694 0.03528,0.24694 m 0.03528,-0.17639 0.246945,0.38806 m -0.246945,-0.38806 v 0 m 0,0 -0.03528,-0.24694 m -0.07056,-0.10583 v -0.0706 h 0.03528 l 0.03528,0.0706 v 0.10583 m -7.972778,-12.87639 -0.07055,-0.10583 m 0.07055,0.10583 v 0.0706 0.0353 m 0.03528,0.24695 -0.03528,-0.24695 m 0.07056,0.28223 v 0.0353 l -0.03528,-0.0353 v -0.0353 m -0.07056,-0.0706 -0.211666,-0.38805 m 0.211666,0.38805 v 0.0353 m 0,0 0.03528,0.24695 m 0,0.0353 v -0.0353 m 0.03528,12.48833 v -0.0353 h 0.03528 m -0.03528,0.0353 -0.03528,0.24694 m 0,0 v 0.0706 0.0353 m 0,0 -0.07055,0.10583 m -0.176389,0 0.211666,-0.38806 m 0,0 0.03528,-0.24694 m -0.03528,0.24694 v 0 m 0.03528,-0.24694 0.03528,-0.10583 v -0.0706 h 0.03528 l 0.03528,0.0706 m 7.831667,-12.41778 v 0.0353 0.0353 h -0.03528 v -0.0353 m 0.03528,-0.0353 0.03528,-0.24695 m 0,0 v -0.0353 l 0.03528,-0.0706 m 0,0 0.03528,-0.10583 m -0.03528,0.42333 v -0.0353 m 0.246945,-0.38805 -0.246945,0.38805 m -0.03528,0.28223 v 0.0353 m 0.03528,-0.28222 -0.03528,0.24695 m -2.046111,4.1275 -0.211667,0.3175 m 0.246944,-0.635 -0.03528,0.28222 m 0,0.35278 v -0.0353 m 0.03528,-0.10584 v 0.0706 l -0.03528,0.0353 m 0.03528,-0.10584 0.03528,-0.28222 m 0,0 v 0 m -0.03528,-0.21166 v -0.0706 l 0.03528,-0.0353 v 0.0353 m -0.07055,0.35278 v 0.0353 m 2.116666,-0.0353 -0.03528,-0.28222 m 0.246945,0.635 -0.211667,-0.3175 m -0.03528,-0.10584 v 0.28222 m 0.03528,0.10584 v -0.0353 l -0.03528,-0.0706 m 0.03528,0.10584 v 0.0353 m 0,-0.3175 v 0 -0.0353 m -0.07055,-0.35278 v -0.0353 h 0.03528 v 0.0353 0.0706 m -0.03528,0.21166 h 0.03528 m -4.550833,-1.51694 h -0.9525 m 0.9525,-0.59972 v 0.59972 m -0.9525,-0.59972 v 0.59972 m -1.552222,0 h -0.9525 m 0.9525,-0.59972 v 0.59972 m -0.9525,-0.59972 v 0.59972 m 0.9525,8.50194 h -0.9525 m 0.9525,-0.59972 v 0.59972 m -0.9525,-0.59972 v 0.59972 m 3.457222,-0.59972 v 0.59972 m 0,0 v 0.0706 m -0.9525,-0.67028 v 0.59972 m 0.9525,0 h -0.9525 m 2.010833,-8.50194 h 0.9525 m 0,-0.59972 v 0.59972 m -0.9525,-0.59972 v 0.59972 m 2.504723,-0.59972 v 0.59972 m 0,0 h 0.9525 m 0,-0.59972 v 0.59972 m -0.9525,7.90222 v 0.59972 m 0,0 h 0.9525 m 0,-0.59972 v 0.59972 m -3.457223,-0.59972 v 0.59972 m 0,0 v 0.0706 m 0.9525,-0.67028 v 0.59972 m -0.9525,0 h 0.9525 m 0,0 v 0.0706 m -2.963333,-0.0706 v 0.0706 m -4.303888,2.25777 h 0.141111 m 11.288888,0 h 0.176389 m 0,0 v 0.49389 m 0,0 h -0.3175 m -11.006666,0 h -0.282218 m 0,-0.49389 v 0.49389 m 0,0 v 0.59973 m 11.606388,0 v -0.59973 m -1.799167,-9.73666 h -0.03531 m -1.975556,0 h -0.03528 m 2.046111,0.0353 h -0.03527 m -1.975556,0 h -0.03528 m -3.457222,6.94972 h 0.9525 m 2.010833,0 h -0.9525 m 5.715,3.35139 v -1.19945 m -12.488333,0 v 1.19945 m 0,-1.09362 h -0.3175 m 0,0.42334 -0.388055,0.67028 m 0.352778,0 0.352777,-0.59973 m 12.876389,0.59973 -0.388056,-0.59973 m 0.3175,-0.0705 0.423333,0.67028 m -0.740833,-1.09362 h 0.3175 m -2.681111,-5.39749 -0.03528,-0.0706 -0.03528,-0.0353 m 0.07055,0.10584 v -0.10584 m -1.658055,0 -0.07056,0.0353 -0.03528,0.0706 m 0,0 -0.105833,0.59972 m 1.975556,0 h -1.975556 m 1.975556,0 -0.105834,-0.59972 m -1.763889,-0.10584 v 0.10584 m -0.105833,0.35277 0.07056,-0.45861 m 1.834444,0 0.07056,0.45861 m 0,0 h -0.03528 m -1.905,0 h -0.03528 m -4.198055,-0.45861 0.03528,0.0353 0.03528,0.0706 m 0,-0.10584 v 0.10584 m -1.763889,0 0.03528,-0.0706 0.03528,-0.0353 m -0.176389,0.70556 0.105833,-0.59972 m 1.869723,0.59972 h -1.975556 m 1.869722,-0.59972 0.105834,0.59972 m -1.869723,-0.59972 v -0.10584 m -0.03528,0 -0.07056,0.45861 m 1.975556,0 -0.07056,-0.45861 m 0.07056,0.45861 h -0.03527 m -1.905,0 h -0.03528 m -1.975555,6.13834 h 13.723055 m 2.539999,0 H 107.0772 m 2.68111,0 h 0.35278 m 15.94555,0 h 0.3175 0.0706 m -52.846111,0 h 0.246944 0.493889 0.493889 0.529167 m 50.694162,0 h -15.94555 m 0,0 v -13.29973 m 0,0 h 15.94555 m 0,13.29973 v -13.29973 m -1.97555,9.63084 v -6.91445 m 0,0 h -11.99445 m 0,0 v 6.91445 m 0,0 h 4.02167 m 0,0 v 2.68111 m 0,0 h 3.98639 m 0,0 v -2.68111 m 0,0 h 3.98639 m -32.490835,-4.02167 h 0.493889 m 14.569716,0 h 0.45862 m 2.53999,0 h 0.45862 m -28.398613,-8.36083 h 0.03528 0.176389 0.176389 0.211667 0.141111 0.141111 0.03528 m 1.516944,0 h 0.03528 0.105833 0.176389 0.176389 0.211666 0.141112 0.141111 0.03528 m 41.204442,-16.54528 h -0.38805 -0.56445 -0.59972 -0.59972 -0.56445 -0.56444 -0.52917 -0.45861 -0.38806 -0.35277 m 0,0 v -0.24694 m -26.493614,11.88861 h -0.45861 -0.0353 m 0.67028,-0.635 h -0.10584 -0.45861 m 25.047214,2.50472 v 0 0.0353 m -42.650821,-1.27 v 0 m 8.960555,0 h -0.03528 m 28.716106,1.27 v 0 -0.0353 m 10.33639,0.0353 v 0.52916 M 94.871116,128.4119 v 0 m 8.960544,0 v 0 m 6.17361,0.9525 h 0.49389 m -0.49389,-0.52917 h 0.49389 m -13.229154,9.91306 v -0.10584 m -1.79917,0 v 0.10584 m 1.83444,-4.65667 h -0.0353 m -1.79916,0 h -0.0353 m 5.997214,12.7 h 0.0353 m 1.79917,0 h 0.0353 m -5.997224,0 h -0.0353 m -1.79916,0 h -0.0353 m 5.997214,-12.7 h 0.0353 m 1.79917,0 h 0.0353 m -5.961944,-0.24695 h -0.14115 m -1.69334,0 h -0.10583 m 5.997214,13.19389 h 0.14111 m 1.65806,0 h 0.14111 m -7.937494,0 h 0.10583 m 1.69334,0 h 0.14111 m 5.997214,-13.19389 h -0.14111 m -1.65806,0 h -0.14111 m -0.0353,13.29973 h 0.17639 m 1.65806,0 h 0.17639 m -2.01084,-13.40556 h 0.17639 m 1.65806,0 h 0.17639 m -5.997224,13.40556 h -0.21166 m -1.62278,0 h -0.17639 m 2.01083,-13.40556 h -0.21166 m -1.62278,0 h -0.17639 m -11.923889,5.00945 v -0.10584 m 1.763889,0 v 0.10584 m -1.834444,-4.65667 h 0.03528 m 1.834444,0 h 0.03528 m -5.997222,12.7 h -0.03528 m -1.834444,0 h -0.03528 m 5.997222,0 h 0.03528 m 1.834444,0 h 0.03528 m -5.997222,-12.7 h -0.03528 m -1.834444,0 h -0.03528 m 5.997222,-0.24695 h 0.105833 m 1.693333,0 h 0.141112 m -5.997222,13.19389 h -0.141112 m -1.693333,0 h -0.141111 m 7.972778,0 h -0.141112 m -1.693333,0 h -0.105833 m -6.0325,-13.19389 h 0.141111 m 1.693333,0 h 0.141112 m 0,13.29973 h -0.176389 m -1.622778,0 h -0.176389 m 1.975556,-13.40556 h -0.176389 m -1.622778,0 h -0.176389 m 5.997222,13.40556 h 0.176389 m 1.622778,0 h 0.211666 m -2.010833,-13.40556 h 0.176389 m 1.622778,0 h 0.211666 m 40.005003,14.99306 v 0.21166 m -49.988613,0.21167 v -0.42333"
       style="fill:none;stroke:#000000;stroke-width:0.179917;stroke-linecap:round;stroke-linejoin:round;stroke-miterlimit:10;stroke-dasharray:none;stroke-opacity:1" />
    <path
       id="path4-0"
       d="m 110.18164,116.66432 v 0 m -52.422767,21.02555 v 0 m 0,1.37584 v 0 m 0,2.11666 v 0 m 0,-2.11666 v 0 m 0,-0.42334 v 0 m 0.105833,-24.48277 v 0 m 0,40.18138 v 0 m 0,-1.48166 v 0 m 28.469165,-25.18833 v 0 m 0,0.84666 v 0 m 2.751667,4.1275 v 0 m 0,16.01611 v 0 m 14.922492,-20.14361 v 0 m 0,-0.84666 v 0 m 3.10444,4.97416 v 0 m 0,16.01611 v 0 m 19.43806,-32.0675 v 0 m 0,18.76778 v 0 m 0,-5.67972 v 0 m 0,18.76778 v 0 M 77.620261,124.67238 v 0 m 0,-2.57528 v 0 m 1.128889,0.45861 v 0 m 0.3175,0.35278 v 0 m 0.670277,-0.81139 v 0 m 0.599723,2.57528 v 0 m 0.705555,-2.57528 v 0 m 0.776111,2.57528 v 0 m 0.705556,-2.57528 v 0 m 0.811388,2.57528 v 0 m 0,-2.57528 v 0 m 1.340556,1.97555 v 0 m 0.246944,-1.23472 v 0 m -0.282222,-0.3175 v 0 m 0.388056,2.15195 v 0 m 7.337777,-8.60778 v 0 m 0,0.42333 v 0 m 0.740833,2.15195 v 0 m 0,-2.15195 v 0 m -3.245555,0.84667 v 0 m 1.164167,1.30528 v 0 m 0,-2.61056 v 0 m 0.564444,1.65806 v 0 m -0.03528,-0.81139 v 0 m -3.386666,-0.81139 v 0 m -0.9525,2.57528 v 0 m 1.5875,-1.02306 v 0 m 0.352778,1.02306 v 0 m -0.211667,-0.59973 v 0 m 7.655276,4.02167 v 0 m -1.19944,1.34056 v 0 m 1.19944,1.27 v 0 m 0.56445,-0.9525 v 0 m -0.0353,-0.81139 v 0 m 0.84666,0.49389 v 0 m 1.234724,1.30527 v 0 m -1.128884,-1.97555 v 0 m 0.564437,-0.56445 v 0 m 0.564447,-0.10583 v 0 m 1.622765,2.61056 v 0 m 0,-2.57528 v 0 m 1.51695,2.57528 v 0 m 0.0353,-2.57528 v 0 m 1.62277,10.58333 v 0 m -7.619979,0 v 0 m 5.079979,0 v 0 m -2.539992,0 v 0 m 0,0 v 0 m -0.423327,0 v 0 m -24.764998,-0.0706 v 0 m 0,0 v 0 m 22.648338,0.0706 v 0 m -0.42334,0 v 0 m 8.043319,0 v 0 m -0.42333,0 v 0 m -9.736649,0 v 0 m 4.65666,0 v 0 m 2.963319,0 v 0 m -0.42333,0 v 0 m 2.54,0 v 0 m -9.736649,0 v 0 m -0.42334,0 v 0 m 2.54,0 v 0 m -2.54,0 v 0 m 7.619989,0 v 0 m -4.586099,-4.90361 v 0 m 0,0.59972 v 0 m 1.51695,0 v 0 m 0,-0.59972 v 0 m 2.504709,0.59972 v 0 m 0,-0.59972 v 0 m 1.48166,0 v 0 m 0,0.59972 v 0 m -3.492489,-0.59972 v 0 m 0,0.59972 v 0 m 0.493887,0 v 0 m 0,-0.59972 v 0 m 0.493887,0.59972 v 0 m 0,-0.59972 v 0 m 0.529167,0 v 0 m 0,0.59972 v 0 m -3.633601,-0.59972 v 0 m 0,0.59972 v 0 m -20.813891,4.05695 v 0 m 0.141111,0.24694 v 0 m 2.681111,-4.90361 v 0 m 0,0.59972 v 0 m 19.861389,4.05695 v 0 m 0.17639,0.24694 v 0 m -17.356668,-3.35139 v 0 m 0,0.3175 v 0 m -3.386666,-3.06916 v 0 m -0.776112,1.19944 v 0 m 0,0.56444 v 0 m 0,0 v 0 m 0,-0.42333 v 0 m 8.643056,-0.14111 v 0 m 0,0.56444 v 0 m -7.055556,-0.56444 v 0 m 0,0.59972 v 0 m 1.516945,-0.59972 v 0 m 0,0.59972 v 0 m 2.504722,0 v 0 m 0,-0.59972 v 0 m 1.481666,0.59972 v 0 m 0,-0.59972 v 0 m -3.492499,0.59972 v 0 m 0,-0.59972 v 0 m 0.493888,0.59972 v 0 m 0,-0.59972 v 0 m 0.493889,0.59972 v 0 m 0,-0.59972 v 0 m 0.493889,0 v 0 m 0,0.59972 v 0 m 28.539715,1.27 v 0 m 0,-12.7 v 0 m 13.6525,2.29306 v 0 m -3.91583,8.60777 v 0 m 0,1.05834 v 0 m 1.12888,-1.62278 v 0 m 0,-2.29305 v 0 m 0,1.09361 v 0 m 0,1.76388 v 0 m 2.78695,-2.85749 v 0 m 0,1.09361 v 0 m -35.313048,7.3025 v 0 m 10.230556,-4.05695 v 0 m 0,0.3175 v 0 m -3.421947,-3.06916 v 0 m -0.77611,1.19944 v 0 m 0,0.56444 v 0 m 0,0 v 0 m 0,-0.42333 v 0 m 8.643049,-0.14111 v 0 m 0,0.56444 v 0 m -14.710826,4.09223 v 0 m 21.201936,-3.59834 v 0 m 0,-0.28222 v 0 m 0,0.88194 v 0 m -4.09222,18.20334 v 0 m -13.08805,0 v 0 m -18.062221,0 v 0 m 13.123333,0 v 0"
       style="fill:none;stroke:#000000;stroke-width:0.179917;stroke-linecap:round;stroke-linejoin:round;stroke-miterlimit:10;stroke-dasharray:none;stroke-opacity:1" />
  </g>
</svg>
