<?xml version="1.0" encoding="UTF-8" standalone="no"?>
<!-- Created with Inkscape (http://www.inkscape.org/) -->

<svg
   width="81.187088mm"
   height="49.414616mm"
   viewBox="0 0 81.187088 49.414618"
   version="1.1"
   id="svg1"
   inkscape:version="1.4 (e7c3feb100, 2024-10-09)"
   sodipodi:docname="v3-parts.svg"
   xmlns:inkscape="http://www.inkscape.org/namespaces/inkscape"
   xmlns:sodipodi="http://sodipodi.sourceforge.net/DTD/sodipodi-0.dtd"
   xmlns="http://www.w3.org/2000/svg"
   xmlns:svg="http://www.w3.org/2000/svg">
  <title
     id="title1">PIKVM V3 Line Drawings</title>
  <sodipodi:namedview
     id="namedview1"
     pagecolor="#ffffff"
     bordercolor="#000000"
     borderopacity="0.25"
     inkscape:showpageshadow="2"
     inkscape:pageopacity="0.0"
     inkscape:pagecheckerboard="0"
     inkscape:deskcolor="#d1d1d1"
     inkscape:document-units="mm"
     inkscape:zoom="1.4142136"
     inkscape:cx="503.10647"
     inkscape:cy="491.79277"
     inkscape:window-width="1280"
     inkscape:window-height="681"
     inkscape:window-x="0"
     inkscape:window-y="0"
     inkscape:window-maximized="1"
     inkscape:current-layer="layer1"
     showguides="true">
    <sodipodi:guide
       position="-14.567707,125.28786"
       orientation="0,-1"
       id="guide13"
       inkscape:locked="false" />
    <sodipodi:guide
       position="-35.708728,168.34421"
       orientation="0,-1"
       id="guide16"
       inkscape:locked="false" />
    <sodipodi:guide
       position="0.19276758,157.15765"
       orientation="0,-1"
       id="guide17"
       inkscape:locked="false" />
    <sodipodi:guide
       position="59.406627,110.20662"
       orientation="0,-1"
       id="guide18"
       inkscape:locked="false" />
    <sodipodi:guide
       position="81.395257,130.78553"
       orientation="0,-1"
       id="guide26"
       inkscape:locked="false" />
    <sodipodi:guide
       position="-89.089254,103.08011"
       orientation="1,0"
       id="guide5"
       inkscape:locked="false" />
    <inkscape:page
       x="4.6744697e-07"
       y="7.4427481e-07"
       width="81.187088"
       height="49.414619"
       id="page6"
       margin="0"
       bleed="0"
       inkscape:label="v3-hdmi-usb-wiring" />
    <sodipodi:guide
       position="101.86516,107.83557"
       orientation="1,0"
       id="guide6"
       inkscape:locked="false" />
    <sodipodi:guide
       position="60.419657,22.929492"
       orientation="0,-1"
       id="guide7"
       inkscape:locked="false" />
    <sodipodi:guide
       position="-58.032602,118.1581"
       orientation="1,0"
       id="guide1"
       inkscape:locked="false" />
    <sodipodi:guide
       position="49.305356,151.42505"
       orientation="1,0"
       id="guide2"
       inkscape:locked="false" />
    <sodipodi:guide
       position="-20.77929,108.61911"
       orientation="0,-1"
       id="guide3"
       inkscape:locked="false" />
    <sodipodi:guide
       position="239.84698,153.41043"
       orientation="0,-1"
       id="guide4"
       inkscape:locked="false" />
    <sodipodi:guide
       position="335.7717,119.77254"
       orientation="1,0"
       id="guide8"
       inkscape:locked="false" />
    <sodipodi:guide
       position="-14.058085,33.01425"
       orientation="0,-1"
       id="guide9"
       inkscape:locked="false" />
    <sodipodi:guide
       position="-22.119135,39.999285"
       orientation="1,0"
       id="guide10"
       inkscape:locked="false" />
    <sodipodi:guide
       position="73.698756,51.359284"
       orientation="0,-1"
       id="guide19"
       inkscape:locked="false" />
    <sodipodi:guide
       position="-82.3559,20.525936"
       orientation="1,0"
       id="guide20"
       inkscape:locked="false" />
    <sodipodi:guide
       position="-16.569795,69.632973"
       orientation="0,-1"
       id="guide21"
       inkscape:locked="false" />
  </sodipodi:namedview>
  <defs
     id="defs1" />
  <g
     inkscape:label="Layer 1"
     inkscape:groupmode="layer"
     id="layer1"
     transform="translate(-146.91267,-108.66114)">
    <path
       id="path6-5"
       d="m 163.2583,155.97448 v -1.62278 m -6.985,0 v 1.62278 m 61.98305,0 v -1.62278 m -6.985,0 v 1.62278 m -8.99583,-28.75139 v 0 l -0.49389,0.10584 m -40.005,-3.77473 v -7.40833 m 34.32528,13.47611 v 0 m -2.68111,-6.73805 v 0.74083 m -1.12889,4.65667 h -0.91722 m 5.82083,0 h -0.88194 m -2.82223,-3.73945 h 1.62278 m -7.58472,1.16417 v -0.59972 m 13.51139,0 v 0.59972 m -11.32417,-1.34056 h 1.16417 m 6.84389,0 h 1.16416 m -27.41083,-3.35139 v -1.72861 m -0.45861,0 v 1.72861 m -4.62139,0 v -1.72861 m -0.45861,0 v 1.72861 m 1.48167,0 v -1.72861 m -0.45861,0 v 1.72861 m 1.48166,0 v -1.72861 m -0.45861,0 v 1.72861 m 1.48167,0 v -1.72861 m -0.45861,0 v 1.72861 m 1.44639,0 v -1.72861 m -0.45861,0 v 1.72861 m 2.50472,0 v -1.72861 m -0.45861,0 v 1.72861 m 1.48166,0 v -1.72861 m -0.45861,0 v 1.72861 m -10.58333,8.64306 v 0.0353 m 3.06917,0 v -0.0353 m 8.36083,0 v 0.0353 m 3.06916,0 v -0.0353 m -9.38388,0 v 0.0353 m 0.45861,0 v -0.0353 m 2.08139,0 v 0.0353 m 0.45861,0 v -0.0353 m 2.08139,0 v 0.0353 m 0.45861,0 v -0.0353 m -6.80861,0 v 0.0353 m 0.45861,0 v -0.0353 m 2.08139,0 v 0.0353 m 0.45861,0 v -0.0353 m 2.08139,0 v 0.0353 m 0.45861,0 v -0.0353 m 5.3975,0 v 0.0353 M 156.2733,155.9745 v 0 h 0.10583 0.17639 0.24695 0.35277 0.38806 0.45861 0.52917 0.52916 0.56445 0.56444 0.52917 0.52917 0.49389 0.45861 0.35277 0.3175 0.21167 0.14111 0.0353 m 48.01305,0 v 0 h 0.10584 0.17639 0.24694 0.35278 0.38805 0.45861 0.52917 0.52917 0.56444 0.56445 0.56444 0.49389 0.49389 0.45861 0.35278 0.3175 0.21166 0.14112 0.0353 m -40.88694,-38.87611 h 0.59972 m -0.59972,1.16417 h 0.59972 m 0,-1.19945 h -0.59972 m -5.04472,-0.10583 -0.0353,-0.0353 -0.0353,-0.0705 v -0.0706 l 0.0353,-0.10583 0.0706,-0.0706 0.0705,-0.0353 m 0,0 0.14111,-0.0353 0.24695,-0.0706 0.35278,-0.10583 0.98777,-0.17639 0.38806,-0.0706 m 1.05833,0 v 0.0353 m 0,0 -0.49389,0.0353 -0.67028,0.0353 -0.74083,0.14111 -0.49389,0.10583 -0.38805,0.10583 -0.24695,0.0706 -0.10583,0.0353 m 0,0 h -0.0353 l -0.0353,0.0705 -0.0353,0.0353 v 0.0353 l 0.0353,0.0705 0.0353,0.0353 0.0353,0.0353 h 0.0353 m 0,0 h 5.46805 m -5.64444,0 -0.0353,-0.0353 -0.0353,-0.0705 v -0.0706 l 0.0353,-0.10583 0.0706,-0.0706 0.0705,-0.0353 m 3.175,-0.35277 h 2.15195 m -2.15195,-0.10584 v 0.10584 m 0,-0.0706 v 0.0706 m 2.15195,0 h -2.15195 m 2.36361,2.64583 h -0.59972 m 0,2.01083 h 1.48167 m 0.88194,-0.635 v -0.45861 m -4.7625,-3.59833 0.0706,0.0706 0.24694,0.28223 0.21167,0.35277 v 0.0706 m 0,0 v -0.0706 l -0.21167,-0.35277 -0.24694,-0.28223 -0.0706,-0.0706 m -13.47611,7.37305 v 0 h 0.17639 0.10583 m 63.07667,14.18167 h -0.10584 m 0.10584,-2.64583 h -0.10584 m 0.10584,0.10583 v -0.0706 -0.0353 m 0,0.0353 h -0.10584 m 0.10584,2.57528 v -2.57528 m 0,2.57528 h -0.10584 m 0.10584,3.4925 v -1.12889 m 0,0.59973 v -0.38806 -0.28222 m 0,0 v -1.34056 m 0,2.57528 v 0 -0.14111 -0.17639 -0.24694 m 0,0.14111 v -0.0353 -0.0706 -0.10583 -0.24694 -0.28223 m 0,-0.14111 h -0.10584 m 0.10584,1.30528 v -0.10583 -0.35278 -0.38806 -0.45861 m 0,1.30528 h -0.10584 m 0.10584,-1.94028 h -0.10584 m 0.10584,0.635 v -0.35278 -0.28222 m 0,-0.56444 h -0.10584 m 0.10584,0.56444 v -0.38805 -0.17639 m 0,-0.10584 h -0.10584 m 0.10584,0.10584 v -0.10584 m 0,2.18723 v -0.0706 -0.28222 -0.24695 -0.28222 m 0,0 v -0.35278 -0.3175 -0.17638 -0.0353 m -62.30056,-27.79889 v 0.10583 m 1.30528,-0.10583 v 0.10583 m 0,-0.10583 h -0.24694 -0.24695 -0.24694 -0.17639 -0.17639 -0.10583 -0.0706 -0.0353 m 10.72445,0 v 0.10583 m 0,-0.10583 h -9.41917 m 10.72445,0 v 0.10583 m -1.30528,-0.10583 h 0.24694 0.24695 0.24694 0.17639 0.17639 0.10583 0.0706 0.0353 m -12.02973,0 v 0.10583 m 26.84639,40.21667 v -1.09361 m 0,0 -0.0353,-0.28223 -0.0705,-0.24694 -0.14111,-0.24694 -0.17639,-0.21167 -0.21167,-0.17639 -0.24694,-0.14111 -0.28222,-0.0706 -0.28223,-0.0353 m 0,0 h -11.50055 m 0,0 -0.28222,0.0353 -0.24695,0.0706 -0.24694,0.14111 -0.21167,0.17639 -0.17639,0.21167 -0.14111,0.24694 -0.0706,0.24694 -0.0353,0.28223 m 0,0 v 1.09361 m 0,0 h -25.29417 m 0,0 v -37.39415 m 0,0 0.0706,-0.56445 0.14111,-0.52917 0.28222,-0.45861 0.35278,-0.42333 0.42333,-0.35278 0.45861,-0.28222 0.52917,-0.14111 0.56444,-0.0706 m 0,0 h 69.39139 m 0,0 0.56444,0.0706 0.49389,0.14111 0.49389,0.28222 0.42333,0.35278 0.35278,0.42333 0.24695,0.45861 0.17639,0.52917 0.0353,0.56445 m 0,0 v 37.39444 m 0,0 h -35.34833 m -7.33778,-22.75417 v -7.62 m 0,0 -0.0353,-0.28222 -0.0706,-0.24694 -0.14111,-0.24695 -0.14111,-0.21166 -0.24695,-0.17639 -0.21166,-0.14111 -0.28222,-0.0706 -0.28223,-0.0353 m 0,0 h -2.15194 m 0,0 h -0.10583 l -0.10584,-0.0353 -0.0706,-0.0353 -0.10584,-0.0706 -0.0353,-0.0705 -0.0706,-0.0706 v -0.10583 l -0.0353,-0.10584 m 0,0 v -2.68111 m -0.49389,-0.49389 0.10584,0.0353 h 0.10583 l 0.0706,0.0706 0.0705,0.0353 0.0706,0.10584 0.0353,0.0705 0.0353,0.10584 v 0.0705 m -0.49389,-0.49389 h -15.48694 m -0.49389,0.49389 v -0.0705 l 0.0353,-0.10584 0.0353,-0.0705 0.0705,-0.10584 0.0706,-0.0353 0.0705,-0.0706 h 0.10584 l 0.10583,-0.0353 m -0.49389,0.49389 v 13.12333 m 0.49389,0.49389 h -0.10583 l -0.10584,-0.0353 -0.0705,-0.0353 -0.0706,-0.0706 -0.0705,-0.0705 -0.0353,-0.10584 -0.0353,-0.0705 v -0.10584 m 0.49389,0.49389 h 18.66194 m 0,0 0.28223,-0.0353 0.28222,-0.0706 0.21166,-0.14111 0.24695,-0.17639 0.14111,-0.21167 0.14111,-0.24694 0.0706,-0.24695 0.0353,-0.28222 m 6.31473,0.3175 0.14111,0.10584 0.10583,0.10583 0.14111,0.0705 0.14111,0.10584 0.17639,0.0353 0.14111,0.0353 0.17639,0.0353 h 0.17639 m 0,0 h 9.45444 m 0,0 h 0.14112 l 0.17638,-0.0353 0.17639,-0.0353 0.14111,-0.0353 0.14112,-0.10584 0.14111,-0.0705 0.14111,-0.10583 0.10583,-0.10584 m 0,0 0.77611,-0.84666 m 0,0 0.3175,-0.0706 m 0,0 0.21167,-0.10583 0.21167,-0.14111 0.21166,-0.14112 0.17639,-0.21166 0.10583,-0.21167 0.10584,-0.24694 0.0705,-0.24695 v -0.24694 m 0,0 v -2.18722 m 0,0 -0.0353,-0.28223 -0.0706,-0.3175 -0.14111,-0.28222 -0.21167,-0.24694 -0.24694,-0.17639 -0.28222,-0.17639 -0.28223,-0.0706 -0.3175,-0.0353 m 0,0 h -13.0175 m 0,0 -0.28222,0.0353 -0.3175,0.0706 -0.28222,0.17639 -0.24694,0.17639 -0.17639,0.24694 -0.14111,0.28222 -0.10584,0.3175 -0.0353,0.28223 m 0,0 v 2.18722 m 0,0 0.0353,0.24694 0.0353,0.24695 0.10583,0.24694 0.14111,0.21167 0.17639,0.17639 0.17639,0.17639 0.21167,0.14111 0.24694,0.0706 m 0,0 0.3175,0.14111 m 0,0 0.74084,0.81139 m -38.62917,-14.95777 0.0706,-0.56445 0.14111,-0.52917 0.28222,-0.45861 0.35278,-0.42333 0.42333,-0.35278 0.45861,-0.28222 0.52917,-0.14111 0.56444,-0.0706 m -2.82222,41.52195 v -0.0353 -0.0706 -0.14111 -0.14111 -0.14111 m 0,-0.77611 v 0.24694 0.24695 0.21166 0.21167 0.14111 0.14111 0.0706 0.0353 m 0,-38.69972 v 37.39444 m 0,2.78694 v -0.0353 -0.17638 -0.24695 -0.35278 -0.42333 -0.49389 -0.52917 -0.52916 m 0,0.77611 v 0.28222 0.49389 0.42333 0.35278 0.24695 0.17638 0.0353 m 0,0 H 175.041 m 0,0 v -0.0353 -0.17638 -0.24695 -0.35278 -0.42333 -0.49389 -0.52917 -0.52916 m 2.92805,-34.96028 v -0.0705 l -0.0353,-0.10584 -0.0353,-0.0705 -0.0706,-0.10584 -0.0705,-0.0353 -0.0706,-0.0706 h -0.10583 l -0.10584,-0.0353 m 0.49389,3.175 v -2.68111 m 0.52917,3.175 h -0.10583 l -0.10584,-0.0353 -0.0706,-0.0353 -0.10584,-0.0706 -0.0353,-0.0705 -0.0706,-0.0706 v -0.10583 l -0.0353,-0.10584 m 4.09222,1.905 -0.0353,-0.28222 -0.0706,-0.24694 -0.14111,-0.24695 -0.14111,-0.21166 -0.24695,-0.17639 -0.21166,-0.14111 -0.28222,-0.0706 -0.28223,-0.0353 m 0,10.44222 0.28223,-0.0353 0.28222,-0.0706 0.21166,-0.14111 0.24695,-0.17639 0.14111,-0.21167 0.14111,-0.24694 0.0706,-0.24695 0.0353,-0.28222 m 0,0 v -7.62 m 7.33778,29.28056 -0.0353,-0.28223 -0.0705,-0.24694 -0.14111,-0.24694 -0.17639,-0.21167 -0.21167,-0.17639 -0.24694,-0.14111 -0.28222,-0.0706 -0.28223,-0.0353 m 36.79472,2.50472 v 0.52916 0.52917 0.49389 0.42333 0.35278 0.24695 0.17638 0.0353 m -35.34833,0 h 35.34833 m -35.34833,-2.78694 v 0.52916 0.52917 0.49389 0.42333 0.35278 0.24695 0.17638 0.0353 m 0,-1.48166 v 1.48166 m 0,-2.78694 v 0.24694 0.24695 0.21166 0.21167 0.14111 0.14111 0.0706 0.0353 m 0,-1.30528 v -1.09361 m 9.63083,-20.84917 h 0.14112 l 0.17638,-0.0353 0.17639,-0.0353 0.14111,-0.0353 0.14112,-0.10584 0.14111,-0.0705 0.14111,-0.10583 0.10583,-0.10584 m 0,0 0.77611,-0.84666 m 1.41111,-3.81 -0.0353,-0.28223 -0.0706,-0.3175 -0.14111,-0.28222 -0.21167,-0.24694 -0.24694,-0.17639 -0.28222,-0.17639 -0.28223,-0.0706 -0.3175,-0.0353 m 0.17639,5.3975 0.3175,-0.0706 m 0,0 0.21167,-0.10583 0.21167,-0.14111 0.21166,-0.14112 0.17639,-0.21166 0.10583,-0.21167 0.10584,-0.24694 0.0705,-0.24695 v -0.24694 m 0,0 v -2.18722 m -27.34027,28.39861 h 0.17639 0.28222 0.35278 0.42333 0.52917 0.56444 0.635 0.70556 0.74083 0.74083 0.81139 0.81139 0.81139 0.81139 0.77611 0.77611 0.74083 0.67028 0.635 0.59972 0.49389 0.42334 0.38805 0.24695 0.21166 m 0,1.48166 h -0.21166 -0.24695 -0.38805 -0.42334 -0.49389 -0.59972 -0.635 -0.67028 -0.74083 -0.77611 -0.77611 -0.81139 -0.81139 -0.81139 -0.81139 -0.74083 -0.74083 -0.70556 -0.635 -0.56444 -0.52917 -0.42333 -0.35278 -0.28222 -0.17639 m -2.04611,-37.74722 v 0.35278 m -0.21167,-0.84667 0.0706,0.10584 0.0705,0.10583 0.0353,0.10583 m 0.0353,0.10584 v 0.0705 m 8.85472,9.56028 h 0.21166 m -9.27805,-10.05417 0.0706,0.10584 0.0705,0.10583 0.0353,0.10583 m 0.0353,0.10584 v 0.0705 m 0,0 v 0.35278 m -9.27806,15.80444 -0.35278,0.9525 m 0,0 h 0.70556 m 0,0 -0.35278,-0.9525 m 1.23472,1.97556 h -0.52916 m 0,0 -0.21167,-0.59972 m 0,0 h -0.98778 m 0,0 -0.21166,0.59972 m 0,0 h -0.52917 m 0,0 0.9525,-2.57528 m 0,0 h 0.52917 m 0,0 0.98777,2.57528 m -2.46944,0 0.9525,-2.57528 m 0.635,1.55222 -0.35278,-0.9525 m 0.70556,1.97556 -0.21167,-0.59972 m 0.84667,-1.55223 v -0.42333 m 0,0.42333 v -0.42333 m 1.23472,0.42333 v 2.15195 m 0,0 h -0.49389 m 0,0 v -2.15195 m 1.27,-0.42333 v 0.42333 m 0,0 h -0.77611 m -1.23472,-0.42333 h 2.01083 m -1.27,0.42333 h -0.74083 m 0.74083,2.15195 v -2.15195 m 2.50472,1.23473 -0.59972,0.91722 m 0,0 h -0.56444 m 0,0 0.88194,-1.37583 m 0,0 -0.77611,-1.19945 m 0,0 h 0.56444 m 0,0 0.49389,0.74083 m 0,0 0.49389,-0.74083 m 0,0 h 0.59972 m 0,0 -0.81139,1.19945 m 0,0 0.88195,1.37583 m 0,0 h -0.56445 m 0,0 -0.59972,-0.91722 m -1.16416,0.91722 0.88194,-1.37583 m 0,0 -0.77611,-1.19945 m 1.05833,0.74083 0.49389,-0.74083 m 0.10583,2.57528 -0.59972,-0.91722 m 18.27389,-1.65806 h 0.52917 m 0,0 0.70555,1.905 m 0,0 0.67028,-1.905 m 0,0 h 0.52917 m 0,0 -0.9525,2.57528 m 0,0 h -0.52917 m 0,0 -0.9525,-2.57528 m 0.9525,2.57528 -0.9525,-2.57528 m 1.23472,1.905 0.67028,-1.905 m 0.70556,2.57528 v -2.57528 m 0,2.57528 v -2.57528 m 0.49388,2.57528 h -0.49388 m 0,-2.57528 h 0.49388 m 0,0 v 2.57528 m 1.44639,-0.45861 h 0.17639 0.14111 m 0,0 0.24695,-0.14111 0.10583,-0.24695 0.0706,-0.45861 m 0,0 -0.0353,-0.28222 -0.0706,-0.28222 -0.14111,-0.17639 -0.21166,-0.0706 m 0,0 -0.24695,-0.0353 H 190.951 m 0,0 h -0.24694 m 0,0 v 1.69334 m 0,0 h 0.42333 m 0.0706,0.45861 h -0.98778 m 0,0 v -2.57528 m 0,0 h 0.9525 m 0,0 h 0.28222 l 0.21167,0.0353 m 0,0 0.35278,0.21167 0.24694,0.38805 0.0706,0.3175 0.0353,0.35278 m 0,0 -0.0353,0.3175 -0.0353,0.21167 m 0,0 -0.14111,0.28222 -0.14111,0.17639 m 0,0 -0.21167,0.14111 -0.14111,0.0706 m 0,0 -0.28222,0.0353 -0.17639,0.0353 m -0.98778,0 v -2.57528 m 1.65806,1.27 -0.0353,-0.28222 -0.0706,-0.28222 -0.14111,-0.17639 -0.21166,-0.0706 m 0.0353,1.65806 0.24695,-0.14111 0.10583,-0.24695 0.0706,-0.45861 m 0.91722,1.30528 v -2.57528 m 0,2.57528 v -2.57528 m 0,0 h 1.905 m 0,0 v 0.42333 m 0,0 h -1.41111 m 0,0 v 0.56445 m 0,0 h 1.30528 m 0,0 v 0.42333 m 0,0 h -1.30528 m 0,0 v 0.70556 m 0,0 h 1.44639 m 0,0 v 0.45861 m 0,0 h -1.94028 m 3.4925,-0.42333 0.35278,-0.0706 0.24694,-0.24694 0.10583,-0.28223 v -0.28222 m 0,0 -0.0353,-0.35278 -0.17639,-0.3175 -0.21167,-0.17639 -0.28222,-0.0353 m 0,0 -0.35278,0.0706 -0.24694,0.24695 -0.10584,0.28222 -0.0353,0.28222 m 0,0 0.0705,0.35278 0.14111,0.3175 0.24695,0.17639 0.28222,0.0353 m 1.19944,-0.88195 -0.0705,0.56445 -0.3175,0.45861 -0.38806,0.24694 -0.42333,0.0353 m 0,0 -0.56445,-0.10583 -0.42333,-0.35278 -0.17639,-0.38806 -0.0705,-0.42333 m 0,0 0.0353,-0.38806 0.10584,-0.28222 m 0,0 0.24694,-0.38805 0.28222,-0.17639 m 0,0 0.3175,-0.10584 h 0.24695 m 0,0 0.52916,0.10584 0.45862,0.35277 0.17638,0.42334 0.0353,0.42333 m -2.43416,0.0353 0.0353,-0.38806 0.10584,-0.28222 m 0,0 0.24694,-0.38805 0.28222,-0.17639 m 3.66889,2.50472 h -0.49389 m 0,0 v -2.57528 m 0,0 h 0.49389 m 0,0 v 2.57528 m -0.49389,0 v -2.57528 m 3.03389,2.57528 h -0.52916 m 0,0 -0.98778,-1.69333 m 0,0 v 1.69333 m 0,0 h -0.49389 m 0,0 v -2.57528 m 0.49389,0 1.02305,1.69333 m 0,0 v -1.69333 m 0,0 h 0.49389 m 0,0 v 2.57528 m -2.01083,-2.57528 h 0.49389 m -0.49389,2.57528 v -2.57528 m 1.48167,2.57528 -0.98778,-1.69333 m 1.02305,0.81138 v -1.69333 m -26.67,1.34056 v -1.34056 m 0,1.34056 v -1.34056 m 1.02306,2.15195 0.24694,-0.0353 0.14112,-0.0706 0.0706,-0.10583 0.0353,-0.24695 v -0.28222 m 0,0 v -1.41111 m 0,0 h 0.49389 m 0,0 v 1.34056 m 0,0 v 0.35277 l -0.0353,0.35278 -0.17639,0.28222 -0.35278,0.21167 -0.42333,0.0353 m 0,0 h -0.35278 l -0.3175,-0.14111 -0.21166,-0.17639 -0.10584,-0.24695 m 0,0 -0.0353,-0.35277 v -0.3175 m 0.49389,-1.34056 v 1.37583 m 0,0 v 0.24695 0.17639 m 0,0 0.0706,0.17639 0.17639,0.14111 0.28222,0.0353 m -1.02306,-2.15195 h 0.49389 m -0.45861,2.01083 -0.0353,-0.35277 v -0.3175 m 1.51695,0.0705 v -1.41111 m 2.96333,1.79917 -0.0353,0.28222 -0.14111,0.21167 -0.21166,0.17639 -0.28223,0.10583 h -0.3175 m 0,0 -0.45861,-0.0353 -0.35277,-0.21167 -0.17639,-0.28222 -0.0706,-0.35278 m 0,0 0.49389,-0.0353 m 0,0 0.0706,0.24694 0.14111,0.17639 0.17639,0.0706 h 0.17638 m 0,0 h 0.17639 l 0.17639,-0.0706 0.10584,-0.14111 0.0353,-0.14111 m 0,0 v -0.10584 l -0.0705,-0.0705 -0.14111,-0.0706 m 0,0 -0.24695,-0.0705 -0.17639,-0.0353 m 0,0 -0.35277,-0.14111 -0.24695,-0.14111 m 0,0 -0.17639,-0.24695 -0.0705,-0.24694 m 0,0 0.10583,-0.35278 0.28222,-0.24694 0.24695,-0.10584 h 0.28222 m 0,0 0.38805,0.0353 0.35278,0.17639 0.17639,0.24694 0.0706,0.28223 m 0,0 -0.49389,0.0353 m 0,0 -0.0706,-0.17638 -0.10583,-0.10584 -0.28222,-0.0706 m 0,0 -0.21167,0.0353 -0.14111,0.0353 m 0,0 -0.0706,0.10584 -0.0353,0.0706 m 0,0 0.0353,0.10583 0.0706,0.0353 m 0,0 0.28222,0.14111 0.3175,0.0706 0.28222,0.10583 0.21167,0.10584 0.17639,0.14111 0.10583,0.21166 v 0.24695 m -1.72861,-0.635 -0.17639,-0.24695 -0.0705,-0.24694 m 0.84666,0.77611 -0.35277,-0.14111 -0.24695,-0.14111 m 1.02306,0.38805 -0.24695,-0.0705 -0.17639,-0.0353 m 0.635,0.35278 v -0.10584 l -0.0705,-0.0705 -0.14111,-0.0706 m 2.08139,-0.10583 h -0.42334 m 0,0 v 0.67028 m 0,0 h 0.49389 m 0,0 h 0.21167 0.14111 m 0,0 0.14111,-0.0353 0.10583,-0.10583 0.0353,-0.0706 v -0.10583 m 0,0 v -0.10584 l -0.0705,-0.10583 -0.0706,-0.0705 -0.10583,-0.0353 -0.45861,-0.0353 m -0.91723,1.12889 v -2.57528 m 0,0 h 1.02306 m 0,0 h 0.35278 l 0.3175,0.0706 0.24694,0.24694 0.0706,0.14111 v 0.17639 m 0,0 v 0.17639 l -0.10584,0.17639 -0.21166,0.21167 m 0,0 0.17639,0.10583 0.17638,0.17639 0.0706,0.3175 m 0,0 -0.0353,0.3175 -0.17639,0.24694 -0.21166,0.10584 -0.21167,0.0706 m 0,0 h -0.35278 l -0.28222,0.0353 m 0,0 h -0.84667 m 0.84667,-1.55222 h 0.21167 l 0.17639,-0.0353 m 0,0 h 0.14111 l 0.10583,-0.10583 0.0353,-0.0706 v -0.10583 m 0,0 v -0.10584 l -0.0706,-0.10583 -0.17639,-0.0706 m 0,0 h -0.28222 -0.21167 m 0,0 h -0.28222 m 0,0 v 0.59973 m 0,0 h 0.35278 m -0.84667,1.55222 v -2.57528 m 1.23473,0.98778 h 0.14111 l 0.10583,-0.10583 0.0353,-0.0706 v -0.10583 m 0,0 v -0.10584 l -0.0706,-0.10583 -0.17639,-0.0706 m 0.0706,1.69334 0.14111,-0.0353 0.10583,-0.10583 0.0353,-0.0706 v -0.10583 m 5.46806,-6.77334 h -0.49389 m 2.39889,-4.30388 v 0.74083 m 0.635,0 v -0.74083 m -7.26723,5.715 v -1.41112 m 0,0 h -0.21166 m -3.31611,-5.82083 h 0.17639 m 0.0353,-0.24694 h -0.10583 m 0,0 -0.10583,0.24694 m -0.9525,5.82083 h 0.59972 m 0,0 h 0.52917 m 3.13972,0 h 0.21166 m 0,0 v 0 m 4.23334,0 h 0.49389 m 0,0 v -3.95111 m 0,3.66889 v 0 m -4.72723,0.28222 v 0 m 0,0 v 1.41112 m -3.42194,-7.47889 h 0.10583 m 8.04334,5.78555 v 0 m 2.54,-4.02166 v 0.74083 m -11.60639,6.0325 v 0.0353 m 10.97139,-6.06778 v -0.74083 M 178.6396,121.1194 h 0.10583 m 11.67695,8.50194 h 0.17639 m -12.41778,-2.43417 v 0.3175 m 0.52917,-0.3175 h -0.52917 m 17.74472,2.43417 v 0 m 0,0 v 0 m -5.32694,0 h -0.17639 m -12.84111,-2.43417 v 0.10584 m 0,0.21166 v -0.3175 m 0.9525,0 v -5.82083 m -0.35278,5.82083 h -0.59972 m 0.59972,0.3175 v -0.3175 m -0.45861,2.46945 v 0.0353 m -0.14111,-2.50473 v 0.3175 m 0.9525,-6.13833 v 5.82083 m 0.17639,-5.82083 h -0.17639 m 8.255,1.86972 v 3.95111 m 9.13694,2.43417 v 0 m 0,0 v 0 m -18.34444,-2.43417 h 0.21166 m 0.74084,-5.82083 0.10583,-0.24694 m -4.83305,8.5725 v -0.0353 m 0,0 v 0.0353 m -0.635,0 v -0.0353 m 4.02166,0.0353 v -0.0353 m 4.7625,-2.8575 -0.10583,0.0353 m 0.10583,-0.0353 h 0.10583 m -0.10583,0 -0.10583,0.0353 m -3.03389,-5.3975 0.0705,-0.42334 0.10584,-0.17638 0.14111,-0.17639 0.17639,-0.14111 0.17639,-0.10584 0.42333,-0.0706 m 0,0 h 0.74083 m 0,0 0.42334,0.0706 0.21166,0.10584 0.14111,0.14111 0.17639,0.17639 0.0706,0.17638 0.10583,0.42334 m 0,0 v 6.52639 m 0,0 -0.10583,0.42333 -0.0706,0.17639 -0.17639,0.17639 -0.14111,0.14111 -0.21166,0.10583 -0.42334,0.0706 m 0,0 h -0.74083 m 0,0 -0.42333,-0.0706 -0.17639,-0.10583 -0.17639,-0.14111 -0.14111,-0.17639 -0.10584,-0.17639 -0.0705,-0.42333 m 0,0 v -6.52639 m 1.76389,-0.98778 h -0.56445 m 0,0 -0.42333,0.0706 -0.17639,0.10583 -0.17639,0.14111 -0.14111,0.17639 -0.10583,0.17639 -0.0706,0.42333 m 0,0 v 6.31472 m 0,0 0.0706,0.42334 0.10583,0.21166 0.14111,0.17639 0.17639,0.14111 0.17639,0.0706 0.42333,0.10583 m 0,0 h 0.56445 m 0,0 0.38805,-0.10583 0.21167,-0.0706 0.17639,-0.14111 0.14111,-0.17639 0.10583,-0.21166 0.0706,-0.42334 m 0,0 v -6.31472 m 0,0 -0.0706,-0.42333 -0.10583,-0.17639 -0.14111,-0.17639 -0.17639,-0.14111 -0.21167,-0.10583 -0.38805,-0.0706 m -0.67028,-0.21167 h 0.74083 m 0,0 v 0 0.0353 0.0353 0.0353 m -0.74083,0 v -0.0353 -0.0353 -0.0353 m 0.10583,0.28223 h 0.56445 m -0.56445,-0.0706 v 0 0.0353 0.0353 m 0.56445,0 v 0 -0.0353 -0.0353 m -1.86972,7.51417 v -6.52639 m 0,0 v 0 h 0.0353 0.0353 0.0353 m -0.10583,6.52639 v 0 h 0.0353 0.0353 0.0353 m 0.17639,-0.10584 v -6.31472 m 0,6.31472 v 0 h -0.0353 -0.0353 m 0.0706,-6.31472 v 0 h -0.0353 -0.0353 m 2.92806,-0.10583 v 6.52639 m -0.0706,0 v 0 h 0.0353 0.0353 m -0.0706,-6.52639 v 0 h 0.0353 0.0353 m -0.28222,6.42055 v 0 h 0.0353 0.0353 0.0353 m -0.10583,-6.31472 v 6.31472 m 0,-6.31472 v 0 h 0.0353 0.0353 0.0353 m -1.65806,7.33778 v 0 0.0353 0.0353 0.0353 m 0.56445,-0.10583 h -0.56445 m 0.56445,0 v 0 0.0353 0.0353 0.0353 m 0.0705,0.0706 v 0.0353 0.0353 0.0353 m 0,0 h -0.74083 m 0,-0.10583 v 0.0353 0.0353 0.0353 m -1.19944,-7.72583 0.0353,-0.24695 0.0353,-0.21166 0.14111,-0.21167 0.14111,-0.17639 0.17639,-0.14111 0.21167,-0.10583 0.21167,-0.0706 0.24694,-0.0353 m 0.74083,0 0.24695,0.0353 0.21166,0.0706 0.21167,0.10583 0.21167,0.14111 0.14111,0.17639 0.10583,0.21167 0.0706,0.21166 v 0.24695 m -2.8575,0.10583 0.0353,-0.21167 0.0705,-0.17638 0.0706,-0.17639 0.14111,-0.14111 0.14111,-0.14112 0.17639,-0.0705 0.17639,-0.0706 0.21166,-0.0353 m 0.56445,0 0.17639,0.0353 0.17639,0.0706 0.17638,0.0705 0.17639,0.14112 0.10584,0.14111 0.10583,0.17639 0.0353,0.17638 0.0353,0.21167 m -1.65806,7.62 h -0.24694 l -0.21167,-0.0706 -0.21167,-0.10583 -0.17639,-0.17639 -0.14111,-0.17639 -0.14111,-0.21166 -0.0353,-0.21167 -0.0353,-0.24694 m 1.30527,0.91722 -0.21166,-0.0353 -0.17639,-0.0353 -0.17639,-0.10583 -0.14111,-0.10583 -0.14111,-0.17639 -0.0706,-0.17639 -0.0705,-0.17639 -0.0353,-0.21167 m 2.57528,0 -0.0353,0.21167 -0.0353,0.17639 -0.10583,0.17639 -0.10584,0.17639 -0.17639,0.10583 -0.17638,0.10583 -0.17639,0.0353 -0.17639,0.0353 m 1.27,-0.91722 v 0.24694 l -0.0706,0.21167 -0.10583,0.21166 -0.14111,0.17639 -0.21167,0.17639 -0.21167,0.10583 -0.21166,0.0706 h -0.24695 m 0,-8.92528 0.24695,0.0353 0.21166,0.0706 0.21167,0.10583 0.21167,0.14111 0.14111,0.17639 0.10583,0.21167 0.0706,0.21166 v 0.0353 m -3.13972,0.21167 0.0353,-0.24695 0.0353,-0.21166 0.14111,-0.21167 0.14111,-0.17639 0.17639,-0.14111 0.21167,-0.10583 0.21167,-0.0706 0.24694,-0.0353 m 1.65806,1.30528 -0.0353,-0.21167 m -0.88195,-1.09361 h -0.74083 m -0.88194,7.83167 v 0 l 0.0705,0.17639 0.0706,0.17639 0.14111,0.17639 0.14111,0.10583 0.17639,0.10583 0.17639,0.0353 0.21166,0.0353 m -1.27,-0.67028 -0.0353,-0.0353 v -0.10583 -0.10583 m 1.86972,0.91722 0.17639,-0.0353 0.17639,-0.0353 0.17638,-0.10583 0.17639,-0.10583 0.10584,-0.17639 0.10583,-0.17639 0.0353,-0.17639 0.0353,-0.21167 m -1.55223,1.02306 h 0.56445 m -0.77611,-7.09083 v -0.14112 l 0.0353,-0.0705 0.0706,-0.0706 0.0706,-0.0353 0.0705,-0.0353 0.14111,-0.0353 m 0,0 h 0.21167 m 0,0 0.14111,0.0353 0.0706,0.0353 0.0705,0.0353 0.0353,0.0706 0.0353,0.0705 0.0353,0.14112 m 0,0 v 5.82083 m 0,0 -0.0353,0.14111 -0.0353,0.0705 -0.0353,0.0706 -0.0705,0.0353 -0.0706,0.0353 -0.14111,0.0353 m 0,0 h -0.21167 m 0,0 -0.14111,-0.0353 -0.0705,-0.0353 -0.0706,-0.0353 -0.0706,-0.0706 -0.0353,-0.0705 v -0.14111 m 0,0 v -5.82083 m 0.59972,-0.49389 h -0.21167 m 0.21167,0 v 0 0.0353 0.0353 0.0353 m -0.21167,0 v 0 -0.0353 -0.0353 -0.0353 m -0.49389,0.49389 v 5.82083 m 0.10584,-5.82083 h -0.0353 -0.0353 -0.0353 m 0,5.82083 v 0 h 0.0353 0.0353 0.0353 m 1.09361,0 v -5.82083 m -0.10584,5.82083 v 0 h 0.0353 0.0353 0.0353 m 0,-5.82083 v 0 h -0.0353 -0.0353 -0.0353 m -0.38805,6.20888 v 0.0353 0.0353 0.0353 m -0.21167,0 h 0.21167 m -0.21167,0 v 0 -0.0353 -0.0353 -0.0353 m -0.49389,-6.20888 v -0.0706 l 0.0353,-0.10583 0.0353,-0.0706 0.0705,-0.10583 0.0706,-0.0353 0.0706,-0.0706 h 0.10583 l 0.10583,-0.0353 m 0.21167,0 0.0705,0.0353 h 0.10584 l 0.0705,0.0706 0.10584,0.0353 0.0353,0.10583 0.0706,0.0706 v 0.10583 l 0.0353,0.0706 m -0.70556,6.31472 h -0.10583 l -0.10583,-0.0353 -0.0706,-0.0353 -0.0706,-0.0705 -0.0705,-0.0706 -0.0353,-0.10583 -0.0353,-0.0706 v -0.10583 m 1.19945,0 -0.0353,0.10583 v 0.0706 l -0.0706,0.10583 -0.0353,0.0706 -0.10584,0.0705 -0.0705,0.0353 -0.10584,0.0353 h -0.0705 m -0.21167,-6.80861 -0.10583,0.0353 h -0.10583 l -0.0706,0.0706 -0.0706,0.0353 -0.0705,0.10583 -0.0353,0.0706 -0.0353,0.10583 v 0.0706 m 0,5.82083 v 0.10583 m 1.16417,-5.99722 v 0 -0.10583 l -0.0706,-0.0706 -0.0353,-0.10583 -0.10584,-0.0353 -0.0705,-0.0706 h -0.10584 l -0.0705,-0.0353 m -0.21167,0 h 0.21167 m 1.16417,8.00805 v -0.52917 m -2.57528,0.52917 v -0.52917 m 0,0.52917 h 2.57528 m -2.57528,0.38806 v -0.38806 m -0.28222,0.38806 v -1.72861 m 2.8575,1.34055 v 0.38806 m 0.28222,-1.72861 v 1.5875 m -2.01084,-0.24695 v 0.38806 m 0.14112,0 v -0.38806 m 0.59972,0 v 0.38806 m 0.14111,0 v -0.38806 m -8.64306,0.35278 v 0.0353 m 0.38806,0 v -0.0353 m -0.38806,0.0353 v 0 -0.0353 m 30.26834,-5.60917 h -0.74084 m -0.14111,-0.17639 h 0.81139 m -33.54916,4.16278 v 0.88195 m 0,0.74083 v 0.0353 m 0,0 v -0.0353 m 0,-0.74083 v -0.88195 m -0.14112,-0.28222 0.14112,0.28222 m 0,0 h -0.635 m 0.17638,-0.28222 -0.17638,0.28222 m 0.49388,-0.28222 h -0.3175 m -0.17638,0.28222 v 0.88195 m 0,0.74083 v 0.0353 m 0.635,-1.65806 -0.14112,-0.28222 m 8.78417,1.905 h 0.35278 m -3.88056,0.0353 h 0.0353 m 0,0 h -0.0353 m 6.17361,-0.35278 v 0.35278 m 0.52917,-0.35278 v 0.35278 m -0.52917,-0.35278 h 0.52917 m 10.05417,0.28222 v 0 m -13.22917,-2.11667 h 1.34056 m -1.34056,0.98778 h 1.34056 m 0,0.17639 h -1.34056 m 0,0.98778 h 0.635 m 0.56444,0 h 0.14112 m 0.28222,0 h 0.38805 m 0.35278,0 h 0.0353 m 0.67028,-0.3175 v -0.0353 m 1.5875,-0.17639 h -0.17639 m 0.14111,0.10584 h -0.14111 m 0.21166,-0.635 h -0.21166 m -1.30528,1.09361 v -0.35278 m 0.28222,0.35278 v -0.35278 m 0,0 h -0.10583 m -0.14111,0 h -0.0353 m 9.59556,-6.45583 v 0.74083 m 0,0 v -0.74083 m -28.36334,-5.08 h 0.3175 m -0.3175,-0.84667 h 0.3175 m 19.82611,12.48833 v -0.10583 m 0,0 h -0.0705 m 18.94416,-5.715 0.21167,0.0353 0.17639,0.0353 0.17639,0.10584 0.14111,0.10583 0.14111,0.17639 0.0706,0.17639 0.0705,0.17639 v 0.17639 m 0,2.18722 v -2.18722 m 0,2.18722 v 0.17639 l -0.0353,0.14111 -0.0705,0.14111 -0.0706,0.14111 -0.10583,0.14111 -0.14111,0.0706 -0.10584,0.10583 -0.14111,0.0353 m 0,0 -0.35277,0.14111 m -0.21167,0.10583 v 0 l 0.0353,-0.0353 h 0.0353 v -0.0353 h 0.0353 l 0.0353,-0.0353 h 0.0353 0.0353 m -0.21167,0.10583 -0.77611,0.84667 m 0,0 -0.0706,0.0706 -0.10583,0.0705 -0.0706,0.0706 -0.10583,0.0353 -0.10583,0.0353 -0.0706,0.0353 h -0.10583 -0.10584 m -9.45444,0 h 9.45444 m -9.45444,0 h -0.10583 -0.10584 l -0.10583,-0.0353 -0.10583,-0.0353 -0.0706,-0.0353 -0.10583,-0.0706 -0.0706,-0.0705 -0.0705,-0.0706 m 0,0 -0.77611,-0.84667 m -0.21167,-0.10583 h 0.0353 l 0.0353,0.0353 h 0.0353 l 0.0353,0.0353 h 0.0353 v 0.0353 h 0.0353 m -0.21167,-0.10583 -0.35278,-0.14111 m 0,0 -0.14111,-0.0353 -0.14111,-0.10583 -0.10583,-0.0706 -0.10584,-0.14111 -0.10583,-0.14111 -0.0353,-0.14111 -0.0705,-0.14111 v -0.17639 m 0,-2.18722 v 2.18722 m 0,-2.18722 0.0353,-0.17639 0.0353,-0.17639 0.10584,-0.17639 0.10583,-0.17639 0.17639,-0.10583 0.17639,-0.10584 0.17639,-0.0353 0.17638,-0.0353 m 0,0 h 13.0175 m -13.0175,0.49389 h 13.0175 m -13.51138,0.49389 0.0353,-0.0706 v -0.10583 l 0.0706,-0.0706 0.0353,-0.10583 0.10583,-0.0353 0.0706,-0.0706 h 0.10583 l 0.0705,-0.0353 m -0.49388,2.68111 v -2.18722 m 0.35277,2.68111 -0.0705,-0.0353 -0.0706,-0.0353 -0.0353,-0.0706 -0.0705,-0.0353 -0.0353,-0.0706 -0.0353,-0.0705 -0.0353,-0.0706 v -0.10583 m 0.35277,0.49389 0.35278,0.10583 m 0,0 0.0706,0.0353 h 0.0353 l 0.0706,0.0353 0.0706,0.0353 0.0353,0.0353 0.0706,0.0353 0.0353,0.0706 0.0353,0.0353 m 0,0 0.77612,0.84667 m 0.38805,0.14111 h -0.0705 -0.0353 -0.0706 l -0.0353,-0.0353 -0.0353,-0.0353 h -0.0706 l -0.0353,-0.0353 -0.0353,-0.0353 m 9.84249,0.14111 h -9.45444 m 9.80722,-0.14111 -0.0353,0.0353 -0.0353,0.0353 h -0.0353 l -0.0353,0.0353 -0.0705,0.0353 h -0.0353 -0.0706 -0.0353 m 0.35278,-0.14111 0.77611,-0.84667 m 0,0 0.0353,-0.0353 0.0706,-0.0706 0.0353,-0.0353 0.0706,-0.0353 0.0353,-0.0353 0.0705,-0.0353 h 0.0706 l 0.0353,-0.0353 m 0,0 0.35277,-0.10583 m 0.35278,-0.49389 v 0.10583 l -0.0353,0.0706 v 0.0705 l -0.0705,0.0706 -0.0353,0.0353 -0.0705,0.0706 -0.0706,0.0353 -0.0706,0.0353 m 0.35278,-2.68111 v 2.18722 m -0.49389,-2.68111 0.10584,0.0353 h 0.0705 l 0.10584,0.0706 0.0705,0.0353 0.0706,0.10583 0.0353,0.0706 0.0353,0.10583 v 0.0706 m -0.49389,-0.98778 h -13.0175 m 3.45723,0 h 0.52916 m -2.43416,0 h 1.905 m -2.43417,0 h 0.52917 m -0.0353,0 h -0.49389 m 2.50472,0 h -2.01083 m 2.46944,0 h -0.45861 m 5.50333,0 h 0.52917 m -0.0353,0 h -0.49389 m 2.46945,0 h -1.97556 m 2.46945,0 h -0.49389 m -0.0353,0 h 0.52917 m -2.43417,0 h 1.905 m -3.52778,0 h 0.0706 m -2.92806,0 h 2.8575 m -2.92805,0 h 0.0705 m -0.56444,0 h 0.49389 m 0.3175,0 h -0.81139 m 3.21028,0 h -2.39889 m 3.175,0 h -0.77611 m 0.28222,0 h 0.49389 m -8.50195,0 -0.17638,0.0353 -0.17639,0.0353 -0.17639,0.10584 -0.17639,0.10583 -0.10583,0.17639 -0.10584,0.17639 -0.0353,0.17639 -0.0353,0.17639 m 14.99305,-0.17639 v 0 l -0.0705,-0.17639 -0.0706,-0.17639 -0.14111,-0.17639 -0.14111,-0.10583 -0.17639,-0.10584 -0.17639,-0.0353 -0.21167,-0.0353 m -14.00527,3.175 v 0.17639 l 0.0353,0.0353 m -0.0353,-0.21167 v 0.14111 l 0.0353,0.0706 m 14.46389,-2.39889 v -0.0706 m -13.97,2.36361 v 0.0706 l 0.0353,0.0705 0.0353,0.0706 0.0705,0.0353 0.0353,0.0706 0.0706,0.0353 0.0705,0.0353 m 0.35278,0.10583 -0.35278,-0.10583 m 0.77611,0.38805 -0.0353,-0.0353 -0.0353,-0.0706 -0.0706,-0.0353 -0.0353,-0.0353 -0.0706,-0.0353 -0.0706,-0.0353 h -0.0353 l -0.0706,-0.0353 m 0.42333,0.28222 v 0 m 0.77612,0.84667 -0.77612,-0.84667 m 0.77612,0.84667 0.0353,0.0353 0.0353,0.0353 h 0.0706 l 0.0353,0.0353 0.0353,0.0353 h 0.0706 0.0353 0.0705 m 0,0 h 1.79917 m 0.98778,0 h 3.88055 m 0.9525,0 h 1.83444 m -6.45583,0 h -1.5875 m 2.11667,0 h -0.52917 m 0.10584,0 h 0.42333 m -0.74083,0 h 0.3175 m -1.69334,0 h 0.38806 m 5.82083,0 h 0.38806 m -1.69334,0 h 0.35278 m -0.74083,0 h 0.38805 m 0.10584,0 h -0.49389 m 2.08139,0 h -1.5875 m 4.93888,-1.37583 0.0706,-0.0353 0.0706,-0.0353 0.0705,-0.0706 0.0353,-0.0353 0.0705,-0.0706 v -0.0705 l 0.0353,-0.0706 v -0.10583 m -0.35278,0.49389 -0.35277,0.10583 m -0.42334,0.28222 v 0 m 0.42334,-0.28222 -0.0353,0.0353 h -0.0706 l -0.0705,0.0353 -0.0353,0.0353 -0.0706,0.0353 -0.0353,0.0353 -0.0706,0.0706 -0.0353,0.0353 m 0,0 -0.77611,0.84667 m -0.35278,0.14111 h 0.0353 0.0706 0.0353 l 0.0705,-0.0353 0.0353,-0.0353 h 0.0353 l 0.0353,-0.0353 0.0353,-0.0353 m -7.02027,0.10583 v 0 0.0353 m -0.14112,0 0.0353,-0.17639 m 0,0 v -0.0705 -0.0706 -0.0353 l 0.0353,-0.0353 0.0353,0.0353 v 0.0706 0.0705 0.0706 l 0.0353,0.10583 m -0.98778,-0.14111 v 0.17639 m 0,-0.17639 h 0.88194 m 4.09222,0 v 0.17639 m 0,-0.17639 h 0.84667 m 0,0.17639 v -0.17639 m -0.9525,0.14111 v 0 0.0353 m 0,-0.0353 v -0.10583 -0.0706 -0.0705 l 0.0353,-0.0706 v -0.0353 h 0.0353 v 0.0353 0.0353 l 0.0353,0.0706 v 0.0705 m -8.96055,-3.38666 -0.10583,-0.0353 m 0.10583,0.0353 v 0.59972 m -0.10583,0.0353 0.10583,-0.0353 m 13.82889,0 0.0705,0.0353 m -0.0705,-0.635 v 0.59972 m 0.0705,-0.635 -0.0705,0.0353 m -9.8425,3.175 v 0 0.0353 0.0706 0.10583 m 5.82083,0 v -0.10583 -0.0706 -0.0353 m -6.24417,-4.05695 0.35278,-0.10583 m -1.65805,0.10583 h 1.30527 m -1.65805,-0.10583 0.35278,0.10583 m -2.36361,3.95111 v -0.21166 m 0.38805,0 h -0.38805 m 0.38805,0 h 0.0706 0.0353 l 0.0353,0.0353 h 0.0706 l 0.0353,0.0353 0.0353,0.0353 h 0.0353 l 0.0706,0.0353 m 0,0 0.88194,0.98777 m 0.38806,0.17639 h -0.0706 -0.0353 l -0.0705,-0.0353 h -0.0353 l -0.0353,-0.0353 -0.0705,-0.0353 -0.0353,-0.0353 -0.0353,-0.0353 m 0.38806,0.17639 h 0.9525 m 0,0.35278 v -0.35278 m 0,0.35278 h -0.98778 m -1.62278,-1.65805 h -0.38805 m 10.33638,-3.73945 h 1.34056 m 0,0 0.3175,-0.10583 m -1.97556,0 0.3175,0.10583 m 2.01084,4.86833 -0.0353,0.0353 -0.0353,0.0353 -0.0353,0.0353 -0.0353,0.0353 h -0.0706 l -0.0353,0.0353 h -0.0705 -0.0353 m 0.35278,-0.17639 0.91722,-0.98777 m 0,0 0.0353,-0.0353 h 0.0353 l 0.0353,-0.0353 0.0706,-0.0353 h 0.0353 l 0.0353,-0.0353 h 0.0706 0.0353 m 0,0 h 0.38805 m 0,0.21166 v -0.21166 m -1.97555,1.65805 h -1.02306 m 0,0 V 129.269 m 0,0 h 0.98778 m 2.01083,-1.30527 h -0.38805 m -12.84111,0.14111 -0.0706,-0.0353 h -0.0353 l -0.0353,-0.0353 -0.0353,-0.0353 h -0.0706 l -0.0353,-0.0353 h -0.0353 -0.0706 m 1.27,1.12888 -0.88194,-0.98777 m 0.88194,0.98777 0.0353,0.0353 0.0353,0.0353 0.0705,0.0353 0.0353,0.0353 h 0.0353 l 0.0705,0.0353 h 0.0353 0.0706 m 7.97277,0 h 0.10584 0.0705 0.10584 0.0705 0.0706 0.0353 0.0353 m -1.5875,0 h 1.09361 m -1.62277,0 h 0.0353 0.0706 0.0706 0.0705 0.0706 0.10583 0.10583 m -1.02305,0 h 0.10583 0.10583 0.0706 0.0706 0.0705 0.0353 0.0353 m -2.29306,0 h 1.79917 m -2.29306,0 v 0 h 0.0353 0.0353 0.0705 0.0706 0.10583 0.0706 0.10583 m -0.98778,0 h 0.10584 0.0705 0.10584 0.0705 0.0706 0.0353 0.0353 m -1.5875,0 h 1.09361 m -1.5875,0 v 0 h 0.0353 0.0353 0.0705 0.0706 0.0706 0.10583 0.10583 m -1.02305,0 h 0.10583 0.10583 0.0706 0.0705 0.0706 0.0353 0.0353 0.0353 m -1.48166,0 h 9.94833 m -1.48167,0 v 0 h 0.0353 0.0353 0.0705 0.0706 0.10583 0.0706 0.10583 m -7.47889,0.35278 v -0.35278 m 0,0.35278 h -0.0353 -0.0353 -0.0353 -0.0706 -0.0705 -0.0706 -0.10583 -0.10583 m 10.61861,-1.65805 h -0.0353 -0.0706 l -0.0353,0.0353 h -0.0353 l -0.0706,0.0353 -0.0353,0.0353 h -0.0353 l -0.0353,0.0353 m 0,0 -0.91722,0.98777 m -1.83445,0.17639 v 0.35278 m 0.49389,0 h -0.10583 -0.0706 -0.10583 -0.0706 -0.0705 -0.0353 -0.0353 m 1.48167,-0.35278 h 0.0353 0.0705 l 0.0353,-0.0353 h 0.0706 l 0.0353,-0.0353 0.0353,-0.0353 0.0353,-0.0353 0.0353,-0.0353 m 0.0705,-2.8575 v 0.21167 m 0,0 v 0.0353 0.0353 h -0.0353 v 0.0353 l -0.0353,0.0353 -0.0353,0.0353 h -0.0353 m 0,0 -0.52917,0.17639 m -0.0705,0 v 0 h 0.0353 0.0353 m -0.0705,0 h -9.34861 m 0,0 v 0 h -0.0353 m -0.52917,-0.17639 0.52917,0.17639 m -0.52917,-0.17639 h -0.0353 -0.0353 l -0.0353,-0.0353 v -0.0353 l -0.0353,-0.0353 v -0.0353 -0.0353 m 0,0 v -0.21167 m 0,0 v -0.0353 -0.0353 l 0.0353,-0.0353 v -0.0353 l 0.0353,-0.0353 h 0.0353 l 0.0353,-0.0353 h 0.0353 m 10.40695,0 h -10.40695 m 10.40695,0 h 0.0353 l 0.0353,0.0353 h 0.0353 l 0.0353,0.0353 0.0353,0.0353 v 0.0353 l 0.0353,0.0353 v 0.0353 m -9.13694,-0.21166 h -0.52917 m 0.98778,0 h -0.45861 m 0.98778,0 h -0.52917 m 0.98778,0 h -0.45861 m 1.02305,0 h -0.56444 m 1.02305,0 h -0.45861 m 0.98778,0 h -0.52917 m 0.98778,0 h -0.45861 m 1.02306,0 h -0.56445 m 0.98778,0 h -0.42333 m 0.98777,0 h -0.56444 m 1.02305,0 h -0.45861 m 0.98778,0 h -0.52917 m 0.98778,0 h -0.45861 m 1.02306,0 h -0.56445 m 0.98778,0 h -0.42333 m 0.98777,0 h -0.56444 m 1.02305,0 h -0.45861 m 0.91723,0 h -0.45862 m -9.45444,0 h -0.49389 m 0.9525,0 h -0.45861 m -0.49389,0 h -0.0353 l -0.0353,0.0353 h -0.0353 l -0.0353,0.0353 v 0.0353 l -0.0353,0.0353 v 0.0353 0.0353 m 0,0.21167 v 0.0353 m 10.795,-0.28222 v 0 l -0.0353,-0.0353 v -0.0353 l -0.0353,-0.0353 -0.0353,-0.0353 h -0.0353 l -0.0353,-0.0353 h -0.0353 m -4.30389,-1.76389 v 0.14111 l -0.0353,0.0706 -0.0353,0.0353 v 0.0353 l -0.0353,-0.0353 -0.0353,-0.0705 v -0.10584 l -0.0353,-0.10583 v -0.10583 m -1.41111,0 -0.0353,0.10583 v 0.10583 l -0.0353,0.10584 -0.0353,0.0705 v 0.0353 l -0.0353,-0.0353 -0.0353,-0.0353 v -0.0706 l -0.0353,-0.14111 m 0,0 -0.38805,-0.10583 m 0,0 v -0.0353 m 2.61055,0 v 0.0353 m 0,0 -0.42333,0.10583 m -2.82222,4.90361 h -0.98778 m 5.82083,0 h -0.9525 m -5.22111,-3.21028 h -0.45861 m 0.45861,0.0706 v -0.0706 m -0.45861,0 v 0.0706 m 0.45861,-0.0706 h -0.45861 m 1.44639,0 h -0.45861 m 0.45861,0.0706 v -0.0706 m -0.45861,0 v 0.0706 m 0.45861,-0.0706 h -0.45861 m 1.48166,0 h -0.45861 m 0.45861,0.0706 v -0.0706 m -0.45861,0 v 0.0706 m 0.45861,-0.0706 h -0.45861 m 1.44639,0 h -0.45861 m 0.45861,0 h -0.45861 m 0.45861,0.0706 v -0.0706 m -0.45861,0 v 0.0706 m -3.03389,0.84666 h -0.45861 m 0,-0.0705 v 0.0705 m 0.45861,0 v -0.0705 m 4.48028,-0.84667 h -0.42333 m 0.42333,0.0706 v -0.0706 m -0.42333,0 v 0.0706 m 0.42333,-0.0706 h -0.42333 m 1.44638,0 h -0.45861 m 0.45861,0 h -0.45861 m 0.45861,0.0706 v -0.0706 m -0.45861,0 v 0.0706 m 1.44639,-0.0706 h -0.45861 m 0.45861,0 h -0.45861 m 0.45861,0.0706 v -0.0706 m -0.45861,0 v 0.0706 m 1.44639,-0.0706 h -0.42333 m 0.42333,0.0706 v -0.0706 m -0.42333,0 v 0.0706 m 0.42333,-0.0706 h -0.42333 m 1.44638,0 h -0.45861 m 0.45861,0.0706 v -0.0706 m -0.45861,0 v 0.0706 m 0.45861,-0.0706 h -0.45861 m -7.51416,0.91722 h 0.45861 m -0.45861,-0.0705 v 0.0705 m 0.45861,-0.0705 v 0.0705 m 0.56444,0 h 0.42334 m -0.42334,-0.0705 v 0.0705 m 0.42334,-0.0705 v 0.0705 m 0.56444,0 h 0.45861 m -0.45861,-0.0705 v 0.0705 m 0.45861,-0.0705 v 0.0705 m 0.52917,0 h 0.45861 m -0.45861,-0.0705 v 0.0705 m 0.45861,-0.0705 v 0.0705 m 0.56444,0 h 0.42334 m -0.42334,-0.0705 v 0.0705 m 0.42334,-0.0705 v 0.0705 m 0.56444,0 h 0.45861 m -0.45861,-0.0705 v 0.0705 m 0.45861,-0.0705 v 0.0705 m 0.52917,0 h 0.45861 m -0.45861,-0.0705 v 0.0705 m 0.45861,-0.0705 v 0.0705 m 0.56444,0 h 0.42334 m -0.42334,-0.0705 v 0.0705 m 0.42334,-0.0705 v 0.0705 m -8.46667,-0.91722 h -0.45861 m 0.45861,0.0706 v -0.0706 m -0.45861,0 v 0.0706 m 0.45861,-0.0706 h -0.45861 m 11.71222,1.72861 v 0.28223 m 0.49389,-1.16417 v 1.12889 m -14.49916,0.0353 v -0.28223 m -0.49389,0.24695 v -1.12889 m 0.74083,-1.69333 v 0 h -0.0706 -0.0705 m 0,0.59972 h 0.0705 0.0706 m 13.51139,0 v 0 h 0.0705 0.10584 m 0,-0.59972 h -0.10584 -0.0705 m -7.65528,4.51555 v -0.35278 m 1.79917,0 v 0.35278 m 0,0 h -1.79917 m -0.49389,-0.35278 v 0.35278 m 0.49389,0 h -0.10583 -0.0706 -0.10583 -0.0706 -0.0705 -0.0353 -0.0353 m 2.78695,0 v -0.35278 m 0,0.35278 v 0 h -0.0353 -0.0353 -0.0705 -0.0706 -0.0706 -0.10583 -0.10583 m -4.30389,-5.25639 v 0 l 0.0353,-0.0353 0.0353,-0.10583 m -1.30527,0 0.0353,0.10583 v 0.0353 h 0.0353 m 9.17222,0 v 0 l 0.0353,-0.0353 0.0353,-0.10583 m -1.34056,0 0.0353,0.10583 0.0353,0.0353 h 0.0353 m -6.42056,4.90361 v 0.35278 m 0,0 h -0.10583 -0.10583 -0.0706 -0.0706 -0.0705 -0.0353 -0.0353 m 1.5875,-0.35278 v 0.35278 m 0.49389,0 v 0 h -0.0353 -0.0353 -0.0706 -0.0705 -0.10584 -0.0705 -0.10584 m 3.81,-0.35278 v 0.35278 m 0,0 h -0.10583 -0.10583 -0.0706 -0.0705 -0.0706 -0.0706 -0.0353 m 1.62277,-0.35278 v 0.35278 m 0.49389,0 v 0 h -0.0353 -0.0353 -0.0706 -0.0705 -0.10584 -0.0705 -0.10584 m -4.90361,0 h -1.09361 m 5.99722,0 h -1.09361 m -6.31472,0 v 0 m 8.78417,0 v 0 m -8.50195,0 v 0 m 0.24695,0 v 0 m 0.74083,0 v 0 m 0.24695,0 v 0 m 0.77611,0 v 0 m 0.21166,0 v 0 m 0.77611,0 v 0 m 0.24695,0 v 0 m 0.74083,0 v 0 m 0.24695,0 v 0 m 0.77611,0 v 0 m 0.21166,0 v 0 m 0.77612,0 v 0 m 0.24694,0 v 0 m 0.77611,0 v 0 m 0.21167,0 v 0 m 0.77611,0 v 0 m 0.21166,0 v 0 m -8.50194,0 v 0 m 0.77611,0 v 0 m 0.24695,0 v 0 m 0.77611,0 v 0 m 0.21166,0 v 0 m 0.77612,0 v 0 m 0.21166,0 v 0 m 0.77611,0 v 0 m 0.24695,0 v 0 m 0.77611,0 v 0 m 0.21167,0 v 0 m 0.77611,0 v 0 m 0.24694,0 v 0 m 0.74083,0 v 0 m 0.24695,0 v 0 m 0.77611,0 v 0 m 0.21167,0 v 0 m 0.77611,0 v 0 m -0.0353,0 v 0 m -2.2225,0 v 0 m -0.77611,0 v 0 m -2.2225,0 v 0 m -19.57917,0.0706 v -0.0353 m 5.53861,-0.14111 v 0.17639 m 0.35278,-0.17639 v 0.17639 m 0,-0.17639 h -0.35278 m 0,0.17639 v 0 -0.0353 -0.0353 -0.0353 -0.0705 -0.0353 -0.0706 m 0,0 v -0.10583 m 0,0 v 0.10583 m 0,0 v 0 0.0353 0.0353 0.0353 m 0.35278,-0.10584 h -0.35278 m 0.35278,0 v 0 0.0353 0.0353 0.0353 m 0,-0.21167 v 0.10583 m -1.72861,-0.0705 v 0.35278 m 0.56444,-0.35278 h -0.56444 m 0.56444,0.35278 v -0.35278 m -0.56444,0 v 0.35278 m 12.66472,-6.80861 v 0.74083 m 0.635,0 v -0.74083 m -0.635,0 v 0.74083 m -8.92528,6.06778 h -20.24944 m 18.27389,0 v -0.35278 m 0.24694,0.35278 v -0.35278 m 0,0 h -0.0353 m -0.14112,0 h -0.0705 m 0,0 v 0.35278 m -1.76389,-0.0353 v 0.0353 m 0,-0.0353 v 0.0353 m -0.635,-12.73528 v 12.7 m -15.27528,0 h 15.27528 m -15.27528,-12.7 v 12.7 m 13.6525,-10.40694 v 1.83444 m -12.02972,-1.83444 h 12.02972 m -12.02972,1.83444 v -1.83444 m -0.74083,1.83444 h 0.74083 m -0.74083,3.175 v -3.175 m 0.74083,3.175 h -0.74083 m 0.74083,1.83444 v -1.83444 m 2.78695,1.83444 h -2.78695 m 2.78695,1.76389 v -1.76389 m 1.12888,1.76389 h -1.12888 m 1.12888,1.05834 v -1.05834 m 4.19806,1.05834 h -4.19806 m 4.19806,-1.05834 v 1.05834 m 1.12889,-1.05834 h -1.12889 m 1.12889,-1.76389 v 1.76389 m 2.78694,-1.76389 h -2.78694 m 2.78694,-1.83444 v 1.83444 m 0.74084,-1.83444 h -0.74084 m 0.74084,-3.175 v 3.175 m -0.74084,-3.175 h 0.74084 m -14.39334,-4.1275 h 15.27528 m -15.27528,12.7 v 0 m 0,-12.7 v 12.7 m 0,-12.7 v 0 m 1.62278,4.16278 v -0.0353 m 0,0.0353 h -0.70555 m -0.0353,-0.0353 0.0353,0.0353 m 0,0 v 2.8575 m 0,0 v 0.24694 m 0,0 -0.0353,0.0353 m 0.0353,-0.0353 h 0.70555 m 0,0.0353 v -0.0353 m 12.02972,-3.13972 v 0.0353 m 0,0 v -1.69334 m 0,0 v -0.17638 m -3.91583,9.66611 v -1.05834 m 1.12889,0 v -0.56444 m 0,0 v -2.29306 m 0,0 v 1.09361 m 3.4925,-4.97416 0.0353,-0.0353 m -0.0353,0.0353 h -0.70556 m 0,3.88055 v -0.77611 m 0,0 v 0.0353 m 0,1.83444 v -1.09361 m 0,-0.77611 h 0.70556 m 0.0353,0.0353 -0.0353,-0.0353 m 0,-0.24694 v -2.8575 m 0,3.10444 v -0.24694 m -0.70556,-4.55084 h -2.2225 m -0.45861,0 h -0.56444 m -0.45861,0 h -0.56445 m -0.45861,0 h -0.56444 m -0.45861,0 h -0.52917 m -0.45861,0 h -0.56445 m -0.45861,0 h -0.56444 m -0.45861,0 h -0.56445 m -0.45861,0 h -2.2225 m 9.34861,-0.14111 0.0353,-0.0353 h 0.0353 0.0705 0.0706 0.0353 0.0705 0.0353 0.0353 0.0353 l 0.0353,0.0353 m 0,0 v 0 m -0.45861,0 v 0 m -0.98778,0 0.0353,-0.0353 h 0.0353 0.0353 0.0706 0.0353 0.0706 0.0353 0.0353 0.0706 v 0.0353 m 0,0 v 0 m -0.45861,0 v 0 h 0.0353 m -2.04611,0 0.0353,-0.0353 h 0.0353 0.0353 0.0705 0.0353 0.0706 0.0353 0.0706 0.0353 v 0.0353 m 0,0 v 0 m -0.45861,0 v 0 h 0.0353 m -1.02305,0 0.0353,-0.0353 h 0.0353 0.0353 0.0706 0.0353 0.0706 0.0353 0.0705 0.0353 v 0.0353 m 0,0 h 0.0353 m -0.45861,0 v 0 m -1.02306,0 0.0353,-0.0353 h 0.0353 0.0705 0.0353 0.0706 0.0353 0.0353 0.0706 0.0353 v 0.0353 m 0,0 h 0.0353 m -0.45861,0 v 0 m -1.02305,0 0.0353,-0.0353 h 0.0353 0.0706 0.0353 0.0705 0.0353 0.0353 0.0705 0.0353 v 0.0353 m 0,0 h 0.0353 m -0.45861,0 v 0 m -1.02306,0 0.0353,-0.0353 h 0.0353 0.0705 0.0353 0.0706 0.0353 0.0353 0.0706 0.0353 l 0.0353,0.0353 m 0,0 v 0 m -0.45861,0 v 0 m 5.11528,0 0.0353,-0.0353 h 0.0353 0.0353 0.0706 0.0353 0.0705 0.0353 0.0353 0.0705 v 0.0353 m 0,0 v 0 m -0.45861,0 v 0 h 0.0353 m 0.42333,0 v 0 l -0.0353,0.0353 v 0.0353 l -0.0353,0.0353 h -0.0353 l -0.0353,0.0353 h -0.0353 -0.0353 m -0.21167,-0.14111 v 0 l 0.0353,0.0353 v 0.0353 l 0.0353,0.0353 h 0.0353 l 0.0353,0.0353 h 0.0353 0.0353 m -4.86834,-0.14111 -0.0353,0.0353 -0.0706,0.0706 -0.0706,0.0353 h -0.0705 -0.0706 l -0.0705,-0.0353 -0.0353,-0.0706 -0.0353,-0.0353 m 1.44639,0 v 0.0353 l -0.0706,0.0706 -0.0705,0.0353 h -0.0706 -0.0705 l -0.0706,-0.0353 -0.0353,-0.0706 -0.0353,-0.0353 m 1.44639,0 -0.0353,0.0353 -0.0353,0.0706 -0.0706,0.0353 h -0.0706 -0.0706 l -0.0705,-0.0353 -0.0353,-0.0706 -0.0353,-0.0353 m 1.44639,0 -0.0353,0.0353 -0.0353,0.0706 -0.0706,0.0353 h -0.0706 -0.0705 l -0.0706,-0.0353 -0.0353,-0.0706 -0.0353,-0.0353 m 1.44639,0 -0.0353,0.0353 -0.0353,0.0706 -0.0706,0.0353 h -0.0706 -0.0706 l -0.0705,-0.0353 -0.0353,-0.0706 -0.0353,-0.0353 m 2.46945,0 -0.0353,0.0353 -0.0353,0.0706 -0.0705,0.0353 h -0.0706 -0.0706 l -0.0706,-0.0353 -0.0706,-0.0706 v -0.0353 m 1.44639,0 -0.0353,0.0353 -0.0353,0.0706 -0.0706,0.0353 h -0.0705 -0.0706 l -0.0705,-0.0353 -0.0706,-0.0706 -0.0353,-0.0353 m -1.79916,1.97556 h -0.0353 l -0.0353,-0.0353 h -0.0353 l -0.0353,-0.0353 -0.0353,-0.0353 -0.0353,-0.0353 v -0.0353 l -0.0353,-0.0353 v -0.0353 m 0.45861,0 v 0.0353 0.0353 l -0.0353,0.0353 v 0.0353 l -0.0353,0.0353 -0.0353,0.0353 h -0.0353 l -0.0353,0.0353 h -0.0353 m -5.11528,0 h -0.0353 l -0.0353,-0.0353 h -0.0353 l -0.0353,-0.0353 -0.0353,-0.0353 v -0.0353 l -0.0353,-0.0353 v -0.0353 -0.0353 m 0.45861,0 v 0.0353 l -0.0353,0.0353 v 0.0353 l -0.0353,0.0353 -0.0353,0.0353 v 0.0353 h -0.0353 l -0.0705,0.0353 h -0.0353 m 1.02305,0 h -0.0353 l -0.0353,-0.0353 h -0.0353 l -0.0353,-0.0353 -0.0353,-0.0353 v -0.0353 l -0.0353,-0.0353 v -0.0353 -0.0353 m 0.45861,0 v 0.0353 l -0.0353,0.0353 v 0.0353 l -0.0353,0.0353 -0.0353,0.0353 -0.0353,0.0353 h -0.0353 l -0.0353,0.0353 h -0.0353 m 1.02306,0 h -0.0353 l -0.0353,-0.0353 h -0.0353 l -0.0353,-0.0353 -0.0353,-0.0353 -0.0353,-0.0353 v -0.0353 -0.0353 -0.0353 m 0.45861,0 v 0.0353 l -0.0353,0.0353 v 0.0353 l -0.0353,0.0353 -0.0353,0.0353 -0.0353,0.0353 h -0.0353 l -0.0353,0.0353 h -0.0353 m 1.02305,0 h -0.0353 l -0.0353,-0.0353 h -0.0353 l -0.0353,-0.0353 -0.0353,-0.0353 -0.0353,-0.0353 v -0.0353 -0.0353 -0.0353 m 0.45861,0 -0.0353,0.0353 v 0.0353 0.0353 l -0.0353,0.0353 -0.0353,0.0353 -0.0353,0.0353 h -0.0353 l -0.0353,0.0353 h -0.0353 m 1.02306,0 h -0.0353 l -0.0353,-0.0353 h -0.0353 l -0.0353,-0.0353 -0.0353,-0.0353 -0.0353,-0.0353 v -0.0353 -0.0353 l -0.0353,-0.0353 m 0.45861,0 v 0.0353 0.0353 0.0353 l -0.0353,0.0353 -0.0353,0.0353 -0.0353,0.0353 h -0.0353 l -0.0353,0.0353 h -0.0353 m 2.04611,0 h -0.0353 l -0.0353,-0.0353 h -0.0353 l -0.0353,-0.0353 -0.0353,-0.0353 -0.0353,-0.0353 v -0.0353 l -0.0353,-0.0353 v -0.0353 m 0.45861,0 v 0.0353 0.0353 l -0.0353,0.0353 v 0.0353 l -0.0353,0.0353 -0.0353,0.0353 h -0.0353 l -0.0353,0.0353 h -0.0353 m 1.02306,0 h -0.0353 l -0.0706,-0.0353 h -0.0353 l -0.0353,-0.0353 v -0.0353 l -0.0353,-0.0353 v -0.0353 l -0.0353,-0.0353 v -0.0353 m 0.45861,0 v 0.0353 0.0353 l -0.0353,0.0353 v 0.0353 l -0.0353,0.0353 -0.0353,0.0353 h -0.0353 l -0.0353,0.0353 h -0.0353 m -9.94834,8.43139 v -0.0353 m 1.30528,0 v 0.0353 m 11.43,-0.0353 v 0.0353 m -1.30528,0 v -0.0353 m -11.07722,-4.65667 h 2.78695 m 0,1.09361 v -1.09361 m 6.45583,0 h 2.78694 m -12.73527,-1.02305 h 13.44083 m -9.94833,3.31611 h 6.45583 m 9.03111,-0.81139 h -0.0706 l -0.0353,0.0353 h -0.0353 m 0,0.28222 h 0.0353 0.0353 0.0353 0.0353 m 0,-0.3175 h 0.0705 m -0.0705,0.3175 h 0.0705 m -0.0705,-0.3175 h -0.0706 l -0.0353,0.0353 h -0.0353 m -10.58333,3.175 v -0.0353 m 0,-0.74083 v -0.88195 m 0,0 v 0.88195 m 0,0.74083 v 0.0353 m 0,-1.65806 h -0.635 m 0,1.65806 v -0.0353 m 0,-0.74083 v -0.88195 m 0.49388,-0.28222 0.14112,0.28222 m 0,0 -0.14112,-0.28222 m -0.49388,0.28222 0.17638,-0.28222 m 0,0 h 0.3175 m -4.83305,1.905 v 0.0353 m 0,0 v -0.0353 m -0.10583,0 v 0.0353 m 0,0 v -0.0353 m -0.635,0 v 0.0353 m 27.65777,-6.06778 v -0.74083 m 0,0.74083 v -0.74083 m -31.67944,5.00944 h -0.0353 m 0.59972,-0.28222 h -0.59972 m 0.59972,-1.79917 h -0.59972 m 0.0353,3.63361 h 0.56444 m -0.56444,0.24695 v -0.24695 m 0,0 v 0 -0.0353 m 0,0.0353 v 0.0706 0.0353 0.0353 0.0353 0.0353 0.0353 m 0,-1.69334 v 1.44639 m 0,-1.55222 v 0 0.0353 0.0353 0.0353 m 0,-0.35277 v 0.24694 m 0,0.0353 v -0.0353 -0.0706 -0.0353 -0.0353 -0.0353 -0.0353 -0.0353 m 0,0.28222 v 1.48166 m 0.56444,-1.76388 h -0.56444 m 20.39055,1.69333 v 0.10583 m 0,-0.10583 h 0.0353 m 5.3975,22.36611 v -0.9525 m -10.01889,0.9525 v -0.9525 m 10.01889,0 h -10.01889 m 10.01889,0.9525 h -10.01889 m -0.49389,0 v -0.9525 m 0.49389,0 h -0.0705 -0.10584 -0.10583 -0.0706 -0.0353 -0.0706 -0.0353 m 0.49389,0.9525 h -0.0705 -0.10584 -0.10583 -0.0706 -0.0353 -0.0706 -0.0353 m 11.00667,0 v -0.9525 m 0,0 v 0 h -0.0353 -0.0353 -0.0705 -0.0706 -0.10583 -0.0706 -0.10583 m 0.49389,0.9525 v 0 h -0.0353 -0.0353 -0.0705 -0.0706 -0.10583 -0.0706 -0.10583 m -2.15194,-0.9525 v 0 m 0,0 h 0.81139 m 0,0 v 0 m -6.42056,0 v 0 m 0,0 h 0.81139 m 0,0 v 0 m 2.54,0 v 0 m 0,0 h 0.81139 m 0,0 v 0 m 2.57528,0 v 0 m 0,0 h 0.81138 m 0,0 v 0 m -6.42055,0 v 0 m 0,0 h 0.81139 m 0,0 v 0 m 2.54,0 v 0 m 0,0 h 0.81139 m 0,0 v 0 m -6.42056,0 v 0 m 0,0 h 0.81139 m 0,0 v 0 m 2.57528,0 v 0 m 0,0 h 0.77611 m 0,0 v 0 m -6.87917,-0.49389 -0.0353,0.10583 -0.0353,0.10584 0.0353,0.10583 0.0353,0.10583 m 0,0 0.56445,1.19945 m 0,0 -0.24695,0.14111 m 0,0 -0.59972,-1.19945 m 0,0 -0.0706,-0.17638 v -0.17639 l 0.0353,-0.17639 v -0.0353 m 0.3175,0 v 0 m 0.56445,1.62278 0.10583,0.17639 0.0706,0.17639 0.0705,0.10583 v 0.0353 m -0.24694,0.10583 -0.0353,-0.0353 -0.0353,-0.10583 -0.10583,-0.14111 -0.0706,-0.17639 m 0.49389,0.35278 -0.24694,0.10583 m 0,0 0.24694,-0.10583 m 0.14111,-0.84667 h -0.14111 m 0.14111,0 v -0.91722 m 0,0 h 1.16417 m 0,0 h 1.19944 m 0,0 v -0.14111 m 0,0 h 0.35278 m 0,0 v 0.14111 m 0,0 h 0.77611 m 0,0 v -0.14111 m 0,0 h 0.3175 m 0,0 v 0.14111 m 0,0 h 0.77611 m 0,0 v -0.14111 m 0,0 h 0.3175 m 0,0 v 0.14111 m 0,0 h 0.77611 m 0,0 v -0.14111 m 0,0 h 0.35278 m 0,0 v 0.14111 m 0,0 h 0.74084 m 0,0 v -0.14111 m 0,0 h 0.35277 m 0,0 v 0.14111 m 0,0 h 0.74084 m 0,0 v -0.14111 m 0,0 h 0.35277 m 0,0 v 0.14111 m 0,0 h 0.74084 m 0,0 v -0.14111 m 0,0 h 0.35278 m 0,0 v 0.14111 m 0,0 h 0.77611 m 0,0 v -0.14111 m 0,0 h 0.3175 m 0,0 v 0.14111 m 0,0 h 0.28222 m 0,-0.35278 v 0.35278 m -9.66611,-0.35278 v 0.17639 m 0,0 h -1.23472 m 0.17638,-0.0353 h -0.14111 m -0.14111,0 v 0 m 0,0 v -0.14111 m 0.3175,0.17639 v 0 -0.0353 h -0.0353 m 0.21167,0.0353 v -0.0353 l -0.0353,-0.0353 m 7.76111,0.38806 V 150.542 m -0.0353,-0.0706 h 0.0353 v 0.0353 0.0353 m 0.88195,0.0706 v 0.14111 m 1.19944,0 v -0.14111 m 0.42334,-0.14111 v 0.28222 m -10.51278,0.81139 h 0.24694 m 0,0.10583 h -0.24694 m 0,0 h -0.0353 -0.0353 l -0.0353,-0.0353 -0.0353,-0.0353 -0.0353,-0.0353 -0.0353,-0.0353 v -0.0353 -0.0353 m 0,-0.98777 v 0.98777 m 0.10584,-1.19944 v 0 l -0.0353,0.0353 -0.0353,0.0353 -0.0353,0.0353 v 0.0353 0.0706 m 0.77611,-0.10584 v -0.10583 m -0.56444,0.10583 h 0.56444 m -0.67027,0.10584 v -0.0353 l 0.0353,-0.0353 0.0353,-0.0353 h 0.0353 m -0.10583,1.09361 v -0.98777 m 0.10583,1.09361 v 0 h -0.0353 v -0.0353 h -0.0353 l -0.0353,-0.0353 v -0.0353 m -0.10584,-0.98777 v -0.0353 -0.0353 -0.0353 -0.0353 m 0.77611,0.0353 h 0.0353 0.0353 0.0353 m 10.83027,1.30528 h -0.24694 m 0.35278,-0.21167 v -0.98777 m -0.10584,-0.10584 h -0.24694 m 0.35278,-0.10583 h 0.0353 l 0.0353,0.0353 0.0353,0.0353 v 0.0353 0.0353 l 0.0353,0.0706 m 0,0 v 0.98777 m 0,0 -0.0353,0.0353 v 0.0353 0.0353 l -0.0353,0.0353 -0.0353,0.0353 -0.0353,0.0353 h -0.0353 -0.0706 m -0.24694,-0.10583 h 0.24694 m -0.24694,-1.19945 v -0.10583 m 0.35278,0.21167 v -0.0353 -0.0353 h -0.0353 v -0.0353 h -0.0353 -0.0353 m 0.10584,1.09361 v 0.0353 0.0353 h -0.0353 l -0.0353,0.0353 h -0.0353 m 0.24695,-1.23472 v 0 0.0353 0.0353 0.0353 m -0.59972,-0.0706 v 0 h 0.0353 0.0353 0.0353 m -11.35944,-0.10583 v 0 m 11.71222,0 v 0 m -9.59556,0.49389 v -0.14111 m 2.11667,0.14111 v -0.14111 m 7.58472,-0.28222 h 0.0353 m -8.81945,0.42333 v -0.14111 m 2.08139,-0.0706 v -0.0353 -0.0353 m 0,0.0706 v 0.21167 m 5.96195,-0.35278 h -0.17639 m 0.17639,0 v -0.14111 m 1.79916,0 h -14.32082 m 2.32833,-30.90333 h 0.59972 m 1.27,0.42333 v 0.56445 m 0,0 h -1.86972 m 1.86972,0.10583 v -0.10583 m 0,0 h 0.10584 0.0353 m -3.73944,-4.19806 v -0.0353 m 2.04611,0.0353 h -2.04611 m 0.38805,0.81139 -0.0353,-0.10583 -0.35278,-0.70556 m -0.59972,35.41889 h 0.77611 m 0.35278,0 h 0.24694 m 11.88861,0 h 1.09361 m -15.52222,-21.9075 v 0.0353 m 3.52778,-0.0353 v 0.0353 m 15.76916,-0.0706 v 0 m -31.64416,-0.21167 h 0.56444 m 0,-1.48166 h -0.56444"
       style="fill:none;stroke:#000000;stroke-width:0.179917;stroke-linecap:round;stroke-linejoin:round;stroke-miterlimit:10;stroke-dasharray:none;stroke-opacity:1" />
    <path
       id="path7-9"
       d="m 181.84969,121.22587 v 0 m -3.10444,6.985 v 0 m 0.9525,-0.49389 v 0 m 1.16416,-5.99722 v 0 m 20.91972,2.71639 v 0 m -14.95777,2.57528 v 0 m 0,0 v 0 m 2.08139,-0.52917 v 0 m 10.79499,-0.28222 v 0 m -27.26972,-9.63084 v 0 m 3.175,-0.35277 v 0 m -25.85861,-2.04612 v 0 m 0,38.69973 v 0 m 0,1.48166 v 0 m 28.22222,-37.74722 v 0 m 0,2.68111 v 0 m 4.09223,1.905 v 0 m 0,7.62 v 0 m 7.33777,21.66056 v 0 m 10.795,-21.34306 v 0 m 0.77611,-0.84666 v 0 m 1.41112,-3.81 v 0 m -1.09362,3.73944 v 0 m 1.09362,-1.55222 v 0 m -29.38639,-10.05417 v 0 m -9.56028,15.5575 v 0 m -0.9525,2.57528 v 0 m 1.5875,-1.02306 v 0 m 0.35278,1.02306 v 0 m -0.21167,-0.59972 v 0 m 0.84667,-1.97556 v 0 m 0,0.42333 v 0 m 0.74083,2.15195 v 0 m 0,-2.15195 v 0 m 2.2225,0.77611 v 0 m -0.88194,1.37584 v 0 m 0.10583,-2.57528 v 0 m 1.55222,0 v 0 m 0.10584,2.57528 v 0 m 18.62666,0 v 0 m -0.9525,-2.57528 v 0 m 1.905,0 v 0 m 0.70556,0 v 0 m 0,2.57528 v 0 m 1.02305,-2.57528 v 0 m 0,2.57528 v 0 m 1.19945,-2.11667 v 0 m 0.0353,1.65806 v 0 m 0.42333,-0.84667 v 0 m 0.91722,-1.27 v 0 m 0,2.57528 v 0 m 2.25778,-1.27 v 0 m 1.23472,1.27 v 0 m -1.09361,-1.94028 v 0 m 0.52917,-0.56444 v 0 m 0.56444,-0.10584 v 0 m 2.61056,2.61056 v 0 m 0,-2.57528 v 0 m 1.02305,2.57528 v 0 m 0,-2.57528 v 0 m 1.48167,2.57528 v 0 m 0.0353,-2.57528 v 0 m -26.67,0 v 0 m 0,1.34056 v 0 m 0.0353,0.67027 v 0 m 0.98778,0.56445 v 0 m 0.49389,-1.16417 v 0 m 0,-1.41111 v 0 m 1.97556,2.57528 v 0 m -0.0706,-2.61056 v 0 m -0.91722,0.70556 v 0 m 0.24694,0.49389 v 0 m 0.59973,0.28222 v 0 m 0.42333,0.10583 v 0 m 0.21167,0.24695 v 0 m 0.9525,0.77611 v 0 m 0,-2.57528 v 0 m 1.27,0.42333 v 0 m -0.0353,0.56445 v 0 m 0.38805,0.81139 v 0 m -0.28222,0.3175 v 0 m 0.17639,-1.41111 v 0 m -2.57528,-11.7475 v 0 m 0,0 v 0 m -9.91305,6.91444 v 0 m -0.14111,-0.28222 v 0 m 32.20861,-4.1275 v 0 m -13.0175,0 v 0 m -0.98778,0.98778 v 0 m 0,2.18722 v 0 m 0,0 v 0 m 14.49916,-2.18722 v 0 m -13.65249,2.68111 v 0 m 0.35277,0.10583 v 0 m 1.19945,1.12889 v 0 m 0.38805,0.14111 v 0 m 9.45445,0 v 0 m -8.04334,0 v 0 m 6.59695,0 v 0 m 3.35139,-1.37583 v 0 m 0.35277,-0.49389 v 0 m -0.70555,0.59972 v 0 m -1.19945,1.12889 v 0 m -11.71222,-0.56444 v 0 m -0.38805,0 v 0 m 13.61722,0 v 0 m 0.38805,0 v 0 m -13.22916,0.14111 v 0 m 0.88194,0.98777 v 0 m 0.38806,0.17639 v 0 m 6.35,0 v 0 m -2.78695,0 v 0 m -2.08138,0 v 0 m 8.46666,0 v 0 m -1.48167,0 v 0 m 2.75167,-1.16416 v 0 m -0.91722,0.98777 v 0 m -9.59556,-3.06916 v 0 m 0.52917,0 v 0 m 0.45861,0 v 0 m 0.52917,0 v 0 m 0.45861,0 v 0 m 0.56444,0 v 0 m 0.45861,0 v 0 m 0.52917,0 v 0 m 0.45861,0 v 0 m 0.56445,0 v 0 m 0.42333,0 v 0 m 0.56444,0 v 0 m 0.45862,0 v 0 m 0.52916,0 v 0 m 0.45861,0 v 0 m 0.56445,0 v 0 m 0.42333,0 v 0 m 0.56445,0 v 0 m 0.45861,0 v 0 m 0.45861,0 v 0 m -10.40695,0 v 0 m 0.49389,0 v 0 m -0.67027,0.21166 v 0 m 0,0.21167 v 0 m 2.11666,-0.49389 v 0 m -0.45861,0 v 0 m 1.44639,0 v 0 m -0.45861,0 v 0 m 1.48166,0 v 0 m -0.45861,0 v 0 m 1.44639,0 v 0 m -0.45861,0 v 0 m 1.44639,0 v 0 m -0.42333,0 v 0 m 1.44639,0 v 0 m -0.45862,0 v 0 m 1.44639,0 v 0 m -0.45861,0 v 0 m 1.44639,0 v 0 m -0.42333,0 v 0 m 1.44639,0 v 0 m -0.45861,0 v 0 m -8.53723,0 v 0 m -0.45861,0 v 0 m -10.19527,3.56306 v 0 m -1.37584,-0.17639 v 0 m 1.76389,0 v 0 m -4.02167,-10.08945 v 0 m -3.91583,8.60778 v 0 m 0,1.05834 v 0 m 1.12889,-1.62278 v 0 m 0,-2.29306 v 0 m 0,1.09361 v 0 m 0,1.76389 v 0 m 2.78694,-2.8575 v 0 m 0,1.09361 v 0 m -4.48027,1.94028 v 0 m -0.14111,-0.28222 v 0 m -9.59556,0.14111 v 0 m 0,-0.24694 v 0 m 0,1.79916 v 0 m 15.02833,22.93056 v 0 m -0.24694,0.10583 v 0 m 0.35278,-2.08139 v 0 m 0,0 v 0 m -0.28223,-0.0705 v 0 m 0,0 v 0 m 0.88195,0.0353 v 0 m 11.07722,-0.0353 v 0 m -0.59972,0.0353 v 0 m 0,0 v 0"
       style="fill:none;stroke:#000000;stroke-width:0.179917;stroke-linecap:round;stroke-linejoin:round;stroke-miterlimit:10;stroke-dasharray:none;stroke-opacity:1" />
    <ellipse
       style="font-variation-settings:normal;vector-effect:none;fill:none;fill-opacity:1;stroke:#005cd8;stroke-width:1.05833;stroke-linecap:butt;stroke-linejoin:miter;stroke-miterlimit:4;stroke-dasharray:none;stroke-dashoffset:0;stroke-opacity:1;-inkscape-stroke:none;stop-color:#000000"
       id="circle16"
       cx="188.41241"
       cy="127.68126"
       rx="20.949106"
       ry="11.484387" />
  </g>
</svg>
